G04 #@! TF.GenerationSoftware,KiCad,Pcbnew,(5.1.4)-1*
G04 #@! TF.CreationDate,2019-10-08T20:05:42+02:00*
G04 #@! TF.ProjectId,weather,77656174-6865-4722-9e6b-696361645f70,rev?*
G04 #@! TF.SameCoordinates,Original*
G04 #@! TF.FileFunction,Copper,L2,Bot*
G04 #@! TF.FilePolarity,Positive*
%FSLAX46Y46*%
G04 Gerber Fmt 4.6, Leading zero omitted, Abs format (unit mm)*
G04 Created by KiCad (PCBNEW (5.1.4)-1) date 2019-10-08 20:05:42*
%MOMM*%
%LPD*%
G04 APERTURE LIST*
%ADD10O,1.700000X1.700000*%
%ADD11R,1.700000X1.700000*%
%ADD12C,1.500000*%
%ADD13O,2.000000X1.600000*%
%ADD14R,2.000000X2.000000*%
%ADD15R,3.500000X3.500000*%
%ADD16C,3.500000*%
%ADD17R,1.500000X1.500000*%
%ADD18R,2.800000X2.800000*%
%ADD19O,1.980000X3.960000*%
%ADD20R,1.980000X3.960000*%
%ADD21O,1.400000X1.400000*%
%ADD22C,1.400000*%
%ADD23C,0.800000*%
%ADD24C,1.000000*%
%ADD25C,0.250000*%
%ADD26C,0.500000*%
%ADD27C,0.254000*%
G04 APERTURE END LIST*
D10*
X154940000Y-81280000D03*
X154940000Y-78740000D03*
X154940000Y-76200000D03*
X154940000Y-73660000D03*
X154940000Y-71120000D03*
D11*
X154940000Y-68580000D03*
D10*
X156210000Y-120650000D03*
X156210000Y-118110000D03*
X156210000Y-115570000D03*
X156210000Y-113030000D03*
X156210000Y-110490000D03*
D11*
X156210000Y-107950000D03*
D12*
X154940000Y-96520000D03*
X154940000Y-93980000D03*
X154940000Y-91440000D03*
X154940000Y-88900000D03*
D10*
X120650000Y-93980000D03*
D11*
X120650000Y-91440000D03*
D10*
X121920000Y-134620000D03*
X124460000Y-134620000D03*
D11*
X127000000Y-134620000D03*
D13*
X148590000Y-87630000D03*
X148590000Y-90170000D03*
X148590000Y-92710000D03*
X148590000Y-95250000D03*
X148590000Y-97790000D03*
X148590000Y-100330000D03*
X148590000Y-102870000D03*
X148590000Y-105410000D03*
X125730000Y-105410000D03*
X125730000Y-102870000D03*
X125730000Y-100330000D03*
X125730000Y-97790000D03*
X125730000Y-95250000D03*
X125730000Y-92710000D03*
D14*
X125730000Y-87630000D03*
D13*
X125730000Y-90170000D03*
D15*
X107950000Y-62230000D03*
D16*
X107950000Y-134230000D03*
D12*
X153670000Y-134620000D03*
X153670000Y-132080000D03*
X153670000Y-129540000D03*
D17*
X153670000Y-127000000D03*
D18*
X147790000Y-71220000D03*
X147790000Y-63620000D03*
X147790000Y-74620000D03*
X147790000Y-60120000D03*
X124890000Y-74320000D03*
X124890000Y-60120000D03*
D19*
X133430000Y-130810000D03*
D20*
X138430000Y-130810000D03*
D21*
X120650000Y-87630000D03*
D22*
X120650000Y-82550000D03*
D23*
X132080000Y-120650000D03*
X138430000Y-116840000D03*
X119380000Y-71120000D03*
X143510000Y-101600000D03*
X142240000Y-97790000D03*
X142240000Y-111760000D03*
X139700000Y-107950000D03*
X138430000Y-97790000D03*
D24*
X134620000Y-68200000D02*
X134620000Y-129620000D01*
X124890000Y-60120000D02*
X126540000Y-60120000D01*
X126540000Y-60120000D02*
X134620000Y-68200000D01*
X132080000Y-80010000D02*
X132080000Y-120650000D01*
X134620000Y-129620000D02*
X133430000Y-130810000D01*
D25*
X132080000Y-79860000D02*
X132080000Y-80010000D01*
D24*
X126540000Y-74320000D02*
X132080000Y-79860000D01*
X124890000Y-74320000D02*
X126540000Y-74320000D01*
D26*
X146140000Y-60120000D02*
X140970000Y-65290000D01*
X140970000Y-65290000D02*
X140970000Y-114300000D01*
X140970000Y-114300000D02*
X138430000Y-116840000D01*
D25*
X107560000Y-62620000D02*
X107950000Y-62230000D01*
X107560000Y-134620000D02*
X107950000Y-134230000D01*
D24*
X111760000Y-130420000D02*
X107950000Y-134230000D01*
X111760000Y-72390000D02*
X111760000Y-130420000D01*
X112930000Y-71220000D02*
X111760000Y-72390000D01*
X119280000Y-71220000D02*
X119380000Y-71120000D01*
X112930000Y-71220000D02*
X119280000Y-71220000D01*
D26*
X146140000Y-60120000D02*
X147790000Y-60120000D01*
D25*
X125730000Y-87630000D02*
X124460000Y-87630000D01*
X124460000Y-87630000D02*
X120650000Y-91440000D01*
X120650000Y-93980000D02*
X121920000Y-93980000D01*
X123190000Y-92710000D02*
X125730000Y-92710000D01*
X121920000Y-93980000D02*
X123190000Y-92710000D01*
X152400000Y-96520000D02*
X154940000Y-93980000D01*
X152400000Y-97790000D02*
X152400000Y-96520000D01*
X143510000Y-106680000D02*
X144780000Y-107950000D01*
X143510000Y-101600000D02*
X143510000Y-106680000D01*
X144780000Y-107950000D02*
X152400000Y-107950000D01*
X152400000Y-107950000D02*
X153670000Y-106680000D01*
X153670000Y-106680000D02*
X153670000Y-99060000D01*
X153670000Y-99060000D02*
X152400000Y-97790000D01*
X146050000Y-105410000D02*
X148590000Y-105410000D01*
X144780000Y-104140000D02*
X146050000Y-105410000D01*
X144780000Y-69850000D02*
X144780000Y-104140000D01*
X154940000Y-68580000D02*
X146050000Y-68580000D01*
X146050000Y-68580000D02*
X144780000Y-69850000D01*
X156210000Y-113030000D02*
X147320000Y-113030000D01*
X147320000Y-113030000D02*
X143510000Y-109220000D01*
X143510000Y-109220000D02*
X142240000Y-107950000D01*
X142240000Y-107950000D02*
X142240000Y-99060000D01*
X142240000Y-99060000D02*
X142240000Y-97790000D01*
X156210000Y-115570000D02*
X143510000Y-115570000D01*
X143510000Y-115570000D02*
X142240000Y-114300000D01*
X142240000Y-114300000D02*
X142240000Y-111760000D01*
X139700000Y-107950000D02*
X139700000Y-99060000D01*
X139700000Y-99060000D02*
X138430000Y-97790000D01*
D27*
G36*
X158090000Y-137770000D02*
G01*
X97180000Y-137770000D01*
X97180000Y-133995098D01*
X105565000Y-133995098D01*
X105565000Y-134464902D01*
X105656654Y-134925679D01*
X105836440Y-135359721D01*
X106097450Y-135750349D01*
X106429651Y-136082550D01*
X106820279Y-136343560D01*
X107254321Y-136523346D01*
X107715098Y-136615000D01*
X108184902Y-136615000D01*
X108645679Y-136523346D01*
X109079721Y-136343560D01*
X109470349Y-136082550D01*
X109802550Y-135750349D01*
X110063560Y-135359721D01*
X110243346Y-134925679D01*
X110304149Y-134620000D01*
X120427815Y-134620000D01*
X120456487Y-134911111D01*
X120541401Y-135191034D01*
X120679294Y-135449014D01*
X120864866Y-135675134D01*
X121090986Y-135860706D01*
X121348966Y-135998599D01*
X121628889Y-136083513D01*
X121847050Y-136105000D01*
X121992950Y-136105000D01*
X122211111Y-136083513D01*
X122491034Y-135998599D01*
X122749014Y-135860706D01*
X122975134Y-135675134D01*
X123160706Y-135449014D01*
X123190000Y-135394209D01*
X123219294Y-135449014D01*
X123404866Y-135675134D01*
X123630986Y-135860706D01*
X123888966Y-135998599D01*
X124168889Y-136083513D01*
X124387050Y-136105000D01*
X124532950Y-136105000D01*
X124751111Y-136083513D01*
X125031034Y-135998599D01*
X125289014Y-135860706D01*
X125515134Y-135675134D01*
X125539607Y-135645313D01*
X125560498Y-135714180D01*
X125619463Y-135824494D01*
X125698815Y-135921185D01*
X125795506Y-136000537D01*
X125905820Y-136059502D01*
X126025518Y-136095812D01*
X126150000Y-136108072D01*
X127850000Y-136108072D01*
X127974482Y-136095812D01*
X128094180Y-136059502D01*
X128204494Y-136000537D01*
X128301185Y-135921185D01*
X128380537Y-135824494D01*
X128439502Y-135714180D01*
X128475812Y-135594482D01*
X128488072Y-135470000D01*
X128488072Y-133770000D01*
X128475812Y-133645518D01*
X128439502Y-133525820D01*
X128380537Y-133415506D01*
X128301185Y-133318815D01*
X128204494Y-133239463D01*
X128094180Y-133180498D01*
X127974482Y-133144188D01*
X127850000Y-133131928D01*
X126150000Y-133131928D01*
X126025518Y-133144188D01*
X125905820Y-133180498D01*
X125795506Y-133239463D01*
X125698815Y-133318815D01*
X125619463Y-133415506D01*
X125560498Y-133525820D01*
X125539607Y-133594687D01*
X125515134Y-133564866D01*
X125289014Y-133379294D01*
X125031034Y-133241401D01*
X124751111Y-133156487D01*
X124532950Y-133135000D01*
X124387050Y-133135000D01*
X124168889Y-133156487D01*
X123888966Y-133241401D01*
X123630986Y-133379294D01*
X123404866Y-133564866D01*
X123219294Y-133790986D01*
X123190000Y-133845791D01*
X123160706Y-133790986D01*
X122975134Y-133564866D01*
X122749014Y-133379294D01*
X122491034Y-133241401D01*
X122211111Y-133156487D01*
X121992950Y-133135000D01*
X121847050Y-133135000D01*
X121628889Y-133156487D01*
X121348966Y-133241401D01*
X121090986Y-133379294D01*
X120864866Y-133564866D01*
X120679294Y-133790986D01*
X120541401Y-134048966D01*
X120456487Y-134328889D01*
X120427815Y-134620000D01*
X110304149Y-134620000D01*
X110335000Y-134464902D01*
X110335000Y-133995098D01*
X110244584Y-133540547D01*
X112523146Y-131261987D01*
X112566449Y-131226449D01*
X112708284Y-131053623D01*
X112813676Y-130856447D01*
X112878577Y-130642499D01*
X112895000Y-130475752D01*
X112900491Y-130420000D01*
X112895000Y-130364248D01*
X112895000Y-93980000D01*
X119157815Y-93980000D01*
X119186487Y-94271111D01*
X119271401Y-94551034D01*
X119409294Y-94809014D01*
X119594866Y-95035134D01*
X119820986Y-95220706D01*
X120078966Y-95358599D01*
X120358889Y-95443513D01*
X120577050Y-95465000D01*
X120722950Y-95465000D01*
X120941111Y-95443513D01*
X121221034Y-95358599D01*
X121479014Y-95220706D01*
X121705134Y-95035134D01*
X121890706Y-94809014D01*
X121925943Y-94743091D01*
X121957322Y-94740000D01*
X121957333Y-94740000D01*
X122068986Y-94729003D01*
X122212247Y-94685546D01*
X122344276Y-94614974D01*
X122460001Y-94520001D01*
X122483804Y-94490997D01*
X123504802Y-93470000D01*
X124309099Y-93470000D01*
X124331068Y-93511101D01*
X124510392Y-93729608D01*
X124728899Y-93908932D01*
X124861858Y-93980000D01*
X124728899Y-94051068D01*
X124510392Y-94230392D01*
X124331068Y-94448899D01*
X124197818Y-94698192D01*
X124115764Y-94968691D01*
X124088057Y-95250000D01*
X124115764Y-95531309D01*
X124197818Y-95801808D01*
X124331068Y-96051101D01*
X124510392Y-96269608D01*
X124728899Y-96448932D01*
X124861858Y-96520000D01*
X124728899Y-96591068D01*
X124510392Y-96770392D01*
X124331068Y-96988899D01*
X124197818Y-97238192D01*
X124115764Y-97508691D01*
X124088057Y-97790000D01*
X124115764Y-98071309D01*
X124197818Y-98341808D01*
X124331068Y-98591101D01*
X124510392Y-98809608D01*
X124728899Y-98988932D01*
X124861858Y-99060000D01*
X124728899Y-99131068D01*
X124510392Y-99310392D01*
X124331068Y-99528899D01*
X124197818Y-99778192D01*
X124115764Y-100048691D01*
X124088057Y-100330000D01*
X124115764Y-100611309D01*
X124197818Y-100881808D01*
X124331068Y-101131101D01*
X124510392Y-101349608D01*
X124728899Y-101528932D01*
X124861858Y-101600000D01*
X124728899Y-101671068D01*
X124510392Y-101850392D01*
X124331068Y-102068899D01*
X124197818Y-102318192D01*
X124115764Y-102588691D01*
X124088057Y-102870000D01*
X124115764Y-103151309D01*
X124197818Y-103421808D01*
X124331068Y-103671101D01*
X124510392Y-103889608D01*
X124728899Y-104068932D01*
X124861858Y-104140000D01*
X124728899Y-104211068D01*
X124510392Y-104390392D01*
X124331068Y-104608899D01*
X124197818Y-104858192D01*
X124115764Y-105128691D01*
X124088057Y-105410000D01*
X124115764Y-105691309D01*
X124197818Y-105961808D01*
X124331068Y-106211101D01*
X124510392Y-106429608D01*
X124728899Y-106608932D01*
X124978192Y-106742182D01*
X125248691Y-106824236D01*
X125459508Y-106845000D01*
X126000492Y-106845000D01*
X126211309Y-106824236D01*
X126481808Y-106742182D01*
X126731101Y-106608932D01*
X126949608Y-106429608D01*
X127128932Y-106211101D01*
X127262182Y-105961808D01*
X127344236Y-105691309D01*
X127371943Y-105410000D01*
X127344236Y-105128691D01*
X127262182Y-104858192D01*
X127128932Y-104608899D01*
X126949608Y-104390392D01*
X126731101Y-104211068D01*
X126598142Y-104140000D01*
X126731101Y-104068932D01*
X126949608Y-103889608D01*
X127128932Y-103671101D01*
X127262182Y-103421808D01*
X127344236Y-103151309D01*
X127371943Y-102870000D01*
X127344236Y-102588691D01*
X127262182Y-102318192D01*
X127128932Y-102068899D01*
X126949608Y-101850392D01*
X126731101Y-101671068D01*
X126598142Y-101600000D01*
X126731101Y-101528932D01*
X126949608Y-101349608D01*
X127128932Y-101131101D01*
X127262182Y-100881808D01*
X127344236Y-100611309D01*
X127371943Y-100330000D01*
X127344236Y-100048691D01*
X127262182Y-99778192D01*
X127128932Y-99528899D01*
X126949608Y-99310392D01*
X126731101Y-99131068D01*
X126598142Y-99060000D01*
X126731101Y-98988932D01*
X126949608Y-98809608D01*
X127128932Y-98591101D01*
X127262182Y-98341808D01*
X127344236Y-98071309D01*
X127371943Y-97790000D01*
X127344236Y-97508691D01*
X127262182Y-97238192D01*
X127128932Y-96988899D01*
X126949608Y-96770392D01*
X126731101Y-96591068D01*
X126598142Y-96520000D01*
X126731101Y-96448932D01*
X126949608Y-96269608D01*
X127128932Y-96051101D01*
X127262182Y-95801808D01*
X127344236Y-95531309D01*
X127371943Y-95250000D01*
X127344236Y-94968691D01*
X127262182Y-94698192D01*
X127128932Y-94448899D01*
X126949608Y-94230392D01*
X126731101Y-94051068D01*
X126598142Y-93980000D01*
X126731101Y-93908932D01*
X126949608Y-93729608D01*
X127128932Y-93511101D01*
X127262182Y-93261808D01*
X127344236Y-92991309D01*
X127371943Y-92710000D01*
X127344236Y-92428691D01*
X127262182Y-92158192D01*
X127128932Y-91908899D01*
X126949608Y-91690392D01*
X126731101Y-91511068D01*
X126598142Y-91440000D01*
X126731101Y-91368932D01*
X126949608Y-91189608D01*
X127128932Y-90971101D01*
X127262182Y-90721808D01*
X127344236Y-90451309D01*
X127371943Y-90170000D01*
X127344236Y-89888691D01*
X127262182Y-89618192D01*
X127128932Y-89368899D01*
X126996524Y-89207559D01*
X127084494Y-89160537D01*
X127181185Y-89081185D01*
X127260537Y-88984494D01*
X127319502Y-88874180D01*
X127355812Y-88754482D01*
X127368072Y-88630000D01*
X127368072Y-86630000D01*
X127355812Y-86505518D01*
X127319502Y-86385820D01*
X127260537Y-86275506D01*
X127181185Y-86178815D01*
X127084494Y-86099463D01*
X126974180Y-86040498D01*
X126854482Y-86004188D01*
X126730000Y-85991928D01*
X124730000Y-85991928D01*
X124605518Y-86004188D01*
X124485820Y-86040498D01*
X124375506Y-86099463D01*
X124278815Y-86178815D01*
X124199463Y-86275506D01*
X124140498Y-86385820D01*
X124104188Y-86505518D01*
X124091928Y-86630000D01*
X124091928Y-86964984D01*
X124035724Y-86995026D01*
X123919999Y-87089999D01*
X123896201Y-87118997D01*
X121063271Y-89951928D01*
X119800000Y-89951928D01*
X119675518Y-89964188D01*
X119555820Y-90000498D01*
X119445506Y-90059463D01*
X119348815Y-90138815D01*
X119269463Y-90235506D01*
X119210498Y-90345820D01*
X119174188Y-90465518D01*
X119161928Y-90590000D01*
X119161928Y-92290000D01*
X119174188Y-92414482D01*
X119210498Y-92534180D01*
X119269463Y-92644494D01*
X119348815Y-92741185D01*
X119445506Y-92820537D01*
X119555820Y-92879502D01*
X119624687Y-92900393D01*
X119594866Y-92924866D01*
X119409294Y-93150986D01*
X119271401Y-93408966D01*
X119186487Y-93688889D01*
X119157815Y-93980000D01*
X112895000Y-93980000D01*
X112895000Y-87630000D01*
X119308541Y-87630000D01*
X119334317Y-87891706D01*
X119410653Y-88143354D01*
X119534618Y-88375275D01*
X119701445Y-88578555D01*
X119904725Y-88745382D01*
X120136646Y-88869347D01*
X120388294Y-88945683D01*
X120584421Y-88965000D01*
X120715579Y-88965000D01*
X120911706Y-88945683D01*
X121163354Y-88869347D01*
X121395275Y-88745382D01*
X121598555Y-88578555D01*
X121765382Y-88375275D01*
X121889347Y-88143354D01*
X121965683Y-87891706D01*
X121991459Y-87630000D01*
X121965683Y-87368294D01*
X121889347Y-87116646D01*
X121765382Y-86884725D01*
X121598555Y-86681445D01*
X121395275Y-86514618D01*
X121163354Y-86390653D01*
X120911706Y-86314317D01*
X120715579Y-86295000D01*
X120584421Y-86295000D01*
X120388294Y-86314317D01*
X120136646Y-86390653D01*
X119904725Y-86514618D01*
X119701445Y-86681445D01*
X119534618Y-86884725D01*
X119410653Y-87116646D01*
X119334317Y-87368294D01*
X119308541Y-87630000D01*
X112895000Y-87630000D01*
X112895000Y-82418514D01*
X119315000Y-82418514D01*
X119315000Y-82681486D01*
X119366304Y-82939405D01*
X119466939Y-83182359D01*
X119613038Y-83401013D01*
X119798987Y-83586962D01*
X120017641Y-83733061D01*
X120260595Y-83833696D01*
X120518514Y-83885000D01*
X120781486Y-83885000D01*
X121039405Y-83833696D01*
X121282359Y-83733061D01*
X121501013Y-83586962D01*
X121686962Y-83401013D01*
X121833061Y-83182359D01*
X121933696Y-82939405D01*
X121985000Y-82681486D01*
X121985000Y-82418514D01*
X121933696Y-82160595D01*
X121833061Y-81917641D01*
X121686962Y-81698987D01*
X121501013Y-81513038D01*
X121282359Y-81366939D01*
X121039405Y-81266304D01*
X120781486Y-81215000D01*
X120518514Y-81215000D01*
X120260595Y-81266304D01*
X120017641Y-81366939D01*
X119798987Y-81513038D01*
X119613038Y-81698987D01*
X119466939Y-81917641D01*
X119366304Y-82160595D01*
X119315000Y-82418514D01*
X112895000Y-82418514D01*
X112895000Y-72920000D01*
X122851928Y-72920000D01*
X122851928Y-75720000D01*
X122864188Y-75844482D01*
X122900498Y-75964180D01*
X122959463Y-76074494D01*
X123038815Y-76171185D01*
X123135506Y-76250537D01*
X123245820Y-76309502D01*
X123365518Y-76345812D01*
X123490000Y-76358072D01*
X126290000Y-76358072D01*
X126414482Y-76345812D01*
X126534180Y-76309502D01*
X126644494Y-76250537D01*
X126741185Y-76171185D01*
X126761410Y-76146541D01*
X130945000Y-80330132D01*
X130945001Y-120705752D01*
X130961424Y-120872499D01*
X131026325Y-121086447D01*
X131131717Y-121283623D01*
X131273552Y-121456449D01*
X131446378Y-121598284D01*
X131643554Y-121703676D01*
X131857502Y-121768577D01*
X132080000Y-121790491D01*
X132302499Y-121768577D01*
X132516447Y-121703676D01*
X132713623Y-121598284D01*
X132886449Y-121456449D01*
X133028284Y-121283623D01*
X133133676Y-121086447D01*
X133198577Y-120872499D01*
X133215000Y-120705752D01*
X133215000Y-79954248D01*
X133213104Y-79934999D01*
X133220491Y-79859999D01*
X133198577Y-79637500D01*
X133133675Y-79423553D01*
X133028283Y-79226377D01*
X132921988Y-79096856D01*
X127381996Y-73556865D01*
X127346449Y-73513551D01*
X127173623Y-73371716D01*
X126976447Y-73266324D01*
X126928072Y-73251649D01*
X126928072Y-72920000D01*
X126915812Y-72795518D01*
X126879502Y-72675820D01*
X126820537Y-72565506D01*
X126741185Y-72468815D01*
X126644494Y-72389463D01*
X126534180Y-72330498D01*
X126414482Y-72294188D01*
X126290000Y-72281928D01*
X123490000Y-72281928D01*
X123365518Y-72294188D01*
X123245820Y-72330498D01*
X123135506Y-72389463D01*
X123038815Y-72468815D01*
X122959463Y-72565506D01*
X122900498Y-72675820D01*
X122864188Y-72795518D01*
X122851928Y-72920000D01*
X112895000Y-72920000D01*
X112895000Y-72860131D01*
X113400132Y-72355000D01*
X119224249Y-72355000D01*
X119280000Y-72360491D01*
X119335751Y-72355000D01*
X119335752Y-72355000D01*
X119502499Y-72338577D01*
X119716447Y-72273676D01*
X119913623Y-72168284D01*
X120086449Y-72026449D01*
X120121996Y-71983135D01*
X120221988Y-71883143D01*
X120328283Y-71753623D01*
X120433675Y-71556447D01*
X120498576Y-71342499D01*
X120520490Y-71120001D01*
X120498576Y-70897502D01*
X120433675Y-70683554D01*
X120328283Y-70486378D01*
X120186448Y-70313552D01*
X120013622Y-70171717D01*
X119816446Y-70066325D01*
X119602498Y-70001424D01*
X119379999Y-69979510D01*
X119157501Y-70001424D01*
X118943553Y-70066325D01*
X118908614Y-70085000D01*
X112985752Y-70085000D01*
X112930000Y-70079509D01*
X112874248Y-70085000D01*
X112707501Y-70101423D01*
X112493553Y-70166324D01*
X112296377Y-70271716D01*
X112123551Y-70413551D01*
X112088011Y-70456857D01*
X110996864Y-71548004D01*
X110953551Y-71583551D01*
X110811716Y-71756377D01*
X110716953Y-71933669D01*
X110706324Y-71953554D01*
X110641423Y-72167502D01*
X110619509Y-72390000D01*
X110625000Y-72445751D01*
X110625001Y-129949866D01*
X108639453Y-131935416D01*
X108184902Y-131845000D01*
X107715098Y-131845000D01*
X107254321Y-131936654D01*
X106820279Y-132116440D01*
X106429651Y-132377450D01*
X106097450Y-132709651D01*
X105836440Y-133100279D01*
X105656654Y-133534321D01*
X105565000Y-133995098D01*
X97180000Y-133995098D01*
X97180000Y-126264872D01*
X105715000Y-126264872D01*
X105715000Y-126705128D01*
X105800890Y-127136925D01*
X105969369Y-127543669D01*
X106213962Y-127909729D01*
X106525271Y-128221038D01*
X106891331Y-128465631D01*
X107298075Y-128634110D01*
X107729872Y-128720000D01*
X108170128Y-128720000D01*
X108601925Y-128634110D01*
X109008669Y-128465631D01*
X109374729Y-128221038D01*
X109686038Y-127909729D01*
X109930631Y-127543669D01*
X110099110Y-127136925D01*
X110185000Y-126705128D01*
X110185000Y-126264872D01*
X110099110Y-125833075D01*
X109930631Y-125426331D01*
X109686038Y-125060271D01*
X109374729Y-124748962D01*
X109008669Y-124504369D01*
X108601925Y-124335890D01*
X108170128Y-124250000D01*
X107729872Y-124250000D01*
X107298075Y-124335890D01*
X106891331Y-124504369D01*
X106525271Y-124748962D01*
X106213962Y-125060271D01*
X105969369Y-125426331D01*
X105800890Y-125833075D01*
X105715000Y-126264872D01*
X97180000Y-126264872D01*
X97180000Y-70654872D01*
X105715000Y-70654872D01*
X105715000Y-71095128D01*
X105800890Y-71526925D01*
X105969369Y-71933669D01*
X106213962Y-72299729D01*
X106525271Y-72611038D01*
X106891331Y-72855631D01*
X107298075Y-73024110D01*
X107729872Y-73110000D01*
X108170128Y-73110000D01*
X108601925Y-73024110D01*
X109008669Y-72855631D01*
X109374729Y-72611038D01*
X109686038Y-72299729D01*
X109930631Y-71933669D01*
X110099110Y-71526925D01*
X110185000Y-71095128D01*
X110185000Y-70654872D01*
X110099110Y-70223075D01*
X109930631Y-69816331D01*
X109686038Y-69450271D01*
X109374729Y-69138962D01*
X109008669Y-68894369D01*
X108601925Y-68725890D01*
X108170128Y-68640000D01*
X107729872Y-68640000D01*
X107298075Y-68725890D01*
X106891331Y-68894369D01*
X106525271Y-69138962D01*
X106213962Y-69450271D01*
X105969369Y-69816331D01*
X105800890Y-70223075D01*
X105715000Y-70654872D01*
X97180000Y-70654872D01*
X97180000Y-60480000D01*
X105561928Y-60480000D01*
X105561928Y-63980000D01*
X105574188Y-64104482D01*
X105610498Y-64224180D01*
X105669463Y-64334494D01*
X105748815Y-64431185D01*
X105845506Y-64510537D01*
X105955820Y-64569502D01*
X106075518Y-64605812D01*
X106200000Y-64618072D01*
X109700000Y-64618072D01*
X109824482Y-64605812D01*
X109944180Y-64569502D01*
X110054494Y-64510537D01*
X110151185Y-64431185D01*
X110230537Y-64334494D01*
X110289502Y-64224180D01*
X110325812Y-64104482D01*
X110338072Y-63980000D01*
X110338072Y-60480000D01*
X110325812Y-60355518D01*
X110289502Y-60235820D01*
X110230537Y-60125506D01*
X110151185Y-60028815D01*
X110054494Y-59949463D01*
X109944180Y-59890498D01*
X109824482Y-59854188D01*
X109700000Y-59841928D01*
X106200000Y-59841928D01*
X106075518Y-59854188D01*
X105955820Y-59890498D01*
X105845506Y-59949463D01*
X105748815Y-60028815D01*
X105669463Y-60125506D01*
X105610498Y-60235820D01*
X105574188Y-60355518D01*
X105561928Y-60480000D01*
X97180000Y-60480000D01*
X97180000Y-58720000D01*
X122851928Y-58720000D01*
X122851928Y-61520000D01*
X122864188Y-61644482D01*
X122900498Y-61764180D01*
X122959463Y-61874494D01*
X123038815Y-61971185D01*
X123135506Y-62050537D01*
X123245820Y-62109502D01*
X123365518Y-62145812D01*
X123490000Y-62158072D01*
X126290000Y-62158072D01*
X126414482Y-62145812D01*
X126534180Y-62109502D01*
X126644494Y-62050537D01*
X126741185Y-61971185D01*
X126761410Y-61946541D01*
X133485000Y-68670133D01*
X133485001Y-128192555D01*
X133430000Y-128187138D01*
X133111445Y-128218513D01*
X132805132Y-128311432D01*
X132522831Y-128462325D01*
X132275393Y-128665392D01*
X132072326Y-128912830D01*
X131921433Y-129195131D01*
X131828514Y-129501444D01*
X131805001Y-129740176D01*
X131805000Y-131879823D01*
X131828513Y-132118555D01*
X131921432Y-132424868D01*
X132072325Y-132707169D01*
X132275392Y-132954608D01*
X132522830Y-133157675D01*
X132805131Y-133308568D01*
X133111444Y-133401487D01*
X133430000Y-133432862D01*
X133748555Y-133401487D01*
X134054868Y-133308568D01*
X134337169Y-133157675D01*
X134584608Y-132954608D01*
X134787675Y-132707170D01*
X134938568Y-132424869D01*
X135031487Y-132118556D01*
X135055000Y-131879824D01*
X135055000Y-130790132D01*
X135383140Y-130461992D01*
X135426449Y-130426449D01*
X135568284Y-130253623D01*
X135673676Y-130056447D01*
X135738577Y-129842499D01*
X135744105Y-129786377D01*
X135760491Y-129620001D01*
X135755000Y-129564249D01*
X135755000Y-128830000D01*
X136801928Y-128830000D01*
X136801928Y-132790000D01*
X136814188Y-132914482D01*
X136850498Y-133034180D01*
X136909463Y-133144494D01*
X136988815Y-133241185D01*
X137085506Y-133320537D01*
X137195820Y-133379502D01*
X137315518Y-133415812D01*
X137440000Y-133428072D01*
X139420000Y-133428072D01*
X139544482Y-133415812D01*
X139664180Y-133379502D01*
X139774494Y-133320537D01*
X139871185Y-133241185D01*
X139922122Y-133179117D01*
X144315000Y-133179117D01*
X144315000Y-133520883D01*
X144381675Y-133856081D01*
X144512463Y-134171831D01*
X144702337Y-134455998D01*
X144944002Y-134697663D01*
X145228169Y-134887537D01*
X145543919Y-135018325D01*
X145879117Y-135085000D01*
X146220883Y-135085000D01*
X146556081Y-135018325D01*
X146871831Y-134887537D01*
X147155998Y-134697663D01*
X147397663Y-134455998D01*
X147587537Y-134171831D01*
X147718325Y-133856081D01*
X147785000Y-133520883D01*
X147785000Y-133179117D01*
X147718325Y-132843919D01*
X147587537Y-132528169D01*
X147397663Y-132244002D01*
X147155998Y-132002337D01*
X147068076Y-131943589D01*
X152285000Y-131943589D01*
X152285000Y-132216411D01*
X152338225Y-132483989D01*
X152442629Y-132736043D01*
X152594201Y-132962886D01*
X152787114Y-133155799D01*
X153013957Y-133307371D01*
X153116873Y-133350000D01*
X153013957Y-133392629D01*
X152787114Y-133544201D01*
X152594201Y-133737114D01*
X152442629Y-133963957D01*
X152338225Y-134216011D01*
X152285000Y-134483589D01*
X152285000Y-134756411D01*
X152338225Y-135023989D01*
X152442629Y-135276043D01*
X152594201Y-135502886D01*
X152787114Y-135695799D01*
X153013957Y-135847371D01*
X153266011Y-135951775D01*
X153533589Y-136005000D01*
X153806411Y-136005000D01*
X154073989Y-135951775D01*
X154326043Y-135847371D01*
X154552886Y-135695799D01*
X154745799Y-135502886D01*
X154897371Y-135276043D01*
X155001775Y-135023989D01*
X155055000Y-134756411D01*
X155055000Y-134483589D01*
X155001775Y-134216011D01*
X154897371Y-133963957D01*
X154745799Y-133737114D01*
X154552886Y-133544201D01*
X154326043Y-133392629D01*
X154223127Y-133350000D01*
X154326043Y-133307371D01*
X154552886Y-133155799D01*
X154745799Y-132962886D01*
X154897371Y-132736043D01*
X155001775Y-132483989D01*
X155055000Y-132216411D01*
X155055000Y-131943589D01*
X155001775Y-131676011D01*
X154897371Y-131423957D01*
X154745799Y-131197114D01*
X154552886Y-131004201D01*
X154326043Y-130852629D01*
X154226721Y-130811489D01*
X154268832Y-130796277D01*
X154381863Y-130735860D01*
X154447388Y-130496993D01*
X153670000Y-129719605D01*
X152892612Y-130496993D01*
X152958137Y-130735860D01*
X153116477Y-130810164D01*
X153013957Y-130852629D01*
X152787114Y-131004201D01*
X152594201Y-131197114D01*
X152442629Y-131423957D01*
X152338225Y-131676011D01*
X152285000Y-131943589D01*
X147068076Y-131943589D01*
X146871831Y-131812463D01*
X146556081Y-131681675D01*
X146220883Y-131615000D01*
X145879117Y-131615000D01*
X145543919Y-131681675D01*
X145228169Y-131812463D01*
X144944002Y-132002337D01*
X144702337Y-132244002D01*
X144512463Y-132528169D01*
X144381675Y-132843919D01*
X144315000Y-133179117D01*
X139922122Y-133179117D01*
X139950537Y-133144494D01*
X140009502Y-133034180D01*
X140045812Y-132914482D01*
X140058072Y-132790000D01*
X140058072Y-129612492D01*
X152280188Y-129612492D01*
X152321035Y-129882238D01*
X152413723Y-130138832D01*
X152474140Y-130251863D01*
X152713007Y-130317388D01*
X153490395Y-129540000D01*
X153849605Y-129540000D01*
X154626993Y-130317388D01*
X154865860Y-130251863D01*
X154981760Y-130004884D01*
X155047250Y-129740040D01*
X155059812Y-129467508D01*
X155018965Y-129197762D01*
X154926277Y-128941168D01*
X154865860Y-128828137D01*
X154626993Y-128762612D01*
X153849605Y-129540000D01*
X153490395Y-129540000D01*
X152713007Y-128762612D01*
X152474140Y-128828137D01*
X152358240Y-129075116D01*
X152292750Y-129339960D01*
X152280188Y-129612492D01*
X140058072Y-129612492D01*
X140058072Y-128830000D01*
X140045812Y-128705518D01*
X140009502Y-128585820D01*
X139950537Y-128475506D01*
X139871185Y-128378815D01*
X139774494Y-128299463D01*
X139664180Y-128240498D01*
X139544482Y-128204188D01*
X139420000Y-128191928D01*
X137440000Y-128191928D01*
X137315518Y-128204188D01*
X137195820Y-128240498D01*
X137085506Y-128299463D01*
X136988815Y-128378815D01*
X136909463Y-128475506D01*
X136850498Y-128585820D01*
X136814188Y-128705518D01*
X136801928Y-128830000D01*
X135755000Y-128830000D01*
X135755000Y-126250000D01*
X152281928Y-126250000D01*
X152281928Y-127750000D01*
X152294188Y-127874482D01*
X152330498Y-127994180D01*
X152389463Y-128104494D01*
X152468815Y-128201185D01*
X152565506Y-128280537D01*
X152675820Y-128339502D01*
X152795518Y-128375812D01*
X152920000Y-128388072D01*
X152946086Y-128388072D01*
X152892612Y-128583007D01*
X153670000Y-129360395D01*
X154447388Y-128583007D01*
X154393914Y-128388072D01*
X154420000Y-128388072D01*
X154544482Y-128375812D01*
X154664180Y-128339502D01*
X154774494Y-128280537D01*
X154871185Y-128201185D01*
X154950537Y-128104494D01*
X155009502Y-127994180D01*
X155045812Y-127874482D01*
X155058072Y-127750000D01*
X155058072Y-126250000D01*
X155045812Y-126125518D01*
X155009502Y-126005820D01*
X154950537Y-125895506D01*
X154871185Y-125798815D01*
X154774494Y-125719463D01*
X154664180Y-125660498D01*
X154544482Y-125624188D01*
X154420000Y-125611928D01*
X152920000Y-125611928D01*
X152795518Y-125624188D01*
X152675820Y-125660498D01*
X152565506Y-125719463D01*
X152468815Y-125798815D01*
X152389463Y-125895506D01*
X152330498Y-126005820D01*
X152294188Y-126125518D01*
X152281928Y-126250000D01*
X135755000Y-126250000D01*
X135755000Y-120650000D01*
X154717815Y-120650000D01*
X154746487Y-120941111D01*
X154831401Y-121221034D01*
X154969294Y-121479014D01*
X155154866Y-121705134D01*
X155380986Y-121890706D01*
X155638966Y-122028599D01*
X155918889Y-122113513D01*
X156137050Y-122135000D01*
X156282950Y-122135000D01*
X156501111Y-122113513D01*
X156781034Y-122028599D01*
X157039014Y-121890706D01*
X157265134Y-121705134D01*
X157450706Y-121479014D01*
X157588599Y-121221034D01*
X157673513Y-120941111D01*
X157702185Y-120650000D01*
X157673513Y-120358889D01*
X157588599Y-120078966D01*
X157450706Y-119820986D01*
X157265134Y-119594866D01*
X157039014Y-119409294D01*
X156974477Y-119374799D01*
X157091355Y-119305178D01*
X157307588Y-119110269D01*
X157481641Y-118876920D01*
X157606825Y-118614099D01*
X157651476Y-118466890D01*
X157530155Y-118237000D01*
X156337000Y-118237000D01*
X156337000Y-118257000D01*
X156083000Y-118257000D01*
X156083000Y-118237000D01*
X154889845Y-118237000D01*
X154768524Y-118466890D01*
X154813175Y-118614099D01*
X154938359Y-118876920D01*
X155112412Y-119110269D01*
X155328645Y-119305178D01*
X155445523Y-119374799D01*
X155380986Y-119409294D01*
X155154866Y-119594866D01*
X154969294Y-119820986D01*
X154831401Y-120078966D01*
X154746487Y-120358889D01*
X154717815Y-120650000D01*
X135755000Y-120650000D01*
X135755000Y-97688061D01*
X137395000Y-97688061D01*
X137395000Y-97891939D01*
X137434774Y-98091898D01*
X137512795Y-98280256D01*
X137626063Y-98449774D01*
X137770226Y-98593937D01*
X137939744Y-98707205D01*
X138128102Y-98785226D01*
X138328061Y-98825000D01*
X138390199Y-98825000D01*
X138940001Y-99374803D01*
X138940000Y-107246289D01*
X138896063Y-107290226D01*
X138782795Y-107459744D01*
X138704774Y-107648102D01*
X138665000Y-107848061D01*
X138665000Y-108051939D01*
X138704774Y-108251898D01*
X138782795Y-108440256D01*
X138896063Y-108609774D01*
X139040226Y-108753937D01*
X139209744Y-108867205D01*
X139398102Y-108945226D01*
X139598061Y-108985000D01*
X139801939Y-108985000D01*
X140001898Y-108945226D01*
X140085001Y-108910803D01*
X140085001Y-113933420D01*
X138184957Y-115833465D01*
X138128102Y-115844774D01*
X137939744Y-115922795D01*
X137770226Y-116036063D01*
X137626063Y-116180226D01*
X137512795Y-116349744D01*
X137434774Y-116538102D01*
X137395000Y-116738061D01*
X137395000Y-116941939D01*
X137434774Y-117141898D01*
X137512795Y-117330256D01*
X137626063Y-117499774D01*
X137770226Y-117643937D01*
X137939744Y-117757205D01*
X138128102Y-117835226D01*
X138328061Y-117875000D01*
X138531939Y-117875000D01*
X138731898Y-117835226D01*
X138920256Y-117757205D01*
X139089774Y-117643937D01*
X139233937Y-117499774D01*
X139347205Y-117330256D01*
X139425226Y-117141898D01*
X139436535Y-117085043D01*
X141565049Y-114956530D01*
X141598817Y-114928817D01*
X141685853Y-114822764D01*
X141699999Y-114840001D01*
X141729003Y-114863804D01*
X142946201Y-116081003D01*
X142969999Y-116110001D01*
X143085724Y-116204974D01*
X143217753Y-116275546D01*
X143361014Y-116319003D01*
X143472667Y-116330000D01*
X143472676Y-116330000D01*
X143509999Y-116333676D01*
X143547322Y-116330000D01*
X154932405Y-116330000D01*
X154969294Y-116399014D01*
X155154866Y-116625134D01*
X155380986Y-116810706D01*
X155445523Y-116845201D01*
X155328645Y-116914822D01*
X155112412Y-117109731D01*
X154938359Y-117343080D01*
X154813175Y-117605901D01*
X154768524Y-117753110D01*
X154889845Y-117983000D01*
X156083000Y-117983000D01*
X156083000Y-117963000D01*
X156337000Y-117963000D01*
X156337000Y-117983000D01*
X157530155Y-117983000D01*
X157651476Y-117753110D01*
X157606825Y-117605901D01*
X157481641Y-117343080D01*
X157307588Y-117109731D01*
X157091355Y-116914822D01*
X156974477Y-116845201D01*
X157039014Y-116810706D01*
X157265134Y-116625134D01*
X157450706Y-116399014D01*
X157588599Y-116141034D01*
X157673513Y-115861111D01*
X157702185Y-115570000D01*
X157673513Y-115278889D01*
X157588599Y-114998966D01*
X157450706Y-114740986D01*
X157265134Y-114514866D01*
X157039014Y-114329294D01*
X156984209Y-114300000D01*
X157039014Y-114270706D01*
X157265134Y-114085134D01*
X157450706Y-113859014D01*
X157588599Y-113601034D01*
X157673513Y-113321111D01*
X157702185Y-113030000D01*
X157673513Y-112738889D01*
X157588599Y-112458966D01*
X157450706Y-112200986D01*
X157265134Y-111974866D01*
X157039014Y-111789294D01*
X156984209Y-111760000D01*
X157039014Y-111730706D01*
X157265134Y-111545134D01*
X157450706Y-111319014D01*
X157588599Y-111061034D01*
X157673513Y-110781111D01*
X157702185Y-110490000D01*
X157673513Y-110198889D01*
X157588599Y-109918966D01*
X157450706Y-109660986D01*
X157265134Y-109434866D01*
X157235313Y-109410393D01*
X157304180Y-109389502D01*
X157414494Y-109330537D01*
X157511185Y-109251185D01*
X157590537Y-109154494D01*
X157649502Y-109044180D01*
X157685812Y-108924482D01*
X157698072Y-108800000D01*
X157698072Y-107100000D01*
X157685812Y-106975518D01*
X157649502Y-106855820D01*
X157590537Y-106745506D01*
X157511185Y-106648815D01*
X157414494Y-106569463D01*
X157304180Y-106510498D01*
X157184482Y-106474188D01*
X157060000Y-106461928D01*
X155360000Y-106461928D01*
X155235518Y-106474188D01*
X155115820Y-106510498D01*
X155005506Y-106569463D01*
X154908815Y-106648815D01*
X154829463Y-106745506D01*
X154770498Y-106855820D01*
X154734188Y-106975518D01*
X154721928Y-107100000D01*
X154721928Y-108800000D01*
X154734188Y-108924482D01*
X154770498Y-109044180D01*
X154829463Y-109154494D01*
X154908815Y-109251185D01*
X155005506Y-109330537D01*
X155115820Y-109389502D01*
X155184687Y-109410393D01*
X155154866Y-109434866D01*
X154969294Y-109660986D01*
X154831401Y-109918966D01*
X154746487Y-110198889D01*
X154717815Y-110490000D01*
X154746487Y-110781111D01*
X154831401Y-111061034D01*
X154969294Y-111319014D01*
X155154866Y-111545134D01*
X155380986Y-111730706D01*
X155435791Y-111760000D01*
X155380986Y-111789294D01*
X155154866Y-111974866D01*
X154969294Y-112200986D01*
X154932405Y-112270000D01*
X147634802Y-112270000D01*
X144073804Y-108709003D01*
X144073799Y-108708997D01*
X143000000Y-107635199D01*
X143000000Y-107244801D01*
X144216200Y-108461002D01*
X144239999Y-108490001D01*
X144355724Y-108584974D01*
X144487753Y-108655546D01*
X144631014Y-108699003D01*
X144742667Y-108710000D01*
X144742676Y-108710000D01*
X144779999Y-108713676D01*
X144817322Y-108710000D01*
X152362678Y-108710000D01*
X152400000Y-108713676D01*
X152437322Y-108710000D01*
X152437333Y-108710000D01*
X152548986Y-108699003D01*
X152692247Y-108655546D01*
X152824276Y-108584974D01*
X152940001Y-108490001D01*
X152963804Y-108460997D01*
X154181004Y-107243798D01*
X154210001Y-107220001D01*
X154304974Y-107104276D01*
X154375546Y-106972247D01*
X154419003Y-106828986D01*
X154430000Y-106717333D01*
X154430000Y-106717324D01*
X154433676Y-106680001D01*
X154430000Y-106642678D01*
X154430000Y-99097322D01*
X154433676Y-99059999D01*
X154430000Y-99022676D01*
X154430000Y-99022667D01*
X154419003Y-98911014D01*
X154375546Y-98767753D01*
X154304974Y-98635724D01*
X154210001Y-98519999D01*
X154181003Y-98496201D01*
X153160000Y-97475199D01*
X153160000Y-96834801D01*
X153555000Y-96439801D01*
X153555000Y-96656411D01*
X153608225Y-96923989D01*
X153712629Y-97176043D01*
X153864201Y-97402886D01*
X154057114Y-97595799D01*
X154283957Y-97747371D01*
X154536011Y-97851775D01*
X154803589Y-97905000D01*
X155076411Y-97905000D01*
X155343989Y-97851775D01*
X155596043Y-97747371D01*
X155822886Y-97595799D01*
X156015799Y-97402886D01*
X156167371Y-97176043D01*
X156271775Y-96923989D01*
X156325000Y-96656411D01*
X156325000Y-96383589D01*
X156271775Y-96116011D01*
X156167371Y-95863957D01*
X156015799Y-95637114D01*
X155822886Y-95444201D01*
X155596043Y-95292629D01*
X155493127Y-95250000D01*
X155596043Y-95207371D01*
X155822886Y-95055799D01*
X156015799Y-94862886D01*
X156167371Y-94636043D01*
X156271775Y-94383989D01*
X156325000Y-94116411D01*
X156325000Y-93843589D01*
X156271775Y-93576011D01*
X156167371Y-93323957D01*
X156015799Y-93097114D01*
X155822886Y-92904201D01*
X155596043Y-92752629D01*
X155496721Y-92711489D01*
X155538832Y-92696277D01*
X155651863Y-92635860D01*
X155717388Y-92396993D01*
X154940000Y-91619605D01*
X154162612Y-92396993D01*
X154228137Y-92635860D01*
X154386477Y-92710164D01*
X154283957Y-92752629D01*
X154057114Y-92904201D01*
X153864201Y-93097114D01*
X153712629Y-93323957D01*
X153608225Y-93576011D01*
X153555000Y-93843589D01*
X153555000Y-94116411D01*
X153583833Y-94261364D01*
X151888998Y-95956201D01*
X151860000Y-95979999D01*
X151836202Y-96008997D01*
X151836201Y-96008998D01*
X151765026Y-96095724D01*
X151694454Y-96227754D01*
X151664180Y-96327558D01*
X151650998Y-96371014D01*
X151640001Y-96482667D01*
X151636324Y-96520000D01*
X151640001Y-96557332D01*
X151640000Y-97752677D01*
X151636324Y-97790000D01*
X151640000Y-97827322D01*
X151640000Y-97827332D01*
X151650997Y-97938985D01*
X151691136Y-98071309D01*
X151694454Y-98082246D01*
X151765026Y-98214276D01*
X151804871Y-98262826D01*
X151859999Y-98330001D01*
X151889003Y-98353804D01*
X152910001Y-99374803D01*
X152910000Y-106365198D01*
X152085199Y-107190000D01*
X145094802Y-107190000D01*
X144270000Y-106365199D01*
X144270000Y-104704801D01*
X145486201Y-105921003D01*
X145509999Y-105950001D01*
X145625724Y-106044974D01*
X145757753Y-106115546D01*
X145901014Y-106159003D01*
X146012667Y-106170000D01*
X146012676Y-106170000D01*
X146049999Y-106173676D01*
X146087322Y-106170000D01*
X147169099Y-106170000D01*
X147191068Y-106211101D01*
X147370392Y-106429608D01*
X147588899Y-106608932D01*
X147838192Y-106742182D01*
X148108691Y-106824236D01*
X148319508Y-106845000D01*
X148860492Y-106845000D01*
X149071309Y-106824236D01*
X149341808Y-106742182D01*
X149591101Y-106608932D01*
X149809608Y-106429608D01*
X149988932Y-106211101D01*
X150122182Y-105961808D01*
X150204236Y-105691309D01*
X150231943Y-105410000D01*
X150204236Y-105128691D01*
X150122182Y-104858192D01*
X149988932Y-104608899D01*
X149809608Y-104390392D01*
X149591101Y-104211068D01*
X149461655Y-104141878D01*
X149479227Y-104134430D01*
X149712662Y-103975673D01*
X149910639Y-103774425D01*
X150065551Y-103538421D01*
X150171444Y-103276730D01*
X150181904Y-103219039D01*
X150059915Y-102997000D01*
X148717000Y-102997000D01*
X148717000Y-103017000D01*
X148463000Y-103017000D01*
X148463000Y-102997000D01*
X147120085Y-102997000D01*
X146998096Y-103219039D01*
X147008556Y-103276730D01*
X147114449Y-103538421D01*
X147269361Y-103774425D01*
X147467338Y-103975673D01*
X147700773Y-104134430D01*
X147718345Y-104141878D01*
X147588899Y-104211068D01*
X147370392Y-104390392D01*
X147191068Y-104608899D01*
X147169099Y-104650000D01*
X146364802Y-104650000D01*
X145540000Y-103825199D01*
X145540000Y-87630000D01*
X146948057Y-87630000D01*
X146975764Y-87911309D01*
X147057818Y-88181808D01*
X147191068Y-88431101D01*
X147370392Y-88649608D01*
X147588899Y-88828932D01*
X147721858Y-88900000D01*
X147588899Y-88971068D01*
X147370392Y-89150392D01*
X147191068Y-89368899D01*
X147057818Y-89618192D01*
X146975764Y-89888691D01*
X146948057Y-90170000D01*
X146975764Y-90451309D01*
X147057818Y-90721808D01*
X147191068Y-90971101D01*
X147370392Y-91189608D01*
X147588899Y-91368932D01*
X147721858Y-91440000D01*
X147588899Y-91511068D01*
X147370392Y-91690392D01*
X147191068Y-91908899D01*
X147057818Y-92158192D01*
X146975764Y-92428691D01*
X146948057Y-92710000D01*
X146975764Y-92991309D01*
X147057818Y-93261808D01*
X147191068Y-93511101D01*
X147370392Y-93729608D01*
X147588899Y-93908932D01*
X147721858Y-93980000D01*
X147588899Y-94051068D01*
X147370392Y-94230392D01*
X147191068Y-94448899D01*
X147057818Y-94698192D01*
X146975764Y-94968691D01*
X146948057Y-95250000D01*
X146975764Y-95531309D01*
X147057818Y-95801808D01*
X147191068Y-96051101D01*
X147370392Y-96269608D01*
X147588899Y-96448932D01*
X147721858Y-96520000D01*
X147588899Y-96591068D01*
X147370392Y-96770392D01*
X147191068Y-96988899D01*
X147057818Y-97238192D01*
X146975764Y-97508691D01*
X146948057Y-97790000D01*
X146975764Y-98071309D01*
X147057818Y-98341808D01*
X147191068Y-98591101D01*
X147370392Y-98809608D01*
X147588899Y-98988932D01*
X147721858Y-99060000D01*
X147588899Y-99131068D01*
X147370392Y-99310392D01*
X147191068Y-99528899D01*
X147057818Y-99778192D01*
X146975764Y-100048691D01*
X146948057Y-100330000D01*
X146975764Y-100611309D01*
X147057818Y-100881808D01*
X147191068Y-101131101D01*
X147370392Y-101349608D01*
X147588899Y-101528932D01*
X147718345Y-101598122D01*
X147700773Y-101605570D01*
X147467338Y-101764327D01*
X147269361Y-101965575D01*
X147114449Y-102201579D01*
X147008556Y-102463270D01*
X146998096Y-102520961D01*
X147120085Y-102743000D01*
X148463000Y-102743000D01*
X148463000Y-102723000D01*
X148717000Y-102723000D01*
X148717000Y-102743000D01*
X150059915Y-102743000D01*
X150181904Y-102520961D01*
X150171444Y-102463270D01*
X150065551Y-102201579D01*
X149910639Y-101965575D01*
X149712662Y-101764327D01*
X149479227Y-101605570D01*
X149461655Y-101598122D01*
X149591101Y-101528932D01*
X149809608Y-101349608D01*
X149988932Y-101131101D01*
X150122182Y-100881808D01*
X150204236Y-100611309D01*
X150231943Y-100330000D01*
X150204236Y-100048691D01*
X150122182Y-99778192D01*
X149988932Y-99528899D01*
X149809608Y-99310392D01*
X149591101Y-99131068D01*
X149458142Y-99060000D01*
X149591101Y-98988932D01*
X149809608Y-98809608D01*
X149988932Y-98591101D01*
X150122182Y-98341808D01*
X150204236Y-98071309D01*
X150231943Y-97790000D01*
X150204236Y-97508691D01*
X150122182Y-97238192D01*
X149988932Y-96988899D01*
X149809608Y-96770392D01*
X149591101Y-96591068D01*
X149458142Y-96520000D01*
X149591101Y-96448932D01*
X149809608Y-96269608D01*
X149988932Y-96051101D01*
X150122182Y-95801808D01*
X150204236Y-95531309D01*
X150231943Y-95250000D01*
X150204236Y-94968691D01*
X150122182Y-94698192D01*
X149988932Y-94448899D01*
X149809608Y-94230392D01*
X149591101Y-94051068D01*
X149458142Y-93980000D01*
X149591101Y-93908932D01*
X149809608Y-93729608D01*
X149988932Y-93511101D01*
X150122182Y-93261808D01*
X150204236Y-92991309D01*
X150231943Y-92710000D01*
X150204236Y-92428691D01*
X150122182Y-92158192D01*
X149988932Y-91908899D01*
X149809608Y-91690392D01*
X149592837Y-91512492D01*
X153550188Y-91512492D01*
X153591035Y-91782238D01*
X153683723Y-92038832D01*
X153744140Y-92151863D01*
X153983007Y-92217388D01*
X154760395Y-91440000D01*
X155119605Y-91440000D01*
X155896993Y-92217388D01*
X156135860Y-92151863D01*
X156251760Y-91904884D01*
X156317250Y-91640040D01*
X156329812Y-91367508D01*
X156288965Y-91097762D01*
X156196277Y-90841168D01*
X156135860Y-90728137D01*
X155896993Y-90662612D01*
X155119605Y-91440000D01*
X154760395Y-91440000D01*
X153983007Y-90662612D01*
X153744140Y-90728137D01*
X153628240Y-90975116D01*
X153562750Y-91239960D01*
X153550188Y-91512492D01*
X149592837Y-91512492D01*
X149591101Y-91511068D01*
X149458142Y-91440000D01*
X149591101Y-91368932D01*
X149809608Y-91189608D01*
X149988932Y-90971101D01*
X150122182Y-90721808D01*
X150204236Y-90451309D01*
X150231943Y-90170000D01*
X150204236Y-89888691D01*
X150122182Y-89618192D01*
X149988932Y-89368899D01*
X149809608Y-89150392D01*
X149591101Y-88971068D01*
X149458142Y-88900000D01*
X149591101Y-88828932D01*
X149670721Y-88763589D01*
X153555000Y-88763589D01*
X153555000Y-89036411D01*
X153608225Y-89303989D01*
X153712629Y-89556043D01*
X153864201Y-89782886D01*
X154057114Y-89975799D01*
X154283957Y-90127371D01*
X154383279Y-90168511D01*
X154341168Y-90183723D01*
X154228137Y-90244140D01*
X154162612Y-90483007D01*
X154940000Y-91260395D01*
X155717388Y-90483007D01*
X155651863Y-90244140D01*
X155493523Y-90169836D01*
X155596043Y-90127371D01*
X155822886Y-89975799D01*
X156015799Y-89782886D01*
X156167371Y-89556043D01*
X156271775Y-89303989D01*
X156325000Y-89036411D01*
X156325000Y-88763589D01*
X156271775Y-88496011D01*
X156167371Y-88243957D01*
X156015799Y-88017114D01*
X155822886Y-87824201D01*
X155596043Y-87672629D01*
X155343989Y-87568225D01*
X155076411Y-87515000D01*
X154803589Y-87515000D01*
X154536011Y-87568225D01*
X154283957Y-87672629D01*
X154057114Y-87824201D01*
X153864201Y-88017114D01*
X153712629Y-88243957D01*
X153608225Y-88496011D01*
X153555000Y-88763589D01*
X149670721Y-88763589D01*
X149809608Y-88649608D01*
X149988932Y-88431101D01*
X150122182Y-88181808D01*
X150204236Y-87911309D01*
X150231943Y-87630000D01*
X150204236Y-87348691D01*
X150122182Y-87078192D01*
X149988932Y-86828899D01*
X149809608Y-86610392D01*
X149591101Y-86431068D01*
X149341808Y-86297818D01*
X149071309Y-86215764D01*
X148860492Y-86195000D01*
X148319508Y-86195000D01*
X148108691Y-86215764D01*
X147838192Y-86297818D01*
X147588899Y-86431068D01*
X147370392Y-86610392D01*
X147191068Y-86828899D01*
X147057818Y-87078192D01*
X146975764Y-87348691D01*
X146948057Y-87630000D01*
X145540000Y-87630000D01*
X145540000Y-76020000D01*
X145751928Y-76020000D01*
X145764188Y-76144482D01*
X145800498Y-76264180D01*
X145859463Y-76374494D01*
X145938815Y-76471185D01*
X146035506Y-76550537D01*
X146145820Y-76609502D01*
X146265518Y-76645812D01*
X146390000Y-76658072D01*
X147504250Y-76655000D01*
X147663000Y-76496250D01*
X147663000Y-74747000D01*
X147917000Y-74747000D01*
X147917000Y-76496250D01*
X148075750Y-76655000D01*
X149190000Y-76658072D01*
X149314482Y-76645812D01*
X149434180Y-76609502D01*
X149544494Y-76550537D01*
X149641185Y-76471185D01*
X149720537Y-76374494D01*
X149779502Y-76264180D01*
X149815812Y-76144482D01*
X149828072Y-76020000D01*
X149825000Y-74905750D01*
X149666250Y-74747000D01*
X147917000Y-74747000D01*
X147663000Y-74747000D01*
X145913750Y-74747000D01*
X145755000Y-74905750D01*
X145751928Y-76020000D01*
X145540000Y-76020000D01*
X145540000Y-70164801D01*
X145751928Y-69952873D01*
X145751928Y-72620000D01*
X145764188Y-72744482D01*
X145800498Y-72864180D01*
X145830335Y-72920000D01*
X145800498Y-72975820D01*
X145764188Y-73095518D01*
X145751928Y-73220000D01*
X145755000Y-74334250D01*
X145913750Y-74493000D01*
X147663000Y-74493000D01*
X147663000Y-74473000D01*
X147917000Y-74473000D01*
X147917000Y-74493000D01*
X149666250Y-74493000D01*
X149825000Y-74334250D01*
X149826858Y-73660000D01*
X153447815Y-73660000D01*
X153476487Y-73951111D01*
X153561401Y-74231034D01*
X153699294Y-74489014D01*
X153884866Y-74715134D01*
X154110986Y-74900706D01*
X154165791Y-74930000D01*
X154110986Y-74959294D01*
X153884866Y-75144866D01*
X153699294Y-75370986D01*
X153561401Y-75628966D01*
X153476487Y-75908889D01*
X153447815Y-76200000D01*
X153476487Y-76491111D01*
X153561401Y-76771034D01*
X153699294Y-77029014D01*
X153884866Y-77255134D01*
X154110986Y-77440706D01*
X154165791Y-77470000D01*
X154110986Y-77499294D01*
X153884866Y-77684866D01*
X153699294Y-77910986D01*
X153561401Y-78168966D01*
X153476487Y-78448889D01*
X153447815Y-78740000D01*
X153476487Y-79031111D01*
X153561401Y-79311034D01*
X153699294Y-79569014D01*
X153884866Y-79795134D01*
X154110986Y-79980706D01*
X154165791Y-80010000D01*
X154110986Y-80039294D01*
X153884866Y-80224866D01*
X153699294Y-80450986D01*
X153561401Y-80708966D01*
X153476487Y-80988889D01*
X153447815Y-81280000D01*
X153476487Y-81571111D01*
X153561401Y-81851034D01*
X153699294Y-82109014D01*
X153884866Y-82335134D01*
X154110986Y-82520706D01*
X154368966Y-82658599D01*
X154648889Y-82743513D01*
X154867050Y-82765000D01*
X155012950Y-82765000D01*
X155231111Y-82743513D01*
X155511034Y-82658599D01*
X155769014Y-82520706D01*
X155995134Y-82335134D01*
X156180706Y-82109014D01*
X156318599Y-81851034D01*
X156403513Y-81571111D01*
X156432185Y-81280000D01*
X156403513Y-80988889D01*
X156318599Y-80708966D01*
X156180706Y-80450986D01*
X155995134Y-80224866D01*
X155769014Y-80039294D01*
X155714209Y-80010000D01*
X155769014Y-79980706D01*
X155995134Y-79795134D01*
X156180706Y-79569014D01*
X156318599Y-79311034D01*
X156403513Y-79031111D01*
X156432185Y-78740000D01*
X156403513Y-78448889D01*
X156318599Y-78168966D01*
X156180706Y-77910986D01*
X155995134Y-77684866D01*
X155769014Y-77499294D01*
X155714209Y-77470000D01*
X155769014Y-77440706D01*
X155995134Y-77255134D01*
X156180706Y-77029014D01*
X156318599Y-76771034D01*
X156403513Y-76491111D01*
X156432185Y-76200000D01*
X156403513Y-75908889D01*
X156318599Y-75628966D01*
X156180706Y-75370986D01*
X155995134Y-75144866D01*
X155769014Y-74959294D01*
X155714209Y-74930000D01*
X155769014Y-74900706D01*
X155995134Y-74715134D01*
X156180706Y-74489014D01*
X156318599Y-74231034D01*
X156403513Y-73951111D01*
X156432185Y-73660000D01*
X156403513Y-73368889D01*
X156318599Y-73088966D01*
X156180706Y-72830986D01*
X155995134Y-72604866D01*
X155769014Y-72419294D01*
X155704477Y-72384799D01*
X155821355Y-72315178D01*
X156037588Y-72120269D01*
X156211641Y-71886920D01*
X156336825Y-71624099D01*
X156381476Y-71476890D01*
X156260155Y-71247000D01*
X155067000Y-71247000D01*
X155067000Y-71267000D01*
X154813000Y-71267000D01*
X154813000Y-71247000D01*
X153619845Y-71247000D01*
X153498524Y-71476890D01*
X153543175Y-71624099D01*
X153668359Y-71886920D01*
X153842412Y-72120269D01*
X154058645Y-72315178D01*
X154175523Y-72384799D01*
X154110986Y-72419294D01*
X153884866Y-72604866D01*
X153699294Y-72830986D01*
X153561401Y-73088966D01*
X153476487Y-73368889D01*
X153447815Y-73660000D01*
X149826858Y-73660000D01*
X149828072Y-73220000D01*
X149815812Y-73095518D01*
X149779502Y-72975820D01*
X149749665Y-72920000D01*
X149779502Y-72864180D01*
X149815812Y-72744482D01*
X149828072Y-72620000D01*
X149828072Y-69820000D01*
X149815812Y-69695518D01*
X149779502Y-69575820D01*
X149720537Y-69465506D01*
X149641185Y-69368815D01*
X149606074Y-69340000D01*
X153451928Y-69340000D01*
X153451928Y-69430000D01*
X153464188Y-69554482D01*
X153500498Y-69674180D01*
X153559463Y-69784494D01*
X153638815Y-69881185D01*
X153735506Y-69960537D01*
X153845820Y-70019502D01*
X153926466Y-70043966D01*
X153842412Y-70119731D01*
X153668359Y-70353080D01*
X153543175Y-70615901D01*
X153498524Y-70763110D01*
X153619845Y-70993000D01*
X154813000Y-70993000D01*
X154813000Y-70973000D01*
X155067000Y-70973000D01*
X155067000Y-70993000D01*
X156260155Y-70993000D01*
X156381476Y-70763110D01*
X156336825Y-70615901D01*
X156211641Y-70353080D01*
X156037588Y-70119731D01*
X155953534Y-70043966D01*
X156034180Y-70019502D01*
X156144494Y-69960537D01*
X156241185Y-69881185D01*
X156320537Y-69784494D01*
X156379502Y-69674180D01*
X156415812Y-69554482D01*
X156428072Y-69430000D01*
X156428072Y-67730000D01*
X156415812Y-67605518D01*
X156379502Y-67485820D01*
X156320537Y-67375506D01*
X156241185Y-67278815D01*
X156144494Y-67199463D01*
X156034180Y-67140498D01*
X155914482Y-67104188D01*
X155790000Y-67091928D01*
X154090000Y-67091928D01*
X153965518Y-67104188D01*
X153845820Y-67140498D01*
X153735506Y-67199463D01*
X153638815Y-67278815D01*
X153559463Y-67375506D01*
X153500498Y-67485820D01*
X153464188Y-67605518D01*
X153451928Y-67730000D01*
X153451928Y-67820000D01*
X146087322Y-67820000D01*
X146049999Y-67816324D01*
X146012676Y-67820000D01*
X146012667Y-67820000D01*
X145901014Y-67830997D01*
X145757753Y-67874454D01*
X145625724Y-67945026D01*
X145509999Y-68039999D01*
X145486201Y-68068997D01*
X144269003Y-69286196D01*
X144239999Y-69309999D01*
X144184871Y-69377174D01*
X144145026Y-69425724D01*
X144123762Y-69465506D01*
X144074454Y-69557754D01*
X144030997Y-69701015D01*
X144020000Y-69812668D01*
X144020000Y-69812678D01*
X144016324Y-69850000D01*
X144020000Y-69887322D01*
X144020001Y-100695988D01*
X144000256Y-100682795D01*
X143811898Y-100604774D01*
X143611939Y-100565000D01*
X143408061Y-100565000D01*
X143208102Y-100604774D01*
X143019744Y-100682795D01*
X143000000Y-100695987D01*
X143000000Y-98493711D01*
X143043937Y-98449774D01*
X143157205Y-98280256D01*
X143235226Y-98091898D01*
X143275000Y-97891939D01*
X143275000Y-97688061D01*
X143235226Y-97488102D01*
X143157205Y-97299744D01*
X143043937Y-97130226D01*
X142899774Y-96986063D01*
X142730256Y-96872795D01*
X142541898Y-96794774D01*
X142341939Y-96755000D01*
X142138061Y-96755000D01*
X141938102Y-96794774D01*
X141855000Y-96829196D01*
X141855000Y-65656578D01*
X145788139Y-61723439D01*
X145800498Y-61764180D01*
X145857061Y-61870000D01*
X145800498Y-61975820D01*
X145764188Y-62095518D01*
X145751928Y-62220000D01*
X145751928Y-65020000D01*
X145764188Y-65144482D01*
X145800498Y-65264180D01*
X145859463Y-65374494D01*
X145938815Y-65471185D01*
X146035506Y-65550537D01*
X146145820Y-65609502D01*
X146265518Y-65645812D01*
X146390000Y-65658072D01*
X149190000Y-65658072D01*
X149314482Y-65645812D01*
X149434180Y-65609502D01*
X149544494Y-65550537D01*
X149641185Y-65471185D01*
X149720537Y-65374494D01*
X149779502Y-65264180D01*
X149815812Y-65144482D01*
X149828072Y-65020000D01*
X149828072Y-62220000D01*
X149815812Y-62095518D01*
X149779502Y-61975820D01*
X149722939Y-61870000D01*
X149779502Y-61764180D01*
X149815812Y-61644482D01*
X149828072Y-61520000D01*
X149828072Y-60789117D01*
X153205000Y-60789117D01*
X153205000Y-61130883D01*
X153271675Y-61466081D01*
X153402463Y-61781831D01*
X153592337Y-62065998D01*
X153834002Y-62307663D01*
X154118169Y-62497537D01*
X154433919Y-62628325D01*
X154769117Y-62695000D01*
X155110883Y-62695000D01*
X155446081Y-62628325D01*
X155761831Y-62497537D01*
X156045998Y-62307663D01*
X156287663Y-62065998D01*
X156477537Y-61781831D01*
X156608325Y-61466081D01*
X156675000Y-61130883D01*
X156675000Y-60789117D01*
X156608325Y-60453919D01*
X156477537Y-60138169D01*
X156287663Y-59854002D01*
X156045998Y-59612337D01*
X155761831Y-59422463D01*
X155446081Y-59291675D01*
X155110883Y-59225000D01*
X154769117Y-59225000D01*
X154433919Y-59291675D01*
X154118169Y-59422463D01*
X153834002Y-59612337D01*
X153592337Y-59854002D01*
X153402463Y-60138169D01*
X153271675Y-60453919D01*
X153205000Y-60789117D01*
X149828072Y-60789117D01*
X149828072Y-58720000D01*
X149815812Y-58595518D01*
X149779502Y-58475820D01*
X149720537Y-58365506D01*
X149641185Y-58268815D01*
X149544494Y-58189463D01*
X149434180Y-58130498D01*
X149314482Y-58094188D01*
X149190000Y-58081928D01*
X146390000Y-58081928D01*
X146265518Y-58094188D01*
X146145820Y-58130498D01*
X146035506Y-58189463D01*
X145938815Y-58268815D01*
X145859463Y-58365506D01*
X145800498Y-58475820D01*
X145764188Y-58595518D01*
X145751928Y-58720000D01*
X145751928Y-59323938D01*
X145645941Y-59380589D01*
X145645939Y-59380590D01*
X145645940Y-59380590D01*
X145544953Y-59463468D01*
X145544951Y-59463470D01*
X145511183Y-59491183D01*
X145483470Y-59524951D01*
X140374956Y-64633466D01*
X140341183Y-64661183D01*
X140230589Y-64795942D01*
X140148411Y-64949688D01*
X140097805Y-65116511D01*
X140085000Y-65246524D01*
X140085000Y-65246531D01*
X140080719Y-65290000D01*
X140085000Y-65333469D01*
X140085001Y-98370199D01*
X139465000Y-97750199D01*
X139465000Y-97688061D01*
X139425226Y-97488102D01*
X139347205Y-97299744D01*
X139233937Y-97130226D01*
X139089774Y-96986063D01*
X138920256Y-96872795D01*
X138731898Y-96794774D01*
X138531939Y-96755000D01*
X138328061Y-96755000D01*
X138128102Y-96794774D01*
X137939744Y-96872795D01*
X137770226Y-96986063D01*
X137626063Y-97130226D01*
X137512795Y-97299744D01*
X137434774Y-97488102D01*
X137395000Y-97688061D01*
X135755000Y-97688061D01*
X135755000Y-68255752D01*
X135760491Y-68200000D01*
X135738577Y-67977501D01*
X135673676Y-67763553D01*
X135568284Y-67566377D01*
X135461989Y-67436856D01*
X135461987Y-67436854D01*
X135426449Y-67393551D01*
X135383146Y-67358013D01*
X127381996Y-59356865D01*
X127346449Y-59313551D01*
X127173623Y-59171716D01*
X126976447Y-59066324D01*
X126928072Y-59051649D01*
X126928072Y-58720000D01*
X126915812Y-58595518D01*
X126879502Y-58475820D01*
X126820537Y-58365506D01*
X126741185Y-58268815D01*
X126644494Y-58189463D01*
X126534180Y-58130498D01*
X126414482Y-58094188D01*
X126290000Y-58081928D01*
X123490000Y-58081928D01*
X123365518Y-58094188D01*
X123245820Y-58130498D01*
X123135506Y-58189463D01*
X123038815Y-58268815D01*
X122959463Y-58365506D01*
X122900498Y-58475820D01*
X122864188Y-58595518D01*
X122851928Y-58720000D01*
X97180000Y-58720000D01*
X97180000Y-57810000D01*
X158090001Y-57810000D01*
X158090000Y-137770000D01*
X158090000Y-137770000D01*
G37*
X158090000Y-137770000D02*
X97180000Y-137770000D01*
X97180000Y-133995098D01*
X105565000Y-133995098D01*
X105565000Y-134464902D01*
X105656654Y-134925679D01*
X105836440Y-135359721D01*
X106097450Y-135750349D01*
X106429651Y-136082550D01*
X106820279Y-136343560D01*
X107254321Y-136523346D01*
X107715098Y-136615000D01*
X108184902Y-136615000D01*
X108645679Y-136523346D01*
X109079721Y-136343560D01*
X109470349Y-136082550D01*
X109802550Y-135750349D01*
X110063560Y-135359721D01*
X110243346Y-134925679D01*
X110304149Y-134620000D01*
X120427815Y-134620000D01*
X120456487Y-134911111D01*
X120541401Y-135191034D01*
X120679294Y-135449014D01*
X120864866Y-135675134D01*
X121090986Y-135860706D01*
X121348966Y-135998599D01*
X121628889Y-136083513D01*
X121847050Y-136105000D01*
X121992950Y-136105000D01*
X122211111Y-136083513D01*
X122491034Y-135998599D01*
X122749014Y-135860706D01*
X122975134Y-135675134D01*
X123160706Y-135449014D01*
X123190000Y-135394209D01*
X123219294Y-135449014D01*
X123404866Y-135675134D01*
X123630986Y-135860706D01*
X123888966Y-135998599D01*
X124168889Y-136083513D01*
X124387050Y-136105000D01*
X124532950Y-136105000D01*
X124751111Y-136083513D01*
X125031034Y-135998599D01*
X125289014Y-135860706D01*
X125515134Y-135675134D01*
X125539607Y-135645313D01*
X125560498Y-135714180D01*
X125619463Y-135824494D01*
X125698815Y-135921185D01*
X125795506Y-136000537D01*
X125905820Y-136059502D01*
X126025518Y-136095812D01*
X126150000Y-136108072D01*
X127850000Y-136108072D01*
X127974482Y-136095812D01*
X128094180Y-136059502D01*
X128204494Y-136000537D01*
X128301185Y-135921185D01*
X128380537Y-135824494D01*
X128439502Y-135714180D01*
X128475812Y-135594482D01*
X128488072Y-135470000D01*
X128488072Y-133770000D01*
X128475812Y-133645518D01*
X128439502Y-133525820D01*
X128380537Y-133415506D01*
X128301185Y-133318815D01*
X128204494Y-133239463D01*
X128094180Y-133180498D01*
X127974482Y-133144188D01*
X127850000Y-133131928D01*
X126150000Y-133131928D01*
X126025518Y-133144188D01*
X125905820Y-133180498D01*
X125795506Y-133239463D01*
X125698815Y-133318815D01*
X125619463Y-133415506D01*
X125560498Y-133525820D01*
X125539607Y-133594687D01*
X125515134Y-133564866D01*
X125289014Y-133379294D01*
X125031034Y-133241401D01*
X124751111Y-133156487D01*
X124532950Y-133135000D01*
X124387050Y-133135000D01*
X124168889Y-133156487D01*
X123888966Y-133241401D01*
X123630986Y-133379294D01*
X123404866Y-133564866D01*
X123219294Y-133790986D01*
X123190000Y-133845791D01*
X123160706Y-133790986D01*
X122975134Y-133564866D01*
X122749014Y-133379294D01*
X122491034Y-133241401D01*
X122211111Y-133156487D01*
X121992950Y-133135000D01*
X121847050Y-133135000D01*
X121628889Y-133156487D01*
X121348966Y-133241401D01*
X121090986Y-133379294D01*
X120864866Y-133564866D01*
X120679294Y-133790986D01*
X120541401Y-134048966D01*
X120456487Y-134328889D01*
X120427815Y-134620000D01*
X110304149Y-134620000D01*
X110335000Y-134464902D01*
X110335000Y-133995098D01*
X110244584Y-133540547D01*
X112523146Y-131261987D01*
X112566449Y-131226449D01*
X112708284Y-131053623D01*
X112813676Y-130856447D01*
X112878577Y-130642499D01*
X112895000Y-130475752D01*
X112900491Y-130420000D01*
X112895000Y-130364248D01*
X112895000Y-93980000D01*
X119157815Y-93980000D01*
X119186487Y-94271111D01*
X119271401Y-94551034D01*
X119409294Y-94809014D01*
X119594866Y-95035134D01*
X119820986Y-95220706D01*
X120078966Y-95358599D01*
X120358889Y-95443513D01*
X120577050Y-95465000D01*
X120722950Y-95465000D01*
X120941111Y-95443513D01*
X121221034Y-95358599D01*
X121479014Y-95220706D01*
X121705134Y-95035134D01*
X121890706Y-94809014D01*
X121925943Y-94743091D01*
X121957322Y-94740000D01*
X121957333Y-94740000D01*
X122068986Y-94729003D01*
X122212247Y-94685546D01*
X122344276Y-94614974D01*
X122460001Y-94520001D01*
X122483804Y-94490997D01*
X123504802Y-93470000D01*
X124309099Y-93470000D01*
X124331068Y-93511101D01*
X124510392Y-93729608D01*
X124728899Y-93908932D01*
X124861858Y-93980000D01*
X124728899Y-94051068D01*
X124510392Y-94230392D01*
X124331068Y-94448899D01*
X124197818Y-94698192D01*
X124115764Y-94968691D01*
X124088057Y-95250000D01*
X124115764Y-95531309D01*
X124197818Y-95801808D01*
X124331068Y-96051101D01*
X124510392Y-96269608D01*
X124728899Y-96448932D01*
X124861858Y-96520000D01*
X124728899Y-96591068D01*
X124510392Y-96770392D01*
X124331068Y-96988899D01*
X124197818Y-97238192D01*
X124115764Y-97508691D01*
X124088057Y-97790000D01*
X124115764Y-98071309D01*
X124197818Y-98341808D01*
X124331068Y-98591101D01*
X124510392Y-98809608D01*
X124728899Y-98988932D01*
X124861858Y-99060000D01*
X124728899Y-99131068D01*
X124510392Y-99310392D01*
X124331068Y-99528899D01*
X124197818Y-99778192D01*
X124115764Y-100048691D01*
X124088057Y-100330000D01*
X124115764Y-100611309D01*
X124197818Y-100881808D01*
X124331068Y-101131101D01*
X124510392Y-101349608D01*
X124728899Y-101528932D01*
X124861858Y-101600000D01*
X124728899Y-101671068D01*
X124510392Y-101850392D01*
X124331068Y-102068899D01*
X124197818Y-102318192D01*
X124115764Y-102588691D01*
X124088057Y-102870000D01*
X124115764Y-103151309D01*
X124197818Y-103421808D01*
X124331068Y-103671101D01*
X124510392Y-103889608D01*
X124728899Y-104068932D01*
X124861858Y-104140000D01*
X124728899Y-104211068D01*
X124510392Y-104390392D01*
X124331068Y-104608899D01*
X124197818Y-104858192D01*
X124115764Y-105128691D01*
X124088057Y-105410000D01*
X124115764Y-105691309D01*
X124197818Y-105961808D01*
X124331068Y-106211101D01*
X124510392Y-106429608D01*
X124728899Y-106608932D01*
X124978192Y-106742182D01*
X125248691Y-106824236D01*
X125459508Y-106845000D01*
X126000492Y-106845000D01*
X126211309Y-106824236D01*
X126481808Y-106742182D01*
X126731101Y-106608932D01*
X126949608Y-106429608D01*
X127128932Y-106211101D01*
X127262182Y-105961808D01*
X127344236Y-105691309D01*
X127371943Y-105410000D01*
X127344236Y-105128691D01*
X127262182Y-104858192D01*
X127128932Y-104608899D01*
X126949608Y-104390392D01*
X126731101Y-104211068D01*
X126598142Y-104140000D01*
X126731101Y-104068932D01*
X126949608Y-103889608D01*
X127128932Y-103671101D01*
X127262182Y-103421808D01*
X127344236Y-103151309D01*
X127371943Y-102870000D01*
X127344236Y-102588691D01*
X127262182Y-102318192D01*
X127128932Y-102068899D01*
X126949608Y-101850392D01*
X126731101Y-101671068D01*
X126598142Y-101600000D01*
X126731101Y-101528932D01*
X126949608Y-101349608D01*
X127128932Y-101131101D01*
X127262182Y-100881808D01*
X127344236Y-100611309D01*
X127371943Y-100330000D01*
X127344236Y-100048691D01*
X127262182Y-99778192D01*
X127128932Y-99528899D01*
X126949608Y-99310392D01*
X126731101Y-99131068D01*
X126598142Y-99060000D01*
X126731101Y-98988932D01*
X126949608Y-98809608D01*
X127128932Y-98591101D01*
X127262182Y-98341808D01*
X127344236Y-98071309D01*
X127371943Y-97790000D01*
X127344236Y-97508691D01*
X127262182Y-97238192D01*
X127128932Y-96988899D01*
X126949608Y-96770392D01*
X126731101Y-96591068D01*
X126598142Y-96520000D01*
X126731101Y-96448932D01*
X126949608Y-96269608D01*
X127128932Y-96051101D01*
X127262182Y-95801808D01*
X127344236Y-95531309D01*
X127371943Y-95250000D01*
X127344236Y-94968691D01*
X127262182Y-94698192D01*
X127128932Y-94448899D01*
X126949608Y-94230392D01*
X126731101Y-94051068D01*
X126598142Y-93980000D01*
X126731101Y-93908932D01*
X126949608Y-93729608D01*
X127128932Y-93511101D01*
X127262182Y-93261808D01*
X127344236Y-92991309D01*
X127371943Y-92710000D01*
X127344236Y-92428691D01*
X127262182Y-92158192D01*
X127128932Y-91908899D01*
X126949608Y-91690392D01*
X126731101Y-91511068D01*
X126598142Y-91440000D01*
X126731101Y-91368932D01*
X126949608Y-91189608D01*
X127128932Y-90971101D01*
X127262182Y-90721808D01*
X127344236Y-90451309D01*
X127371943Y-90170000D01*
X127344236Y-89888691D01*
X127262182Y-89618192D01*
X127128932Y-89368899D01*
X126996524Y-89207559D01*
X127084494Y-89160537D01*
X127181185Y-89081185D01*
X127260537Y-88984494D01*
X127319502Y-88874180D01*
X127355812Y-88754482D01*
X127368072Y-88630000D01*
X127368072Y-86630000D01*
X127355812Y-86505518D01*
X127319502Y-86385820D01*
X127260537Y-86275506D01*
X127181185Y-86178815D01*
X127084494Y-86099463D01*
X126974180Y-86040498D01*
X126854482Y-86004188D01*
X126730000Y-85991928D01*
X124730000Y-85991928D01*
X124605518Y-86004188D01*
X124485820Y-86040498D01*
X124375506Y-86099463D01*
X124278815Y-86178815D01*
X124199463Y-86275506D01*
X124140498Y-86385820D01*
X124104188Y-86505518D01*
X124091928Y-86630000D01*
X124091928Y-86964984D01*
X124035724Y-86995026D01*
X123919999Y-87089999D01*
X123896201Y-87118997D01*
X121063271Y-89951928D01*
X119800000Y-89951928D01*
X119675518Y-89964188D01*
X119555820Y-90000498D01*
X119445506Y-90059463D01*
X119348815Y-90138815D01*
X119269463Y-90235506D01*
X119210498Y-90345820D01*
X119174188Y-90465518D01*
X119161928Y-90590000D01*
X119161928Y-92290000D01*
X119174188Y-92414482D01*
X119210498Y-92534180D01*
X119269463Y-92644494D01*
X119348815Y-92741185D01*
X119445506Y-92820537D01*
X119555820Y-92879502D01*
X119624687Y-92900393D01*
X119594866Y-92924866D01*
X119409294Y-93150986D01*
X119271401Y-93408966D01*
X119186487Y-93688889D01*
X119157815Y-93980000D01*
X112895000Y-93980000D01*
X112895000Y-87630000D01*
X119308541Y-87630000D01*
X119334317Y-87891706D01*
X119410653Y-88143354D01*
X119534618Y-88375275D01*
X119701445Y-88578555D01*
X119904725Y-88745382D01*
X120136646Y-88869347D01*
X120388294Y-88945683D01*
X120584421Y-88965000D01*
X120715579Y-88965000D01*
X120911706Y-88945683D01*
X121163354Y-88869347D01*
X121395275Y-88745382D01*
X121598555Y-88578555D01*
X121765382Y-88375275D01*
X121889347Y-88143354D01*
X121965683Y-87891706D01*
X121991459Y-87630000D01*
X121965683Y-87368294D01*
X121889347Y-87116646D01*
X121765382Y-86884725D01*
X121598555Y-86681445D01*
X121395275Y-86514618D01*
X121163354Y-86390653D01*
X120911706Y-86314317D01*
X120715579Y-86295000D01*
X120584421Y-86295000D01*
X120388294Y-86314317D01*
X120136646Y-86390653D01*
X119904725Y-86514618D01*
X119701445Y-86681445D01*
X119534618Y-86884725D01*
X119410653Y-87116646D01*
X119334317Y-87368294D01*
X119308541Y-87630000D01*
X112895000Y-87630000D01*
X112895000Y-82418514D01*
X119315000Y-82418514D01*
X119315000Y-82681486D01*
X119366304Y-82939405D01*
X119466939Y-83182359D01*
X119613038Y-83401013D01*
X119798987Y-83586962D01*
X120017641Y-83733061D01*
X120260595Y-83833696D01*
X120518514Y-83885000D01*
X120781486Y-83885000D01*
X121039405Y-83833696D01*
X121282359Y-83733061D01*
X121501013Y-83586962D01*
X121686962Y-83401013D01*
X121833061Y-83182359D01*
X121933696Y-82939405D01*
X121985000Y-82681486D01*
X121985000Y-82418514D01*
X121933696Y-82160595D01*
X121833061Y-81917641D01*
X121686962Y-81698987D01*
X121501013Y-81513038D01*
X121282359Y-81366939D01*
X121039405Y-81266304D01*
X120781486Y-81215000D01*
X120518514Y-81215000D01*
X120260595Y-81266304D01*
X120017641Y-81366939D01*
X119798987Y-81513038D01*
X119613038Y-81698987D01*
X119466939Y-81917641D01*
X119366304Y-82160595D01*
X119315000Y-82418514D01*
X112895000Y-82418514D01*
X112895000Y-72920000D01*
X122851928Y-72920000D01*
X122851928Y-75720000D01*
X122864188Y-75844482D01*
X122900498Y-75964180D01*
X122959463Y-76074494D01*
X123038815Y-76171185D01*
X123135506Y-76250537D01*
X123245820Y-76309502D01*
X123365518Y-76345812D01*
X123490000Y-76358072D01*
X126290000Y-76358072D01*
X126414482Y-76345812D01*
X126534180Y-76309502D01*
X126644494Y-76250537D01*
X126741185Y-76171185D01*
X126761410Y-76146541D01*
X130945000Y-80330132D01*
X130945001Y-120705752D01*
X130961424Y-120872499D01*
X131026325Y-121086447D01*
X131131717Y-121283623D01*
X131273552Y-121456449D01*
X131446378Y-121598284D01*
X131643554Y-121703676D01*
X131857502Y-121768577D01*
X132080000Y-121790491D01*
X132302499Y-121768577D01*
X132516447Y-121703676D01*
X132713623Y-121598284D01*
X132886449Y-121456449D01*
X133028284Y-121283623D01*
X133133676Y-121086447D01*
X133198577Y-120872499D01*
X133215000Y-120705752D01*
X133215000Y-79954248D01*
X133213104Y-79934999D01*
X133220491Y-79859999D01*
X133198577Y-79637500D01*
X133133675Y-79423553D01*
X133028283Y-79226377D01*
X132921988Y-79096856D01*
X127381996Y-73556865D01*
X127346449Y-73513551D01*
X127173623Y-73371716D01*
X126976447Y-73266324D01*
X126928072Y-73251649D01*
X126928072Y-72920000D01*
X126915812Y-72795518D01*
X126879502Y-72675820D01*
X126820537Y-72565506D01*
X126741185Y-72468815D01*
X126644494Y-72389463D01*
X126534180Y-72330498D01*
X126414482Y-72294188D01*
X126290000Y-72281928D01*
X123490000Y-72281928D01*
X123365518Y-72294188D01*
X123245820Y-72330498D01*
X123135506Y-72389463D01*
X123038815Y-72468815D01*
X122959463Y-72565506D01*
X122900498Y-72675820D01*
X122864188Y-72795518D01*
X122851928Y-72920000D01*
X112895000Y-72920000D01*
X112895000Y-72860131D01*
X113400132Y-72355000D01*
X119224249Y-72355000D01*
X119280000Y-72360491D01*
X119335751Y-72355000D01*
X119335752Y-72355000D01*
X119502499Y-72338577D01*
X119716447Y-72273676D01*
X119913623Y-72168284D01*
X120086449Y-72026449D01*
X120121996Y-71983135D01*
X120221988Y-71883143D01*
X120328283Y-71753623D01*
X120433675Y-71556447D01*
X120498576Y-71342499D01*
X120520490Y-71120001D01*
X120498576Y-70897502D01*
X120433675Y-70683554D01*
X120328283Y-70486378D01*
X120186448Y-70313552D01*
X120013622Y-70171717D01*
X119816446Y-70066325D01*
X119602498Y-70001424D01*
X119379999Y-69979510D01*
X119157501Y-70001424D01*
X118943553Y-70066325D01*
X118908614Y-70085000D01*
X112985752Y-70085000D01*
X112930000Y-70079509D01*
X112874248Y-70085000D01*
X112707501Y-70101423D01*
X112493553Y-70166324D01*
X112296377Y-70271716D01*
X112123551Y-70413551D01*
X112088011Y-70456857D01*
X110996864Y-71548004D01*
X110953551Y-71583551D01*
X110811716Y-71756377D01*
X110716953Y-71933669D01*
X110706324Y-71953554D01*
X110641423Y-72167502D01*
X110619509Y-72390000D01*
X110625000Y-72445751D01*
X110625001Y-129949866D01*
X108639453Y-131935416D01*
X108184902Y-131845000D01*
X107715098Y-131845000D01*
X107254321Y-131936654D01*
X106820279Y-132116440D01*
X106429651Y-132377450D01*
X106097450Y-132709651D01*
X105836440Y-133100279D01*
X105656654Y-133534321D01*
X105565000Y-133995098D01*
X97180000Y-133995098D01*
X97180000Y-126264872D01*
X105715000Y-126264872D01*
X105715000Y-126705128D01*
X105800890Y-127136925D01*
X105969369Y-127543669D01*
X106213962Y-127909729D01*
X106525271Y-128221038D01*
X106891331Y-128465631D01*
X107298075Y-128634110D01*
X107729872Y-128720000D01*
X108170128Y-128720000D01*
X108601925Y-128634110D01*
X109008669Y-128465631D01*
X109374729Y-128221038D01*
X109686038Y-127909729D01*
X109930631Y-127543669D01*
X110099110Y-127136925D01*
X110185000Y-126705128D01*
X110185000Y-126264872D01*
X110099110Y-125833075D01*
X109930631Y-125426331D01*
X109686038Y-125060271D01*
X109374729Y-124748962D01*
X109008669Y-124504369D01*
X108601925Y-124335890D01*
X108170128Y-124250000D01*
X107729872Y-124250000D01*
X107298075Y-124335890D01*
X106891331Y-124504369D01*
X106525271Y-124748962D01*
X106213962Y-125060271D01*
X105969369Y-125426331D01*
X105800890Y-125833075D01*
X105715000Y-126264872D01*
X97180000Y-126264872D01*
X97180000Y-70654872D01*
X105715000Y-70654872D01*
X105715000Y-71095128D01*
X105800890Y-71526925D01*
X105969369Y-71933669D01*
X106213962Y-72299729D01*
X106525271Y-72611038D01*
X106891331Y-72855631D01*
X107298075Y-73024110D01*
X107729872Y-73110000D01*
X108170128Y-73110000D01*
X108601925Y-73024110D01*
X109008669Y-72855631D01*
X109374729Y-72611038D01*
X109686038Y-72299729D01*
X109930631Y-71933669D01*
X110099110Y-71526925D01*
X110185000Y-71095128D01*
X110185000Y-70654872D01*
X110099110Y-70223075D01*
X109930631Y-69816331D01*
X109686038Y-69450271D01*
X109374729Y-69138962D01*
X109008669Y-68894369D01*
X108601925Y-68725890D01*
X108170128Y-68640000D01*
X107729872Y-68640000D01*
X107298075Y-68725890D01*
X106891331Y-68894369D01*
X106525271Y-69138962D01*
X106213962Y-69450271D01*
X105969369Y-69816331D01*
X105800890Y-70223075D01*
X105715000Y-70654872D01*
X97180000Y-70654872D01*
X97180000Y-60480000D01*
X105561928Y-60480000D01*
X105561928Y-63980000D01*
X105574188Y-64104482D01*
X105610498Y-64224180D01*
X105669463Y-64334494D01*
X105748815Y-64431185D01*
X105845506Y-64510537D01*
X105955820Y-64569502D01*
X106075518Y-64605812D01*
X106200000Y-64618072D01*
X109700000Y-64618072D01*
X109824482Y-64605812D01*
X109944180Y-64569502D01*
X110054494Y-64510537D01*
X110151185Y-64431185D01*
X110230537Y-64334494D01*
X110289502Y-64224180D01*
X110325812Y-64104482D01*
X110338072Y-63980000D01*
X110338072Y-60480000D01*
X110325812Y-60355518D01*
X110289502Y-60235820D01*
X110230537Y-60125506D01*
X110151185Y-60028815D01*
X110054494Y-59949463D01*
X109944180Y-59890498D01*
X109824482Y-59854188D01*
X109700000Y-59841928D01*
X106200000Y-59841928D01*
X106075518Y-59854188D01*
X105955820Y-59890498D01*
X105845506Y-59949463D01*
X105748815Y-60028815D01*
X105669463Y-60125506D01*
X105610498Y-60235820D01*
X105574188Y-60355518D01*
X105561928Y-60480000D01*
X97180000Y-60480000D01*
X97180000Y-58720000D01*
X122851928Y-58720000D01*
X122851928Y-61520000D01*
X122864188Y-61644482D01*
X122900498Y-61764180D01*
X122959463Y-61874494D01*
X123038815Y-61971185D01*
X123135506Y-62050537D01*
X123245820Y-62109502D01*
X123365518Y-62145812D01*
X123490000Y-62158072D01*
X126290000Y-62158072D01*
X126414482Y-62145812D01*
X126534180Y-62109502D01*
X126644494Y-62050537D01*
X126741185Y-61971185D01*
X126761410Y-61946541D01*
X133485000Y-68670133D01*
X133485001Y-128192555D01*
X133430000Y-128187138D01*
X133111445Y-128218513D01*
X132805132Y-128311432D01*
X132522831Y-128462325D01*
X132275393Y-128665392D01*
X132072326Y-128912830D01*
X131921433Y-129195131D01*
X131828514Y-129501444D01*
X131805001Y-129740176D01*
X131805000Y-131879823D01*
X131828513Y-132118555D01*
X131921432Y-132424868D01*
X132072325Y-132707169D01*
X132275392Y-132954608D01*
X132522830Y-133157675D01*
X132805131Y-133308568D01*
X133111444Y-133401487D01*
X133430000Y-133432862D01*
X133748555Y-133401487D01*
X134054868Y-133308568D01*
X134337169Y-133157675D01*
X134584608Y-132954608D01*
X134787675Y-132707170D01*
X134938568Y-132424869D01*
X135031487Y-132118556D01*
X135055000Y-131879824D01*
X135055000Y-130790132D01*
X135383140Y-130461992D01*
X135426449Y-130426449D01*
X135568284Y-130253623D01*
X135673676Y-130056447D01*
X135738577Y-129842499D01*
X135744105Y-129786377D01*
X135760491Y-129620001D01*
X135755000Y-129564249D01*
X135755000Y-128830000D01*
X136801928Y-128830000D01*
X136801928Y-132790000D01*
X136814188Y-132914482D01*
X136850498Y-133034180D01*
X136909463Y-133144494D01*
X136988815Y-133241185D01*
X137085506Y-133320537D01*
X137195820Y-133379502D01*
X137315518Y-133415812D01*
X137440000Y-133428072D01*
X139420000Y-133428072D01*
X139544482Y-133415812D01*
X139664180Y-133379502D01*
X139774494Y-133320537D01*
X139871185Y-133241185D01*
X139922122Y-133179117D01*
X144315000Y-133179117D01*
X144315000Y-133520883D01*
X144381675Y-133856081D01*
X144512463Y-134171831D01*
X144702337Y-134455998D01*
X144944002Y-134697663D01*
X145228169Y-134887537D01*
X145543919Y-135018325D01*
X145879117Y-135085000D01*
X146220883Y-135085000D01*
X146556081Y-135018325D01*
X146871831Y-134887537D01*
X147155998Y-134697663D01*
X147397663Y-134455998D01*
X147587537Y-134171831D01*
X147718325Y-133856081D01*
X147785000Y-133520883D01*
X147785000Y-133179117D01*
X147718325Y-132843919D01*
X147587537Y-132528169D01*
X147397663Y-132244002D01*
X147155998Y-132002337D01*
X147068076Y-131943589D01*
X152285000Y-131943589D01*
X152285000Y-132216411D01*
X152338225Y-132483989D01*
X152442629Y-132736043D01*
X152594201Y-132962886D01*
X152787114Y-133155799D01*
X153013957Y-133307371D01*
X153116873Y-133350000D01*
X153013957Y-133392629D01*
X152787114Y-133544201D01*
X152594201Y-133737114D01*
X152442629Y-133963957D01*
X152338225Y-134216011D01*
X152285000Y-134483589D01*
X152285000Y-134756411D01*
X152338225Y-135023989D01*
X152442629Y-135276043D01*
X152594201Y-135502886D01*
X152787114Y-135695799D01*
X153013957Y-135847371D01*
X153266011Y-135951775D01*
X153533589Y-136005000D01*
X153806411Y-136005000D01*
X154073989Y-135951775D01*
X154326043Y-135847371D01*
X154552886Y-135695799D01*
X154745799Y-135502886D01*
X154897371Y-135276043D01*
X155001775Y-135023989D01*
X155055000Y-134756411D01*
X155055000Y-134483589D01*
X155001775Y-134216011D01*
X154897371Y-133963957D01*
X154745799Y-133737114D01*
X154552886Y-133544201D01*
X154326043Y-133392629D01*
X154223127Y-133350000D01*
X154326043Y-133307371D01*
X154552886Y-133155799D01*
X154745799Y-132962886D01*
X154897371Y-132736043D01*
X155001775Y-132483989D01*
X155055000Y-132216411D01*
X155055000Y-131943589D01*
X155001775Y-131676011D01*
X154897371Y-131423957D01*
X154745799Y-131197114D01*
X154552886Y-131004201D01*
X154326043Y-130852629D01*
X154226721Y-130811489D01*
X154268832Y-130796277D01*
X154381863Y-130735860D01*
X154447388Y-130496993D01*
X153670000Y-129719605D01*
X152892612Y-130496993D01*
X152958137Y-130735860D01*
X153116477Y-130810164D01*
X153013957Y-130852629D01*
X152787114Y-131004201D01*
X152594201Y-131197114D01*
X152442629Y-131423957D01*
X152338225Y-131676011D01*
X152285000Y-131943589D01*
X147068076Y-131943589D01*
X146871831Y-131812463D01*
X146556081Y-131681675D01*
X146220883Y-131615000D01*
X145879117Y-131615000D01*
X145543919Y-131681675D01*
X145228169Y-131812463D01*
X144944002Y-132002337D01*
X144702337Y-132244002D01*
X144512463Y-132528169D01*
X144381675Y-132843919D01*
X144315000Y-133179117D01*
X139922122Y-133179117D01*
X139950537Y-133144494D01*
X140009502Y-133034180D01*
X140045812Y-132914482D01*
X140058072Y-132790000D01*
X140058072Y-129612492D01*
X152280188Y-129612492D01*
X152321035Y-129882238D01*
X152413723Y-130138832D01*
X152474140Y-130251863D01*
X152713007Y-130317388D01*
X153490395Y-129540000D01*
X153849605Y-129540000D01*
X154626993Y-130317388D01*
X154865860Y-130251863D01*
X154981760Y-130004884D01*
X155047250Y-129740040D01*
X155059812Y-129467508D01*
X155018965Y-129197762D01*
X154926277Y-128941168D01*
X154865860Y-128828137D01*
X154626993Y-128762612D01*
X153849605Y-129540000D01*
X153490395Y-129540000D01*
X152713007Y-128762612D01*
X152474140Y-128828137D01*
X152358240Y-129075116D01*
X152292750Y-129339960D01*
X152280188Y-129612492D01*
X140058072Y-129612492D01*
X140058072Y-128830000D01*
X140045812Y-128705518D01*
X140009502Y-128585820D01*
X139950537Y-128475506D01*
X139871185Y-128378815D01*
X139774494Y-128299463D01*
X139664180Y-128240498D01*
X139544482Y-128204188D01*
X139420000Y-128191928D01*
X137440000Y-128191928D01*
X137315518Y-128204188D01*
X137195820Y-128240498D01*
X137085506Y-128299463D01*
X136988815Y-128378815D01*
X136909463Y-128475506D01*
X136850498Y-128585820D01*
X136814188Y-128705518D01*
X136801928Y-128830000D01*
X135755000Y-128830000D01*
X135755000Y-126250000D01*
X152281928Y-126250000D01*
X152281928Y-127750000D01*
X152294188Y-127874482D01*
X152330498Y-127994180D01*
X152389463Y-128104494D01*
X152468815Y-128201185D01*
X152565506Y-128280537D01*
X152675820Y-128339502D01*
X152795518Y-128375812D01*
X152920000Y-128388072D01*
X152946086Y-128388072D01*
X152892612Y-128583007D01*
X153670000Y-129360395D01*
X154447388Y-128583007D01*
X154393914Y-128388072D01*
X154420000Y-128388072D01*
X154544482Y-128375812D01*
X154664180Y-128339502D01*
X154774494Y-128280537D01*
X154871185Y-128201185D01*
X154950537Y-128104494D01*
X155009502Y-127994180D01*
X155045812Y-127874482D01*
X155058072Y-127750000D01*
X155058072Y-126250000D01*
X155045812Y-126125518D01*
X155009502Y-126005820D01*
X154950537Y-125895506D01*
X154871185Y-125798815D01*
X154774494Y-125719463D01*
X154664180Y-125660498D01*
X154544482Y-125624188D01*
X154420000Y-125611928D01*
X152920000Y-125611928D01*
X152795518Y-125624188D01*
X152675820Y-125660498D01*
X152565506Y-125719463D01*
X152468815Y-125798815D01*
X152389463Y-125895506D01*
X152330498Y-126005820D01*
X152294188Y-126125518D01*
X152281928Y-126250000D01*
X135755000Y-126250000D01*
X135755000Y-120650000D01*
X154717815Y-120650000D01*
X154746487Y-120941111D01*
X154831401Y-121221034D01*
X154969294Y-121479014D01*
X155154866Y-121705134D01*
X155380986Y-121890706D01*
X155638966Y-122028599D01*
X155918889Y-122113513D01*
X156137050Y-122135000D01*
X156282950Y-122135000D01*
X156501111Y-122113513D01*
X156781034Y-122028599D01*
X157039014Y-121890706D01*
X157265134Y-121705134D01*
X157450706Y-121479014D01*
X157588599Y-121221034D01*
X157673513Y-120941111D01*
X157702185Y-120650000D01*
X157673513Y-120358889D01*
X157588599Y-120078966D01*
X157450706Y-119820986D01*
X157265134Y-119594866D01*
X157039014Y-119409294D01*
X156974477Y-119374799D01*
X157091355Y-119305178D01*
X157307588Y-119110269D01*
X157481641Y-118876920D01*
X157606825Y-118614099D01*
X157651476Y-118466890D01*
X157530155Y-118237000D01*
X156337000Y-118237000D01*
X156337000Y-118257000D01*
X156083000Y-118257000D01*
X156083000Y-118237000D01*
X154889845Y-118237000D01*
X154768524Y-118466890D01*
X154813175Y-118614099D01*
X154938359Y-118876920D01*
X155112412Y-119110269D01*
X155328645Y-119305178D01*
X155445523Y-119374799D01*
X155380986Y-119409294D01*
X155154866Y-119594866D01*
X154969294Y-119820986D01*
X154831401Y-120078966D01*
X154746487Y-120358889D01*
X154717815Y-120650000D01*
X135755000Y-120650000D01*
X135755000Y-97688061D01*
X137395000Y-97688061D01*
X137395000Y-97891939D01*
X137434774Y-98091898D01*
X137512795Y-98280256D01*
X137626063Y-98449774D01*
X137770226Y-98593937D01*
X137939744Y-98707205D01*
X138128102Y-98785226D01*
X138328061Y-98825000D01*
X138390199Y-98825000D01*
X138940001Y-99374803D01*
X138940000Y-107246289D01*
X138896063Y-107290226D01*
X138782795Y-107459744D01*
X138704774Y-107648102D01*
X138665000Y-107848061D01*
X138665000Y-108051939D01*
X138704774Y-108251898D01*
X138782795Y-108440256D01*
X138896063Y-108609774D01*
X139040226Y-108753937D01*
X139209744Y-108867205D01*
X139398102Y-108945226D01*
X139598061Y-108985000D01*
X139801939Y-108985000D01*
X140001898Y-108945226D01*
X140085001Y-108910803D01*
X140085001Y-113933420D01*
X138184957Y-115833465D01*
X138128102Y-115844774D01*
X137939744Y-115922795D01*
X137770226Y-116036063D01*
X137626063Y-116180226D01*
X137512795Y-116349744D01*
X137434774Y-116538102D01*
X137395000Y-116738061D01*
X137395000Y-116941939D01*
X137434774Y-117141898D01*
X137512795Y-117330256D01*
X137626063Y-117499774D01*
X137770226Y-117643937D01*
X137939744Y-117757205D01*
X138128102Y-117835226D01*
X138328061Y-117875000D01*
X138531939Y-117875000D01*
X138731898Y-117835226D01*
X138920256Y-117757205D01*
X139089774Y-117643937D01*
X139233937Y-117499774D01*
X139347205Y-117330256D01*
X139425226Y-117141898D01*
X139436535Y-117085043D01*
X141565049Y-114956530D01*
X141598817Y-114928817D01*
X141685853Y-114822764D01*
X141699999Y-114840001D01*
X141729003Y-114863804D01*
X142946201Y-116081003D01*
X142969999Y-116110001D01*
X143085724Y-116204974D01*
X143217753Y-116275546D01*
X143361014Y-116319003D01*
X143472667Y-116330000D01*
X143472676Y-116330000D01*
X143509999Y-116333676D01*
X143547322Y-116330000D01*
X154932405Y-116330000D01*
X154969294Y-116399014D01*
X155154866Y-116625134D01*
X155380986Y-116810706D01*
X155445523Y-116845201D01*
X155328645Y-116914822D01*
X155112412Y-117109731D01*
X154938359Y-117343080D01*
X154813175Y-117605901D01*
X154768524Y-117753110D01*
X154889845Y-117983000D01*
X156083000Y-117983000D01*
X156083000Y-117963000D01*
X156337000Y-117963000D01*
X156337000Y-117983000D01*
X157530155Y-117983000D01*
X157651476Y-117753110D01*
X157606825Y-117605901D01*
X157481641Y-117343080D01*
X157307588Y-117109731D01*
X157091355Y-116914822D01*
X156974477Y-116845201D01*
X157039014Y-116810706D01*
X157265134Y-116625134D01*
X157450706Y-116399014D01*
X157588599Y-116141034D01*
X157673513Y-115861111D01*
X157702185Y-115570000D01*
X157673513Y-115278889D01*
X157588599Y-114998966D01*
X157450706Y-114740986D01*
X157265134Y-114514866D01*
X157039014Y-114329294D01*
X156984209Y-114300000D01*
X157039014Y-114270706D01*
X157265134Y-114085134D01*
X157450706Y-113859014D01*
X157588599Y-113601034D01*
X157673513Y-113321111D01*
X157702185Y-113030000D01*
X157673513Y-112738889D01*
X157588599Y-112458966D01*
X157450706Y-112200986D01*
X157265134Y-111974866D01*
X157039014Y-111789294D01*
X156984209Y-111760000D01*
X157039014Y-111730706D01*
X157265134Y-111545134D01*
X157450706Y-111319014D01*
X157588599Y-111061034D01*
X157673513Y-110781111D01*
X157702185Y-110490000D01*
X157673513Y-110198889D01*
X157588599Y-109918966D01*
X157450706Y-109660986D01*
X157265134Y-109434866D01*
X157235313Y-109410393D01*
X157304180Y-109389502D01*
X157414494Y-109330537D01*
X157511185Y-109251185D01*
X157590537Y-109154494D01*
X157649502Y-109044180D01*
X157685812Y-108924482D01*
X157698072Y-108800000D01*
X157698072Y-107100000D01*
X157685812Y-106975518D01*
X157649502Y-106855820D01*
X157590537Y-106745506D01*
X157511185Y-106648815D01*
X157414494Y-106569463D01*
X157304180Y-106510498D01*
X157184482Y-106474188D01*
X157060000Y-106461928D01*
X155360000Y-106461928D01*
X155235518Y-106474188D01*
X155115820Y-106510498D01*
X155005506Y-106569463D01*
X154908815Y-106648815D01*
X154829463Y-106745506D01*
X154770498Y-106855820D01*
X154734188Y-106975518D01*
X154721928Y-107100000D01*
X154721928Y-108800000D01*
X154734188Y-108924482D01*
X154770498Y-109044180D01*
X154829463Y-109154494D01*
X154908815Y-109251185D01*
X155005506Y-109330537D01*
X155115820Y-109389502D01*
X155184687Y-109410393D01*
X155154866Y-109434866D01*
X154969294Y-109660986D01*
X154831401Y-109918966D01*
X154746487Y-110198889D01*
X154717815Y-110490000D01*
X154746487Y-110781111D01*
X154831401Y-111061034D01*
X154969294Y-111319014D01*
X155154866Y-111545134D01*
X155380986Y-111730706D01*
X155435791Y-111760000D01*
X155380986Y-111789294D01*
X155154866Y-111974866D01*
X154969294Y-112200986D01*
X154932405Y-112270000D01*
X147634802Y-112270000D01*
X144073804Y-108709003D01*
X144073799Y-108708997D01*
X143000000Y-107635199D01*
X143000000Y-107244801D01*
X144216200Y-108461002D01*
X144239999Y-108490001D01*
X144355724Y-108584974D01*
X144487753Y-108655546D01*
X144631014Y-108699003D01*
X144742667Y-108710000D01*
X144742676Y-108710000D01*
X144779999Y-108713676D01*
X144817322Y-108710000D01*
X152362678Y-108710000D01*
X152400000Y-108713676D01*
X152437322Y-108710000D01*
X152437333Y-108710000D01*
X152548986Y-108699003D01*
X152692247Y-108655546D01*
X152824276Y-108584974D01*
X152940001Y-108490001D01*
X152963804Y-108460997D01*
X154181004Y-107243798D01*
X154210001Y-107220001D01*
X154304974Y-107104276D01*
X154375546Y-106972247D01*
X154419003Y-106828986D01*
X154430000Y-106717333D01*
X154430000Y-106717324D01*
X154433676Y-106680001D01*
X154430000Y-106642678D01*
X154430000Y-99097322D01*
X154433676Y-99059999D01*
X154430000Y-99022676D01*
X154430000Y-99022667D01*
X154419003Y-98911014D01*
X154375546Y-98767753D01*
X154304974Y-98635724D01*
X154210001Y-98519999D01*
X154181003Y-98496201D01*
X153160000Y-97475199D01*
X153160000Y-96834801D01*
X153555000Y-96439801D01*
X153555000Y-96656411D01*
X153608225Y-96923989D01*
X153712629Y-97176043D01*
X153864201Y-97402886D01*
X154057114Y-97595799D01*
X154283957Y-97747371D01*
X154536011Y-97851775D01*
X154803589Y-97905000D01*
X155076411Y-97905000D01*
X155343989Y-97851775D01*
X155596043Y-97747371D01*
X155822886Y-97595799D01*
X156015799Y-97402886D01*
X156167371Y-97176043D01*
X156271775Y-96923989D01*
X156325000Y-96656411D01*
X156325000Y-96383589D01*
X156271775Y-96116011D01*
X156167371Y-95863957D01*
X156015799Y-95637114D01*
X155822886Y-95444201D01*
X155596043Y-95292629D01*
X155493127Y-95250000D01*
X155596043Y-95207371D01*
X155822886Y-95055799D01*
X156015799Y-94862886D01*
X156167371Y-94636043D01*
X156271775Y-94383989D01*
X156325000Y-94116411D01*
X156325000Y-93843589D01*
X156271775Y-93576011D01*
X156167371Y-93323957D01*
X156015799Y-93097114D01*
X155822886Y-92904201D01*
X155596043Y-92752629D01*
X155496721Y-92711489D01*
X155538832Y-92696277D01*
X155651863Y-92635860D01*
X155717388Y-92396993D01*
X154940000Y-91619605D01*
X154162612Y-92396993D01*
X154228137Y-92635860D01*
X154386477Y-92710164D01*
X154283957Y-92752629D01*
X154057114Y-92904201D01*
X153864201Y-93097114D01*
X153712629Y-93323957D01*
X153608225Y-93576011D01*
X153555000Y-93843589D01*
X153555000Y-94116411D01*
X153583833Y-94261364D01*
X151888998Y-95956201D01*
X151860000Y-95979999D01*
X151836202Y-96008997D01*
X151836201Y-96008998D01*
X151765026Y-96095724D01*
X151694454Y-96227754D01*
X151664180Y-96327558D01*
X151650998Y-96371014D01*
X151640001Y-96482667D01*
X151636324Y-96520000D01*
X151640001Y-96557332D01*
X151640000Y-97752677D01*
X151636324Y-97790000D01*
X151640000Y-97827322D01*
X151640000Y-97827332D01*
X151650997Y-97938985D01*
X151691136Y-98071309D01*
X151694454Y-98082246D01*
X151765026Y-98214276D01*
X151804871Y-98262826D01*
X151859999Y-98330001D01*
X151889003Y-98353804D01*
X152910001Y-99374803D01*
X152910000Y-106365198D01*
X152085199Y-107190000D01*
X145094802Y-107190000D01*
X144270000Y-106365199D01*
X144270000Y-104704801D01*
X145486201Y-105921003D01*
X145509999Y-105950001D01*
X145625724Y-106044974D01*
X145757753Y-106115546D01*
X145901014Y-106159003D01*
X146012667Y-106170000D01*
X146012676Y-106170000D01*
X146049999Y-106173676D01*
X146087322Y-106170000D01*
X147169099Y-106170000D01*
X147191068Y-106211101D01*
X147370392Y-106429608D01*
X147588899Y-106608932D01*
X147838192Y-106742182D01*
X148108691Y-106824236D01*
X148319508Y-106845000D01*
X148860492Y-106845000D01*
X149071309Y-106824236D01*
X149341808Y-106742182D01*
X149591101Y-106608932D01*
X149809608Y-106429608D01*
X149988932Y-106211101D01*
X150122182Y-105961808D01*
X150204236Y-105691309D01*
X150231943Y-105410000D01*
X150204236Y-105128691D01*
X150122182Y-104858192D01*
X149988932Y-104608899D01*
X149809608Y-104390392D01*
X149591101Y-104211068D01*
X149461655Y-104141878D01*
X149479227Y-104134430D01*
X149712662Y-103975673D01*
X149910639Y-103774425D01*
X150065551Y-103538421D01*
X150171444Y-103276730D01*
X150181904Y-103219039D01*
X150059915Y-102997000D01*
X148717000Y-102997000D01*
X148717000Y-103017000D01*
X148463000Y-103017000D01*
X148463000Y-102997000D01*
X147120085Y-102997000D01*
X146998096Y-103219039D01*
X147008556Y-103276730D01*
X147114449Y-103538421D01*
X147269361Y-103774425D01*
X147467338Y-103975673D01*
X147700773Y-104134430D01*
X147718345Y-104141878D01*
X147588899Y-104211068D01*
X147370392Y-104390392D01*
X147191068Y-104608899D01*
X147169099Y-104650000D01*
X146364802Y-104650000D01*
X145540000Y-103825199D01*
X145540000Y-87630000D01*
X146948057Y-87630000D01*
X146975764Y-87911309D01*
X147057818Y-88181808D01*
X147191068Y-88431101D01*
X147370392Y-88649608D01*
X147588899Y-88828932D01*
X147721858Y-88900000D01*
X147588899Y-88971068D01*
X147370392Y-89150392D01*
X147191068Y-89368899D01*
X147057818Y-89618192D01*
X146975764Y-89888691D01*
X146948057Y-90170000D01*
X146975764Y-90451309D01*
X147057818Y-90721808D01*
X147191068Y-90971101D01*
X147370392Y-91189608D01*
X147588899Y-91368932D01*
X147721858Y-91440000D01*
X147588899Y-91511068D01*
X147370392Y-91690392D01*
X147191068Y-91908899D01*
X147057818Y-92158192D01*
X146975764Y-92428691D01*
X146948057Y-92710000D01*
X146975764Y-92991309D01*
X147057818Y-93261808D01*
X147191068Y-93511101D01*
X147370392Y-93729608D01*
X147588899Y-93908932D01*
X147721858Y-93980000D01*
X147588899Y-94051068D01*
X147370392Y-94230392D01*
X147191068Y-94448899D01*
X147057818Y-94698192D01*
X146975764Y-94968691D01*
X146948057Y-95250000D01*
X146975764Y-95531309D01*
X147057818Y-95801808D01*
X147191068Y-96051101D01*
X147370392Y-96269608D01*
X147588899Y-96448932D01*
X147721858Y-96520000D01*
X147588899Y-96591068D01*
X147370392Y-96770392D01*
X147191068Y-96988899D01*
X147057818Y-97238192D01*
X146975764Y-97508691D01*
X146948057Y-97790000D01*
X146975764Y-98071309D01*
X147057818Y-98341808D01*
X147191068Y-98591101D01*
X147370392Y-98809608D01*
X147588899Y-98988932D01*
X147721858Y-99060000D01*
X147588899Y-99131068D01*
X147370392Y-99310392D01*
X147191068Y-99528899D01*
X147057818Y-99778192D01*
X146975764Y-100048691D01*
X146948057Y-100330000D01*
X146975764Y-100611309D01*
X147057818Y-100881808D01*
X147191068Y-101131101D01*
X147370392Y-101349608D01*
X147588899Y-101528932D01*
X147718345Y-101598122D01*
X147700773Y-101605570D01*
X147467338Y-101764327D01*
X147269361Y-101965575D01*
X147114449Y-102201579D01*
X147008556Y-102463270D01*
X146998096Y-102520961D01*
X147120085Y-102743000D01*
X148463000Y-102743000D01*
X148463000Y-102723000D01*
X148717000Y-102723000D01*
X148717000Y-102743000D01*
X150059915Y-102743000D01*
X150181904Y-102520961D01*
X150171444Y-102463270D01*
X150065551Y-102201579D01*
X149910639Y-101965575D01*
X149712662Y-101764327D01*
X149479227Y-101605570D01*
X149461655Y-101598122D01*
X149591101Y-101528932D01*
X149809608Y-101349608D01*
X149988932Y-101131101D01*
X150122182Y-100881808D01*
X150204236Y-100611309D01*
X150231943Y-100330000D01*
X150204236Y-100048691D01*
X150122182Y-99778192D01*
X149988932Y-99528899D01*
X149809608Y-99310392D01*
X149591101Y-99131068D01*
X149458142Y-99060000D01*
X149591101Y-98988932D01*
X149809608Y-98809608D01*
X149988932Y-98591101D01*
X150122182Y-98341808D01*
X150204236Y-98071309D01*
X150231943Y-97790000D01*
X150204236Y-97508691D01*
X150122182Y-97238192D01*
X149988932Y-96988899D01*
X149809608Y-96770392D01*
X149591101Y-96591068D01*
X149458142Y-96520000D01*
X149591101Y-96448932D01*
X149809608Y-96269608D01*
X149988932Y-96051101D01*
X150122182Y-95801808D01*
X150204236Y-95531309D01*
X150231943Y-95250000D01*
X150204236Y-94968691D01*
X150122182Y-94698192D01*
X149988932Y-94448899D01*
X149809608Y-94230392D01*
X149591101Y-94051068D01*
X149458142Y-93980000D01*
X149591101Y-93908932D01*
X149809608Y-93729608D01*
X149988932Y-93511101D01*
X150122182Y-93261808D01*
X150204236Y-92991309D01*
X150231943Y-92710000D01*
X150204236Y-92428691D01*
X150122182Y-92158192D01*
X149988932Y-91908899D01*
X149809608Y-91690392D01*
X149592837Y-91512492D01*
X153550188Y-91512492D01*
X153591035Y-91782238D01*
X153683723Y-92038832D01*
X153744140Y-92151863D01*
X153983007Y-92217388D01*
X154760395Y-91440000D01*
X155119605Y-91440000D01*
X155896993Y-92217388D01*
X156135860Y-92151863D01*
X156251760Y-91904884D01*
X156317250Y-91640040D01*
X156329812Y-91367508D01*
X156288965Y-91097762D01*
X156196277Y-90841168D01*
X156135860Y-90728137D01*
X155896993Y-90662612D01*
X155119605Y-91440000D01*
X154760395Y-91440000D01*
X153983007Y-90662612D01*
X153744140Y-90728137D01*
X153628240Y-90975116D01*
X153562750Y-91239960D01*
X153550188Y-91512492D01*
X149592837Y-91512492D01*
X149591101Y-91511068D01*
X149458142Y-91440000D01*
X149591101Y-91368932D01*
X149809608Y-91189608D01*
X149988932Y-90971101D01*
X150122182Y-90721808D01*
X150204236Y-90451309D01*
X150231943Y-90170000D01*
X150204236Y-89888691D01*
X150122182Y-89618192D01*
X149988932Y-89368899D01*
X149809608Y-89150392D01*
X149591101Y-88971068D01*
X149458142Y-88900000D01*
X149591101Y-88828932D01*
X149670721Y-88763589D01*
X153555000Y-88763589D01*
X153555000Y-89036411D01*
X153608225Y-89303989D01*
X153712629Y-89556043D01*
X153864201Y-89782886D01*
X154057114Y-89975799D01*
X154283957Y-90127371D01*
X154383279Y-90168511D01*
X154341168Y-90183723D01*
X154228137Y-90244140D01*
X154162612Y-90483007D01*
X154940000Y-91260395D01*
X155717388Y-90483007D01*
X155651863Y-90244140D01*
X155493523Y-90169836D01*
X155596043Y-90127371D01*
X155822886Y-89975799D01*
X156015799Y-89782886D01*
X156167371Y-89556043D01*
X156271775Y-89303989D01*
X156325000Y-89036411D01*
X156325000Y-88763589D01*
X156271775Y-88496011D01*
X156167371Y-88243957D01*
X156015799Y-88017114D01*
X155822886Y-87824201D01*
X155596043Y-87672629D01*
X155343989Y-87568225D01*
X155076411Y-87515000D01*
X154803589Y-87515000D01*
X154536011Y-87568225D01*
X154283957Y-87672629D01*
X154057114Y-87824201D01*
X153864201Y-88017114D01*
X153712629Y-88243957D01*
X153608225Y-88496011D01*
X153555000Y-88763589D01*
X149670721Y-88763589D01*
X149809608Y-88649608D01*
X149988932Y-88431101D01*
X150122182Y-88181808D01*
X150204236Y-87911309D01*
X150231943Y-87630000D01*
X150204236Y-87348691D01*
X150122182Y-87078192D01*
X149988932Y-86828899D01*
X149809608Y-86610392D01*
X149591101Y-86431068D01*
X149341808Y-86297818D01*
X149071309Y-86215764D01*
X148860492Y-86195000D01*
X148319508Y-86195000D01*
X148108691Y-86215764D01*
X147838192Y-86297818D01*
X147588899Y-86431068D01*
X147370392Y-86610392D01*
X147191068Y-86828899D01*
X147057818Y-87078192D01*
X146975764Y-87348691D01*
X146948057Y-87630000D01*
X145540000Y-87630000D01*
X145540000Y-76020000D01*
X145751928Y-76020000D01*
X145764188Y-76144482D01*
X145800498Y-76264180D01*
X145859463Y-76374494D01*
X145938815Y-76471185D01*
X146035506Y-76550537D01*
X146145820Y-76609502D01*
X146265518Y-76645812D01*
X146390000Y-76658072D01*
X147504250Y-76655000D01*
X147663000Y-76496250D01*
X147663000Y-74747000D01*
X147917000Y-74747000D01*
X147917000Y-76496250D01*
X148075750Y-76655000D01*
X149190000Y-76658072D01*
X149314482Y-76645812D01*
X149434180Y-76609502D01*
X149544494Y-76550537D01*
X149641185Y-76471185D01*
X149720537Y-76374494D01*
X149779502Y-76264180D01*
X149815812Y-76144482D01*
X149828072Y-76020000D01*
X149825000Y-74905750D01*
X149666250Y-74747000D01*
X147917000Y-74747000D01*
X147663000Y-74747000D01*
X145913750Y-74747000D01*
X145755000Y-74905750D01*
X145751928Y-76020000D01*
X145540000Y-76020000D01*
X145540000Y-70164801D01*
X145751928Y-69952873D01*
X145751928Y-72620000D01*
X145764188Y-72744482D01*
X145800498Y-72864180D01*
X145830335Y-72920000D01*
X145800498Y-72975820D01*
X145764188Y-73095518D01*
X145751928Y-73220000D01*
X145755000Y-74334250D01*
X145913750Y-74493000D01*
X147663000Y-74493000D01*
X147663000Y-74473000D01*
X147917000Y-74473000D01*
X147917000Y-74493000D01*
X149666250Y-74493000D01*
X149825000Y-74334250D01*
X149826858Y-73660000D01*
X153447815Y-73660000D01*
X153476487Y-73951111D01*
X153561401Y-74231034D01*
X153699294Y-74489014D01*
X153884866Y-74715134D01*
X154110986Y-74900706D01*
X154165791Y-74930000D01*
X154110986Y-74959294D01*
X153884866Y-75144866D01*
X153699294Y-75370986D01*
X153561401Y-75628966D01*
X153476487Y-75908889D01*
X153447815Y-76200000D01*
X153476487Y-76491111D01*
X153561401Y-76771034D01*
X153699294Y-77029014D01*
X153884866Y-77255134D01*
X154110986Y-77440706D01*
X154165791Y-77470000D01*
X154110986Y-77499294D01*
X153884866Y-77684866D01*
X153699294Y-77910986D01*
X153561401Y-78168966D01*
X153476487Y-78448889D01*
X153447815Y-78740000D01*
X153476487Y-79031111D01*
X153561401Y-79311034D01*
X153699294Y-79569014D01*
X153884866Y-79795134D01*
X154110986Y-79980706D01*
X154165791Y-80010000D01*
X154110986Y-80039294D01*
X153884866Y-80224866D01*
X153699294Y-80450986D01*
X153561401Y-80708966D01*
X153476487Y-80988889D01*
X153447815Y-81280000D01*
X153476487Y-81571111D01*
X153561401Y-81851034D01*
X153699294Y-82109014D01*
X153884866Y-82335134D01*
X154110986Y-82520706D01*
X154368966Y-82658599D01*
X154648889Y-82743513D01*
X154867050Y-82765000D01*
X155012950Y-82765000D01*
X155231111Y-82743513D01*
X155511034Y-82658599D01*
X155769014Y-82520706D01*
X155995134Y-82335134D01*
X156180706Y-82109014D01*
X156318599Y-81851034D01*
X156403513Y-81571111D01*
X156432185Y-81280000D01*
X156403513Y-80988889D01*
X156318599Y-80708966D01*
X156180706Y-80450986D01*
X155995134Y-80224866D01*
X155769014Y-80039294D01*
X155714209Y-80010000D01*
X155769014Y-79980706D01*
X155995134Y-79795134D01*
X156180706Y-79569014D01*
X156318599Y-79311034D01*
X156403513Y-79031111D01*
X156432185Y-78740000D01*
X156403513Y-78448889D01*
X156318599Y-78168966D01*
X156180706Y-77910986D01*
X155995134Y-77684866D01*
X155769014Y-77499294D01*
X155714209Y-77470000D01*
X155769014Y-77440706D01*
X155995134Y-77255134D01*
X156180706Y-77029014D01*
X156318599Y-76771034D01*
X156403513Y-76491111D01*
X156432185Y-76200000D01*
X156403513Y-75908889D01*
X156318599Y-75628966D01*
X156180706Y-75370986D01*
X155995134Y-75144866D01*
X155769014Y-74959294D01*
X155714209Y-74930000D01*
X155769014Y-74900706D01*
X155995134Y-74715134D01*
X156180706Y-74489014D01*
X156318599Y-74231034D01*
X156403513Y-73951111D01*
X156432185Y-73660000D01*
X156403513Y-73368889D01*
X156318599Y-73088966D01*
X156180706Y-72830986D01*
X155995134Y-72604866D01*
X155769014Y-72419294D01*
X155704477Y-72384799D01*
X155821355Y-72315178D01*
X156037588Y-72120269D01*
X156211641Y-71886920D01*
X156336825Y-71624099D01*
X156381476Y-71476890D01*
X156260155Y-71247000D01*
X155067000Y-71247000D01*
X155067000Y-71267000D01*
X154813000Y-71267000D01*
X154813000Y-71247000D01*
X153619845Y-71247000D01*
X153498524Y-71476890D01*
X153543175Y-71624099D01*
X153668359Y-71886920D01*
X153842412Y-72120269D01*
X154058645Y-72315178D01*
X154175523Y-72384799D01*
X154110986Y-72419294D01*
X153884866Y-72604866D01*
X153699294Y-72830986D01*
X153561401Y-73088966D01*
X153476487Y-73368889D01*
X153447815Y-73660000D01*
X149826858Y-73660000D01*
X149828072Y-73220000D01*
X149815812Y-73095518D01*
X149779502Y-72975820D01*
X149749665Y-72920000D01*
X149779502Y-72864180D01*
X149815812Y-72744482D01*
X149828072Y-72620000D01*
X149828072Y-69820000D01*
X149815812Y-69695518D01*
X149779502Y-69575820D01*
X149720537Y-69465506D01*
X149641185Y-69368815D01*
X149606074Y-69340000D01*
X153451928Y-69340000D01*
X153451928Y-69430000D01*
X153464188Y-69554482D01*
X153500498Y-69674180D01*
X153559463Y-69784494D01*
X153638815Y-69881185D01*
X153735506Y-69960537D01*
X153845820Y-70019502D01*
X153926466Y-70043966D01*
X153842412Y-70119731D01*
X153668359Y-70353080D01*
X153543175Y-70615901D01*
X153498524Y-70763110D01*
X153619845Y-70993000D01*
X154813000Y-70993000D01*
X154813000Y-70973000D01*
X155067000Y-70973000D01*
X155067000Y-70993000D01*
X156260155Y-70993000D01*
X156381476Y-70763110D01*
X156336825Y-70615901D01*
X156211641Y-70353080D01*
X156037588Y-70119731D01*
X155953534Y-70043966D01*
X156034180Y-70019502D01*
X156144494Y-69960537D01*
X156241185Y-69881185D01*
X156320537Y-69784494D01*
X156379502Y-69674180D01*
X156415812Y-69554482D01*
X156428072Y-69430000D01*
X156428072Y-67730000D01*
X156415812Y-67605518D01*
X156379502Y-67485820D01*
X156320537Y-67375506D01*
X156241185Y-67278815D01*
X156144494Y-67199463D01*
X156034180Y-67140498D01*
X155914482Y-67104188D01*
X155790000Y-67091928D01*
X154090000Y-67091928D01*
X153965518Y-67104188D01*
X153845820Y-67140498D01*
X153735506Y-67199463D01*
X153638815Y-67278815D01*
X153559463Y-67375506D01*
X153500498Y-67485820D01*
X153464188Y-67605518D01*
X153451928Y-67730000D01*
X153451928Y-67820000D01*
X146087322Y-67820000D01*
X146049999Y-67816324D01*
X146012676Y-67820000D01*
X146012667Y-67820000D01*
X145901014Y-67830997D01*
X145757753Y-67874454D01*
X145625724Y-67945026D01*
X145509999Y-68039999D01*
X145486201Y-68068997D01*
X144269003Y-69286196D01*
X144239999Y-69309999D01*
X144184871Y-69377174D01*
X144145026Y-69425724D01*
X144123762Y-69465506D01*
X144074454Y-69557754D01*
X144030997Y-69701015D01*
X144020000Y-69812668D01*
X144020000Y-69812678D01*
X144016324Y-69850000D01*
X144020000Y-69887322D01*
X144020001Y-100695988D01*
X144000256Y-100682795D01*
X143811898Y-100604774D01*
X143611939Y-100565000D01*
X143408061Y-100565000D01*
X143208102Y-100604774D01*
X143019744Y-100682795D01*
X143000000Y-100695987D01*
X143000000Y-98493711D01*
X143043937Y-98449774D01*
X143157205Y-98280256D01*
X143235226Y-98091898D01*
X143275000Y-97891939D01*
X143275000Y-97688061D01*
X143235226Y-97488102D01*
X143157205Y-97299744D01*
X143043937Y-97130226D01*
X142899774Y-96986063D01*
X142730256Y-96872795D01*
X142541898Y-96794774D01*
X142341939Y-96755000D01*
X142138061Y-96755000D01*
X141938102Y-96794774D01*
X141855000Y-96829196D01*
X141855000Y-65656578D01*
X145788139Y-61723439D01*
X145800498Y-61764180D01*
X145857061Y-61870000D01*
X145800498Y-61975820D01*
X145764188Y-62095518D01*
X145751928Y-62220000D01*
X145751928Y-65020000D01*
X145764188Y-65144482D01*
X145800498Y-65264180D01*
X145859463Y-65374494D01*
X145938815Y-65471185D01*
X146035506Y-65550537D01*
X146145820Y-65609502D01*
X146265518Y-65645812D01*
X146390000Y-65658072D01*
X149190000Y-65658072D01*
X149314482Y-65645812D01*
X149434180Y-65609502D01*
X149544494Y-65550537D01*
X149641185Y-65471185D01*
X149720537Y-65374494D01*
X149779502Y-65264180D01*
X149815812Y-65144482D01*
X149828072Y-65020000D01*
X149828072Y-62220000D01*
X149815812Y-62095518D01*
X149779502Y-61975820D01*
X149722939Y-61870000D01*
X149779502Y-61764180D01*
X149815812Y-61644482D01*
X149828072Y-61520000D01*
X149828072Y-60789117D01*
X153205000Y-60789117D01*
X153205000Y-61130883D01*
X153271675Y-61466081D01*
X153402463Y-61781831D01*
X153592337Y-62065998D01*
X153834002Y-62307663D01*
X154118169Y-62497537D01*
X154433919Y-62628325D01*
X154769117Y-62695000D01*
X155110883Y-62695000D01*
X155446081Y-62628325D01*
X155761831Y-62497537D01*
X156045998Y-62307663D01*
X156287663Y-62065998D01*
X156477537Y-61781831D01*
X156608325Y-61466081D01*
X156675000Y-61130883D01*
X156675000Y-60789117D01*
X156608325Y-60453919D01*
X156477537Y-60138169D01*
X156287663Y-59854002D01*
X156045998Y-59612337D01*
X155761831Y-59422463D01*
X155446081Y-59291675D01*
X155110883Y-59225000D01*
X154769117Y-59225000D01*
X154433919Y-59291675D01*
X154118169Y-59422463D01*
X153834002Y-59612337D01*
X153592337Y-59854002D01*
X153402463Y-60138169D01*
X153271675Y-60453919D01*
X153205000Y-60789117D01*
X149828072Y-60789117D01*
X149828072Y-58720000D01*
X149815812Y-58595518D01*
X149779502Y-58475820D01*
X149720537Y-58365506D01*
X149641185Y-58268815D01*
X149544494Y-58189463D01*
X149434180Y-58130498D01*
X149314482Y-58094188D01*
X149190000Y-58081928D01*
X146390000Y-58081928D01*
X146265518Y-58094188D01*
X146145820Y-58130498D01*
X146035506Y-58189463D01*
X145938815Y-58268815D01*
X145859463Y-58365506D01*
X145800498Y-58475820D01*
X145764188Y-58595518D01*
X145751928Y-58720000D01*
X145751928Y-59323938D01*
X145645941Y-59380589D01*
X145645939Y-59380590D01*
X145645940Y-59380590D01*
X145544953Y-59463468D01*
X145544951Y-59463470D01*
X145511183Y-59491183D01*
X145483470Y-59524951D01*
X140374956Y-64633466D01*
X140341183Y-64661183D01*
X140230589Y-64795942D01*
X140148411Y-64949688D01*
X140097805Y-65116511D01*
X140085000Y-65246524D01*
X140085000Y-65246531D01*
X140080719Y-65290000D01*
X140085000Y-65333469D01*
X140085001Y-98370199D01*
X139465000Y-97750199D01*
X139465000Y-97688061D01*
X139425226Y-97488102D01*
X139347205Y-97299744D01*
X139233937Y-97130226D01*
X139089774Y-96986063D01*
X138920256Y-96872795D01*
X138731898Y-96794774D01*
X138531939Y-96755000D01*
X138328061Y-96755000D01*
X138128102Y-96794774D01*
X137939744Y-96872795D01*
X137770226Y-96986063D01*
X137626063Y-97130226D01*
X137512795Y-97299744D01*
X137434774Y-97488102D01*
X137395000Y-97688061D01*
X135755000Y-97688061D01*
X135755000Y-68255752D01*
X135760491Y-68200000D01*
X135738577Y-67977501D01*
X135673676Y-67763553D01*
X135568284Y-67566377D01*
X135461989Y-67436856D01*
X135461987Y-67436854D01*
X135426449Y-67393551D01*
X135383146Y-67358013D01*
X127381996Y-59356865D01*
X127346449Y-59313551D01*
X127173623Y-59171716D01*
X126976447Y-59066324D01*
X126928072Y-59051649D01*
X126928072Y-58720000D01*
X126915812Y-58595518D01*
X126879502Y-58475820D01*
X126820537Y-58365506D01*
X126741185Y-58268815D01*
X126644494Y-58189463D01*
X126534180Y-58130498D01*
X126414482Y-58094188D01*
X126290000Y-58081928D01*
X123490000Y-58081928D01*
X123365518Y-58094188D01*
X123245820Y-58130498D01*
X123135506Y-58189463D01*
X123038815Y-58268815D01*
X122959463Y-58365506D01*
X122900498Y-58475820D01*
X122864188Y-58595518D01*
X122851928Y-58720000D01*
X97180000Y-58720000D01*
X97180000Y-57810000D01*
X158090001Y-57810000D01*
X158090000Y-137770000D01*
M02*
