G04 #@! TF.GenerationSoftware,KiCad,Pcbnew,(5.1.4)-1*
G04 #@! TF.CreationDate,2019-10-08T20:05:43+02:00*
G04 #@! TF.ProjectId,weather,77656174-6865-4722-9e6b-696361645f70,rev?*
G04 #@! TF.SameCoordinates,Original*
G04 #@! TF.FileFunction,Drawing*
%FSLAX46Y46*%
G04 Gerber Fmt 4.6, Leading zero omitted, Abs format (unit mm)*
G04 Created by KiCad (PCBNEW (5.1.4)-1) date 2019-10-08 20:05:43*
%MOMM*%
%LPD*%
G04 APERTURE LIST*
%ADD10C,0.100000*%
G04 APERTURE END LIST*
D10*
X124380000Y-80230000D02*
X125180000Y-79430000D01*
X124430000Y-82180000D02*
X127180000Y-79430000D01*
X124380000Y-84230000D02*
X129180000Y-79430000D01*
X148380000Y-86230000D02*
X149980000Y-84630000D01*
X146380000Y-86230000D02*
X149980000Y-82630000D01*
X144380000Y-86230000D02*
X149980000Y-80630000D01*
X142380000Y-86230000D02*
X149180000Y-79430000D01*
X140380000Y-86230000D02*
X147180000Y-79430000D01*
X138380000Y-86230000D02*
X145180000Y-79430000D01*
X136380000Y-86230000D02*
X143180000Y-79430000D01*
X134380000Y-86230000D02*
X141180000Y-79430000D01*
X132380000Y-86230000D02*
X139180000Y-79430000D01*
X130380000Y-86230000D02*
X137180000Y-79430000D01*
X128380000Y-86230000D02*
X135180000Y-79430000D01*
X126380000Y-86230000D02*
X133180000Y-79430000D01*
X124380000Y-86230000D02*
X131180000Y-79430000D01*
X124380000Y-79430000D02*
X124380000Y-86230000D01*
X149980000Y-79430000D02*
X124380000Y-79430000D01*
X149980000Y-86230000D02*
X149980000Y-79430000D01*
X124380000Y-86230000D02*
X149980000Y-86230000D01*
M02*
