G04 #@! TF.GenerationSoftware,KiCad,Pcbnew,(5.1.4)-1*
G04 #@! TF.CreationDate,2019-10-08T20:05:44+02:00*
G04 #@! TF.ProjectId,weather,77656174-6865-4722-9e6b-696361645f70,rev?*
G04 #@! TF.SameCoordinates,Original*
G04 #@! TF.FileFunction,Other,Comment*
%FSLAX46Y46*%
G04 Gerber Fmt 4.6, Leading zero omitted, Abs format (unit mm)*
G04 Created by KiCad (PCBNEW (5.1.4)-1) date 2019-10-08 20:05:44*
%MOMM*%
%LPD*%
G04 APERTURE LIST*
%ADD10C,0.150000*%
G04 APERTURE END LIST*
D10*
X148250000Y-133350000D02*
G75*
G03X148250000Y-133350000I-2200000J0D01*
G01*
X157140000Y-60960000D02*
G75*
G03X157140000Y-60960000I-2200000J0D01*
G01*
X133517142Y-84272380D02*
X133517142Y-83272380D01*
X134088571Y-84272380D01*
X134088571Y-83272380D01*
X134707619Y-84272380D02*
X134612380Y-84224761D01*
X134564761Y-84177142D01*
X134517142Y-84081904D01*
X134517142Y-83796190D01*
X134564761Y-83700952D01*
X134612380Y-83653333D01*
X134707619Y-83605714D01*
X134850476Y-83605714D01*
X134945714Y-83653333D01*
X134993333Y-83700952D01*
X135040952Y-83796190D01*
X135040952Y-84081904D01*
X134993333Y-84177142D01*
X134945714Y-84224761D01*
X134850476Y-84272380D01*
X134707619Y-84272380D01*
X136660000Y-84224761D02*
X136564761Y-84272380D01*
X136374285Y-84272380D01*
X136279047Y-84224761D01*
X136231428Y-84177142D01*
X136183809Y-84081904D01*
X136183809Y-83796190D01*
X136231428Y-83700952D01*
X136279047Y-83653333D01*
X136374285Y-83605714D01*
X136564761Y-83605714D01*
X136660000Y-83653333D01*
X137231428Y-84272380D02*
X137136190Y-84224761D01*
X137088571Y-84177142D01*
X137040952Y-84081904D01*
X137040952Y-83796190D01*
X137088571Y-83700952D01*
X137136190Y-83653333D01*
X137231428Y-83605714D01*
X137374285Y-83605714D01*
X137469523Y-83653333D01*
X137517142Y-83700952D01*
X137564761Y-83796190D01*
X137564761Y-84081904D01*
X137517142Y-84177142D01*
X137469523Y-84224761D01*
X137374285Y-84272380D01*
X137231428Y-84272380D01*
X137993333Y-83605714D02*
X137993333Y-84605714D01*
X137993333Y-83653333D02*
X138088571Y-83605714D01*
X138279047Y-83605714D01*
X138374285Y-83653333D01*
X138421904Y-83700952D01*
X138469523Y-83796190D01*
X138469523Y-84081904D01*
X138421904Y-84177142D01*
X138374285Y-84224761D01*
X138279047Y-84272380D01*
X138088571Y-84272380D01*
X137993333Y-84224761D01*
X138898095Y-83605714D02*
X138898095Y-84605714D01*
X138898095Y-83653333D02*
X138993333Y-83605714D01*
X139183809Y-83605714D01*
X139279047Y-83653333D01*
X139326666Y-83700952D01*
X139374285Y-83796190D01*
X139374285Y-84081904D01*
X139326666Y-84177142D01*
X139279047Y-84224761D01*
X139183809Y-84272380D01*
X138993333Y-84272380D01*
X138898095Y-84224761D01*
X140183809Y-84224761D02*
X140088571Y-84272380D01*
X139898095Y-84272380D01*
X139802857Y-84224761D01*
X139755238Y-84129523D01*
X139755238Y-83748571D01*
X139802857Y-83653333D01*
X139898095Y-83605714D01*
X140088571Y-83605714D01*
X140183809Y-83653333D01*
X140231428Y-83748571D01*
X140231428Y-83843809D01*
X139755238Y-83939047D01*
X140660000Y-84272380D02*
X140660000Y-83605714D01*
X140660000Y-83796190D02*
X140707619Y-83700952D01*
X140755238Y-83653333D01*
X140850476Y-83605714D01*
X140945714Y-83605714D01*
X133683809Y-81732380D02*
X133683809Y-80732380D01*
X134255238Y-81732380D02*
X133826666Y-81160952D01*
X134255238Y-80732380D02*
X133683809Y-81303809D01*
X134683809Y-81208571D02*
X135017142Y-81208571D01*
X135160000Y-81732380D02*
X134683809Y-81732380D01*
X134683809Y-80732380D01*
X135160000Y-80732380D01*
X135588571Y-81208571D02*
X135921904Y-81208571D01*
X136064761Y-81732380D02*
X135588571Y-81732380D01*
X135588571Y-80732380D01*
X136064761Y-80732380D01*
X136493333Y-81732380D02*
X136493333Y-80732380D01*
X136874285Y-80732380D01*
X136969523Y-80780000D01*
X137017142Y-80827619D01*
X137064761Y-80922857D01*
X137064761Y-81065714D01*
X137017142Y-81160952D01*
X136969523Y-81208571D01*
X136874285Y-81256190D01*
X136493333Y-81256190D01*
X138445714Y-80732380D02*
X138636190Y-80732380D01*
X138731428Y-80780000D01*
X138826666Y-80875238D01*
X138874285Y-81065714D01*
X138874285Y-81399047D01*
X138826666Y-81589523D01*
X138731428Y-81684761D01*
X138636190Y-81732380D01*
X138445714Y-81732380D01*
X138350476Y-81684761D01*
X138255238Y-81589523D01*
X138207619Y-81399047D01*
X138207619Y-81065714D01*
X138255238Y-80875238D01*
X138350476Y-80780000D01*
X138445714Y-80732380D01*
X139302857Y-80732380D02*
X139302857Y-81541904D01*
X139350476Y-81637142D01*
X139398095Y-81684761D01*
X139493333Y-81732380D01*
X139683809Y-81732380D01*
X139779047Y-81684761D01*
X139826666Y-81637142D01*
X139874285Y-81541904D01*
X139874285Y-80732380D01*
X140207619Y-80732380D02*
X140779047Y-80732380D01*
X140493333Y-81732380D02*
X140493333Y-80732380D01*
M02*
