G04 #@! TF.GenerationSoftware,KiCad,Pcbnew,(5.1.4)-1*
G04 #@! TF.CreationDate,2019-10-08T20:05:44+02:00*
G04 #@! TF.ProjectId,weather,77656174-6865-4722-9e6b-696361645f70,rev?*
G04 #@! TF.SameCoordinates,Original*
G04 #@! TF.FileFunction,Other,ECO2*
%FSLAX46Y46*%
G04 Gerber Fmt 4.6, Leading zero omitted, Abs format (unit mm)*
G04 Created by KiCad (PCBNEW (5.1.4)-1) date 2019-10-08 20:05:44*
%MOMM*%
%LPD*%
G04 APERTURE LIST*
%ADD10C,0.010000*%
G04 APERTURE END LIST*
D10*
G36*
X129378277Y-84697705D02*
G01*
X129405859Y-84730776D01*
X129459347Y-84781823D01*
X129495016Y-84776325D01*
X129525307Y-84740681D01*
X129564617Y-84682441D01*
X129567801Y-84634730D01*
X129536110Y-84559725D01*
X129531590Y-84550345D01*
X129485767Y-84478753D01*
X129443437Y-84478621D01*
X129392401Y-84550726D01*
X129387645Y-84559509D01*
X129357479Y-84637519D01*
X129378277Y-84697705D01*
X129378277Y-84697705D01*
G37*
X129378277Y-84697705D02*
X129405859Y-84730776D01*
X129459347Y-84781823D01*
X129495016Y-84776325D01*
X129525307Y-84740681D01*
X129564617Y-84682441D01*
X129567801Y-84634730D01*
X129536110Y-84559725D01*
X129531590Y-84550345D01*
X129485767Y-84478753D01*
X129443437Y-84478621D01*
X129392401Y-84550726D01*
X129387645Y-84559509D01*
X129357479Y-84637519D01*
X129378277Y-84697705D01*
G36*
X124802403Y-116345754D02*
G01*
X124839934Y-116436762D01*
X124906052Y-116465491D01*
X124984773Y-116431560D01*
X125050545Y-116351668D01*
X125098784Y-116267302D01*
X125109562Y-116223200D01*
X125082688Y-116193073D01*
X125049234Y-116171297D01*
X124974397Y-116148750D01*
X124883885Y-116178762D01*
X124814177Y-116230419D01*
X124797981Y-116304275D01*
X124802403Y-116345754D01*
X124802403Y-116345754D01*
G37*
X124802403Y-116345754D02*
X124839934Y-116436762D01*
X124906052Y-116465491D01*
X124984773Y-116431560D01*
X125050545Y-116351668D01*
X125098784Y-116267302D01*
X125109562Y-116223200D01*
X125082688Y-116193073D01*
X125049234Y-116171297D01*
X124974397Y-116148750D01*
X124883885Y-116178762D01*
X124814177Y-116230419D01*
X124797981Y-116304275D01*
X124802403Y-116345754D01*
G36*
X125710242Y-86835491D02*
G01*
X125766743Y-86926668D01*
X125842421Y-86972340D01*
X125896959Y-86968185D01*
X125958712Y-86913017D01*
X126003533Y-86816064D01*
X126028232Y-86700541D01*
X126029622Y-86589664D01*
X126004511Y-86506649D01*
X125964549Y-86476189D01*
X125885100Y-86483077D01*
X125792927Y-86519754D01*
X125718353Y-86579206D01*
X125690284Y-86663598D01*
X125688048Y-86716997D01*
X125710242Y-86835491D01*
X125710242Y-86835491D01*
G37*
X125710242Y-86835491D02*
X125766743Y-86926668D01*
X125842421Y-86972340D01*
X125896959Y-86968185D01*
X125958712Y-86913017D01*
X126003533Y-86816064D01*
X126028232Y-86700541D01*
X126029622Y-86589664D01*
X126004511Y-86506649D01*
X125964549Y-86476189D01*
X125885100Y-86483077D01*
X125792927Y-86519754D01*
X125718353Y-86579206D01*
X125690284Y-86663598D01*
X125688048Y-86716997D01*
X125710242Y-86835491D01*
G36*
X126399135Y-73523702D02*
G01*
X126419183Y-73601857D01*
X126461300Y-73703196D01*
X126506879Y-73732845D01*
X126517648Y-73730231D01*
X126601987Y-73710902D01*
X126623823Y-73709580D01*
X126665386Y-73674825D01*
X126697032Y-73584084D01*
X126700310Y-73566562D01*
X126719112Y-73457024D01*
X126733844Y-73374389D01*
X126735357Y-73366336D01*
X126735781Y-73291995D01*
X126722423Y-73185484D01*
X126719742Y-73170910D01*
X126679042Y-73039351D01*
X126617552Y-72913229D01*
X126615753Y-72910361D01*
X126538299Y-72788031D01*
X126456416Y-72926811D01*
X126394119Y-73095628D01*
X126374557Y-73303082D01*
X126399135Y-73523702D01*
X126399135Y-73523702D01*
G37*
X126399135Y-73523702D02*
X126419183Y-73601857D01*
X126461300Y-73703196D01*
X126506879Y-73732845D01*
X126517648Y-73730231D01*
X126601987Y-73710902D01*
X126623823Y-73709580D01*
X126665386Y-73674825D01*
X126697032Y-73584084D01*
X126700310Y-73566562D01*
X126719112Y-73457024D01*
X126733844Y-73374389D01*
X126735357Y-73366336D01*
X126735781Y-73291995D01*
X126722423Y-73185484D01*
X126719742Y-73170910D01*
X126679042Y-73039351D01*
X126617552Y-72913229D01*
X126615753Y-72910361D01*
X126538299Y-72788031D01*
X126456416Y-72926811D01*
X126394119Y-73095628D01*
X126374557Y-73303082D01*
X126399135Y-73523702D01*
G36*
X127660464Y-111829566D02*
G01*
X127731414Y-111905232D01*
X127801432Y-111923994D01*
X127830262Y-111892637D01*
X127876479Y-111813983D01*
X127928163Y-111711156D01*
X127973396Y-111607283D01*
X127993081Y-111552147D01*
X128002074Y-111490893D01*
X127963517Y-111468651D01*
X127911116Y-111466336D01*
X127767384Y-111495387D01*
X127671575Y-111576764D01*
X127633374Y-111701800D01*
X127633093Y-111715055D01*
X127660464Y-111829566D01*
X127660464Y-111829566D01*
G37*
X127660464Y-111829566D02*
X127731414Y-111905232D01*
X127801432Y-111923994D01*
X127830262Y-111892637D01*
X127876479Y-111813983D01*
X127928163Y-111711156D01*
X127973396Y-111607283D01*
X127993081Y-111552147D01*
X128002074Y-111490893D01*
X127963517Y-111468651D01*
X127911116Y-111466336D01*
X127767384Y-111495387D01*
X127671575Y-111576764D01*
X127633374Y-111701800D01*
X127633093Y-111715055D01*
X127660464Y-111829566D01*
G36*
X128356590Y-124773826D02*
G01*
X128395954Y-124853213D01*
X128427007Y-124890048D01*
X128429086Y-124890377D01*
X128503457Y-124855573D01*
X128555193Y-124773912D01*
X128575960Y-124673459D01*
X128557421Y-124582279D01*
X128530547Y-124548721D01*
X128477418Y-124519542D01*
X128425340Y-124542105D01*
X128388022Y-124576739D01*
X128336020Y-124641112D01*
X128331936Y-124704099D01*
X128356590Y-124773826D01*
X128356590Y-124773826D01*
G37*
X128356590Y-124773826D02*
X128395954Y-124853213D01*
X128427007Y-124890048D01*
X128429086Y-124890377D01*
X128503457Y-124855573D01*
X128555193Y-124773912D01*
X128575960Y-124673459D01*
X128557421Y-124582279D01*
X128530547Y-124548721D01*
X128477418Y-124519542D01*
X128425340Y-124542105D01*
X128388022Y-124576739D01*
X128336020Y-124641112D01*
X128331936Y-124704099D01*
X128356590Y-124773826D01*
G36*
X130890520Y-132995412D02*
G01*
X130942135Y-133092124D01*
X131029848Y-133122063D01*
X131125164Y-133096492D01*
X131201172Y-133029565D01*
X131211264Y-132937992D01*
X131154507Y-132837072D01*
X131141801Y-132823694D01*
X131064778Y-132760431D01*
X131004761Y-132759422D01*
X130934963Y-132820470D01*
X130933432Y-132822157D01*
X130884503Y-132923088D01*
X130890520Y-132995412D01*
X130890520Y-132995412D01*
G37*
X130890520Y-132995412D02*
X130942135Y-133092124D01*
X131029848Y-133122063D01*
X131125164Y-133096492D01*
X131201172Y-133029565D01*
X131211264Y-132937992D01*
X131154507Y-132837072D01*
X131141801Y-132823694D01*
X131064778Y-132760431D01*
X131004761Y-132759422D01*
X130934963Y-132820470D01*
X130933432Y-132822157D01*
X130884503Y-132923088D01*
X130890520Y-132995412D01*
G36*
X120601527Y-74535468D02*
G01*
X120609794Y-74525555D01*
X120625826Y-74510255D01*
X120636517Y-74511903D01*
X120645596Y-74522586D01*
X120657378Y-74540043D01*
X120658333Y-74554343D01*
X120648834Y-74576824D01*
X120647479Y-74579636D01*
X120633745Y-74601094D01*
X120621057Y-74601134D01*
X120605760Y-74579522D01*
X120604334Y-74576889D01*
X120595293Y-74553507D01*
X120601527Y-74535468D01*
X120601527Y-74535468D01*
G37*
X120601527Y-74535468D02*
X120609794Y-74525555D01*
X120625826Y-74510255D01*
X120636517Y-74511903D01*
X120645596Y-74522586D01*
X120657378Y-74540043D01*
X120658333Y-74554343D01*
X120648834Y-74576824D01*
X120647479Y-74579636D01*
X120633745Y-74601094D01*
X120621057Y-74601134D01*
X120605760Y-74579522D01*
X120604334Y-74576889D01*
X120595293Y-74553507D01*
X120601527Y-74535468D01*
G36*
X119230000Y-65049599D02*
G01*
X119241249Y-65022321D01*
X119261067Y-65013710D01*
X119284662Y-65023880D01*
X119304376Y-65047826D01*
X119318834Y-65073113D01*
X119322065Y-65086332D01*
X119314010Y-65095362D01*
X119303982Y-65101889D01*
X119281552Y-65108647D01*
X119254422Y-65099651D01*
X119233529Y-65084168D01*
X119228674Y-65062031D01*
X119230000Y-65049599D01*
X119230000Y-65049599D01*
G37*
X119230000Y-65049599D02*
X119241249Y-65022321D01*
X119261067Y-65013710D01*
X119284662Y-65023880D01*
X119304376Y-65047826D01*
X119318834Y-65073113D01*
X119322065Y-65086332D01*
X119314010Y-65095362D01*
X119303982Y-65101889D01*
X119281552Y-65108647D01*
X119254422Y-65099651D01*
X119233529Y-65084168D01*
X119228674Y-65062031D01*
X119230000Y-65049599D01*
G36*
X119502107Y-73894709D02*
G01*
X119519041Y-73867381D01*
X119541725Y-73853691D01*
X119558071Y-73854937D01*
X119576580Y-73871472D01*
X119590014Y-73900532D01*
X119597418Y-73935158D01*
X119597834Y-73968391D01*
X119590308Y-73993273D01*
X119578330Y-74002403D01*
X119554517Y-74000338D01*
X119526890Y-73989345D01*
X119504538Y-73971525D01*
X119496124Y-73946230D01*
X119495454Y-73930225D01*
X119502107Y-73894709D01*
X119502107Y-73894709D01*
G37*
X119502107Y-73894709D02*
X119519041Y-73867381D01*
X119541725Y-73853691D01*
X119558071Y-73854937D01*
X119576580Y-73871472D01*
X119590014Y-73900532D01*
X119597418Y-73935158D01*
X119597834Y-73968391D01*
X119590308Y-73993273D01*
X119578330Y-74002403D01*
X119554517Y-74000338D01*
X119526890Y-73989345D01*
X119504538Y-73971525D01*
X119496124Y-73946230D01*
X119495454Y-73930225D01*
X119502107Y-73894709D01*
G36*
X119708588Y-77884651D02*
G01*
X119714597Y-77861226D01*
X119727221Y-77830852D01*
X119740882Y-77821965D01*
X119744110Y-77822748D01*
X119769389Y-77828542D01*
X119775934Y-77828938D01*
X119788392Y-77839355D01*
X119797877Y-77866553D01*
X119798860Y-77871805D01*
X119804495Y-77904637D01*
X119808911Y-77929405D01*
X119809364Y-77931818D01*
X119809491Y-77954101D01*
X119805487Y-77986025D01*
X119804684Y-77990394D01*
X119792485Y-78029826D01*
X119774054Y-78067628D01*
X119773515Y-78068488D01*
X119750300Y-78105154D01*
X119725757Y-78063557D01*
X119707085Y-78012958D01*
X119701221Y-77950778D01*
X119708588Y-77884651D01*
X119708588Y-77884651D01*
G37*
X119708588Y-77884651D02*
X119714597Y-77861226D01*
X119727221Y-77830852D01*
X119740882Y-77821965D01*
X119744110Y-77822748D01*
X119769389Y-77828542D01*
X119775934Y-77828938D01*
X119788392Y-77839355D01*
X119797877Y-77866553D01*
X119798860Y-77871805D01*
X119804495Y-77904637D01*
X119808911Y-77929405D01*
X119809364Y-77931818D01*
X119809491Y-77954101D01*
X119805487Y-77986025D01*
X119804684Y-77990394D01*
X119792485Y-78029826D01*
X119774054Y-78067628D01*
X119773515Y-78068488D01*
X119750300Y-78105154D01*
X119725757Y-78063557D01*
X119707085Y-78012958D01*
X119701221Y-77950778D01*
X119708588Y-77884651D01*
G36*
X120086647Y-66403236D02*
G01*
X120107912Y-66380556D01*
X120128899Y-66374933D01*
X120137540Y-66384331D01*
X120151393Y-66407906D01*
X120166884Y-66438727D01*
X120180441Y-66469861D01*
X120186342Y-66486386D01*
X120189037Y-66504746D01*
X120177480Y-66511413D01*
X120161774Y-66512106D01*
X120118694Y-66503399D01*
X120089977Y-66479008D01*
X120078527Y-66441531D01*
X120078442Y-66437558D01*
X120086647Y-66403236D01*
X120086647Y-66403236D01*
G37*
X120086647Y-66403236D02*
X120107912Y-66380556D01*
X120128899Y-66374933D01*
X120137540Y-66384331D01*
X120151393Y-66407906D01*
X120166884Y-66438727D01*
X120180441Y-66469861D01*
X120186342Y-66486386D01*
X120189037Y-66504746D01*
X120177480Y-66511413D01*
X120161774Y-66512106D01*
X120118694Y-66503399D01*
X120089977Y-66479008D01*
X120078527Y-66441531D01*
X120078442Y-66437558D01*
X120086647Y-66403236D01*
G36*
X120295296Y-62523453D02*
G01*
X120307095Y-62499658D01*
X120316402Y-62488618D01*
X120317025Y-62488519D01*
X120339317Y-62498951D01*
X120354824Y-62523427D01*
X120361048Y-62553536D01*
X120355491Y-62580865D01*
X120347436Y-62590924D01*
X120331512Y-62599669D01*
X120315903Y-62592907D01*
X120304717Y-62582526D01*
X120289131Y-62563231D01*
X120287907Y-62544352D01*
X120295296Y-62523453D01*
X120295296Y-62523453D01*
G37*
X120295296Y-62523453D02*
X120307095Y-62499658D01*
X120316402Y-62488618D01*
X120317025Y-62488519D01*
X120339317Y-62498951D01*
X120354824Y-62523427D01*
X120361048Y-62553536D01*
X120355491Y-62580865D01*
X120347436Y-62590924D01*
X120331512Y-62599669D01*
X120315903Y-62592907D01*
X120304717Y-62582526D01*
X120289131Y-62563231D01*
X120287907Y-62544352D01*
X120295296Y-62523453D01*
G36*
X121054791Y-60059197D02*
G01*
X121070262Y-60030210D01*
X121096552Y-60021236D01*
X121125121Y-60028901D01*
X121147903Y-60048961D01*
X121150928Y-60076408D01*
X121133916Y-60106656D01*
X121130108Y-60110666D01*
X121107021Y-60129628D01*
X121089032Y-60129931D01*
X121068112Y-60111633D01*
X121067653Y-60111127D01*
X121052988Y-60080875D01*
X121054791Y-60059197D01*
X121054791Y-60059197D01*
G37*
X121054791Y-60059197D02*
X121070262Y-60030210D01*
X121096552Y-60021236D01*
X121125121Y-60028901D01*
X121147903Y-60048961D01*
X121150928Y-60076408D01*
X121133916Y-60106656D01*
X121130108Y-60110666D01*
X121107021Y-60129628D01*
X121089032Y-60129931D01*
X121068112Y-60111633D01*
X121067653Y-60111127D01*
X121052988Y-60080875D01*
X121054791Y-60059197D01*
M02*
