M48
; DRILL file {KiCad (5.1.4)-1} date 08-10-2019 20:05:47
; FORMAT={-:-/ absolute / inch / decimal}
; #@! TF.CreationDate,2019-10-08T20:05:47+02:00
; #@! TF.GenerationSoftware,Kicad,Pcbnew,(5.1.4)-1
; #@! TF.FileFunction,Plated,1,2,PTH
FMAT,2
INCH
T1C0.0157
T2C0.0276
T3C0.0315
T4C0.0394
T5C0.0520
T6C0.0606
T7C0.0787
%
G90
G05
T1
X4.7Y-2.8
X5.2Y-4.75
X5.45Y-3.85
X5.45Y-4.6
X5.5Y-4.25
X5.6Y-3.85
X5.6Y-4.4
X5.65Y-4.0
T2
X4.75Y-3.25
X4.75Y-3.45
T3
X6.1Y-3.5
X6.1Y-3.6
X6.1Y-3.7
X6.1Y-3.8
X6.05Y-5.0
X6.05Y-5.1
X6.05Y-5.2
X6.05Y-5.3
T4
X6.1Y-2.7
X6.1Y-2.8
X6.1Y-2.9
X6.1Y-3.0
X6.1Y-3.1
X6.1Y-3.2
X6.15Y-4.25
X6.15Y-4.35
X6.15Y-4.45
X6.15Y-4.55
X6.15Y-4.65
X6.15Y-4.75
X4.8Y-5.3
X4.9Y-5.3
X5.0Y-5.3
X4.95Y-3.45
X4.95Y-3.55
X4.95Y-3.65
X4.95Y-3.75
X4.95Y-3.85
X4.95Y-3.95
X4.95Y-4.05
X4.95Y-4.15
X5.85Y-3.45
X5.85Y-3.55
X5.85Y-3.65
X5.85Y-3.75
X5.85Y-3.85
X5.85Y-3.95
X5.85Y-4.05
X5.85Y-4.15
X4.75Y-3.6
X4.75Y-3.7
T5
X5.2531Y-5.15
X5.45Y-5.15
T6
X4.9169Y-2.3669
X4.9169Y-2.926
X5.8185Y-2.3669
X5.8185Y-2.5047
X5.8185Y-2.8039
X5.8185Y-2.9378
T7
X4.25Y-2.45
X4.25Y-5.2846
T0
M30
