G04 #@! TF.GenerationSoftware,KiCad,Pcbnew,(5.1.4)-1*
G04 #@! TF.CreationDate,2019-10-08T20:05:45+02:00*
G04 #@! TF.ProjectId,weather,77656174-6865-4722-9e6b-696361645f70,rev?*
G04 #@! TF.SameCoordinates,Original*
G04 #@! TF.FileFunction,Other,Fab,Top*
%FSLAX46Y46*%
G04 Gerber Fmt 4.6, Leading zero omitted, Abs format (unit mm)*
G04 Created by KiCad (PCBNEW (5.1.4)-1) date 2019-10-08 20:05:45*
%MOMM*%
%LPD*%
G04 APERTURE LIST*
%ADD10C,0.100000*%
%ADD11C,0.150000*%
%ADD12C,0.108000*%
G04 APERTURE END LIST*
D10*
X153670000Y-67945000D02*
X154305000Y-67310000D01*
X153670000Y-82550000D02*
X153670000Y-67945000D01*
X156210000Y-82550000D02*
X153670000Y-82550000D01*
X156210000Y-67310000D02*
X156210000Y-82550000D01*
X154305000Y-67310000D02*
X156210000Y-67310000D01*
X154940000Y-107315000D02*
X155575000Y-106680000D01*
X154940000Y-121920000D02*
X154940000Y-107315000D01*
X157480000Y-121920000D02*
X154940000Y-121920000D01*
X157480000Y-106680000D02*
X157480000Y-121920000D01*
X155575000Y-106680000D02*
X157480000Y-106680000D01*
X152190000Y-87710000D02*
X153190000Y-86710000D01*
X152190000Y-87710000D02*
X152190000Y-98710000D01*
X157690000Y-98710000D02*
X152190000Y-98710000D01*
X157690000Y-86710000D02*
X157690000Y-98710000D01*
X153190000Y-86710000D02*
X157690000Y-86710000D01*
X119380000Y-95250000D02*
X119380000Y-90170000D01*
X121920000Y-95250000D02*
X119380000Y-95250000D01*
X121920000Y-90805000D02*
X121920000Y-95250000D01*
X121285000Y-90170000D02*
X121920000Y-90805000D01*
X119380000Y-90170000D02*
X121285000Y-90170000D01*
X127635000Y-133350000D02*
X128270000Y-133985000D01*
X120650000Y-133350000D02*
X127635000Y-133350000D01*
X120650000Y-135890000D02*
X120650000Y-133350000D01*
X128270000Y-135890000D02*
X120650000Y-135890000D01*
X128270000Y-133985000D02*
X128270000Y-135890000D01*
X147980000Y-79420000D02*
G75*
G02X149960000Y-81440000I-20000J-2000000D01*
G01*
X124360000Y-81420000D02*
G75*
G02X126360000Y-79420000I2000000J0D01*
G01*
X125360000Y-87630000D02*
X124360000Y-86630000D01*
X124360000Y-88630000D02*
X125360000Y-87630000D01*
X124360000Y-81420000D02*
X124360000Y-86630000D01*
X126900000Y-106720000D02*
X126900000Y-113620000D01*
X124360000Y-106720000D02*
X126900000Y-106720000D01*
X124360000Y-88630000D02*
X124360000Y-106720000D01*
X147960000Y-79420000D02*
X126360000Y-79420000D01*
X149960000Y-113620000D02*
X149960000Y-81420000D01*
X126900000Y-113620000D02*
X149960000Y-113620000D01*
X117800000Y-59430000D02*
X117800000Y-137030000D01*
X117800000Y-137030000D02*
X98100000Y-137030000D01*
X98100000Y-137030000D02*
X98100000Y-59430000D01*
X98100000Y-59430000D02*
X117800000Y-59430000D01*
X150920000Y-125810000D02*
X151920000Y-124810000D01*
X150920000Y-125810000D02*
X150920000Y-136810000D01*
X156420000Y-136810000D02*
X150920000Y-136810000D01*
X156420000Y-124810000D02*
X156420000Y-136810000D01*
X151920000Y-124810000D02*
X156420000Y-124810000D01*
X139992972Y-135868699D02*
G75*
G03X139850000Y-134940000I-432972J408699D01*
G01*
X136890024Y-135881534D02*
G75*
G03X140050000Y-135810000I1549976J1361534D01*
G01*
X139889829Y-134968582D02*
G75*
G03X136900000Y-134930000I-1519829J-1911418D01*
G01*
X136944380Y-134896004D02*
G75*
G03X136900000Y-135860000I455620J-503996D01*
G01*
X134992972Y-135868699D02*
G75*
G03X134850000Y-134940000I-432972J408699D01*
G01*
X131891761Y-135871687D02*
G75*
G03X135040000Y-135810000I1548239J1351687D01*
G01*
X134882333Y-134978263D02*
G75*
G03X131900000Y-134930000I-1522333J-1901737D01*
G01*
X131944468Y-134886005D02*
G75*
G03X131890000Y-135860000I455532J-513995D01*
G01*
X135070000Y-131060000D02*
X131760000Y-131060000D01*
X135450000Y-131060000D02*
X135070000Y-131060000D01*
X131380000Y-131060000D02*
X131760000Y-131060000D01*
X131760000Y-131450000D02*
X135070000Y-131450000D01*
X130820000Y-131450000D02*
X131760000Y-131450000D01*
X136770000Y-131450000D02*
X135070000Y-131450000D01*
X140070000Y-131450000D02*
X136770000Y-131450000D01*
X141010000Y-131450000D02*
X140070000Y-131450000D01*
X136770000Y-131060000D02*
X140070000Y-131060000D01*
X136390000Y-131060000D02*
X136770000Y-131060000D01*
X140450000Y-131060000D02*
X140070000Y-131060000D01*
X139920000Y-135130000D02*
X136870000Y-135760000D01*
X140050000Y-135260000D02*
X136990000Y-135890000D01*
X134910000Y-135130000D02*
X131870000Y-135760000D01*
X135040000Y-135260000D02*
X131990000Y-135890000D01*
X136390000Y-136780000D02*
X140450000Y-136780000D01*
X140450000Y-134240000D02*
X140450000Y-136780000D01*
X136390000Y-134240000D02*
X140450000Y-134240000D01*
X136390000Y-134240000D02*
X136390000Y-136780000D01*
X131380000Y-134240000D02*
X135450000Y-134240000D01*
X131380000Y-136780000D02*
X131380000Y-134240000D01*
X135450000Y-136780000D02*
X131380000Y-136780000D01*
X135450000Y-134240000D02*
X135450000Y-136780000D01*
X130820000Y-133980000D02*
X130820000Y-132460000D01*
X141010000Y-133980000D02*
X141010000Y-137030000D01*
X141010000Y-133980000D02*
X130820000Y-133980000D01*
X130820000Y-131450000D02*
X130820000Y-126750000D01*
X130820000Y-132460000D02*
X130820000Y-131450000D01*
X141010000Y-131450000D02*
X141010000Y-133980000D01*
X141010000Y-124590000D02*
X141010000Y-131450000D01*
X131760000Y-130300000D02*
X132150000Y-130300000D01*
X135070000Y-130300000D02*
X134690000Y-130300000D01*
X136770000Y-130300000D02*
X137150000Y-130300000D01*
X140070000Y-130300000D02*
X139690000Y-130300000D01*
X140070000Y-127130000D02*
X140070000Y-130300000D01*
X136770000Y-127130000D02*
X140070000Y-127130000D01*
X136770000Y-127130000D02*
X136770000Y-130300000D01*
X135070000Y-127130000D02*
X135070000Y-130300000D01*
X131760000Y-127130000D02*
X135070000Y-127130000D01*
X131760000Y-127130000D02*
X131760000Y-130300000D01*
X140450000Y-126490000D02*
X140450000Y-124590000D01*
X136390000Y-126490000D02*
X136390000Y-131060000D01*
X136390000Y-126490000D02*
X140450000Y-126490000D01*
X131380000Y-126490000D02*
X131380000Y-124590000D01*
X135450000Y-126490000D02*
X135450000Y-131060000D01*
X135450000Y-126490000D02*
X131380000Y-126490000D01*
X140450000Y-124590000D02*
X136390000Y-124590000D01*
X141010000Y-124590000D02*
X140450000Y-124590000D01*
X140450000Y-131060000D02*
X140450000Y-126490000D01*
X136390000Y-124590000D02*
X135450000Y-124590000D01*
X136390000Y-124590000D02*
X136390000Y-126490000D01*
X131380000Y-124590000D02*
X130820000Y-124590000D01*
X135450000Y-124590000D02*
X131380000Y-124590000D01*
X131380000Y-131060000D02*
X131380000Y-126490000D01*
X135450000Y-124590000D02*
X135450000Y-126490000D01*
X130320000Y-127000000D02*
X130320000Y-125350000D01*
X130820000Y-126750000D02*
X130820000Y-125600000D01*
X130320000Y-127000000D02*
X130820000Y-126750000D01*
X130820000Y-125600000D02*
X130820000Y-124590000D01*
X130320000Y-125350000D02*
X130820000Y-125600000D01*
X130320000Y-132210000D02*
X130820000Y-132460000D01*
X130320000Y-137030000D02*
X130320000Y-132210000D01*
X130820000Y-137030000D02*
X130320000Y-137030000D01*
X130820000Y-137030000D02*
X141010000Y-137030000D01*
X130820000Y-137030000D02*
X130820000Y-133980000D01*
X134690000Y-128270000D02*
X134690000Y-131060000D01*
X134690000Y-131060000D02*
X132150000Y-131060000D01*
X132150000Y-128270000D02*
X132150000Y-131060000D01*
X134690000Y-128270000D02*
X132150000Y-128270000D01*
X139690000Y-128270000D02*
X139690000Y-131060000D01*
X139690000Y-131060000D02*
X137150000Y-131060000D01*
X137150000Y-128270000D02*
X137150000Y-131060000D01*
X139690000Y-128270000D02*
X137150000Y-128270000D01*
X120650000Y-87630000D02*
X120650000Y-86890000D01*
X120650000Y-82550000D02*
X120650000Y-83290000D01*
X121450000Y-86890000D02*
X121450000Y-83290000D01*
X119850000Y-86890000D02*
X121450000Y-86890000D01*
X119850000Y-83290000D02*
X119850000Y-86890000D01*
X121450000Y-83290000D02*
X119850000Y-83290000D01*
D11*
X142082857Y-84062380D02*
X142082857Y-83062380D01*
X142463809Y-83062380D01*
X142559047Y-83110000D01*
X142606666Y-83157619D01*
X142654285Y-83252857D01*
X142654285Y-83395714D01*
X142606666Y-83490952D01*
X142559047Y-83538571D01*
X142463809Y-83586190D01*
X142082857Y-83586190D01*
X143082857Y-84062380D02*
X143082857Y-83395714D01*
X143082857Y-83062380D02*
X143035238Y-83110000D01*
X143082857Y-83157619D01*
X143130476Y-83110000D01*
X143082857Y-83062380D01*
X143082857Y-83157619D01*
X143559047Y-83395714D02*
X143559047Y-84062380D01*
X143559047Y-83490952D02*
X143606666Y-83443333D01*
X143701904Y-83395714D01*
X143844761Y-83395714D01*
X143940000Y-83443333D01*
X143987619Y-83538571D01*
X143987619Y-84062380D01*
X144463809Y-84062380D02*
X144463809Y-83062380D01*
X144463809Y-83538571D02*
X145035238Y-83538571D01*
X145035238Y-84062380D02*
X145035238Y-83062380D01*
X145892380Y-84014761D02*
X145797142Y-84062380D01*
X145606666Y-84062380D01*
X145511428Y-84014761D01*
X145463809Y-83919523D01*
X145463809Y-83538571D01*
X145511428Y-83443333D01*
X145606666Y-83395714D01*
X145797142Y-83395714D01*
X145892380Y-83443333D01*
X145940000Y-83538571D01*
X145940000Y-83633809D01*
X145463809Y-83729047D01*
X146797142Y-84062380D02*
X146797142Y-83538571D01*
X146749523Y-83443333D01*
X146654285Y-83395714D01*
X146463809Y-83395714D01*
X146368571Y-83443333D01*
X146797142Y-84014761D02*
X146701904Y-84062380D01*
X146463809Y-84062380D01*
X146368571Y-84014761D01*
X146320952Y-83919523D01*
X146320952Y-83824285D01*
X146368571Y-83729047D01*
X146463809Y-83681428D01*
X146701904Y-83681428D01*
X146797142Y-83633809D01*
X147701904Y-84062380D02*
X147701904Y-83062380D01*
X147701904Y-84014761D02*
X147606666Y-84062380D01*
X147416190Y-84062380D01*
X147320952Y-84014761D01*
X147273333Y-83967142D01*
X147225714Y-83871904D01*
X147225714Y-83586190D01*
X147273333Y-83490952D01*
X147320952Y-83443333D01*
X147416190Y-83395714D01*
X147606666Y-83395714D01*
X147701904Y-83443333D01*
X148559047Y-84014761D02*
X148463809Y-84062380D01*
X148273333Y-84062380D01*
X148178095Y-84014761D01*
X148130476Y-83919523D01*
X148130476Y-83538571D01*
X148178095Y-83443333D01*
X148273333Y-83395714D01*
X148463809Y-83395714D01*
X148559047Y-83443333D01*
X148606666Y-83538571D01*
X148606666Y-83633809D01*
X148130476Y-83729047D01*
X149035238Y-84062380D02*
X149035238Y-83395714D01*
X149035238Y-83586190D02*
X149082857Y-83490952D01*
X149130476Y-83443333D01*
X149225714Y-83395714D01*
X149320952Y-83395714D01*
X149416190Y-84157619D02*
X150178095Y-84157619D01*
X150940000Y-84062380D02*
X150368571Y-84062380D01*
X150654285Y-84062380D02*
X150654285Y-83062380D01*
X150559047Y-83205238D01*
X150463809Y-83300476D01*
X150368571Y-83348095D01*
X151273333Y-84062380D02*
X151797142Y-83395714D01*
X151273333Y-83395714D02*
X151797142Y-84062380D01*
X152368571Y-83062380D02*
X152463809Y-83062380D01*
X152559047Y-83110000D01*
X152606666Y-83157619D01*
X152654285Y-83252857D01*
X152701904Y-83443333D01*
X152701904Y-83681428D01*
X152654285Y-83871904D01*
X152606666Y-83967142D01*
X152559047Y-84014761D01*
X152463809Y-84062380D01*
X152368571Y-84062380D01*
X152273333Y-84014761D01*
X152225714Y-83967142D01*
X152178095Y-83871904D01*
X152130476Y-83681428D01*
X152130476Y-83443333D01*
X152178095Y-83252857D01*
X152225714Y-83157619D01*
X152273333Y-83110000D01*
X152368571Y-83062380D01*
X153559047Y-83062380D02*
X153368571Y-83062380D01*
X153273333Y-83110000D01*
X153225714Y-83157619D01*
X153130476Y-83300476D01*
X153082857Y-83490952D01*
X153082857Y-83871904D01*
X153130476Y-83967142D01*
X153178095Y-84014761D01*
X153273333Y-84062380D01*
X153463809Y-84062380D01*
X153559047Y-84014761D01*
X153606666Y-83967142D01*
X153654285Y-83871904D01*
X153654285Y-83633809D01*
X153606666Y-83538571D01*
X153559047Y-83490952D01*
X153463809Y-83443333D01*
X153273333Y-83443333D01*
X153178095Y-83490952D01*
X153130476Y-83538571D01*
X153082857Y-83633809D01*
X153844761Y-84157619D02*
X154606666Y-84157619D01*
X154844761Y-84062380D02*
X154844761Y-83062380D01*
X155225714Y-83062380D01*
X155320952Y-83110000D01*
X155368571Y-83157619D01*
X155416190Y-83252857D01*
X155416190Y-83395714D01*
X155368571Y-83490952D01*
X155320952Y-83538571D01*
X155225714Y-83586190D01*
X154844761Y-83586190D01*
X155797142Y-83157619D02*
X155844761Y-83110000D01*
X155940000Y-83062380D01*
X156178095Y-83062380D01*
X156273333Y-83110000D01*
X156320952Y-83157619D01*
X156368571Y-83252857D01*
X156368571Y-83348095D01*
X156320952Y-83490952D01*
X155749523Y-84062380D01*
X156368571Y-84062380D01*
X156797142Y-83967142D02*
X156844761Y-84014761D01*
X156797142Y-84062380D01*
X156749523Y-84014761D01*
X156797142Y-83967142D01*
X156797142Y-84062380D01*
X157749523Y-83062380D02*
X157273333Y-83062380D01*
X157225714Y-83538571D01*
X157273333Y-83490952D01*
X157368571Y-83443333D01*
X157606666Y-83443333D01*
X157701904Y-83490952D01*
X157749523Y-83538571D01*
X157797142Y-83633809D01*
X157797142Y-83871904D01*
X157749523Y-83967142D01*
X157701904Y-84014761D01*
X157606666Y-84062380D01*
X157368571Y-84062380D01*
X157273333Y-84014761D01*
X157225714Y-83967142D01*
X158654285Y-83395714D02*
X158654285Y-84062380D01*
X158416190Y-83014761D02*
X158178095Y-83729047D01*
X158797142Y-83729047D01*
X159178095Y-84062380D02*
X159178095Y-83395714D01*
X159178095Y-83490952D02*
X159225714Y-83443333D01*
X159320952Y-83395714D01*
X159463809Y-83395714D01*
X159559047Y-83443333D01*
X159606666Y-83538571D01*
X159606666Y-84062380D01*
X159606666Y-83538571D02*
X159654285Y-83443333D01*
X159749523Y-83395714D01*
X159892380Y-83395714D01*
X159987619Y-83443333D01*
X160035238Y-83538571D01*
X160035238Y-84062380D01*
X160511428Y-84062380D02*
X160511428Y-83395714D01*
X160511428Y-83490952D02*
X160559047Y-83443333D01*
X160654285Y-83395714D01*
X160797142Y-83395714D01*
X160892380Y-83443333D01*
X160940000Y-83538571D01*
X160940000Y-84062380D01*
X160940000Y-83538571D02*
X160987619Y-83443333D01*
X161082857Y-83395714D01*
X161225714Y-83395714D01*
X161320952Y-83443333D01*
X161368571Y-83538571D01*
X161368571Y-84062380D01*
X161606666Y-84157619D02*
X162368571Y-84157619D01*
X162463809Y-83062380D02*
X162797142Y-84062380D01*
X163130476Y-83062380D01*
X163844761Y-84014761D02*
X163749523Y-84062380D01*
X163559047Y-84062380D01*
X163463809Y-84014761D01*
X163416190Y-83919523D01*
X163416190Y-83538571D01*
X163463809Y-83443333D01*
X163559047Y-83395714D01*
X163749523Y-83395714D01*
X163844761Y-83443333D01*
X163892380Y-83538571D01*
X163892380Y-83633809D01*
X163416190Y-83729047D01*
X164320952Y-84062380D02*
X164320952Y-83395714D01*
X164320952Y-83586190D02*
X164368571Y-83490952D01*
X164416190Y-83443333D01*
X164511428Y-83395714D01*
X164606666Y-83395714D01*
X164797142Y-83395714D02*
X165178095Y-83395714D01*
X164940000Y-83062380D02*
X164940000Y-83919523D01*
X164987619Y-84014761D01*
X165082857Y-84062380D01*
X165178095Y-84062380D01*
X165511428Y-84062380D02*
X165511428Y-83395714D01*
X165511428Y-83062380D02*
X165463809Y-83110000D01*
X165511428Y-83157619D01*
X165559047Y-83110000D01*
X165511428Y-83062380D01*
X165511428Y-83157619D01*
X166416190Y-84014761D02*
X166320952Y-84062380D01*
X166130476Y-84062380D01*
X166035238Y-84014761D01*
X165987619Y-83967142D01*
X165940000Y-83871904D01*
X165940000Y-83586190D01*
X165987619Y-83490952D01*
X166035238Y-83443333D01*
X166130476Y-83395714D01*
X166320952Y-83395714D01*
X166416190Y-83443333D01*
X167273333Y-84062380D02*
X167273333Y-83538571D01*
X167225714Y-83443333D01*
X167130476Y-83395714D01*
X166940000Y-83395714D01*
X166844761Y-83443333D01*
X167273333Y-84014761D02*
X167178095Y-84062380D01*
X166940000Y-84062380D01*
X166844761Y-84014761D01*
X166797142Y-83919523D01*
X166797142Y-83824285D01*
X166844761Y-83729047D01*
X166940000Y-83681428D01*
X167178095Y-83681428D01*
X167273333Y-83633809D01*
X167892380Y-84062380D02*
X167797142Y-84014761D01*
X167749523Y-83919523D01*
X167749523Y-83062380D01*
X155392380Y-78144285D02*
X154392380Y-78144285D01*
X154392380Y-77763333D01*
X154440000Y-77668095D01*
X154487619Y-77620476D01*
X154582857Y-77572857D01*
X154725714Y-77572857D01*
X154820952Y-77620476D01*
X154868571Y-77668095D01*
X154916190Y-77763333D01*
X154916190Y-78144285D01*
X155392380Y-77144285D02*
X154392380Y-77144285D01*
X155106666Y-76810952D01*
X154392380Y-76477619D01*
X155392380Y-76477619D01*
X155344761Y-76049047D02*
X155392380Y-75906190D01*
X155392380Y-75668095D01*
X155344761Y-75572857D01*
X155297142Y-75525238D01*
X155201904Y-75477619D01*
X155106666Y-75477619D01*
X155011428Y-75525238D01*
X154963809Y-75572857D01*
X154916190Y-75668095D01*
X154868571Y-75858571D01*
X154820952Y-75953809D01*
X154773333Y-76001428D01*
X154678095Y-76049047D01*
X154582857Y-76049047D01*
X154487619Y-76001428D01*
X154440000Y-75953809D01*
X154392380Y-75858571D01*
X154392380Y-75620476D01*
X154440000Y-75477619D01*
X154392380Y-75144285D02*
X155392380Y-74477619D01*
X154392380Y-74477619D02*
X155392380Y-75144285D01*
X154392380Y-73906190D02*
X154392380Y-73810952D01*
X154440000Y-73715714D01*
X154487619Y-73668095D01*
X154582857Y-73620476D01*
X154773333Y-73572857D01*
X155011428Y-73572857D01*
X155201904Y-73620476D01*
X155297142Y-73668095D01*
X155344761Y-73715714D01*
X155392380Y-73810952D01*
X155392380Y-73906190D01*
X155344761Y-74001428D01*
X155297142Y-74049047D01*
X155201904Y-74096666D01*
X155011428Y-74144285D01*
X154773333Y-74144285D01*
X154582857Y-74096666D01*
X154487619Y-74049047D01*
X154440000Y-74001428D01*
X154392380Y-73906190D01*
X154392380Y-72953809D02*
X154392380Y-72858571D01*
X154440000Y-72763333D01*
X154487619Y-72715714D01*
X154582857Y-72668095D01*
X154773333Y-72620476D01*
X155011428Y-72620476D01*
X155201904Y-72668095D01*
X155297142Y-72715714D01*
X155344761Y-72763333D01*
X155392380Y-72858571D01*
X155392380Y-72953809D01*
X155344761Y-73049047D01*
X155297142Y-73096666D01*
X155201904Y-73144285D01*
X155011428Y-73191904D01*
X154773333Y-73191904D01*
X154582857Y-73144285D01*
X154487619Y-73096666D01*
X154440000Y-73049047D01*
X154392380Y-72953809D01*
X154392380Y-72287142D02*
X154392380Y-71668095D01*
X154773333Y-72001428D01*
X154773333Y-71858571D01*
X154820952Y-71763333D01*
X154868571Y-71715714D01*
X154963809Y-71668095D01*
X155201904Y-71668095D01*
X155297142Y-71715714D01*
X155344761Y-71763333D01*
X155392380Y-71858571D01*
X155392380Y-72144285D01*
X155344761Y-72239523D01*
X155297142Y-72287142D01*
X143352857Y-123432380D02*
X143352857Y-122432380D01*
X143733809Y-122432380D01*
X143829047Y-122480000D01*
X143876666Y-122527619D01*
X143924285Y-122622857D01*
X143924285Y-122765714D01*
X143876666Y-122860952D01*
X143829047Y-122908571D01*
X143733809Y-122956190D01*
X143352857Y-122956190D01*
X144352857Y-123432380D02*
X144352857Y-122765714D01*
X144352857Y-122432380D02*
X144305238Y-122480000D01*
X144352857Y-122527619D01*
X144400476Y-122480000D01*
X144352857Y-122432380D01*
X144352857Y-122527619D01*
X144829047Y-122765714D02*
X144829047Y-123432380D01*
X144829047Y-122860952D02*
X144876666Y-122813333D01*
X144971904Y-122765714D01*
X145114761Y-122765714D01*
X145210000Y-122813333D01*
X145257619Y-122908571D01*
X145257619Y-123432380D01*
X145733809Y-123432380D02*
X145733809Y-122432380D01*
X145733809Y-122908571D02*
X146305238Y-122908571D01*
X146305238Y-123432380D02*
X146305238Y-122432380D01*
X147162380Y-123384761D02*
X147067142Y-123432380D01*
X146876666Y-123432380D01*
X146781428Y-123384761D01*
X146733809Y-123289523D01*
X146733809Y-122908571D01*
X146781428Y-122813333D01*
X146876666Y-122765714D01*
X147067142Y-122765714D01*
X147162380Y-122813333D01*
X147210000Y-122908571D01*
X147210000Y-123003809D01*
X146733809Y-123099047D01*
X148067142Y-123432380D02*
X148067142Y-122908571D01*
X148019523Y-122813333D01*
X147924285Y-122765714D01*
X147733809Y-122765714D01*
X147638571Y-122813333D01*
X148067142Y-123384761D02*
X147971904Y-123432380D01*
X147733809Y-123432380D01*
X147638571Y-123384761D01*
X147590952Y-123289523D01*
X147590952Y-123194285D01*
X147638571Y-123099047D01*
X147733809Y-123051428D01*
X147971904Y-123051428D01*
X148067142Y-123003809D01*
X148971904Y-123432380D02*
X148971904Y-122432380D01*
X148971904Y-123384761D02*
X148876666Y-123432380D01*
X148686190Y-123432380D01*
X148590952Y-123384761D01*
X148543333Y-123337142D01*
X148495714Y-123241904D01*
X148495714Y-122956190D01*
X148543333Y-122860952D01*
X148590952Y-122813333D01*
X148686190Y-122765714D01*
X148876666Y-122765714D01*
X148971904Y-122813333D01*
X149829047Y-123384761D02*
X149733809Y-123432380D01*
X149543333Y-123432380D01*
X149448095Y-123384761D01*
X149400476Y-123289523D01*
X149400476Y-122908571D01*
X149448095Y-122813333D01*
X149543333Y-122765714D01*
X149733809Y-122765714D01*
X149829047Y-122813333D01*
X149876666Y-122908571D01*
X149876666Y-123003809D01*
X149400476Y-123099047D01*
X150305238Y-123432380D02*
X150305238Y-122765714D01*
X150305238Y-122956190D02*
X150352857Y-122860952D01*
X150400476Y-122813333D01*
X150495714Y-122765714D01*
X150590952Y-122765714D01*
X150686190Y-123527619D02*
X151448095Y-123527619D01*
X152210000Y-123432380D02*
X151638571Y-123432380D01*
X151924285Y-123432380D02*
X151924285Y-122432380D01*
X151829047Y-122575238D01*
X151733809Y-122670476D01*
X151638571Y-122718095D01*
X152543333Y-123432380D02*
X153067142Y-122765714D01*
X152543333Y-122765714D02*
X153067142Y-123432380D01*
X153638571Y-122432380D02*
X153733809Y-122432380D01*
X153829047Y-122480000D01*
X153876666Y-122527619D01*
X153924285Y-122622857D01*
X153971904Y-122813333D01*
X153971904Y-123051428D01*
X153924285Y-123241904D01*
X153876666Y-123337142D01*
X153829047Y-123384761D01*
X153733809Y-123432380D01*
X153638571Y-123432380D01*
X153543333Y-123384761D01*
X153495714Y-123337142D01*
X153448095Y-123241904D01*
X153400476Y-123051428D01*
X153400476Y-122813333D01*
X153448095Y-122622857D01*
X153495714Y-122527619D01*
X153543333Y-122480000D01*
X153638571Y-122432380D01*
X154829047Y-122432380D02*
X154638571Y-122432380D01*
X154543333Y-122480000D01*
X154495714Y-122527619D01*
X154400476Y-122670476D01*
X154352857Y-122860952D01*
X154352857Y-123241904D01*
X154400476Y-123337142D01*
X154448095Y-123384761D01*
X154543333Y-123432380D01*
X154733809Y-123432380D01*
X154829047Y-123384761D01*
X154876666Y-123337142D01*
X154924285Y-123241904D01*
X154924285Y-123003809D01*
X154876666Y-122908571D01*
X154829047Y-122860952D01*
X154733809Y-122813333D01*
X154543333Y-122813333D01*
X154448095Y-122860952D01*
X154400476Y-122908571D01*
X154352857Y-123003809D01*
X155114761Y-123527619D02*
X155876666Y-123527619D01*
X156114761Y-123432380D02*
X156114761Y-122432380D01*
X156495714Y-122432380D01*
X156590952Y-122480000D01*
X156638571Y-122527619D01*
X156686190Y-122622857D01*
X156686190Y-122765714D01*
X156638571Y-122860952D01*
X156590952Y-122908571D01*
X156495714Y-122956190D01*
X156114761Y-122956190D01*
X157067142Y-122527619D02*
X157114761Y-122480000D01*
X157210000Y-122432380D01*
X157448095Y-122432380D01*
X157543333Y-122480000D01*
X157590952Y-122527619D01*
X157638571Y-122622857D01*
X157638571Y-122718095D01*
X157590952Y-122860952D01*
X157019523Y-123432380D01*
X157638571Y-123432380D01*
X158067142Y-123337142D02*
X158114761Y-123384761D01*
X158067142Y-123432380D01*
X158019523Y-123384761D01*
X158067142Y-123337142D01*
X158067142Y-123432380D01*
X159019523Y-122432380D02*
X158543333Y-122432380D01*
X158495714Y-122908571D01*
X158543333Y-122860952D01*
X158638571Y-122813333D01*
X158876666Y-122813333D01*
X158971904Y-122860952D01*
X159019523Y-122908571D01*
X159067142Y-123003809D01*
X159067142Y-123241904D01*
X159019523Y-123337142D01*
X158971904Y-123384761D01*
X158876666Y-123432380D01*
X158638571Y-123432380D01*
X158543333Y-123384761D01*
X158495714Y-123337142D01*
X159924285Y-122765714D02*
X159924285Y-123432380D01*
X159686190Y-122384761D02*
X159448095Y-123099047D01*
X160067142Y-123099047D01*
X160448095Y-123432380D02*
X160448095Y-122765714D01*
X160448095Y-122860952D02*
X160495714Y-122813333D01*
X160590952Y-122765714D01*
X160733809Y-122765714D01*
X160829047Y-122813333D01*
X160876666Y-122908571D01*
X160876666Y-123432380D01*
X160876666Y-122908571D02*
X160924285Y-122813333D01*
X161019523Y-122765714D01*
X161162380Y-122765714D01*
X161257619Y-122813333D01*
X161305238Y-122908571D01*
X161305238Y-123432380D01*
X161781428Y-123432380D02*
X161781428Y-122765714D01*
X161781428Y-122860952D02*
X161829047Y-122813333D01*
X161924285Y-122765714D01*
X162067142Y-122765714D01*
X162162380Y-122813333D01*
X162210000Y-122908571D01*
X162210000Y-123432380D01*
X162210000Y-122908571D02*
X162257619Y-122813333D01*
X162352857Y-122765714D01*
X162495714Y-122765714D01*
X162590952Y-122813333D01*
X162638571Y-122908571D01*
X162638571Y-123432380D01*
X162876666Y-123527619D02*
X163638571Y-123527619D01*
X163733809Y-122432380D02*
X164067142Y-123432380D01*
X164400476Y-122432380D01*
X165114761Y-123384761D02*
X165019523Y-123432380D01*
X164829047Y-123432380D01*
X164733809Y-123384761D01*
X164686190Y-123289523D01*
X164686190Y-122908571D01*
X164733809Y-122813333D01*
X164829047Y-122765714D01*
X165019523Y-122765714D01*
X165114761Y-122813333D01*
X165162380Y-122908571D01*
X165162380Y-123003809D01*
X164686190Y-123099047D01*
X165590952Y-123432380D02*
X165590952Y-122765714D01*
X165590952Y-122956190D02*
X165638571Y-122860952D01*
X165686190Y-122813333D01*
X165781428Y-122765714D01*
X165876666Y-122765714D01*
X166067142Y-122765714D02*
X166448095Y-122765714D01*
X166210000Y-122432380D02*
X166210000Y-123289523D01*
X166257619Y-123384761D01*
X166352857Y-123432380D01*
X166448095Y-123432380D01*
X166781428Y-123432380D02*
X166781428Y-122765714D01*
X166781428Y-122432380D02*
X166733809Y-122480000D01*
X166781428Y-122527619D01*
X166829047Y-122480000D01*
X166781428Y-122432380D01*
X166781428Y-122527619D01*
X167686190Y-123384761D02*
X167590952Y-123432380D01*
X167400476Y-123432380D01*
X167305238Y-123384761D01*
X167257619Y-123337142D01*
X167210000Y-123241904D01*
X167210000Y-122956190D01*
X167257619Y-122860952D01*
X167305238Y-122813333D01*
X167400476Y-122765714D01*
X167590952Y-122765714D01*
X167686190Y-122813333D01*
X168543333Y-123432380D02*
X168543333Y-122908571D01*
X168495714Y-122813333D01*
X168400476Y-122765714D01*
X168210000Y-122765714D01*
X168114761Y-122813333D01*
X168543333Y-123384761D02*
X168448095Y-123432380D01*
X168210000Y-123432380D01*
X168114761Y-123384761D01*
X168067142Y-123289523D01*
X168067142Y-123194285D01*
X168114761Y-123099047D01*
X168210000Y-123051428D01*
X168448095Y-123051428D01*
X168543333Y-123003809D01*
X169162380Y-123432380D02*
X169067142Y-123384761D01*
X169019523Y-123289523D01*
X169019523Y-122432380D01*
X155710000Y-115014285D02*
X155662380Y-115109523D01*
X155662380Y-115252380D01*
X155710000Y-115395238D01*
X155805238Y-115490476D01*
X155900476Y-115538095D01*
X156090952Y-115585714D01*
X156233809Y-115585714D01*
X156424285Y-115538095D01*
X156519523Y-115490476D01*
X156614761Y-115395238D01*
X156662380Y-115252380D01*
X156662380Y-115157142D01*
X156614761Y-115014285D01*
X156567142Y-114966666D01*
X156233809Y-114966666D01*
X156233809Y-115157142D01*
X156662380Y-114538095D02*
X155662380Y-114538095D01*
X155662380Y-114157142D01*
X155710000Y-114061904D01*
X155757619Y-114014285D01*
X155852857Y-113966666D01*
X155995714Y-113966666D01*
X156090952Y-114014285D01*
X156138571Y-114061904D01*
X156186190Y-114157142D01*
X156186190Y-114538095D01*
X156614761Y-113585714D02*
X156662380Y-113442857D01*
X156662380Y-113204761D01*
X156614761Y-113109523D01*
X156567142Y-113061904D01*
X156471904Y-113014285D01*
X156376666Y-113014285D01*
X156281428Y-113061904D01*
X156233809Y-113109523D01*
X156186190Y-113204761D01*
X156138571Y-113395238D01*
X156090952Y-113490476D01*
X156043333Y-113538095D01*
X155948095Y-113585714D01*
X155852857Y-113585714D01*
X155757619Y-113538095D01*
X155710000Y-113490476D01*
X155662380Y-113395238D01*
X155662380Y-113157142D01*
X155710000Y-113014285D01*
X142225714Y-100366666D02*
X142701904Y-100366666D01*
X142130476Y-100652380D02*
X142463809Y-99652380D01*
X142797142Y-100652380D01*
X143273333Y-100652380D02*
X143178095Y-100604761D01*
X143130476Y-100557142D01*
X143082857Y-100461904D01*
X143082857Y-100176190D01*
X143130476Y-100080952D01*
X143178095Y-100033333D01*
X143273333Y-99985714D01*
X143416190Y-99985714D01*
X143511428Y-100033333D01*
X143559047Y-100080952D01*
X143606666Y-100176190D01*
X143606666Y-100461904D01*
X143559047Y-100557142D01*
X143511428Y-100604761D01*
X143416190Y-100652380D01*
X143273333Y-100652380D01*
X143987619Y-100604761D02*
X144082857Y-100652380D01*
X144273333Y-100652380D01*
X144368571Y-100604761D01*
X144416190Y-100509523D01*
X144416190Y-100461904D01*
X144368571Y-100366666D01*
X144273333Y-100319047D01*
X144130476Y-100319047D01*
X144035238Y-100271428D01*
X143987619Y-100176190D01*
X143987619Y-100128571D01*
X144035238Y-100033333D01*
X144130476Y-99985714D01*
X144273333Y-99985714D01*
X144368571Y-100033333D01*
X144987619Y-100652380D02*
X144892380Y-100604761D01*
X144844761Y-100557142D01*
X144797142Y-100461904D01*
X144797142Y-100176190D01*
X144844761Y-100080952D01*
X144892380Y-100033333D01*
X144987619Y-99985714D01*
X145130476Y-99985714D01*
X145225714Y-100033333D01*
X145273333Y-100080952D01*
X145320952Y-100176190D01*
X145320952Y-100461904D01*
X145273333Y-100557142D01*
X145225714Y-100604761D01*
X145130476Y-100652380D01*
X144987619Y-100652380D01*
X145749523Y-99985714D02*
X145749523Y-100652380D01*
X145749523Y-100080952D02*
X145797142Y-100033333D01*
X145892380Y-99985714D01*
X146035238Y-99985714D01*
X146130476Y-100033333D01*
X146178095Y-100128571D01*
X146178095Y-100652380D01*
X147082857Y-99985714D02*
X147082857Y-100795238D01*
X147035238Y-100890476D01*
X146987619Y-100938095D01*
X146892380Y-100985714D01*
X146749523Y-100985714D01*
X146654285Y-100938095D01*
X147082857Y-100604761D02*
X146987619Y-100652380D01*
X146797142Y-100652380D01*
X146701904Y-100604761D01*
X146654285Y-100557142D01*
X146606666Y-100461904D01*
X146606666Y-100176190D01*
X146654285Y-100080952D01*
X146701904Y-100033333D01*
X146797142Y-99985714D01*
X146987619Y-99985714D01*
X147082857Y-100033333D01*
X147320952Y-100747619D02*
X148082857Y-100747619D01*
X148320952Y-100652380D02*
X148320952Y-99652380D01*
X148559047Y-99652380D01*
X148701904Y-99700000D01*
X148797142Y-99795238D01*
X148844761Y-99890476D01*
X148892380Y-100080952D01*
X148892380Y-100223809D01*
X148844761Y-100414285D01*
X148797142Y-100509523D01*
X148701904Y-100604761D01*
X148559047Y-100652380D01*
X148320952Y-100652380D01*
X149320952Y-100652380D02*
X149320952Y-99652380D01*
X149320952Y-100128571D02*
X149892380Y-100128571D01*
X149892380Y-100652380D02*
X149892380Y-99652380D01*
X150225714Y-99652380D02*
X150797142Y-99652380D01*
X150511428Y-100652380D02*
X150511428Y-99652380D01*
X151654285Y-100652380D02*
X151082857Y-100652380D01*
X151368571Y-100652380D02*
X151368571Y-99652380D01*
X151273333Y-99795238D01*
X151178095Y-99890476D01*
X151082857Y-99938095D01*
X152606666Y-100652380D02*
X152035238Y-100652380D01*
X152320952Y-100652380D02*
X152320952Y-99652380D01*
X152225714Y-99795238D01*
X152130476Y-99890476D01*
X152035238Y-99938095D01*
X152797142Y-100747619D02*
X153559047Y-100747619D01*
X154273333Y-99652380D02*
X153797142Y-99652380D01*
X153749523Y-100128571D01*
X153797142Y-100080952D01*
X153892380Y-100033333D01*
X154130476Y-100033333D01*
X154225714Y-100080952D01*
X154273333Y-100128571D01*
X154320952Y-100223809D01*
X154320952Y-100461904D01*
X154273333Y-100557142D01*
X154225714Y-100604761D01*
X154130476Y-100652380D01*
X153892380Y-100652380D01*
X153797142Y-100604761D01*
X153749523Y-100557142D01*
X154749523Y-100557142D02*
X154797142Y-100604761D01*
X154749523Y-100652380D01*
X154701904Y-100604761D01*
X154749523Y-100557142D01*
X154749523Y-100652380D01*
X155701904Y-99652380D02*
X155225714Y-99652380D01*
X155178095Y-100128571D01*
X155225714Y-100080952D01*
X155320952Y-100033333D01*
X155559047Y-100033333D01*
X155654285Y-100080952D01*
X155701904Y-100128571D01*
X155749523Y-100223809D01*
X155749523Y-100461904D01*
X155701904Y-100557142D01*
X155654285Y-100604761D01*
X155559047Y-100652380D01*
X155320952Y-100652380D01*
X155225714Y-100604761D01*
X155178095Y-100557142D01*
X156082857Y-100652380D02*
X156606666Y-99985714D01*
X156082857Y-99985714D02*
X156606666Y-100652380D01*
X157511428Y-100652380D02*
X156940000Y-100652380D01*
X157225714Y-100652380D02*
X157225714Y-99652380D01*
X157130476Y-99795238D01*
X157035238Y-99890476D01*
X156940000Y-99938095D01*
X157892380Y-99747619D02*
X157940000Y-99700000D01*
X158035238Y-99652380D01*
X158273333Y-99652380D01*
X158368571Y-99700000D01*
X158416190Y-99747619D01*
X158463809Y-99842857D01*
X158463809Y-99938095D01*
X158416190Y-100080952D01*
X157844761Y-100652380D01*
X158463809Y-100652380D01*
X158892380Y-100557142D02*
X158940000Y-100604761D01*
X158892380Y-100652380D01*
X158844761Y-100604761D01*
X158892380Y-100557142D01*
X158892380Y-100652380D01*
X159559047Y-99652380D02*
X159654285Y-99652380D01*
X159749523Y-99700000D01*
X159797142Y-99747619D01*
X159844761Y-99842857D01*
X159892380Y-100033333D01*
X159892380Y-100271428D01*
X159844761Y-100461904D01*
X159797142Y-100557142D01*
X159749523Y-100604761D01*
X159654285Y-100652380D01*
X159559047Y-100652380D01*
X159463809Y-100604761D01*
X159416190Y-100557142D01*
X159368571Y-100461904D01*
X159320952Y-100271428D01*
X159320952Y-100033333D01*
X159368571Y-99842857D01*
X159416190Y-99747619D01*
X159463809Y-99700000D01*
X159559047Y-99652380D01*
X160082857Y-100747619D02*
X160844761Y-100747619D01*
X161082857Y-100652380D02*
X161082857Y-99652380D01*
X161463809Y-99652380D01*
X161559047Y-99700000D01*
X161606666Y-99747619D01*
X161654285Y-99842857D01*
X161654285Y-99985714D01*
X161606666Y-100080952D01*
X161559047Y-100128571D01*
X161463809Y-100176190D01*
X161082857Y-100176190D01*
X162035238Y-99747619D02*
X162082857Y-99700000D01*
X162178095Y-99652380D01*
X162416190Y-99652380D01*
X162511428Y-99700000D01*
X162559047Y-99747619D01*
X162606666Y-99842857D01*
X162606666Y-99938095D01*
X162559047Y-100080952D01*
X161987619Y-100652380D01*
X162606666Y-100652380D01*
X163035238Y-100557142D02*
X163082857Y-100604761D01*
X163035238Y-100652380D01*
X162987619Y-100604761D01*
X163035238Y-100557142D01*
X163035238Y-100652380D01*
X163987619Y-99652380D02*
X163511428Y-99652380D01*
X163463809Y-100128571D01*
X163511428Y-100080952D01*
X163606666Y-100033333D01*
X163844761Y-100033333D01*
X163940000Y-100080952D01*
X163987619Y-100128571D01*
X164035238Y-100223809D01*
X164035238Y-100461904D01*
X163987619Y-100557142D01*
X163940000Y-100604761D01*
X163844761Y-100652380D01*
X163606666Y-100652380D01*
X163511428Y-100604761D01*
X163463809Y-100557142D01*
X164892380Y-99985714D02*
X164892380Y-100652380D01*
X164654285Y-99604761D02*
X164416190Y-100319047D01*
X165035238Y-100319047D01*
X165416190Y-100652380D02*
X165416190Y-99985714D01*
X165416190Y-100080952D02*
X165463809Y-100033333D01*
X165559047Y-99985714D01*
X165701904Y-99985714D01*
X165797142Y-100033333D01*
X165844761Y-100128571D01*
X165844761Y-100652380D01*
X165844761Y-100128571D02*
X165892380Y-100033333D01*
X165987619Y-99985714D01*
X166130476Y-99985714D01*
X166225714Y-100033333D01*
X166273333Y-100128571D01*
X166273333Y-100652380D01*
X166749523Y-100652380D02*
X166749523Y-99985714D01*
X166749523Y-100080952D02*
X166797142Y-100033333D01*
X166892380Y-99985714D01*
X167035238Y-99985714D01*
X167130476Y-100033333D01*
X167178095Y-100128571D01*
X167178095Y-100652380D01*
X167178095Y-100128571D02*
X167225714Y-100033333D01*
X167320952Y-99985714D01*
X167463809Y-99985714D01*
X167559047Y-100033333D01*
X167606666Y-100128571D01*
X167606666Y-100652380D01*
X152820952Y-93162380D02*
X152820952Y-92162380D01*
X153059047Y-92162380D01*
X153201904Y-92210000D01*
X153297142Y-92305238D01*
X153344761Y-92400476D01*
X153392380Y-92590952D01*
X153392380Y-92733809D01*
X153344761Y-92924285D01*
X153297142Y-93019523D01*
X153201904Y-93114761D01*
X153059047Y-93162380D01*
X152820952Y-93162380D01*
X153820952Y-93162380D02*
X153820952Y-92162380D01*
X153820952Y-92638571D02*
X154392380Y-92638571D01*
X154392380Y-93162380D02*
X154392380Y-92162380D01*
X154725714Y-92162380D02*
X155297142Y-92162380D01*
X155011428Y-93162380D02*
X155011428Y-92162380D01*
X155582857Y-92257619D02*
X155630476Y-92210000D01*
X155725714Y-92162380D01*
X155963809Y-92162380D01*
X156059047Y-92210000D01*
X156106666Y-92257619D01*
X156154285Y-92352857D01*
X156154285Y-92448095D01*
X156106666Y-92590952D01*
X155535238Y-93162380D01*
X156154285Y-93162380D01*
X156535238Y-92257619D02*
X156582857Y-92210000D01*
X156678095Y-92162380D01*
X156916190Y-92162380D01*
X157011428Y-92210000D01*
X157059047Y-92257619D01*
X157106666Y-92352857D01*
X157106666Y-92448095D01*
X157059047Y-92590952D01*
X156487619Y-93162380D01*
X157106666Y-93162380D01*
X136930952Y-137002380D02*
X136930952Y-136002380D01*
X137264285Y-136716666D01*
X137597619Y-136002380D01*
X137597619Y-137002380D01*
X138216666Y-137002380D02*
X138121428Y-136954761D01*
X138073809Y-136907142D01*
X138026190Y-136811904D01*
X138026190Y-136526190D01*
X138073809Y-136430952D01*
X138121428Y-136383333D01*
X138216666Y-136335714D01*
X138359523Y-136335714D01*
X138454761Y-136383333D01*
X138502380Y-136430952D01*
X138550000Y-136526190D01*
X138550000Y-136811904D01*
X138502380Y-136907142D01*
X138454761Y-136954761D01*
X138359523Y-137002380D01*
X138216666Y-137002380D01*
X139407142Y-136335714D02*
X139407142Y-137002380D01*
X138978571Y-136335714D02*
X138978571Y-136859523D01*
X139026190Y-136954761D01*
X139121428Y-137002380D01*
X139264285Y-137002380D01*
X139359523Y-136954761D01*
X139407142Y-136907142D01*
X139883333Y-136335714D02*
X139883333Y-137002380D01*
X139883333Y-136430952D02*
X139930952Y-136383333D01*
X140026190Y-136335714D01*
X140169047Y-136335714D01*
X140264285Y-136383333D01*
X140311904Y-136478571D01*
X140311904Y-137002380D01*
X140645238Y-136335714D02*
X141026190Y-136335714D01*
X140788095Y-136002380D02*
X140788095Y-136859523D01*
X140835714Y-136954761D01*
X140930952Y-137002380D01*
X141026190Y-137002380D01*
X141359523Y-137002380D02*
X141359523Y-136335714D01*
X141359523Y-136002380D02*
X141311904Y-136050000D01*
X141359523Y-136097619D01*
X141407142Y-136050000D01*
X141359523Y-136002380D01*
X141359523Y-136097619D01*
X141835714Y-136335714D02*
X141835714Y-137002380D01*
X141835714Y-136430952D02*
X141883333Y-136383333D01*
X141978571Y-136335714D01*
X142121428Y-136335714D01*
X142216666Y-136383333D01*
X142264285Y-136478571D01*
X142264285Y-137002380D01*
X143169047Y-136335714D02*
X143169047Y-137145238D01*
X143121428Y-137240476D01*
X143073809Y-137288095D01*
X142978571Y-137335714D01*
X142835714Y-137335714D01*
X142740476Y-137288095D01*
X143169047Y-136954761D02*
X143073809Y-137002380D01*
X142883333Y-137002380D01*
X142788095Y-136954761D01*
X142740476Y-136907142D01*
X142692857Y-136811904D01*
X142692857Y-136526190D01*
X142740476Y-136430952D01*
X142788095Y-136383333D01*
X142883333Y-136335714D01*
X143073809Y-136335714D01*
X143169047Y-136383333D01*
X143645238Y-137002380D02*
X143645238Y-136002380D01*
X143645238Y-136478571D02*
X144216666Y-136478571D01*
X144216666Y-137002380D02*
X144216666Y-136002380D01*
X144835714Y-137002380D02*
X144740476Y-136954761D01*
X144692857Y-136907142D01*
X144645238Y-136811904D01*
X144645238Y-136526190D01*
X144692857Y-136430952D01*
X144740476Y-136383333D01*
X144835714Y-136335714D01*
X144978571Y-136335714D01*
X145073809Y-136383333D01*
X145121428Y-136430952D01*
X145169047Y-136526190D01*
X145169047Y-136811904D01*
X145121428Y-136907142D01*
X145073809Y-136954761D01*
X144978571Y-137002380D01*
X144835714Y-137002380D01*
X145740476Y-137002380D02*
X145645238Y-136954761D01*
X145597619Y-136859523D01*
X145597619Y-136002380D01*
X146502380Y-136954761D02*
X146407142Y-137002380D01*
X146216666Y-137002380D01*
X146121428Y-136954761D01*
X146073809Y-136859523D01*
X146073809Y-136478571D01*
X146121428Y-136383333D01*
X146216666Y-136335714D01*
X146407142Y-136335714D01*
X146502380Y-136383333D01*
X146550000Y-136478571D01*
X146550000Y-136573809D01*
X146073809Y-136669047D01*
X146740476Y-137097619D02*
X147502380Y-137097619D01*
X147692857Y-136097619D02*
X147740476Y-136050000D01*
X147835714Y-136002380D01*
X148073809Y-136002380D01*
X148169047Y-136050000D01*
X148216666Y-136097619D01*
X148264285Y-136192857D01*
X148264285Y-136288095D01*
X148216666Y-136430952D01*
X147645238Y-137002380D01*
X148264285Y-137002380D01*
X148692857Y-136907142D02*
X148740476Y-136954761D01*
X148692857Y-137002380D01*
X148645238Y-136954761D01*
X148692857Y-136907142D01*
X148692857Y-137002380D01*
X149121428Y-136097619D02*
X149169047Y-136050000D01*
X149264285Y-136002380D01*
X149502380Y-136002380D01*
X149597619Y-136050000D01*
X149645238Y-136097619D01*
X149692857Y-136192857D01*
X149692857Y-136288095D01*
X149645238Y-136430952D01*
X149073809Y-137002380D01*
X149692857Y-137002380D01*
X150121428Y-137002380D02*
X150121428Y-136335714D01*
X150121428Y-136430952D02*
X150169047Y-136383333D01*
X150264285Y-136335714D01*
X150407142Y-136335714D01*
X150502380Y-136383333D01*
X150550000Y-136478571D01*
X150550000Y-137002380D01*
X150550000Y-136478571D02*
X150597619Y-136383333D01*
X150692857Y-136335714D01*
X150835714Y-136335714D01*
X150930952Y-136383333D01*
X150978571Y-136478571D01*
X150978571Y-137002380D01*
X151454761Y-137002380D02*
X151454761Y-136335714D01*
X151454761Y-136430952D02*
X151502380Y-136383333D01*
X151597619Y-136335714D01*
X151740476Y-136335714D01*
X151835714Y-136383333D01*
X151883333Y-136478571D01*
X151883333Y-137002380D01*
X151883333Y-136478571D02*
X151930952Y-136383333D01*
X152026190Y-136335714D01*
X152169047Y-136335714D01*
X152264285Y-136383333D01*
X152311904Y-136478571D01*
X152311904Y-137002380D01*
X152550000Y-137097619D02*
X153311904Y-137097619D01*
X153550000Y-137002380D02*
X153550000Y-136002380D01*
X153883333Y-136716666D01*
X154216666Y-136002380D01*
X154216666Y-137002380D01*
X154645238Y-136097619D02*
X154692857Y-136050000D01*
X154788095Y-136002380D01*
X155026190Y-136002380D01*
X155121428Y-136050000D01*
X155169047Y-136097619D01*
X155216666Y-136192857D01*
X155216666Y-136288095D01*
X155169047Y-136430952D01*
X154597619Y-137002380D01*
X155216666Y-137002380D01*
X145016666Y-133802380D02*
X144683333Y-133326190D01*
X144445238Y-133802380D02*
X144445238Y-132802380D01*
X144826190Y-132802380D01*
X144921428Y-132850000D01*
X144969047Y-132897619D01*
X145016666Y-132992857D01*
X145016666Y-133135714D01*
X144969047Y-133230952D01*
X144921428Y-133278571D01*
X144826190Y-133326190D01*
X144445238Y-133326190D01*
X145445238Y-133278571D02*
X145778571Y-133278571D01*
X145921428Y-133802380D02*
X145445238Y-133802380D01*
X145445238Y-132802380D01*
X145921428Y-132802380D01*
X146683333Y-133278571D02*
X146350000Y-133278571D01*
X146350000Y-133802380D02*
X146350000Y-132802380D01*
X146826190Y-132802380D01*
X147350000Y-132802380D02*
X147350000Y-133040476D01*
X147111904Y-132945238D02*
X147350000Y-133040476D01*
X147588095Y-132945238D01*
X147207142Y-133230952D02*
X147350000Y-133040476D01*
X147492857Y-133230952D01*
X148111904Y-132802380D02*
X148111904Y-133040476D01*
X147873809Y-132945238D02*
X148111904Y-133040476D01*
X148350000Y-132945238D01*
X147969047Y-133230952D02*
X148111904Y-133040476D01*
X148254761Y-133230952D01*
X145820952Y-64612380D02*
X145820952Y-63612380D01*
X146154285Y-64326666D01*
X146487619Y-63612380D01*
X146487619Y-64612380D01*
X147106666Y-64612380D02*
X147011428Y-64564761D01*
X146963809Y-64517142D01*
X146916190Y-64421904D01*
X146916190Y-64136190D01*
X146963809Y-64040952D01*
X147011428Y-63993333D01*
X147106666Y-63945714D01*
X147249523Y-63945714D01*
X147344761Y-63993333D01*
X147392380Y-64040952D01*
X147440000Y-64136190D01*
X147440000Y-64421904D01*
X147392380Y-64517142D01*
X147344761Y-64564761D01*
X147249523Y-64612380D01*
X147106666Y-64612380D01*
X148297142Y-63945714D02*
X148297142Y-64612380D01*
X147868571Y-63945714D02*
X147868571Y-64469523D01*
X147916190Y-64564761D01*
X148011428Y-64612380D01*
X148154285Y-64612380D01*
X148249523Y-64564761D01*
X148297142Y-64517142D01*
X148773333Y-63945714D02*
X148773333Y-64612380D01*
X148773333Y-64040952D02*
X148820952Y-63993333D01*
X148916190Y-63945714D01*
X149059047Y-63945714D01*
X149154285Y-63993333D01*
X149201904Y-64088571D01*
X149201904Y-64612380D01*
X149535238Y-63945714D02*
X149916190Y-63945714D01*
X149678095Y-63612380D02*
X149678095Y-64469523D01*
X149725714Y-64564761D01*
X149820952Y-64612380D01*
X149916190Y-64612380D01*
X150249523Y-64612380D02*
X150249523Y-63945714D01*
X150249523Y-63612380D02*
X150201904Y-63660000D01*
X150249523Y-63707619D01*
X150297142Y-63660000D01*
X150249523Y-63612380D01*
X150249523Y-63707619D01*
X150725714Y-63945714D02*
X150725714Y-64612380D01*
X150725714Y-64040952D02*
X150773333Y-63993333D01*
X150868571Y-63945714D01*
X151011428Y-63945714D01*
X151106666Y-63993333D01*
X151154285Y-64088571D01*
X151154285Y-64612380D01*
X152059047Y-63945714D02*
X152059047Y-64755238D01*
X152011428Y-64850476D01*
X151963809Y-64898095D01*
X151868571Y-64945714D01*
X151725714Y-64945714D01*
X151630476Y-64898095D01*
X152059047Y-64564761D02*
X151963809Y-64612380D01*
X151773333Y-64612380D01*
X151678095Y-64564761D01*
X151630476Y-64517142D01*
X151582857Y-64421904D01*
X151582857Y-64136190D01*
X151630476Y-64040952D01*
X151678095Y-63993333D01*
X151773333Y-63945714D01*
X151963809Y-63945714D01*
X152059047Y-63993333D01*
X152535238Y-64612380D02*
X152535238Y-63612380D01*
X152535238Y-64088571D02*
X153106666Y-64088571D01*
X153106666Y-64612380D02*
X153106666Y-63612380D01*
X153725714Y-64612380D02*
X153630476Y-64564761D01*
X153582857Y-64517142D01*
X153535238Y-64421904D01*
X153535238Y-64136190D01*
X153582857Y-64040952D01*
X153630476Y-63993333D01*
X153725714Y-63945714D01*
X153868571Y-63945714D01*
X153963809Y-63993333D01*
X154011428Y-64040952D01*
X154059047Y-64136190D01*
X154059047Y-64421904D01*
X154011428Y-64517142D01*
X153963809Y-64564761D01*
X153868571Y-64612380D01*
X153725714Y-64612380D01*
X154630476Y-64612380D02*
X154535238Y-64564761D01*
X154487619Y-64469523D01*
X154487619Y-63612380D01*
X155392380Y-64564761D02*
X155297142Y-64612380D01*
X155106666Y-64612380D01*
X155011428Y-64564761D01*
X154963809Y-64469523D01*
X154963809Y-64088571D01*
X155011428Y-63993333D01*
X155106666Y-63945714D01*
X155297142Y-63945714D01*
X155392380Y-63993333D01*
X155440000Y-64088571D01*
X155440000Y-64183809D01*
X154963809Y-64279047D01*
X155630476Y-64707619D02*
X156392380Y-64707619D01*
X156582857Y-63707619D02*
X156630476Y-63660000D01*
X156725714Y-63612380D01*
X156963809Y-63612380D01*
X157059047Y-63660000D01*
X157106666Y-63707619D01*
X157154285Y-63802857D01*
X157154285Y-63898095D01*
X157106666Y-64040952D01*
X156535238Y-64612380D01*
X157154285Y-64612380D01*
X157582857Y-64517142D02*
X157630476Y-64564761D01*
X157582857Y-64612380D01*
X157535238Y-64564761D01*
X157582857Y-64517142D01*
X157582857Y-64612380D01*
X158011428Y-63707619D02*
X158059047Y-63660000D01*
X158154285Y-63612380D01*
X158392380Y-63612380D01*
X158487619Y-63660000D01*
X158535238Y-63707619D01*
X158582857Y-63802857D01*
X158582857Y-63898095D01*
X158535238Y-64040952D01*
X157963809Y-64612380D01*
X158582857Y-64612380D01*
X159011428Y-64612380D02*
X159011428Y-63945714D01*
X159011428Y-64040952D02*
X159059047Y-63993333D01*
X159154285Y-63945714D01*
X159297142Y-63945714D01*
X159392380Y-63993333D01*
X159440000Y-64088571D01*
X159440000Y-64612380D01*
X159440000Y-64088571D02*
X159487619Y-63993333D01*
X159582857Y-63945714D01*
X159725714Y-63945714D01*
X159820952Y-63993333D01*
X159868571Y-64088571D01*
X159868571Y-64612380D01*
X160344761Y-64612380D02*
X160344761Y-63945714D01*
X160344761Y-64040952D02*
X160392380Y-63993333D01*
X160487619Y-63945714D01*
X160630476Y-63945714D01*
X160725714Y-63993333D01*
X160773333Y-64088571D01*
X160773333Y-64612380D01*
X160773333Y-64088571D02*
X160820952Y-63993333D01*
X160916190Y-63945714D01*
X161059047Y-63945714D01*
X161154285Y-63993333D01*
X161201904Y-64088571D01*
X161201904Y-64612380D01*
X161440000Y-64707619D02*
X162201904Y-64707619D01*
X162440000Y-64612380D02*
X162440000Y-63612380D01*
X162773333Y-64326666D01*
X163106666Y-63612380D01*
X163106666Y-64612380D01*
X163535238Y-63707619D02*
X163582857Y-63660000D01*
X163678095Y-63612380D01*
X163916190Y-63612380D01*
X164011428Y-63660000D01*
X164059047Y-63707619D01*
X164106666Y-63802857D01*
X164106666Y-63898095D01*
X164059047Y-64040952D01*
X163487619Y-64612380D01*
X164106666Y-64612380D01*
X153906666Y-61412380D02*
X153573333Y-60936190D01*
X153335238Y-61412380D02*
X153335238Y-60412380D01*
X153716190Y-60412380D01*
X153811428Y-60460000D01*
X153859047Y-60507619D01*
X153906666Y-60602857D01*
X153906666Y-60745714D01*
X153859047Y-60840952D01*
X153811428Y-60888571D01*
X153716190Y-60936190D01*
X153335238Y-60936190D01*
X154335238Y-60888571D02*
X154668571Y-60888571D01*
X154811428Y-61412380D02*
X154335238Y-61412380D01*
X154335238Y-60412380D01*
X154811428Y-60412380D01*
X155573333Y-60888571D02*
X155240000Y-60888571D01*
X155240000Y-61412380D02*
X155240000Y-60412380D01*
X155716190Y-60412380D01*
X156240000Y-60412380D02*
X156240000Y-60650476D01*
X156001904Y-60555238D02*
X156240000Y-60650476D01*
X156478095Y-60555238D01*
X156097142Y-60840952D02*
X156240000Y-60650476D01*
X156382857Y-60840952D01*
X157001904Y-60412380D02*
X157001904Y-60650476D01*
X156763809Y-60555238D02*
X157001904Y-60650476D01*
X157240000Y-60555238D01*
X156859047Y-60840952D02*
X157001904Y-60650476D01*
X157144761Y-60840952D01*
X107911904Y-97202380D02*
X107911904Y-96202380D01*
X108292857Y-96202380D01*
X108388095Y-96250000D01*
X108435714Y-96297619D01*
X108483333Y-96392857D01*
X108483333Y-96535714D01*
X108435714Y-96630952D01*
X108388095Y-96678571D01*
X108292857Y-96726190D01*
X107911904Y-96726190D01*
X108911904Y-97202380D02*
X108911904Y-96535714D01*
X108911904Y-96202380D02*
X108864285Y-96250000D01*
X108911904Y-96297619D01*
X108959523Y-96250000D01*
X108911904Y-96202380D01*
X108911904Y-96297619D01*
X109388095Y-96535714D02*
X109388095Y-97202380D01*
X109388095Y-96630952D02*
X109435714Y-96583333D01*
X109530952Y-96535714D01*
X109673809Y-96535714D01*
X109769047Y-96583333D01*
X109816666Y-96678571D01*
X109816666Y-97202380D01*
X110245238Y-97154761D02*
X110388095Y-97202380D01*
X110626190Y-97202380D01*
X110721428Y-97154761D01*
X110769047Y-97107142D01*
X110816666Y-97011904D01*
X110816666Y-96916666D01*
X110769047Y-96821428D01*
X110721428Y-96773809D01*
X110626190Y-96726190D01*
X110435714Y-96678571D01*
X110340476Y-96630952D01*
X110292857Y-96583333D01*
X110245238Y-96488095D01*
X110245238Y-96392857D01*
X110292857Y-96297619D01*
X110340476Y-96250000D01*
X110435714Y-96202380D01*
X110673809Y-96202380D01*
X110816666Y-96250000D01*
X111388095Y-97202380D02*
X111292857Y-97154761D01*
X111245238Y-97107142D01*
X111197619Y-97011904D01*
X111197619Y-96726190D01*
X111245238Y-96630952D01*
X111292857Y-96583333D01*
X111388095Y-96535714D01*
X111530952Y-96535714D01*
X111626190Y-96583333D01*
X111673809Y-96630952D01*
X111721428Y-96726190D01*
X111721428Y-97011904D01*
X111673809Y-97107142D01*
X111626190Y-97154761D01*
X111530952Y-97202380D01*
X111388095Y-97202380D01*
X112578571Y-97154761D02*
X112483333Y-97202380D01*
X112292857Y-97202380D01*
X112197619Y-97154761D01*
X112150000Y-97107142D01*
X112102380Y-97011904D01*
X112102380Y-96726190D01*
X112150000Y-96630952D01*
X112197619Y-96583333D01*
X112292857Y-96535714D01*
X112483333Y-96535714D01*
X112578571Y-96583333D01*
X113007142Y-97202380D02*
X113007142Y-96202380D01*
X113102380Y-96821428D02*
X113388095Y-97202380D01*
X113388095Y-96535714D02*
X113007142Y-96916666D01*
X114197619Y-97154761D02*
X114102380Y-97202380D01*
X113911904Y-97202380D01*
X113816666Y-97154761D01*
X113769047Y-97059523D01*
X113769047Y-96678571D01*
X113816666Y-96583333D01*
X113911904Y-96535714D01*
X114102380Y-96535714D01*
X114197619Y-96583333D01*
X114245238Y-96678571D01*
X114245238Y-96773809D01*
X113769047Y-96869047D01*
X114530952Y-96535714D02*
X114911904Y-96535714D01*
X114673809Y-96202380D02*
X114673809Y-97059523D01*
X114721428Y-97154761D01*
X114816666Y-97202380D01*
X114911904Y-97202380D01*
X115007142Y-97297619D02*
X115769047Y-97297619D01*
X116530952Y-97202380D02*
X115959523Y-97202380D01*
X116245238Y-97202380D02*
X116245238Y-96202380D01*
X116150000Y-96345238D01*
X116054761Y-96440476D01*
X115959523Y-96488095D01*
X116864285Y-97202380D02*
X117388095Y-96535714D01*
X116864285Y-96535714D02*
X117388095Y-97202380D01*
X117959523Y-96202380D02*
X118054761Y-96202380D01*
X118150000Y-96250000D01*
X118197619Y-96297619D01*
X118245238Y-96392857D01*
X118292857Y-96583333D01*
X118292857Y-96821428D01*
X118245238Y-97011904D01*
X118197619Y-97107142D01*
X118150000Y-97154761D01*
X118054761Y-97202380D01*
X117959523Y-97202380D01*
X117864285Y-97154761D01*
X117816666Y-97107142D01*
X117769047Y-97011904D01*
X117721428Y-96821428D01*
X117721428Y-96583333D01*
X117769047Y-96392857D01*
X117816666Y-96297619D01*
X117864285Y-96250000D01*
X117959523Y-96202380D01*
X118673809Y-96297619D02*
X118721428Y-96250000D01*
X118816666Y-96202380D01*
X119054761Y-96202380D01*
X119150000Y-96250000D01*
X119197619Y-96297619D01*
X119245238Y-96392857D01*
X119245238Y-96488095D01*
X119197619Y-96630952D01*
X118626190Y-97202380D01*
X119245238Y-97202380D01*
X119435714Y-97297619D02*
X120197619Y-97297619D01*
X120435714Y-97202380D02*
X120435714Y-96202380D01*
X120816666Y-96202380D01*
X120911904Y-96250000D01*
X120959523Y-96297619D01*
X121007142Y-96392857D01*
X121007142Y-96535714D01*
X120959523Y-96630952D01*
X120911904Y-96678571D01*
X120816666Y-96726190D01*
X120435714Y-96726190D01*
X121388095Y-96297619D02*
X121435714Y-96250000D01*
X121530952Y-96202380D01*
X121769047Y-96202380D01*
X121864285Y-96250000D01*
X121911904Y-96297619D01*
X121959523Y-96392857D01*
X121959523Y-96488095D01*
X121911904Y-96630952D01*
X121340476Y-97202380D01*
X121959523Y-97202380D01*
X122388095Y-97107142D02*
X122435714Y-97154761D01*
X122388095Y-97202380D01*
X122340476Y-97154761D01*
X122388095Y-97107142D01*
X122388095Y-97202380D01*
X123340476Y-96202380D02*
X122864285Y-96202380D01*
X122816666Y-96678571D01*
X122864285Y-96630952D01*
X122959523Y-96583333D01*
X123197619Y-96583333D01*
X123292857Y-96630952D01*
X123340476Y-96678571D01*
X123388095Y-96773809D01*
X123388095Y-97011904D01*
X123340476Y-97107142D01*
X123292857Y-97154761D01*
X123197619Y-97202380D01*
X122959523Y-97202380D01*
X122864285Y-97154761D01*
X122816666Y-97107142D01*
X124245238Y-96535714D02*
X124245238Y-97202380D01*
X124007142Y-96154761D02*
X123769047Y-96869047D01*
X124388095Y-96869047D01*
X124769047Y-97202380D02*
X124769047Y-96535714D01*
X124769047Y-96630952D02*
X124816666Y-96583333D01*
X124911904Y-96535714D01*
X125054761Y-96535714D01*
X125150000Y-96583333D01*
X125197619Y-96678571D01*
X125197619Y-97202380D01*
X125197619Y-96678571D02*
X125245238Y-96583333D01*
X125340476Y-96535714D01*
X125483333Y-96535714D01*
X125578571Y-96583333D01*
X125626190Y-96678571D01*
X125626190Y-97202380D01*
X126102380Y-97202380D02*
X126102380Y-96535714D01*
X126102380Y-96630952D02*
X126150000Y-96583333D01*
X126245238Y-96535714D01*
X126388095Y-96535714D01*
X126483333Y-96583333D01*
X126530952Y-96678571D01*
X126530952Y-97202380D01*
X126530952Y-96678571D02*
X126578571Y-96583333D01*
X126673809Y-96535714D01*
X126816666Y-96535714D01*
X126911904Y-96583333D01*
X126959523Y-96678571D01*
X126959523Y-97202380D01*
X127197619Y-97297619D02*
X127959523Y-97297619D01*
X128054761Y-96202380D02*
X128388095Y-97202380D01*
X128721428Y-96202380D01*
X129435714Y-97154761D02*
X129340476Y-97202380D01*
X129150000Y-97202380D01*
X129054761Y-97154761D01*
X129007142Y-97059523D01*
X129007142Y-96678571D01*
X129054761Y-96583333D01*
X129150000Y-96535714D01*
X129340476Y-96535714D01*
X129435714Y-96583333D01*
X129483333Y-96678571D01*
X129483333Y-96773809D01*
X129007142Y-96869047D01*
X129911904Y-97202380D02*
X129911904Y-96535714D01*
X129911904Y-96726190D02*
X129959523Y-96630952D01*
X130007142Y-96583333D01*
X130102380Y-96535714D01*
X130197619Y-96535714D01*
X130388095Y-96535714D02*
X130769047Y-96535714D01*
X130530952Y-96202380D02*
X130530952Y-97059523D01*
X130578571Y-97154761D01*
X130673809Y-97202380D01*
X130769047Y-97202380D01*
X131102380Y-97202380D02*
X131102380Y-96535714D01*
X131102380Y-96202380D02*
X131054761Y-96250000D01*
X131102380Y-96297619D01*
X131150000Y-96250000D01*
X131102380Y-96202380D01*
X131102380Y-96297619D01*
X132007142Y-97154761D02*
X131911904Y-97202380D01*
X131721428Y-97202380D01*
X131626190Y-97154761D01*
X131578571Y-97107142D01*
X131530952Y-97011904D01*
X131530952Y-96726190D01*
X131578571Y-96630952D01*
X131626190Y-96583333D01*
X131721428Y-96535714D01*
X131911904Y-96535714D01*
X132007142Y-96583333D01*
X132864285Y-97202380D02*
X132864285Y-96678571D01*
X132816666Y-96583333D01*
X132721428Y-96535714D01*
X132530952Y-96535714D01*
X132435714Y-96583333D01*
X132864285Y-97154761D02*
X132769047Y-97202380D01*
X132530952Y-97202380D01*
X132435714Y-97154761D01*
X132388095Y-97059523D01*
X132388095Y-96964285D01*
X132435714Y-96869047D01*
X132530952Y-96821428D01*
X132769047Y-96821428D01*
X132864285Y-96773809D01*
X133483333Y-97202380D02*
X133388095Y-97154761D01*
X133340476Y-97059523D01*
X133340476Y-96202380D01*
X121102380Y-94043333D02*
X120626190Y-94376666D01*
X121102380Y-94614761D02*
X120102380Y-94614761D01*
X120102380Y-94233809D01*
X120150000Y-94138571D01*
X120197619Y-94090952D01*
X120292857Y-94043333D01*
X120435714Y-94043333D01*
X120530952Y-94090952D01*
X120578571Y-94138571D01*
X120626190Y-94233809D01*
X120626190Y-94614761D01*
X120578571Y-93614761D02*
X120578571Y-93281428D01*
X121102380Y-93138571D02*
X121102380Y-93614761D01*
X120102380Y-93614761D01*
X120102380Y-93138571D01*
X120578571Y-92376666D02*
X120578571Y-92710000D01*
X121102380Y-92710000D02*
X120102380Y-92710000D01*
X120102380Y-92233809D01*
X120102380Y-91710000D02*
X120340476Y-91710000D01*
X120245238Y-91948095D02*
X120340476Y-91710000D01*
X120245238Y-91471904D01*
X120530952Y-91852857D02*
X120340476Y-91710000D01*
X120530952Y-91567142D01*
X120102380Y-90948095D02*
X120340476Y-90948095D01*
X120245238Y-91186190D02*
X120340476Y-90948095D01*
X120245238Y-90710000D01*
X120530952Y-91090952D02*
X120340476Y-90948095D01*
X120530952Y-90805238D01*
X120042380Y-147477142D02*
X119042380Y-147477142D01*
X119042380Y-147096190D01*
X119090000Y-147000952D01*
X119137619Y-146953333D01*
X119232857Y-146905714D01*
X119375714Y-146905714D01*
X119470952Y-146953333D01*
X119518571Y-147000952D01*
X119566190Y-147096190D01*
X119566190Y-147477142D01*
X120042380Y-146477142D02*
X119375714Y-146477142D01*
X119042380Y-146477142D02*
X119090000Y-146524761D01*
X119137619Y-146477142D01*
X119090000Y-146429523D01*
X119042380Y-146477142D01*
X119137619Y-146477142D01*
X119375714Y-146000952D02*
X120042380Y-146000952D01*
X119470952Y-146000952D02*
X119423333Y-145953333D01*
X119375714Y-145858095D01*
X119375714Y-145715238D01*
X119423333Y-145620000D01*
X119518571Y-145572380D01*
X120042380Y-145572380D01*
X120042380Y-145096190D02*
X119042380Y-145096190D01*
X119518571Y-145096190D02*
X119518571Y-144524761D01*
X120042380Y-144524761D02*
X119042380Y-144524761D01*
X119994761Y-143667619D02*
X120042380Y-143762857D01*
X120042380Y-143953333D01*
X119994761Y-144048571D01*
X119899523Y-144096190D01*
X119518571Y-144096190D01*
X119423333Y-144048571D01*
X119375714Y-143953333D01*
X119375714Y-143762857D01*
X119423333Y-143667619D01*
X119518571Y-143620000D01*
X119613809Y-143620000D01*
X119709047Y-144096190D01*
X120042380Y-142762857D02*
X119518571Y-142762857D01*
X119423333Y-142810476D01*
X119375714Y-142905714D01*
X119375714Y-143096190D01*
X119423333Y-143191428D01*
X119994761Y-142762857D02*
X120042380Y-142858095D01*
X120042380Y-143096190D01*
X119994761Y-143191428D01*
X119899523Y-143239047D01*
X119804285Y-143239047D01*
X119709047Y-143191428D01*
X119661428Y-143096190D01*
X119661428Y-142858095D01*
X119613809Y-142762857D01*
X120042380Y-141858095D02*
X119042380Y-141858095D01*
X119994761Y-141858095D02*
X120042380Y-141953333D01*
X120042380Y-142143809D01*
X119994761Y-142239047D01*
X119947142Y-142286666D01*
X119851904Y-142334285D01*
X119566190Y-142334285D01*
X119470952Y-142286666D01*
X119423333Y-142239047D01*
X119375714Y-142143809D01*
X119375714Y-141953333D01*
X119423333Y-141858095D01*
X119994761Y-141000952D02*
X120042380Y-141096190D01*
X120042380Y-141286666D01*
X119994761Y-141381904D01*
X119899523Y-141429523D01*
X119518571Y-141429523D01*
X119423333Y-141381904D01*
X119375714Y-141286666D01*
X119375714Y-141096190D01*
X119423333Y-141000952D01*
X119518571Y-140953333D01*
X119613809Y-140953333D01*
X119709047Y-141429523D01*
X120042380Y-140524761D02*
X119375714Y-140524761D01*
X119566190Y-140524761D02*
X119470952Y-140477142D01*
X119423333Y-140429523D01*
X119375714Y-140334285D01*
X119375714Y-140239047D01*
X120137619Y-140143809D02*
X120137619Y-139381904D01*
X120042380Y-138620000D02*
X120042380Y-139191428D01*
X120042380Y-138905714D02*
X119042380Y-138905714D01*
X119185238Y-139000952D01*
X119280476Y-139096190D01*
X119328095Y-139191428D01*
X120042380Y-138286666D02*
X119375714Y-137762857D01*
X119375714Y-138286666D02*
X120042380Y-137762857D01*
X119042380Y-137191428D02*
X119042380Y-137096190D01*
X119090000Y-137000952D01*
X119137619Y-136953333D01*
X119232857Y-136905714D01*
X119423333Y-136858095D01*
X119661428Y-136858095D01*
X119851904Y-136905714D01*
X119947142Y-136953333D01*
X119994761Y-137000952D01*
X120042380Y-137096190D01*
X120042380Y-137191428D01*
X119994761Y-137286666D01*
X119947142Y-137334285D01*
X119851904Y-137381904D01*
X119661428Y-137429523D01*
X119423333Y-137429523D01*
X119232857Y-137381904D01*
X119137619Y-137334285D01*
X119090000Y-137286666D01*
X119042380Y-137191428D01*
X119042380Y-136524761D02*
X119042380Y-135905714D01*
X119423333Y-136239047D01*
X119423333Y-136096190D01*
X119470952Y-136000952D01*
X119518571Y-135953333D01*
X119613809Y-135905714D01*
X119851904Y-135905714D01*
X119947142Y-135953333D01*
X119994761Y-136000952D01*
X120042380Y-136096190D01*
X120042380Y-136381904D01*
X119994761Y-136477142D01*
X119947142Y-136524761D01*
X120137619Y-135715238D02*
X120137619Y-134953333D01*
X120042380Y-134715238D02*
X119042380Y-134715238D01*
X119042380Y-134334285D01*
X119090000Y-134239047D01*
X119137619Y-134191428D01*
X119232857Y-134143809D01*
X119375714Y-134143809D01*
X119470952Y-134191428D01*
X119518571Y-134239047D01*
X119566190Y-134334285D01*
X119566190Y-134715238D01*
X119137619Y-133762857D02*
X119090000Y-133715238D01*
X119042380Y-133620000D01*
X119042380Y-133381904D01*
X119090000Y-133286666D01*
X119137619Y-133239047D01*
X119232857Y-133191428D01*
X119328095Y-133191428D01*
X119470952Y-133239047D01*
X120042380Y-133810476D01*
X120042380Y-133191428D01*
X119947142Y-132762857D02*
X119994761Y-132715238D01*
X120042380Y-132762857D01*
X119994761Y-132810476D01*
X119947142Y-132762857D01*
X120042380Y-132762857D01*
X119042380Y-131810476D02*
X119042380Y-132286666D01*
X119518571Y-132334285D01*
X119470952Y-132286666D01*
X119423333Y-132191428D01*
X119423333Y-131953333D01*
X119470952Y-131858095D01*
X119518571Y-131810476D01*
X119613809Y-131762857D01*
X119851904Y-131762857D01*
X119947142Y-131810476D01*
X119994761Y-131858095D01*
X120042380Y-131953333D01*
X120042380Y-132191428D01*
X119994761Y-132286666D01*
X119947142Y-132334285D01*
X119375714Y-130905714D02*
X120042380Y-130905714D01*
X118994761Y-131143809D02*
X119709047Y-131381904D01*
X119709047Y-130762857D01*
X120042380Y-130381904D02*
X119375714Y-130381904D01*
X119470952Y-130381904D02*
X119423333Y-130334285D01*
X119375714Y-130239047D01*
X119375714Y-130096190D01*
X119423333Y-130000952D01*
X119518571Y-129953333D01*
X120042380Y-129953333D01*
X119518571Y-129953333D02*
X119423333Y-129905714D01*
X119375714Y-129810476D01*
X119375714Y-129667619D01*
X119423333Y-129572380D01*
X119518571Y-129524761D01*
X120042380Y-129524761D01*
X120042380Y-129048571D02*
X119375714Y-129048571D01*
X119470952Y-129048571D02*
X119423333Y-129000952D01*
X119375714Y-128905714D01*
X119375714Y-128762857D01*
X119423333Y-128667619D01*
X119518571Y-128620000D01*
X120042380Y-128620000D01*
X119518571Y-128620000D02*
X119423333Y-128572380D01*
X119375714Y-128477142D01*
X119375714Y-128334285D01*
X119423333Y-128239047D01*
X119518571Y-128191428D01*
X120042380Y-128191428D01*
X120137619Y-127953333D02*
X120137619Y-127191428D01*
X119042380Y-127096190D02*
X120042380Y-126762857D01*
X119042380Y-126429523D01*
X119994761Y-125715238D02*
X120042380Y-125810476D01*
X120042380Y-126000952D01*
X119994761Y-126096190D01*
X119899523Y-126143809D01*
X119518571Y-126143809D01*
X119423333Y-126096190D01*
X119375714Y-126000952D01*
X119375714Y-125810476D01*
X119423333Y-125715238D01*
X119518571Y-125667619D01*
X119613809Y-125667619D01*
X119709047Y-126143809D01*
X120042380Y-125239047D02*
X119375714Y-125239047D01*
X119566190Y-125239047D02*
X119470952Y-125191428D01*
X119423333Y-125143809D01*
X119375714Y-125048571D01*
X119375714Y-124953333D01*
X119375714Y-124762857D02*
X119375714Y-124381904D01*
X119042380Y-124620000D02*
X119899523Y-124620000D01*
X119994761Y-124572380D01*
X120042380Y-124477142D01*
X120042380Y-124381904D01*
X120042380Y-124048571D02*
X119375714Y-124048571D01*
X119042380Y-124048571D02*
X119090000Y-124096190D01*
X119137619Y-124048571D01*
X119090000Y-124000952D01*
X119042380Y-124048571D01*
X119137619Y-124048571D01*
X119994761Y-123143809D02*
X120042380Y-123239047D01*
X120042380Y-123429523D01*
X119994761Y-123524761D01*
X119947142Y-123572380D01*
X119851904Y-123620000D01*
X119566190Y-123620000D01*
X119470952Y-123572380D01*
X119423333Y-123524761D01*
X119375714Y-123429523D01*
X119375714Y-123239047D01*
X119423333Y-123143809D01*
X120042380Y-122286666D02*
X119518571Y-122286666D01*
X119423333Y-122334285D01*
X119375714Y-122429523D01*
X119375714Y-122620000D01*
X119423333Y-122715238D01*
X119994761Y-122286666D02*
X120042380Y-122381904D01*
X120042380Y-122620000D01*
X119994761Y-122715238D01*
X119899523Y-122762857D01*
X119804285Y-122762857D01*
X119709047Y-122715238D01*
X119661428Y-122620000D01*
X119661428Y-122381904D01*
X119613809Y-122286666D01*
X120042380Y-121667619D02*
X119994761Y-121762857D01*
X119899523Y-121810476D01*
X119042380Y-121810476D01*
X123602857Y-135024761D02*
X123745714Y-135072380D01*
X123983809Y-135072380D01*
X124079047Y-135024761D01*
X124126666Y-134977142D01*
X124174285Y-134881904D01*
X124174285Y-134786666D01*
X124126666Y-134691428D01*
X124079047Y-134643809D01*
X123983809Y-134596190D01*
X123793333Y-134548571D01*
X123698095Y-134500952D01*
X123650476Y-134453333D01*
X123602857Y-134358095D01*
X123602857Y-134262857D01*
X123650476Y-134167619D01*
X123698095Y-134120000D01*
X123793333Y-134072380D01*
X124031428Y-134072380D01*
X124174285Y-134120000D01*
X124507619Y-134072380D02*
X124745714Y-135072380D01*
X124936190Y-134358095D01*
X125126666Y-135072380D01*
X125364761Y-134072380D01*
X129572857Y-87082380D02*
X129810952Y-88082380D01*
X130001428Y-87368095D01*
X130191904Y-88082380D01*
X130430000Y-87082380D01*
X130810952Y-87558571D02*
X131144285Y-87558571D01*
X131287142Y-88082380D02*
X130810952Y-88082380D01*
X130810952Y-87082380D01*
X131287142Y-87082380D01*
X131715714Y-88082380D02*
X131715714Y-87082380D01*
X132049047Y-87796666D01*
X132382380Y-87082380D01*
X132382380Y-88082380D01*
X133049047Y-87082380D02*
X133239523Y-87082380D01*
X133334761Y-87130000D01*
X133430000Y-87225238D01*
X133477619Y-87415714D01*
X133477619Y-87749047D01*
X133430000Y-87939523D01*
X133334761Y-88034761D01*
X133239523Y-88082380D01*
X133049047Y-88082380D01*
X132953809Y-88034761D01*
X132858571Y-87939523D01*
X132810952Y-87749047D01*
X132810952Y-87415714D01*
X132858571Y-87225238D01*
X132953809Y-87130000D01*
X133049047Y-87082380D01*
X133858571Y-88034761D02*
X134001428Y-88082380D01*
X134239523Y-88082380D01*
X134334761Y-88034761D01*
X134382380Y-87987142D01*
X134430000Y-87891904D01*
X134430000Y-87796666D01*
X134382380Y-87701428D01*
X134334761Y-87653809D01*
X134239523Y-87606190D01*
X134049047Y-87558571D01*
X133953809Y-87510952D01*
X133906190Y-87463333D01*
X133858571Y-87368095D01*
X133858571Y-87272857D01*
X133906190Y-87177619D01*
X133953809Y-87130000D01*
X134049047Y-87082380D01*
X134287142Y-87082380D01*
X134430000Y-87130000D01*
X134620476Y-88177619D02*
X135382380Y-88177619D01*
X135620476Y-88082380D02*
X135620476Y-87082380D01*
X135858571Y-87082380D01*
X136001428Y-87130000D01*
X136096666Y-87225238D01*
X136144285Y-87320476D01*
X136191904Y-87510952D01*
X136191904Y-87653809D01*
X136144285Y-87844285D01*
X136096666Y-87939523D01*
X136001428Y-88034761D01*
X135858571Y-88082380D01*
X135620476Y-88082380D01*
X137144285Y-88082380D02*
X136572857Y-88082380D01*
X136858571Y-88082380D02*
X136858571Y-87082380D01*
X136763333Y-87225238D01*
X136668095Y-87320476D01*
X136572857Y-87368095D01*
X137334761Y-88177619D02*
X138096666Y-88177619D01*
X138334761Y-88082380D02*
X138334761Y-87415714D01*
X138334761Y-87510952D02*
X138382380Y-87463333D01*
X138477619Y-87415714D01*
X138620476Y-87415714D01*
X138715714Y-87463333D01*
X138763333Y-87558571D01*
X138763333Y-88082380D01*
X138763333Y-87558571D02*
X138810952Y-87463333D01*
X138906190Y-87415714D01*
X139049047Y-87415714D01*
X139144285Y-87463333D01*
X139191904Y-87558571D01*
X139191904Y-88082380D01*
X139668095Y-88082380D02*
X139668095Y-87415714D01*
X139668095Y-87082380D02*
X139620476Y-87130000D01*
X139668095Y-87177619D01*
X139715714Y-87130000D01*
X139668095Y-87082380D01*
X139668095Y-87177619D01*
X140144285Y-87415714D02*
X140144285Y-88082380D01*
X140144285Y-87510952D02*
X140191904Y-87463333D01*
X140287142Y-87415714D01*
X140430000Y-87415714D01*
X140525238Y-87463333D01*
X140572857Y-87558571D01*
X140572857Y-88082380D01*
X141049047Y-88082380D02*
X141049047Y-87415714D01*
X141049047Y-87082380D02*
X141001428Y-87130000D01*
X141049047Y-87177619D01*
X141096666Y-87130000D01*
X141049047Y-87082380D01*
X141049047Y-87177619D01*
X141287142Y-88177619D02*
X142049047Y-88177619D01*
X142430000Y-88082380D02*
X142334761Y-88034761D01*
X142287142Y-87939523D01*
X142287142Y-87082380D01*
X142810952Y-88082380D02*
X142810952Y-87415714D01*
X142810952Y-87082380D02*
X142763333Y-87130000D01*
X142810952Y-87177619D01*
X142858571Y-87130000D01*
X142810952Y-87082380D01*
X142810952Y-87177619D01*
X143715714Y-87415714D02*
X143715714Y-88225238D01*
X143668095Y-88320476D01*
X143620476Y-88368095D01*
X143525238Y-88415714D01*
X143382380Y-88415714D01*
X143287142Y-88368095D01*
X143715714Y-88034761D02*
X143620476Y-88082380D01*
X143430000Y-88082380D01*
X143334761Y-88034761D01*
X143287142Y-87987142D01*
X143239523Y-87891904D01*
X143239523Y-87606190D01*
X143287142Y-87510952D01*
X143334761Y-87463333D01*
X143430000Y-87415714D01*
X143620476Y-87415714D01*
X143715714Y-87463333D01*
X144191904Y-88082380D02*
X144191904Y-87082380D01*
X144620476Y-88082380D02*
X144620476Y-87558571D01*
X144572857Y-87463333D01*
X144477619Y-87415714D01*
X144334761Y-87415714D01*
X144239523Y-87463333D01*
X144191904Y-87510952D01*
X144953809Y-87415714D02*
X145334761Y-87415714D01*
X145096666Y-87082380D02*
X145096666Y-87939523D01*
X145144285Y-88034761D01*
X145239523Y-88082380D01*
X145334761Y-88082380D01*
X131493333Y-97082380D02*
X131826666Y-98082380D01*
X132160000Y-97082380D01*
X132493333Y-97558571D02*
X132826666Y-97558571D01*
X132969523Y-98082380D02*
X132493333Y-98082380D01*
X132493333Y-97082380D01*
X132969523Y-97082380D01*
X133398095Y-98082380D02*
X133398095Y-97082380D01*
X133731428Y-97796666D01*
X134064761Y-97082380D01*
X134064761Y-98082380D01*
X134731428Y-97082380D02*
X134921904Y-97082380D01*
X135017142Y-97130000D01*
X135112380Y-97225238D01*
X135160000Y-97415714D01*
X135160000Y-97749047D01*
X135112380Y-97939523D01*
X135017142Y-98034761D01*
X134921904Y-98082380D01*
X134731428Y-98082380D01*
X134636190Y-98034761D01*
X134540952Y-97939523D01*
X134493333Y-97749047D01*
X134493333Y-97415714D01*
X134540952Y-97225238D01*
X134636190Y-97130000D01*
X134731428Y-97082380D01*
X135540952Y-98034761D02*
X135683809Y-98082380D01*
X135921904Y-98082380D01*
X136017142Y-98034761D01*
X136064761Y-97987142D01*
X136112380Y-97891904D01*
X136112380Y-97796666D01*
X136064761Y-97701428D01*
X136017142Y-97653809D01*
X135921904Y-97606190D01*
X135731428Y-97558571D01*
X135636190Y-97510952D01*
X135588571Y-97463333D01*
X135540952Y-97368095D01*
X135540952Y-97272857D01*
X135588571Y-97177619D01*
X135636190Y-97130000D01*
X135731428Y-97082380D01*
X135969523Y-97082380D01*
X136112380Y-97130000D01*
X137302857Y-98082380D02*
X137302857Y-97082380D01*
X137540952Y-97082380D01*
X137683809Y-97130000D01*
X137779047Y-97225238D01*
X137826666Y-97320476D01*
X137874285Y-97510952D01*
X137874285Y-97653809D01*
X137826666Y-97844285D01*
X137779047Y-97939523D01*
X137683809Y-98034761D01*
X137540952Y-98082380D01*
X137302857Y-98082380D01*
X138826666Y-98082380D02*
X138255238Y-98082380D01*
X138540952Y-98082380D02*
X138540952Y-97082380D01*
X138445714Y-97225238D01*
X138350476Y-97320476D01*
X138255238Y-97368095D01*
X140017142Y-98082380D02*
X140017142Y-97082380D01*
X140350476Y-97796666D01*
X140683809Y-97082380D01*
X140683809Y-98082380D01*
X141160000Y-98082380D02*
X141160000Y-97082380D01*
X141636190Y-98082380D02*
X141636190Y-97082380D01*
X142207619Y-98082380D01*
X142207619Y-97082380D01*
X142683809Y-98082380D02*
X142683809Y-97082380D01*
X101528571Y-112012380D02*
X101576190Y-111869523D01*
X101623809Y-111821904D01*
X101719047Y-111774285D01*
X101861904Y-111774285D01*
X101957142Y-111821904D01*
X102004761Y-111869523D01*
X102052380Y-111964761D01*
X102052380Y-112345714D01*
X101052380Y-112345714D01*
X101052380Y-112012380D01*
X101100000Y-111917142D01*
X101147619Y-111869523D01*
X101242857Y-111821904D01*
X101338095Y-111821904D01*
X101433333Y-111869523D01*
X101480952Y-111917142D01*
X101528571Y-112012380D01*
X101528571Y-112345714D01*
X102052380Y-110917142D02*
X101528571Y-110917142D01*
X101433333Y-110964761D01*
X101385714Y-111060000D01*
X101385714Y-111250476D01*
X101433333Y-111345714D01*
X102004761Y-110917142D02*
X102052380Y-111012380D01*
X102052380Y-111250476D01*
X102004761Y-111345714D01*
X101909523Y-111393333D01*
X101814285Y-111393333D01*
X101719047Y-111345714D01*
X101671428Y-111250476D01*
X101671428Y-111012380D01*
X101623809Y-110917142D01*
X101385714Y-110583809D02*
X101385714Y-110202857D01*
X101052380Y-110440952D02*
X101909523Y-110440952D01*
X102004761Y-110393333D01*
X102052380Y-110298095D01*
X102052380Y-110202857D01*
X101385714Y-110012380D02*
X101385714Y-109631428D01*
X101052380Y-109869523D02*
X101909523Y-109869523D01*
X102004761Y-109821904D01*
X102052380Y-109726666D01*
X102052380Y-109631428D01*
X102004761Y-108917142D02*
X102052380Y-109012380D01*
X102052380Y-109202857D01*
X102004761Y-109298095D01*
X101909523Y-109345714D01*
X101528571Y-109345714D01*
X101433333Y-109298095D01*
X101385714Y-109202857D01*
X101385714Y-109012380D01*
X101433333Y-108917142D01*
X101528571Y-108869523D01*
X101623809Y-108869523D01*
X101719047Y-109345714D01*
X102052380Y-108440952D02*
X101385714Y-108440952D01*
X101576190Y-108440952D02*
X101480952Y-108393333D01*
X101433333Y-108345714D01*
X101385714Y-108250476D01*
X101385714Y-108155238D01*
X101385714Y-107917142D02*
X102052380Y-107679047D01*
X101385714Y-107440952D02*
X102052380Y-107679047D01*
X102290476Y-107774285D01*
X102338095Y-107821904D01*
X102385714Y-107917142D01*
X102052380Y-107060000D02*
X101052380Y-107060000D01*
X101528571Y-107060000D02*
X101528571Y-106488571D01*
X102052380Y-106488571D02*
X101052380Y-106488571D01*
X102052380Y-105869523D02*
X102004761Y-105964761D01*
X101957142Y-106012380D01*
X101861904Y-106060000D01*
X101576190Y-106060000D01*
X101480952Y-106012380D01*
X101433333Y-105964761D01*
X101385714Y-105869523D01*
X101385714Y-105726666D01*
X101433333Y-105631428D01*
X101480952Y-105583809D01*
X101576190Y-105536190D01*
X101861904Y-105536190D01*
X101957142Y-105583809D01*
X102004761Y-105631428D01*
X102052380Y-105726666D01*
X102052380Y-105869523D01*
X102052380Y-104964761D02*
X102004761Y-105060000D01*
X101909523Y-105107619D01*
X101052380Y-105107619D01*
X102052380Y-104155238D02*
X101052380Y-104155238D01*
X102004761Y-104155238D02*
X102052380Y-104250476D01*
X102052380Y-104440952D01*
X102004761Y-104536190D01*
X101957142Y-104583809D01*
X101861904Y-104631428D01*
X101576190Y-104631428D01*
X101480952Y-104583809D01*
X101433333Y-104536190D01*
X101385714Y-104440952D01*
X101385714Y-104250476D01*
X101433333Y-104155238D01*
X102004761Y-103298095D02*
X102052380Y-103393333D01*
X102052380Y-103583809D01*
X102004761Y-103679047D01*
X101909523Y-103726666D01*
X101528571Y-103726666D01*
X101433333Y-103679047D01*
X101385714Y-103583809D01*
X101385714Y-103393333D01*
X101433333Y-103298095D01*
X101528571Y-103250476D01*
X101623809Y-103250476D01*
X101719047Y-103726666D01*
X102052380Y-102821904D02*
X101385714Y-102821904D01*
X101576190Y-102821904D02*
X101480952Y-102774285D01*
X101433333Y-102726666D01*
X101385714Y-102631428D01*
X101385714Y-102536190D01*
X102147619Y-102440952D02*
X102147619Y-101679047D01*
X102052380Y-101440952D02*
X101052380Y-101440952D01*
X101766666Y-101107619D01*
X101052380Y-100774285D01*
X102052380Y-100774285D01*
X102052380Y-100298095D02*
X101052380Y-100298095D01*
X101052380Y-99917142D01*
X101100000Y-99821904D01*
X101147619Y-99774285D01*
X101242857Y-99726666D01*
X101385714Y-99726666D01*
X101480952Y-99774285D01*
X101528571Y-99821904D01*
X101576190Y-99917142D01*
X101576190Y-100298095D01*
X102052380Y-99298095D02*
X101052380Y-99298095D01*
X101052380Y-99060000D01*
X101100000Y-98917142D01*
X101195238Y-98821904D01*
X101290476Y-98774285D01*
X101480952Y-98726666D01*
X101623809Y-98726666D01*
X101814285Y-98774285D01*
X101909523Y-98821904D01*
X102004761Y-98917142D01*
X102052380Y-99060000D01*
X102052380Y-99298095D01*
X102147619Y-98536190D02*
X102147619Y-97774285D01*
X101528571Y-97202857D02*
X101576190Y-97060000D01*
X101623809Y-97012380D01*
X101719047Y-96964761D01*
X101861904Y-96964761D01*
X101957142Y-97012380D01*
X102004761Y-97060000D01*
X102052380Y-97155238D01*
X102052380Y-97536190D01*
X101052380Y-97536190D01*
X101052380Y-97202857D01*
X101100000Y-97107619D01*
X101147619Y-97060000D01*
X101242857Y-97012380D01*
X101338095Y-97012380D01*
X101433333Y-97060000D01*
X101480952Y-97107619D01*
X101528571Y-97202857D01*
X101528571Y-97536190D01*
X102052380Y-96536190D02*
X101052380Y-96536190D01*
X101528571Y-96536190D02*
X101528571Y-95964761D01*
X102052380Y-95964761D02*
X101052380Y-95964761D01*
X101671428Y-95488571D02*
X101671428Y-94726666D01*
X102052380Y-93726666D02*
X102052380Y-94298095D01*
X102052380Y-94012380D02*
X101052380Y-94012380D01*
X101195238Y-94107619D01*
X101290476Y-94202857D01*
X101338095Y-94298095D01*
X101480952Y-93155238D02*
X101433333Y-93250476D01*
X101385714Y-93298095D01*
X101290476Y-93345714D01*
X101242857Y-93345714D01*
X101147619Y-93298095D01*
X101100000Y-93250476D01*
X101052380Y-93155238D01*
X101052380Y-92964761D01*
X101100000Y-92869523D01*
X101147619Y-92821904D01*
X101242857Y-92774285D01*
X101290476Y-92774285D01*
X101385714Y-92821904D01*
X101433333Y-92869523D01*
X101480952Y-92964761D01*
X101480952Y-93155238D01*
X101528571Y-93250476D01*
X101576190Y-93298095D01*
X101671428Y-93345714D01*
X101861904Y-93345714D01*
X101957142Y-93298095D01*
X102004761Y-93250476D01*
X102052380Y-93155238D01*
X102052380Y-92964761D01*
X102004761Y-92869523D01*
X101957142Y-92821904D01*
X101861904Y-92774285D01*
X101671428Y-92774285D01*
X101576190Y-92821904D01*
X101528571Y-92869523D01*
X101480952Y-92964761D01*
X101052380Y-91917142D02*
X101052380Y-92107619D01*
X101100000Y-92202857D01*
X101147619Y-92250476D01*
X101290476Y-92345714D01*
X101480952Y-92393333D01*
X101861904Y-92393333D01*
X101957142Y-92345714D01*
X102004761Y-92298095D01*
X102052380Y-92202857D01*
X102052380Y-92012380D01*
X102004761Y-91917142D01*
X101957142Y-91869523D01*
X101861904Y-91821904D01*
X101623809Y-91821904D01*
X101528571Y-91869523D01*
X101480952Y-91917142D01*
X101433333Y-92012380D01*
X101433333Y-92202857D01*
X101480952Y-92298095D01*
X101528571Y-92345714D01*
X101623809Y-92393333D01*
X101052380Y-90917142D02*
X101052380Y-91393333D01*
X101528571Y-91440952D01*
X101480952Y-91393333D01*
X101433333Y-91298095D01*
X101433333Y-91060000D01*
X101480952Y-90964761D01*
X101528571Y-90917142D01*
X101623809Y-90869523D01*
X101861904Y-90869523D01*
X101957142Y-90917142D01*
X102004761Y-90964761D01*
X102052380Y-91060000D01*
X102052380Y-91298095D01*
X102004761Y-91393333D01*
X101957142Y-91440952D01*
X101052380Y-90250476D02*
X101052380Y-90155238D01*
X101100000Y-90060000D01*
X101147619Y-90012380D01*
X101242857Y-89964761D01*
X101433333Y-89917142D01*
X101671428Y-89917142D01*
X101861904Y-89964761D01*
X101957142Y-90012380D01*
X102004761Y-90060000D01*
X102052380Y-90155238D01*
X102052380Y-90250476D01*
X102004761Y-90345714D01*
X101957142Y-90393333D01*
X101861904Y-90440952D01*
X101671428Y-90488571D01*
X101433333Y-90488571D01*
X101242857Y-90440952D01*
X101147619Y-90393333D01*
X101100000Y-90345714D01*
X101052380Y-90250476D01*
X101671428Y-89488571D02*
X101671428Y-88726666D01*
X102052380Y-88250476D02*
X101052380Y-88250476D01*
X101052380Y-87869523D01*
X101100000Y-87774285D01*
X101147619Y-87726666D01*
X101242857Y-87679047D01*
X101385714Y-87679047D01*
X101480952Y-87726666D01*
X101528571Y-87774285D01*
X101576190Y-87869523D01*
X101576190Y-88250476D01*
X101957142Y-86679047D02*
X102004761Y-86726666D01*
X102052380Y-86869523D01*
X102052380Y-86964761D01*
X102004761Y-87107619D01*
X101909523Y-87202857D01*
X101814285Y-87250476D01*
X101623809Y-87298095D01*
X101480952Y-87298095D01*
X101290476Y-87250476D01*
X101195238Y-87202857D01*
X101100000Y-87107619D01*
X101052380Y-86964761D01*
X101052380Y-86869523D01*
X101100000Y-86726666D01*
X101147619Y-86679047D01*
X101147619Y-86298095D02*
X101100000Y-86250476D01*
X101052380Y-86155238D01*
X101052380Y-85917142D01*
X101100000Y-85821904D01*
X101147619Y-85774285D01*
X101242857Y-85726666D01*
X101338095Y-85726666D01*
X101480952Y-85774285D01*
X102052380Y-86345714D01*
X102052380Y-85726666D01*
X140955714Y-138466666D02*
X141431904Y-138466666D01*
X140860476Y-138752380D02*
X141193809Y-137752380D01*
X141527142Y-138752380D01*
X142003333Y-138752380D02*
X141908095Y-138704761D01*
X141860476Y-138657142D01*
X141812857Y-138561904D01*
X141812857Y-138276190D01*
X141860476Y-138180952D01*
X141908095Y-138133333D01*
X142003333Y-138085714D01*
X142146190Y-138085714D01*
X142241428Y-138133333D01*
X142289047Y-138180952D01*
X142336666Y-138276190D01*
X142336666Y-138561904D01*
X142289047Y-138657142D01*
X142241428Y-138704761D01*
X142146190Y-138752380D01*
X142003333Y-138752380D01*
X142717619Y-138704761D02*
X142812857Y-138752380D01*
X143003333Y-138752380D01*
X143098571Y-138704761D01*
X143146190Y-138609523D01*
X143146190Y-138561904D01*
X143098571Y-138466666D01*
X143003333Y-138419047D01*
X142860476Y-138419047D01*
X142765238Y-138371428D01*
X142717619Y-138276190D01*
X142717619Y-138228571D01*
X142765238Y-138133333D01*
X142860476Y-138085714D01*
X143003333Y-138085714D01*
X143098571Y-138133333D01*
X143717619Y-138752380D02*
X143622380Y-138704761D01*
X143574761Y-138657142D01*
X143527142Y-138561904D01*
X143527142Y-138276190D01*
X143574761Y-138180952D01*
X143622380Y-138133333D01*
X143717619Y-138085714D01*
X143860476Y-138085714D01*
X143955714Y-138133333D01*
X144003333Y-138180952D01*
X144050952Y-138276190D01*
X144050952Y-138561904D01*
X144003333Y-138657142D01*
X143955714Y-138704761D01*
X143860476Y-138752380D01*
X143717619Y-138752380D01*
X144479523Y-138085714D02*
X144479523Y-138752380D01*
X144479523Y-138180952D02*
X144527142Y-138133333D01*
X144622380Y-138085714D01*
X144765238Y-138085714D01*
X144860476Y-138133333D01*
X144908095Y-138228571D01*
X144908095Y-138752380D01*
X145812857Y-138085714D02*
X145812857Y-138895238D01*
X145765238Y-138990476D01*
X145717619Y-139038095D01*
X145622380Y-139085714D01*
X145479523Y-139085714D01*
X145384285Y-139038095D01*
X145812857Y-138704761D02*
X145717619Y-138752380D01*
X145527142Y-138752380D01*
X145431904Y-138704761D01*
X145384285Y-138657142D01*
X145336666Y-138561904D01*
X145336666Y-138276190D01*
X145384285Y-138180952D01*
X145431904Y-138133333D01*
X145527142Y-138085714D01*
X145717619Y-138085714D01*
X145812857Y-138133333D01*
X146050952Y-138847619D02*
X146812857Y-138847619D01*
X147050952Y-138752380D02*
X147050952Y-137752380D01*
X147289047Y-137752380D01*
X147431904Y-137800000D01*
X147527142Y-137895238D01*
X147574761Y-137990476D01*
X147622380Y-138180952D01*
X147622380Y-138323809D01*
X147574761Y-138514285D01*
X147527142Y-138609523D01*
X147431904Y-138704761D01*
X147289047Y-138752380D01*
X147050952Y-138752380D01*
X148050952Y-138752380D02*
X148050952Y-137752380D01*
X148050952Y-138228571D02*
X148622380Y-138228571D01*
X148622380Y-138752380D02*
X148622380Y-137752380D01*
X148955714Y-137752380D02*
X149527142Y-137752380D01*
X149241428Y-138752380D02*
X149241428Y-137752380D01*
X150384285Y-138752380D02*
X149812857Y-138752380D01*
X150098571Y-138752380D02*
X150098571Y-137752380D01*
X150003333Y-137895238D01*
X149908095Y-137990476D01*
X149812857Y-138038095D01*
X151336666Y-138752380D02*
X150765238Y-138752380D01*
X151050952Y-138752380D02*
X151050952Y-137752380D01*
X150955714Y-137895238D01*
X150860476Y-137990476D01*
X150765238Y-138038095D01*
X151527142Y-138847619D02*
X152289047Y-138847619D01*
X153003333Y-137752380D02*
X152527142Y-137752380D01*
X152479523Y-138228571D01*
X152527142Y-138180952D01*
X152622380Y-138133333D01*
X152860476Y-138133333D01*
X152955714Y-138180952D01*
X153003333Y-138228571D01*
X153050952Y-138323809D01*
X153050952Y-138561904D01*
X153003333Y-138657142D01*
X152955714Y-138704761D01*
X152860476Y-138752380D01*
X152622380Y-138752380D01*
X152527142Y-138704761D01*
X152479523Y-138657142D01*
X153479523Y-138657142D02*
X153527142Y-138704761D01*
X153479523Y-138752380D01*
X153431904Y-138704761D01*
X153479523Y-138657142D01*
X153479523Y-138752380D01*
X154431904Y-137752380D02*
X153955714Y-137752380D01*
X153908095Y-138228571D01*
X153955714Y-138180952D01*
X154050952Y-138133333D01*
X154289047Y-138133333D01*
X154384285Y-138180952D01*
X154431904Y-138228571D01*
X154479523Y-138323809D01*
X154479523Y-138561904D01*
X154431904Y-138657142D01*
X154384285Y-138704761D01*
X154289047Y-138752380D01*
X154050952Y-138752380D01*
X153955714Y-138704761D01*
X153908095Y-138657142D01*
X154812857Y-138752380D02*
X155336666Y-138085714D01*
X154812857Y-138085714D02*
X155336666Y-138752380D01*
X156241428Y-138752380D02*
X155670000Y-138752380D01*
X155955714Y-138752380D02*
X155955714Y-137752380D01*
X155860476Y-137895238D01*
X155765238Y-137990476D01*
X155670000Y-138038095D01*
X156622380Y-137847619D02*
X156670000Y-137800000D01*
X156765238Y-137752380D01*
X157003333Y-137752380D01*
X157098571Y-137800000D01*
X157146190Y-137847619D01*
X157193809Y-137942857D01*
X157193809Y-138038095D01*
X157146190Y-138180952D01*
X156574761Y-138752380D01*
X157193809Y-138752380D01*
X157622380Y-138657142D02*
X157670000Y-138704761D01*
X157622380Y-138752380D01*
X157574761Y-138704761D01*
X157622380Y-138657142D01*
X157622380Y-138752380D01*
X158289047Y-137752380D02*
X158384285Y-137752380D01*
X158479523Y-137800000D01*
X158527142Y-137847619D01*
X158574761Y-137942857D01*
X158622380Y-138133333D01*
X158622380Y-138371428D01*
X158574761Y-138561904D01*
X158527142Y-138657142D01*
X158479523Y-138704761D01*
X158384285Y-138752380D01*
X158289047Y-138752380D01*
X158193809Y-138704761D01*
X158146190Y-138657142D01*
X158098571Y-138561904D01*
X158050952Y-138371428D01*
X158050952Y-138133333D01*
X158098571Y-137942857D01*
X158146190Y-137847619D01*
X158193809Y-137800000D01*
X158289047Y-137752380D01*
X158812857Y-138847619D02*
X159574761Y-138847619D01*
X159812857Y-138752380D02*
X159812857Y-137752380D01*
X160193809Y-137752380D01*
X160289047Y-137800000D01*
X160336666Y-137847619D01*
X160384285Y-137942857D01*
X160384285Y-138085714D01*
X160336666Y-138180952D01*
X160289047Y-138228571D01*
X160193809Y-138276190D01*
X159812857Y-138276190D01*
X160765238Y-137847619D02*
X160812857Y-137800000D01*
X160908095Y-137752380D01*
X161146190Y-137752380D01*
X161241428Y-137800000D01*
X161289047Y-137847619D01*
X161336666Y-137942857D01*
X161336666Y-138038095D01*
X161289047Y-138180952D01*
X160717619Y-138752380D01*
X161336666Y-138752380D01*
X161765238Y-138657142D02*
X161812857Y-138704761D01*
X161765238Y-138752380D01*
X161717619Y-138704761D01*
X161765238Y-138657142D01*
X161765238Y-138752380D01*
X162717619Y-137752380D02*
X162241428Y-137752380D01*
X162193809Y-138228571D01*
X162241428Y-138180952D01*
X162336666Y-138133333D01*
X162574761Y-138133333D01*
X162670000Y-138180952D01*
X162717619Y-138228571D01*
X162765238Y-138323809D01*
X162765238Y-138561904D01*
X162717619Y-138657142D01*
X162670000Y-138704761D01*
X162574761Y-138752380D01*
X162336666Y-138752380D01*
X162241428Y-138704761D01*
X162193809Y-138657142D01*
X163622380Y-138085714D02*
X163622380Y-138752380D01*
X163384285Y-137704761D02*
X163146190Y-138419047D01*
X163765238Y-138419047D01*
X164146190Y-138752380D02*
X164146190Y-138085714D01*
X164146190Y-138180952D02*
X164193809Y-138133333D01*
X164289047Y-138085714D01*
X164431904Y-138085714D01*
X164527142Y-138133333D01*
X164574761Y-138228571D01*
X164574761Y-138752380D01*
X164574761Y-138228571D02*
X164622380Y-138133333D01*
X164717619Y-138085714D01*
X164860476Y-138085714D01*
X164955714Y-138133333D01*
X165003333Y-138228571D01*
X165003333Y-138752380D01*
X165479523Y-138752380D02*
X165479523Y-138085714D01*
X165479523Y-138180952D02*
X165527142Y-138133333D01*
X165622380Y-138085714D01*
X165765238Y-138085714D01*
X165860476Y-138133333D01*
X165908095Y-138228571D01*
X165908095Y-138752380D01*
X165908095Y-138228571D02*
X165955714Y-138133333D01*
X166050952Y-138085714D01*
X166193809Y-138085714D01*
X166289047Y-138133333D01*
X166336666Y-138228571D01*
X166336666Y-138752380D01*
X151289047Y-130738571D02*
X151431904Y-130786190D01*
X151479523Y-130833809D01*
X151527142Y-130929047D01*
X151527142Y-131071904D01*
X151479523Y-131167142D01*
X151431904Y-131214761D01*
X151336666Y-131262380D01*
X150955714Y-131262380D01*
X150955714Y-130262380D01*
X151289047Y-130262380D01*
X151384285Y-130310000D01*
X151431904Y-130357619D01*
X151479523Y-130452857D01*
X151479523Y-130548095D01*
X151431904Y-130643333D01*
X151384285Y-130690952D01*
X151289047Y-130738571D01*
X150955714Y-130738571D01*
X151955714Y-131262380D02*
X151955714Y-130262380D01*
X152289047Y-130976666D01*
X152622380Y-130262380D01*
X152622380Y-131262380D01*
X153098571Y-130738571D02*
X153431904Y-130738571D01*
X153574761Y-131262380D02*
X153098571Y-131262380D01*
X153098571Y-130262380D01*
X153574761Y-130262380D01*
X153955714Y-130357619D02*
X154003333Y-130310000D01*
X154098571Y-130262380D01*
X154336666Y-130262380D01*
X154431904Y-130310000D01*
X154479523Y-130357619D01*
X154527142Y-130452857D01*
X154527142Y-130548095D01*
X154479523Y-130690952D01*
X153908095Y-131262380D01*
X154527142Y-131262380D01*
X155098571Y-130690952D02*
X155003333Y-130643333D01*
X154955714Y-130595714D01*
X154908095Y-130500476D01*
X154908095Y-130452857D01*
X154955714Y-130357619D01*
X155003333Y-130310000D01*
X155098571Y-130262380D01*
X155289047Y-130262380D01*
X155384285Y-130310000D01*
X155431904Y-130357619D01*
X155479523Y-130452857D01*
X155479523Y-130500476D01*
X155431904Y-130595714D01*
X155384285Y-130643333D01*
X155289047Y-130690952D01*
X155098571Y-130690952D01*
X155003333Y-130738571D01*
X154955714Y-130786190D01*
X154908095Y-130881428D01*
X154908095Y-131071904D01*
X154955714Y-131167142D01*
X155003333Y-131214761D01*
X155098571Y-131262380D01*
X155289047Y-131262380D01*
X155384285Y-131214761D01*
X155431904Y-131167142D01*
X155479523Y-131071904D01*
X155479523Y-130881428D01*
X155431904Y-130786190D01*
X155384285Y-130738571D01*
X155289047Y-130690952D01*
X156098571Y-130262380D02*
X156193809Y-130262380D01*
X156289047Y-130310000D01*
X156336666Y-130357619D01*
X156384285Y-130452857D01*
X156431904Y-130643333D01*
X156431904Y-130881428D01*
X156384285Y-131071904D01*
X156336666Y-131167142D01*
X156289047Y-131214761D01*
X156193809Y-131262380D01*
X156098571Y-131262380D01*
X156003333Y-131214761D01*
X155955714Y-131167142D01*
X155908095Y-131071904D01*
X155860476Y-130881428D01*
X155860476Y-130643333D01*
X155908095Y-130452857D01*
X155955714Y-130357619D01*
X156003333Y-130310000D01*
X156098571Y-130262380D01*
X130499523Y-56272380D02*
X131070952Y-56272380D01*
X130785238Y-57272380D02*
X130785238Y-56272380D01*
X131404285Y-57272380D02*
X131404285Y-56272380D01*
X131785238Y-56272380D01*
X131880476Y-56320000D01*
X131928095Y-56367619D01*
X131975714Y-56462857D01*
X131975714Y-56605714D01*
X131928095Y-56700952D01*
X131880476Y-56748571D01*
X131785238Y-56796190D01*
X131404285Y-56796190D01*
X132832857Y-56605714D02*
X132832857Y-57272380D01*
X132594761Y-56224761D02*
X132356666Y-56939047D01*
X132975714Y-56939047D01*
X133547142Y-56272380D02*
X133642380Y-56272380D01*
X133737619Y-56320000D01*
X133785238Y-56367619D01*
X133832857Y-56462857D01*
X133880476Y-56653333D01*
X133880476Y-56891428D01*
X133832857Y-57081904D01*
X133785238Y-57177142D01*
X133737619Y-57224761D01*
X133642380Y-57272380D01*
X133547142Y-57272380D01*
X133451904Y-57224761D01*
X133404285Y-57177142D01*
X133356666Y-57081904D01*
X133309047Y-56891428D01*
X133309047Y-56653333D01*
X133356666Y-56462857D01*
X133404285Y-56367619D01*
X133451904Y-56320000D01*
X133547142Y-56272380D01*
X134785238Y-56272380D02*
X134309047Y-56272380D01*
X134261428Y-56748571D01*
X134309047Y-56700952D01*
X134404285Y-56653333D01*
X134642380Y-56653333D01*
X134737619Y-56700952D01*
X134785238Y-56748571D01*
X134832857Y-56843809D01*
X134832857Y-57081904D01*
X134785238Y-57177142D01*
X134737619Y-57224761D01*
X134642380Y-57272380D01*
X134404285Y-57272380D01*
X134309047Y-57224761D01*
X134261428Y-57177142D01*
X135690000Y-56272380D02*
X135499523Y-56272380D01*
X135404285Y-56320000D01*
X135356666Y-56367619D01*
X135261428Y-56510476D01*
X135213809Y-56700952D01*
X135213809Y-57081904D01*
X135261428Y-57177142D01*
X135309047Y-57224761D01*
X135404285Y-57272380D01*
X135594761Y-57272380D01*
X135690000Y-57224761D01*
X135737619Y-57177142D01*
X135785238Y-57081904D01*
X135785238Y-56843809D01*
X135737619Y-56748571D01*
X135690000Y-56700952D01*
X135594761Y-56653333D01*
X135404285Y-56653333D01*
X135309047Y-56700952D01*
X135261428Y-56748571D01*
X135213809Y-56843809D01*
X136213809Y-56891428D02*
X136975714Y-56891428D01*
X137975714Y-57272380D02*
X137404285Y-57272380D01*
X137690000Y-57272380D02*
X137690000Y-56272380D01*
X137594761Y-56415238D01*
X137499523Y-56510476D01*
X137404285Y-56558095D01*
X138547142Y-56700952D02*
X138451904Y-56653333D01*
X138404285Y-56605714D01*
X138356666Y-56510476D01*
X138356666Y-56462857D01*
X138404285Y-56367619D01*
X138451904Y-56320000D01*
X138547142Y-56272380D01*
X138737619Y-56272380D01*
X138832857Y-56320000D01*
X138880476Y-56367619D01*
X138928095Y-56462857D01*
X138928095Y-56510476D01*
X138880476Y-56605714D01*
X138832857Y-56653333D01*
X138737619Y-56700952D01*
X138547142Y-56700952D01*
X138451904Y-56748571D01*
X138404285Y-56796190D01*
X138356666Y-56891428D01*
X138356666Y-57081904D01*
X138404285Y-57177142D01*
X138451904Y-57224761D01*
X138547142Y-57272380D01*
X138737619Y-57272380D01*
X138832857Y-57224761D01*
X138880476Y-57177142D01*
X138928095Y-57081904D01*
X138928095Y-56891428D01*
X138880476Y-56796190D01*
X138832857Y-56748571D01*
X138737619Y-56700952D01*
X139785238Y-56272380D02*
X139594761Y-56272380D01*
X139499523Y-56320000D01*
X139451904Y-56367619D01*
X139356666Y-56510476D01*
X139309047Y-56700952D01*
X139309047Y-57081904D01*
X139356666Y-57177142D01*
X139404285Y-57224761D01*
X139499523Y-57272380D01*
X139690000Y-57272380D01*
X139785238Y-57224761D01*
X139832857Y-57177142D01*
X139880476Y-57081904D01*
X139880476Y-56843809D01*
X139832857Y-56748571D01*
X139785238Y-56700952D01*
X139690000Y-56653333D01*
X139499523Y-56653333D01*
X139404285Y-56700952D01*
X139356666Y-56748571D01*
X139309047Y-56843809D01*
X140785238Y-56272380D02*
X140309047Y-56272380D01*
X140261428Y-56748571D01*
X140309047Y-56700952D01*
X140404285Y-56653333D01*
X140642380Y-56653333D01*
X140737619Y-56700952D01*
X140785238Y-56748571D01*
X140832857Y-56843809D01*
X140832857Y-57081904D01*
X140785238Y-57177142D01*
X140737619Y-57224761D01*
X140642380Y-57272380D01*
X140404285Y-57272380D01*
X140309047Y-57224761D01*
X140261428Y-57177142D01*
X141451904Y-56272380D02*
X141547142Y-56272380D01*
X141642380Y-56320000D01*
X141690000Y-56367619D01*
X141737619Y-56462857D01*
X141785238Y-56653333D01*
X141785238Y-56891428D01*
X141737619Y-57081904D01*
X141690000Y-57177142D01*
X141642380Y-57224761D01*
X141547142Y-57272380D01*
X141451904Y-57272380D01*
X141356666Y-57224761D01*
X141309047Y-57177142D01*
X141261428Y-57081904D01*
X141213809Y-56891428D01*
X141213809Y-56653333D01*
X141261428Y-56462857D01*
X141309047Y-56367619D01*
X141356666Y-56320000D01*
X141451904Y-56272380D01*
X120126190Y-122512380D02*
X120697619Y-122512380D01*
X120411904Y-123512380D02*
X120411904Y-122512380D01*
X121411904Y-123464761D02*
X121316666Y-123512380D01*
X121126190Y-123512380D01*
X121030952Y-123464761D01*
X120983333Y-123369523D01*
X120983333Y-122988571D01*
X121030952Y-122893333D01*
X121126190Y-122845714D01*
X121316666Y-122845714D01*
X121411904Y-122893333D01*
X121459523Y-122988571D01*
X121459523Y-123083809D01*
X120983333Y-123179047D01*
X121888095Y-123512380D02*
X121888095Y-122845714D01*
X121888095Y-123036190D02*
X121935714Y-122940952D01*
X121983333Y-122893333D01*
X122078571Y-122845714D01*
X122173809Y-122845714D01*
X122507142Y-123512380D02*
X122507142Y-122845714D01*
X122507142Y-122940952D02*
X122554761Y-122893333D01*
X122649999Y-122845714D01*
X122792857Y-122845714D01*
X122888095Y-122893333D01*
X122935714Y-122988571D01*
X122935714Y-123512380D01*
X122935714Y-122988571D02*
X122983333Y-122893333D01*
X123078571Y-122845714D01*
X123221428Y-122845714D01*
X123316666Y-122893333D01*
X123364285Y-122988571D01*
X123364285Y-123512380D01*
X123840476Y-123512380D02*
X123840476Y-122845714D01*
X123840476Y-122512380D02*
X123792857Y-122560000D01*
X123840476Y-122607619D01*
X123888095Y-122560000D01*
X123840476Y-122512380D01*
X123840476Y-122607619D01*
X124316666Y-122845714D02*
X124316666Y-123512380D01*
X124316666Y-122940952D02*
X124364285Y-122893333D01*
X124459523Y-122845714D01*
X124602380Y-122845714D01*
X124697619Y-122893333D01*
X124745238Y-122988571D01*
X124745238Y-123512380D01*
X125649999Y-123512380D02*
X125649999Y-122988571D01*
X125602380Y-122893333D01*
X125507142Y-122845714D01*
X125316666Y-122845714D01*
X125221428Y-122893333D01*
X125649999Y-123464761D02*
X125554761Y-123512380D01*
X125316666Y-123512380D01*
X125221428Y-123464761D01*
X125173809Y-123369523D01*
X125173809Y-123274285D01*
X125221428Y-123179047D01*
X125316666Y-123131428D01*
X125554761Y-123131428D01*
X125649999Y-123083809D01*
X126269047Y-123512380D02*
X126173809Y-123464761D01*
X126126190Y-123369523D01*
X126126190Y-122512380D01*
X126983333Y-122988571D02*
X127126190Y-123036190D01*
X127173809Y-123083809D01*
X127221428Y-123179047D01*
X127221428Y-123321904D01*
X127173809Y-123417142D01*
X127126190Y-123464761D01*
X127030952Y-123512380D01*
X126649999Y-123512380D01*
X126649999Y-122512380D01*
X126983333Y-122512380D01*
X127078571Y-122560000D01*
X127126190Y-122607619D01*
X127173809Y-122702857D01*
X127173809Y-122798095D01*
X127126190Y-122893333D01*
X127078571Y-122940952D01*
X126983333Y-122988571D01*
X126649999Y-122988571D01*
X127792857Y-123512380D02*
X127697619Y-123464761D01*
X127649999Y-123369523D01*
X127649999Y-122512380D01*
X128316666Y-123512380D02*
X128221428Y-123464761D01*
X128173809Y-123417142D01*
X128126190Y-123321904D01*
X128126190Y-123036190D01*
X128173809Y-122940952D01*
X128221428Y-122893333D01*
X128316666Y-122845714D01*
X128459523Y-122845714D01*
X128554761Y-122893333D01*
X128602380Y-122940952D01*
X128649999Y-123036190D01*
X128649999Y-123321904D01*
X128602380Y-123417142D01*
X128554761Y-123464761D01*
X128459523Y-123512380D01*
X128316666Y-123512380D01*
X129507142Y-123464761D02*
X129411904Y-123512380D01*
X129221428Y-123512380D01*
X129126190Y-123464761D01*
X129078571Y-123417142D01*
X129030952Y-123321904D01*
X129030952Y-123036190D01*
X129078571Y-122940952D01*
X129126190Y-122893333D01*
X129221428Y-122845714D01*
X129411904Y-122845714D01*
X129507142Y-122893333D01*
X129935714Y-123512380D02*
X129935714Y-122512380D01*
X130030952Y-123131428D02*
X130316666Y-123512380D01*
X130316666Y-122845714D02*
X129935714Y-123226666D01*
X130507142Y-123607619D02*
X131269047Y-123607619D01*
X131459523Y-123226666D02*
X131935714Y-123226666D01*
X131364285Y-123512380D02*
X131697619Y-122512380D01*
X132030952Y-123512380D01*
X132507142Y-123512380D02*
X132411904Y-123464761D01*
X132364285Y-123369523D01*
X132364285Y-122512380D01*
X132745238Y-122845714D02*
X133126190Y-122845714D01*
X132888095Y-122512380D02*
X132888095Y-123369523D01*
X132935714Y-123464761D01*
X133030952Y-123512380D01*
X133126190Y-123512380D01*
X133840476Y-123464761D02*
X133745238Y-123512380D01*
X133554761Y-123512380D01*
X133459523Y-123464761D01*
X133411904Y-123369523D01*
X133411904Y-122988571D01*
X133459523Y-122893333D01*
X133554761Y-122845714D01*
X133745238Y-122845714D01*
X133840476Y-122893333D01*
X133888095Y-122988571D01*
X133888095Y-123083809D01*
X133411904Y-123179047D01*
X134745238Y-123464761D02*
X134650000Y-123512380D01*
X134459523Y-123512380D01*
X134364285Y-123464761D01*
X134316666Y-123417142D01*
X134269047Y-123321904D01*
X134269047Y-123036190D01*
X134316666Y-122940952D01*
X134364285Y-122893333D01*
X134459523Y-122845714D01*
X134650000Y-122845714D01*
X134745238Y-122893333D01*
X135173809Y-123512380D02*
X135173809Y-122512380D01*
X135602380Y-123512380D02*
X135602380Y-122988571D01*
X135554761Y-122893333D01*
X135459523Y-122845714D01*
X135316666Y-122845714D01*
X135221428Y-122893333D01*
X135173809Y-122940952D01*
X135840476Y-123607619D02*
X136602380Y-123607619D01*
X136792857Y-123226666D02*
X137269047Y-123226666D01*
X136697619Y-123512380D02*
X137030952Y-122512380D01*
X137364285Y-123512380D01*
X137697619Y-123512380D02*
X137697619Y-122512380D01*
X138269047Y-123512380D02*
X137840476Y-122940952D01*
X138269047Y-122512380D02*
X137697619Y-123083809D01*
X138602380Y-122512380D02*
X139221428Y-122512380D01*
X138888095Y-122893333D01*
X139030952Y-122893333D01*
X139126190Y-122940952D01*
X139173809Y-122988571D01*
X139221428Y-123083809D01*
X139221428Y-123321904D01*
X139173809Y-123417142D01*
X139126190Y-123464761D01*
X139030952Y-123512380D01*
X138745238Y-123512380D01*
X138650000Y-123464761D01*
X138602380Y-123417142D01*
X139840476Y-122512380D02*
X139935714Y-122512380D01*
X140030952Y-122560000D01*
X140078571Y-122607619D01*
X140126190Y-122702857D01*
X140173809Y-122893333D01*
X140173809Y-123131428D01*
X140126190Y-123321904D01*
X140078571Y-123417142D01*
X140030952Y-123464761D01*
X139935714Y-123512380D01*
X139840476Y-123512380D01*
X139745238Y-123464761D01*
X139697619Y-123417142D01*
X139650000Y-123321904D01*
X139602380Y-123131428D01*
X139602380Y-122893333D01*
X139650000Y-122702857D01*
X139697619Y-122607619D01*
X139745238Y-122560000D01*
X139840476Y-122512380D01*
X140792857Y-122512380D02*
X140888095Y-122512380D01*
X140983333Y-122560000D01*
X141030952Y-122607619D01*
X141078571Y-122702857D01*
X141126190Y-122893333D01*
X141126190Y-123131428D01*
X141078571Y-123321904D01*
X141030952Y-123417142D01*
X140983333Y-123464761D01*
X140888095Y-123512380D01*
X140792857Y-123512380D01*
X140697619Y-123464761D01*
X140650000Y-123417142D01*
X140602380Y-123321904D01*
X140554761Y-123131428D01*
X140554761Y-122893333D01*
X140602380Y-122702857D01*
X140650000Y-122607619D01*
X140697619Y-122560000D01*
X140792857Y-122512380D01*
X141554761Y-123131428D02*
X142316666Y-123131428D01*
X142745238Y-122607619D02*
X142792857Y-122560000D01*
X142888095Y-122512380D01*
X143126190Y-122512380D01*
X143221428Y-122560000D01*
X143269047Y-122607619D01*
X143316666Y-122702857D01*
X143316666Y-122798095D01*
X143269047Y-122940952D01*
X142697619Y-123512380D01*
X143316666Y-123512380D01*
X143507142Y-123607619D02*
X144269047Y-123607619D01*
X144507142Y-123512380D02*
X144507142Y-122512380D01*
X144888095Y-122512380D01*
X144983333Y-122560000D01*
X145030952Y-122607619D01*
X145078571Y-122702857D01*
X145078571Y-122845714D01*
X145030952Y-122940952D01*
X144983333Y-122988571D01*
X144888095Y-123036190D01*
X144507142Y-123036190D01*
X145983333Y-122512380D02*
X145507142Y-122512380D01*
X145459523Y-122988571D01*
X145507142Y-122940952D01*
X145602380Y-122893333D01*
X145840476Y-122893333D01*
X145935714Y-122940952D01*
X145983333Y-122988571D01*
X146030952Y-123083809D01*
X146030952Y-123321904D01*
X145983333Y-123417142D01*
X145935714Y-123464761D01*
X145840476Y-123512380D01*
X145602380Y-123512380D01*
X145507142Y-123464761D01*
X145459523Y-123417142D01*
X146459523Y-123417142D02*
X146507142Y-123464761D01*
X146459523Y-123512380D01*
X146411904Y-123464761D01*
X146459523Y-123417142D01*
X146459523Y-123512380D01*
X147126190Y-122512380D02*
X147221428Y-122512380D01*
X147316666Y-122560000D01*
X147364285Y-122607619D01*
X147411904Y-122702857D01*
X147459523Y-122893333D01*
X147459523Y-123131428D01*
X147411904Y-123321904D01*
X147364285Y-123417142D01*
X147316666Y-123464761D01*
X147221428Y-123512380D01*
X147126190Y-123512380D01*
X147030952Y-123464761D01*
X146983333Y-123417142D01*
X146935714Y-123321904D01*
X146888095Y-123131428D01*
X146888095Y-122893333D01*
X146935714Y-122702857D01*
X146983333Y-122607619D01*
X147030952Y-122560000D01*
X147126190Y-122512380D01*
X148078571Y-122512380D02*
X148173809Y-122512380D01*
X148269047Y-122560000D01*
X148316666Y-122607619D01*
X148364285Y-122702857D01*
X148411904Y-122893333D01*
X148411904Y-123131428D01*
X148364285Y-123321904D01*
X148316666Y-123417142D01*
X148269047Y-123464761D01*
X148173809Y-123512380D01*
X148078571Y-123512380D01*
X147983333Y-123464761D01*
X147935714Y-123417142D01*
X147888095Y-123321904D01*
X147840476Y-123131428D01*
X147840476Y-122893333D01*
X147888095Y-122702857D01*
X147935714Y-122607619D01*
X147983333Y-122560000D01*
X148078571Y-122512380D01*
X148840476Y-123512380D02*
X148840476Y-122845714D01*
X148840476Y-122940952D02*
X148888095Y-122893333D01*
X148983333Y-122845714D01*
X149126190Y-122845714D01*
X149221428Y-122893333D01*
X149269047Y-122988571D01*
X149269047Y-123512380D01*
X149269047Y-122988571D02*
X149316666Y-122893333D01*
X149411904Y-122845714D01*
X149554761Y-122845714D01*
X149649999Y-122893333D01*
X149697619Y-122988571D01*
X149697619Y-123512380D01*
X150173809Y-123512380D02*
X150173809Y-122845714D01*
X150173809Y-122940952D02*
X150221428Y-122893333D01*
X150316666Y-122845714D01*
X150459523Y-122845714D01*
X150554761Y-122893333D01*
X150602380Y-122988571D01*
X150602380Y-123512380D01*
X150602380Y-122988571D02*
X150649999Y-122893333D01*
X150745238Y-122845714D01*
X150888095Y-122845714D01*
X150983333Y-122893333D01*
X151030952Y-122988571D01*
X151030952Y-123512380D01*
X131834761Y-132881428D02*
X132596666Y-132881428D01*
X132215714Y-133262380D02*
X132215714Y-132500476D01*
X133787142Y-133214761D02*
X133930000Y-133262380D01*
X134168095Y-133262380D01*
X134263333Y-133214761D01*
X134310952Y-133167142D01*
X134358571Y-133071904D01*
X134358571Y-132976666D01*
X134310952Y-132881428D01*
X134263333Y-132833809D01*
X134168095Y-132786190D01*
X133977619Y-132738571D01*
X133882380Y-132690952D01*
X133834761Y-132643333D01*
X133787142Y-132548095D01*
X133787142Y-132452857D01*
X133834761Y-132357619D01*
X133882380Y-132310000D01*
X133977619Y-132262380D01*
X134215714Y-132262380D01*
X134358571Y-132310000D01*
X134977619Y-132262380D02*
X135168095Y-132262380D01*
X135263333Y-132310000D01*
X135358571Y-132405238D01*
X135406190Y-132595714D01*
X135406190Y-132929047D01*
X135358571Y-133119523D01*
X135263333Y-133214761D01*
X135168095Y-133262380D01*
X134977619Y-133262380D01*
X134882380Y-133214761D01*
X134787142Y-133119523D01*
X134739523Y-132929047D01*
X134739523Y-132595714D01*
X134787142Y-132405238D01*
X134882380Y-132310000D01*
X134977619Y-132262380D01*
X136310952Y-133262380D02*
X135834761Y-133262380D01*
X135834761Y-132262380D01*
X136596666Y-132976666D02*
X137072857Y-132976666D01*
X136501428Y-133262380D02*
X136834761Y-132262380D01*
X137168095Y-133262380D01*
X138072857Y-133262380D02*
X137739523Y-132786190D01*
X137501428Y-133262380D02*
X137501428Y-132262380D01*
X137882380Y-132262380D01*
X137977619Y-132310000D01*
X138025238Y-132357619D01*
X138072857Y-132452857D01*
X138072857Y-132595714D01*
X138025238Y-132690952D01*
X137977619Y-132738571D01*
X137882380Y-132786190D01*
X137501428Y-132786190D01*
X139263333Y-132881428D02*
X140025238Y-132881428D01*
D12*
X120324285Y-86341428D02*
X120290000Y-86307142D01*
X120255714Y-86238571D01*
X120255714Y-86067142D01*
X120290000Y-85998571D01*
X120324285Y-85964285D01*
X120392857Y-85930000D01*
X120461428Y-85930000D01*
X120564285Y-85964285D01*
X120975714Y-86375714D01*
X120975714Y-85930000D01*
X120324285Y-85655714D02*
X120290000Y-85621428D01*
X120255714Y-85552857D01*
X120255714Y-85381428D01*
X120290000Y-85312857D01*
X120324285Y-85278571D01*
X120392857Y-85244285D01*
X120461428Y-85244285D01*
X120564285Y-85278571D01*
X120975714Y-85690000D01*
X120975714Y-85244285D01*
X120255714Y-84798571D02*
X120255714Y-84730000D01*
X120290000Y-84661428D01*
X120324285Y-84627142D01*
X120392857Y-84592857D01*
X120530000Y-84558571D01*
X120701428Y-84558571D01*
X120838571Y-84592857D01*
X120907142Y-84627142D01*
X120941428Y-84661428D01*
X120975714Y-84730000D01*
X120975714Y-84798571D01*
X120941428Y-84867142D01*
X120907142Y-84901428D01*
X120838571Y-84935714D01*
X120701428Y-84970000D01*
X120530000Y-84970000D01*
X120392857Y-84935714D01*
X120324285Y-84901428D01*
X120290000Y-84867142D01*
X120255714Y-84798571D01*
X120975714Y-84250000D02*
X120255714Y-84250000D01*
X120975714Y-83838571D02*
X120564285Y-84147142D01*
X120255714Y-83838571D02*
X120667142Y-84250000D01*
M02*
