G04 #@! TF.GenerationSoftware,KiCad,Pcbnew,(5.1.4)-1*
G04 #@! TF.CreationDate,2019-10-08T20:05:43+02:00*
G04 #@! TF.ProjectId,weather,77656174-6865-4722-9e6b-696361645f70,rev?*
G04 #@! TF.SameCoordinates,Original*
G04 #@! TF.FileFunction,Legend,Bot*
G04 #@! TF.FilePolarity,Positive*
%FSLAX46Y46*%
G04 Gerber Fmt 4.6, Leading zero omitted, Abs format (unit mm)*
G04 Created by KiCad (PCBNEW (5.1.4)-1) date 2019-10-08 20:05:43*
%MOMM*%
%LPD*%
G04 APERTURE LIST*
%ADD10C,0.010000*%
G04 APERTURE END LIST*
D10*
G36*
X124717939Y-117606577D02*
G01*
X124812132Y-117978567D01*
X124978399Y-118329482D01*
X125136706Y-118562190D01*
X125238090Y-118685374D01*
X125327162Y-118764645D01*
X125432236Y-118820646D01*
X125550262Y-118863704D01*
X125704295Y-118908748D01*
X125826872Y-118923326D01*
X125955096Y-118908429D01*
X126079691Y-118877859D01*
X126130711Y-118839162D01*
X126208060Y-118751963D01*
X126297798Y-118632540D01*
X126329760Y-118585833D01*
X126493407Y-118295577D01*
X126613660Y-117975605D01*
X126694142Y-117613234D01*
X126738476Y-117195781D01*
X126741350Y-117145026D01*
X126766434Y-116664405D01*
X127052976Y-116350931D01*
X127204552Y-116196495D01*
X127374602Y-116041024D01*
X127536694Y-115908036D01*
X127611709Y-115853784D01*
X127775973Y-115731324D01*
X127948762Y-115584215D01*
X128093634Y-115443551D01*
X128098047Y-115438808D01*
X128344539Y-115216316D01*
X128637499Y-115022857D01*
X128954199Y-114870562D01*
X129271916Y-114771560D01*
X129387447Y-114750541D01*
X129581875Y-114715214D01*
X129805732Y-114662993D01*
X130017066Y-114603877D01*
X130059038Y-114590505D01*
X130406455Y-114476531D01*
X130735418Y-114666513D01*
X130950918Y-114781047D01*
X131144662Y-114858751D01*
X131351970Y-114913393D01*
X131387342Y-114920635D01*
X131710304Y-114984775D01*
X131912314Y-115243067D01*
X132066493Y-115419058D01*
X132239644Y-115569492D01*
X132437928Y-115705394D01*
X132621541Y-115823606D01*
X132748973Y-115913723D01*
X132830161Y-115985681D01*
X132875042Y-116049416D01*
X132893555Y-116114863D01*
X132896156Y-116163511D01*
X132915662Y-116271604D01*
X132964566Y-116398117D01*
X132986775Y-116440013D01*
X133024137Y-116514539D01*
X133055860Y-116604969D01*
X133084209Y-116722872D01*
X133111454Y-116879815D01*
X133139860Y-117087369D01*
X133171696Y-117357102D01*
X133178571Y-117418593D01*
X133179921Y-117566698D01*
X133160883Y-117770328D01*
X133125037Y-118012597D01*
X133075968Y-118276617D01*
X133017258Y-118545502D01*
X132952488Y-118802366D01*
X132885241Y-119030321D01*
X132819100Y-119212481D01*
X132780670Y-119294189D01*
X132661598Y-119513484D01*
X132017987Y-119513484D01*
X131859471Y-119839758D01*
X131597676Y-119824965D01*
X131443082Y-119820949D01*
X131332178Y-119833967D01*
X131233196Y-119869916D01*
X131166074Y-119905081D01*
X131022518Y-119971762D01*
X130857687Y-120029677D01*
X130792532Y-120047045D01*
X130638969Y-120093309D01*
X130486015Y-120155931D01*
X130430226Y-120184722D01*
X130328784Y-120238159D01*
X130255284Y-120255138D01*
X130172939Y-120239549D01*
X130110614Y-120218525D01*
X129983677Y-120181461D01*
X129821734Y-120144301D01*
X129698576Y-120121610D01*
X129444952Y-120045950D01*
X129234745Y-119907698D01*
X129069945Y-119708305D01*
X129026741Y-119631068D01*
X128906441Y-119458596D01*
X128731696Y-119296825D01*
X128727248Y-119293452D01*
X128592226Y-119180412D01*
X128443744Y-119039325D01*
X128322943Y-118910705D01*
X128126618Y-118684986D01*
X127917793Y-118733529D01*
X127669606Y-118815391D01*
X127487094Y-118932833D01*
X127366183Y-119090563D01*
X127302798Y-119293293D01*
X127290477Y-119458567D01*
X127295681Y-119574720D01*
X127315298Y-119691555D01*
X127354345Y-119827748D01*
X127417837Y-120001977D01*
X127474829Y-120145053D01*
X127549601Y-120331196D01*
X127617646Y-120504361D01*
X127671605Y-120645575D01*
X127704117Y-120735861D01*
X127704738Y-120737749D01*
X127790776Y-120882154D01*
X127923889Y-121000194D01*
X128045516Y-121106711D01*
X128166700Y-121242806D01*
X128225479Y-121324420D01*
X128308062Y-121442082D01*
X128383396Y-121512186D01*
X128477716Y-121555707D01*
X128536439Y-121573045D01*
X128688616Y-121629349D01*
X128877613Y-121721384D01*
X129081550Y-121836172D01*
X129278551Y-121960737D01*
X129446735Y-122082100D01*
X129554438Y-122176887D01*
X129663596Y-122275727D01*
X129768639Y-122329625D01*
X129897131Y-122356685D01*
X130030951Y-122381044D01*
X130202749Y-122420369D01*
X130377775Y-122466637D01*
X130396157Y-122471929D01*
X130700413Y-122560385D01*
X131121332Y-122462939D01*
X131310415Y-122415820D01*
X131469304Y-122366262D01*
X131621024Y-122304829D01*
X131788599Y-122222084D01*
X131995053Y-122108591D01*
X132018978Y-122095043D01*
X132318403Y-121921866D01*
X132562666Y-121771332D01*
X132765220Y-121632764D01*
X132939519Y-121495483D01*
X133099014Y-121348813D01*
X133257160Y-121182076D01*
X133427408Y-120984595D01*
X133445626Y-120962733D01*
X133675656Y-120676073D01*
X133856075Y-120427317D01*
X133994764Y-120204247D01*
X134099608Y-119994643D01*
X134148473Y-119873187D01*
X134226341Y-119630596D01*
X134303465Y-119334283D01*
X134375115Y-119006696D01*
X134436560Y-118670285D01*
X134483071Y-118347499D01*
X134497468Y-118216787D01*
X134515284Y-118036984D01*
X134531800Y-117874233D01*
X134544743Y-117750733D01*
X134550175Y-117701922D01*
X134552924Y-117612082D01*
X134548553Y-117471649D01*
X134538017Y-117305881D01*
X134532845Y-117244264D01*
X134500536Y-116910765D01*
X134465460Y-116594698D01*
X134429146Y-116307141D01*
X134393122Y-116059169D01*
X134358915Y-115861861D01*
X134328054Y-115726292D01*
X134319798Y-115699670D01*
X134288652Y-115614502D01*
X134234205Y-115471288D01*
X134161416Y-115282834D01*
X134075242Y-115061942D01*
X133980642Y-114821416D01*
X133935809Y-114708078D01*
X133824070Y-114429105D01*
X133730890Y-114205763D01*
X133648284Y-114022177D01*
X133568265Y-113862470D01*
X133482845Y-113710767D01*
X133384040Y-113551191D01*
X133263863Y-113367866D01*
X133254737Y-113354174D01*
X133039956Y-113038499D01*
X132854835Y-112781673D01*
X132692356Y-112575666D01*
X132545502Y-112412448D01*
X132407255Y-112283991D01*
X132270596Y-112182264D01*
X132184428Y-112129573D01*
X131881377Y-111969964D01*
X131603752Y-111852736D01*
X131322904Y-111766473D01*
X131199780Y-111737321D01*
X131040228Y-111704729D01*
X130927825Y-111690870D01*
X130835925Y-111695179D01*
X130737883Y-111717091D01*
X130703985Y-111726809D01*
X130593571Y-111755132D01*
X130501652Y-111763291D01*
X130397878Y-111750537D01*
X130251894Y-111716121D01*
X130249867Y-111715600D01*
X130080527Y-111666596D01*
X129908042Y-111608032D01*
X129793900Y-111562786D01*
X129600587Y-111477472D01*
X129397584Y-111567250D01*
X129261286Y-111617806D01*
X129131291Y-111650368D01*
X129068833Y-111657027D01*
X128929805Y-111691679D01*
X128853513Y-111752373D01*
X128776624Y-111814782D01*
X128681161Y-111842711D01*
X128578058Y-111847718D01*
X128488910Y-111850496D01*
X128419543Y-111865729D01*
X128352404Y-111903764D01*
X128269940Y-111974947D01*
X128154596Y-112089627D01*
X128136582Y-112107953D01*
X127951979Y-112279744D01*
X127785548Y-112397417D01*
X127666351Y-112456285D01*
X127447643Y-112574152D01*
X127217842Y-112747702D01*
X126994748Y-112962028D01*
X126829955Y-113156884D01*
X126713468Y-113297341D01*
X126583899Y-113435514D01*
X126474171Y-113537229D01*
X126372964Y-113627075D01*
X126319916Y-113698487D01*
X126300228Y-113776097D01*
X126298258Y-113830028D01*
X126272912Y-113976462D01*
X126200337Y-114162509D01*
X126166352Y-114230976D01*
X126090766Y-114393191D01*
X126011480Y-114590785D01*
X125943769Y-114785257D01*
X125934474Y-114815353D01*
X125874651Y-114994034D01*
X125805389Y-115171642D01*
X125739533Y-115315807D01*
X125725344Y-115342403D01*
X125653510Y-115493324D01*
X125586419Y-115670398D01*
X125554206Y-115777327D01*
X125503712Y-115930129D01*
X125426689Y-116090567D01*
X125315934Y-116270495D01*
X125164249Y-116481764D01*
X124993793Y-116699777D01*
X124843588Y-116905716D01*
X124749132Y-117088654D01*
X124703985Y-117269759D01*
X124701708Y-117470198D01*
X124717939Y-117606577D01*
X124717939Y-117606577D01*
G37*
X124717939Y-117606577D02*
X124812132Y-117978567D01*
X124978399Y-118329482D01*
X125136706Y-118562190D01*
X125238090Y-118685374D01*
X125327162Y-118764645D01*
X125432236Y-118820646D01*
X125550262Y-118863704D01*
X125704295Y-118908748D01*
X125826872Y-118923326D01*
X125955096Y-118908429D01*
X126079691Y-118877859D01*
X126130711Y-118839162D01*
X126208060Y-118751963D01*
X126297798Y-118632540D01*
X126329760Y-118585833D01*
X126493407Y-118295577D01*
X126613660Y-117975605D01*
X126694142Y-117613234D01*
X126738476Y-117195781D01*
X126741350Y-117145026D01*
X126766434Y-116664405D01*
X127052976Y-116350931D01*
X127204552Y-116196495D01*
X127374602Y-116041024D01*
X127536694Y-115908036D01*
X127611709Y-115853784D01*
X127775973Y-115731324D01*
X127948762Y-115584215D01*
X128093634Y-115443551D01*
X128098047Y-115438808D01*
X128344539Y-115216316D01*
X128637499Y-115022857D01*
X128954199Y-114870562D01*
X129271916Y-114771560D01*
X129387447Y-114750541D01*
X129581875Y-114715214D01*
X129805732Y-114662993D01*
X130017066Y-114603877D01*
X130059038Y-114590505D01*
X130406455Y-114476531D01*
X130735418Y-114666513D01*
X130950918Y-114781047D01*
X131144662Y-114858751D01*
X131351970Y-114913393D01*
X131387342Y-114920635D01*
X131710304Y-114984775D01*
X131912314Y-115243067D01*
X132066493Y-115419058D01*
X132239644Y-115569492D01*
X132437928Y-115705394D01*
X132621541Y-115823606D01*
X132748973Y-115913723D01*
X132830161Y-115985681D01*
X132875042Y-116049416D01*
X132893555Y-116114863D01*
X132896156Y-116163511D01*
X132915662Y-116271604D01*
X132964566Y-116398117D01*
X132986775Y-116440013D01*
X133024137Y-116514539D01*
X133055860Y-116604969D01*
X133084209Y-116722872D01*
X133111454Y-116879815D01*
X133139860Y-117087369D01*
X133171696Y-117357102D01*
X133178571Y-117418593D01*
X133179921Y-117566698D01*
X133160883Y-117770328D01*
X133125037Y-118012597D01*
X133075968Y-118276617D01*
X133017258Y-118545502D01*
X132952488Y-118802366D01*
X132885241Y-119030321D01*
X132819100Y-119212481D01*
X132780670Y-119294189D01*
X132661598Y-119513484D01*
X132017987Y-119513484D01*
X131859471Y-119839758D01*
X131597676Y-119824965D01*
X131443082Y-119820949D01*
X131332178Y-119833967D01*
X131233196Y-119869916D01*
X131166074Y-119905081D01*
X131022518Y-119971762D01*
X130857687Y-120029677D01*
X130792532Y-120047045D01*
X130638969Y-120093309D01*
X130486015Y-120155931D01*
X130430226Y-120184722D01*
X130328784Y-120238159D01*
X130255284Y-120255138D01*
X130172939Y-120239549D01*
X130110614Y-120218525D01*
X129983677Y-120181461D01*
X129821734Y-120144301D01*
X129698576Y-120121610D01*
X129444952Y-120045950D01*
X129234745Y-119907698D01*
X129069945Y-119708305D01*
X129026741Y-119631068D01*
X128906441Y-119458596D01*
X128731696Y-119296825D01*
X128727248Y-119293452D01*
X128592226Y-119180412D01*
X128443744Y-119039325D01*
X128322943Y-118910705D01*
X128126618Y-118684986D01*
X127917793Y-118733529D01*
X127669606Y-118815391D01*
X127487094Y-118932833D01*
X127366183Y-119090563D01*
X127302798Y-119293293D01*
X127290477Y-119458567D01*
X127295681Y-119574720D01*
X127315298Y-119691555D01*
X127354345Y-119827748D01*
X127417837Y-120001977D01*
X127474829Y-120145053D01*
X127549601Y-120331196D01*
X127617646Y-120504361D01*
X127671605Y-120645575D01*
X127704117Y-120735861D01*
X127704738Y-120737749D01*
X127790776Y-120882154D01*
X127923889Y-121000194D01*
X128045516Y-121106711D01*
X128166700Y-121242806D01*
X128225479Y-121324420D01*
X128308062Y-121442082D01*
X128383396Y-121512186D01*
X128477716Y-121555707D01*
X128536439Y-121573045D01*
X128688616Y-121629349D01*
X128877613Y-121721384D01*
X129081550Y-121836172D01*
X129278551Y-121960737D01*
X129446735Y-122082100D01*
X129554438Y-122176887D01*
X129663596Y-122275727D01*
X129768639Y-122329625D01*
X129897131Y-122356685D01*
X130030951Y-122381044D01*
X130202749Y-122420369D01*
X130377775Y-122466637D01*
X130396157Y-122471929D01*
X130700413Y-122560385D01*
X131121332Y-122462939D01*
X131310415Y-122415820D01*
X131469304Y-122366262D01*
X131621024Y-122304829D01*
X131788599Y-122222084D01*
X131995053Y-122108591D01*
X132018978Y-122095043D01*
X132318403Y-121921866D01*
X132562666Y-121771332D01*
X132765220Y-121632764D01*
X132939519Y-121495483D01*
X133099014Y-121348813D01*
X133257160Y-121182076D01*
X133427408Y-120984595D01*
X133445626Y-120962733D01*
X133675656Y-120676073D01*
X133856075Y-120427317D01*
X133994764Y-120204247D01*
X134099608Y-119994643D01*
X134148473Y-119873187D01*
X134226341Y-119630596D01*
X134303465Y-119334283D01*
X134375115Y-119006696D01*
X134436560Y-118670285D01*
X134483071Y-118347499D01*
X134497468Y-118216787D01*
X134515284Y-118036984D01*
X134531800Y-117874233D01*
X134544743Y-117750733D01*
X134550175Y-117701922D01*
X134552924Y-117612082D01*
X134548553Y-117471649D01*
X134538017Y-117305881D01*
X134532845Y-117244264D01*
X134500536Y-116910765D01*
X134465460Y-116594698D01*
X134429146Y-116307141D01*
X134393122Y-116059169D01*
X134358915Y-115861861D01*
X134328054Y-115726292D01*
X134319798Y-115699670D01*
X134288652Y-115614502D01*
X134234205Y-115471288D01*
X134161416Y-115282834D01*
X134075242Y-115061942D01*
X133980642Y-114821416D01*
X133935809Y-114708078D01*
X133824070Y-114429105D01*
X133730890Y-114205763D01*
X133648284Y-114022177D01*
X133568265Y-113862470D01*
X133482845Y-113710767D01*
X133384040Y-113551191D01*
X133263863Y-113367866D01*
X133254737Y-113354174D01*
X133039956Y-113038499D01*
X132854835Y-112781673D01*
X132692356Y-112575666D01*
X132545502Y-112412448D01*
X132407255Y-112283991D01*
X132270596Y-112182264D01*
X132184428Y-112129573D01*
X131881377Y-111969964D01*
X131603752Y-111852736D01*
X131322904Y-111766473D01*
X131199780Y-111737321D01*
X131040228Y-111704729D01*
X130927825Y-111690870D01*
X130835925Y-111695179D01*
X130737883Y-111717091D01*
X130703985Y-111726809D01*
X130593571Y-111755132D01*
X130501652Y-111763291D01*
X130397878Y-111750537D01*
X130251894Y-111716121D01*
X130249867Y-111715600D01*
X130080527Y-111666596D01*
X129908042Y-111608032D01*
X129793900Y-111562786D01*
X129600587Y-111477472D01*
X129397584Y-111567250D01*
X129261286Y-111617806D01*
X129131291Y-111650368D01*
X129068833Y-111657027D01*
X128929805Y-111691679D01*
X128853513Y-111752373D01*
X128776624Y-111814782D01*
X128681161Y-111842711D01*
X128578058Y-111847718D01*
X128488910Y-111850496D01*
X128419543Y-111865729D01*
X128352404Y-111903764D01*
X128269940Y-111974947D01*
X128154596Y-112089627D01*
X128136582Y-112107953D01*
X127951979Y-112279744D01*
X127785548Y-112397417D01*
X127666351Y-112456285D01*
X127447643Y-112574152D01*
X127217842Y-112747702D01*
X126994748Y-112962028D01*
X126829955Y-113156884D01*
X126713468Y-113297341D01*
X126583899Y-113435514D01*
X126474171Y-113537229D01*
X126372964Y-113627075D01*
X126319916Y-113698487D01*
X126300228Y-113776097D01*
X126298258Y-113830028D01*
X126272912Y-113976462D01*
X126200337Y-114162509D01*
X126166352Y-114230976D01*
X126090766Y-114393191D01*
X126011480Y-114590785D01*
X125943769Y-114785257D01*
X125934474Y-114815353D01*
X125874651Y-114994034D01*
X125805389Y-115171642D01*
X125739533Y-115315807D01*
X125725344Y-115342403D01*
X125653510Y-115493324D01*
X125586419Y-115670398D01*
X125554206Y-115777327D01*
X125503712Y-115930129D01*
X125426689Y-116090567D01*
X125315934Y-116270495D01*
X125164249Y-116481764D01*
X124993793Y-116699777D01*
X124843588Y-116905716D01*
X124749132Y-117088654D01*
X124703985Y-117269759D01*
X124701708Y-117470198D01*
X124717939Y-117606577D01*
G36*
X124136038Y-71982132D02*
G01*
X124144879Y-72084244D01*
X124198239Y-72342699D01*
X124303283Y-72547893D01*
X124463831Y-72705954D01*
X124574641Y-72773707D01*
X124757083Y-72906748D01*
X124925285Y-73100509D01*
X125083109Y-73287171D01*
X125250449Y-73419334D01*
X125448072Y-73509191D01*
X125696744Y-73568930D01*
X125733725Y-73575091D01*
X126048964Y-73625567D01*
X126172024Y-73486417D01*
X126247864Y-73381762D01*
X126288093Y-73269223D01*
X126294589Y-73131144D01*
X126269229Y-72949868D01*
X126242355Y-72825235D01*
X126165603Y-72537311D01*
X126076304Y-72273412D01*
X125979651Y-72045219D01*
X125880836Y-71864412D01*
X125785052Y-71742672D01*
X125747620Y-71712385D01*
X125666733Y-71623915D01*
X125649909Y-71552288D01*
X125642372Y-71467424D01*
X125622579Y-71336040D01*
X125594759Y-71186089D01*
X125593788Y-71181320D01*
X125574277Y-71068901D01*
X125561415Y-70947348D01*
X125554912Y-70803234D01*
X125554476Y-70623131D01*
X125559816Y-70393610D01*
X125570465Y-70105526D01*
X125594132Y-69679011D01*
X125630008Y-69313390D01*
X125682153Y-68993718D01*
X125754629Y-68705048D01*
X125851498Y-68432435D01*
X125976821Y-68160933D01*
X126134660Y-67875595D01*
X126210709Y-67749521D01*
X126316750Y-67581334D01*
X126403052Y-67460347D01*
X126487574Y-67367452D01*
X126588275Y-67283537D01*
X126723112Y-67189494D01*
X126760069Y-67164932D01*
X126906387Y-67069189D01*
X127008872Y-67008805D01*
X127087270Y-66976998D01*
X127161330Y-66966989D01*
X127250799Y-66971999D01*
X127305206Y-66977769D01*
X127537640Y-67036453D01*
X127769089Y-67154580D01*
X127975229Y-67318974D01*
X128018534Y-67364180D01*
X128068577Y-67434570D01*
X128144741Y-67560379D01*
X128239978Y-67728341D01*
X128347239Y-67925189D01*
X128459475Y-68137655D01*
X128569638Y-68352475D01*
X128670678Y-68556380D01*
X128755547Y-68736104D01*
X128796238Y-68827898D01*
X128858330Y-68958737D01*
X128945609Y-69124591D01*
X129042405Y-69296063D01*
X129074976Y-69350876D01*
X129159969Y-69504727D01*
X129260160Y-69706401D01*
X129364305Y-69932176D01*
X129461161Y-70158328D01*
X129481657Y-70208985D01*
X129627427Y-70550543D01*
X129779610Y-70864406D01*
X129931037Y-71137149D01*
X130074542Y-71355347D01*
X130134925Y-71432524D01*
X130207051Y-71535892D01*
X130279175Y-71665491D01*
X130298820Y-71707298D01*
X130383709Y-71846863D01*
X130494944Y-71928880D01*
X130500079Y-71931179D01*
X130584701Y-71981514D01*
X130704243Y-72069287D01*
X130838492Y-72179224D01*
X130900141Y-72233504D01*
X131045652Y-72355148D01*
X131198073Y-72466827D01*
X131331682Y-72550170D01*
X131371895Y-72570463D01*
X131485578Y-72624045D01*
X131645263Y-72701761D01*
X131829106Y-72792885D01*
X132002259Y-72880075D01*
X132185134Y-72971639D01*
X132319444Y-73033413D01*
X132424076Y-73071221D01*
X132517918Y-73090885D01*
X132619855Y-73098230D01*
X132712788Y-73099157D01*
X132953619Y-73088329D01*
X133148976Y-73050379D01*
X133327434Y-72976479D01*
X133517568Y-72857803D01*
X133535772Y-72844950D01*
X133679439Y-72748974D01*
X133825850Y-72661101D01*
X133942887Y-72600559D01*
X134117866Y-72484563D01*
X134247244Y-72340442D01*
X134338039Y-72227840D01*
X134427979Y-72133879D01*
X134477870Y-72092883D01*
X134564828Y-72015085D01*
X134674186Y-71886712D01*
X134793066Y-71724814D01*
X134908590Y-71546445D01*
X134968120Y-71443726D01*
X135063012Y-71229471D01*
X135145406Y-70951570D01*
X135216280Y-70606032D01*
X135276610Y-70188869D01*
X135277469Y-70181802D01*
X135303028Y-69975283D01*
X135328414Y-69777501D01*
X135350723Y-69610646D01*
X135367051Y-69496906D01*
X135367299Y-69495315D01*
X135379419Y-69333542D01*
X135373562Y-69161420D01*
X135367780Y-69113934D01*
X135353371Y-69000831D01*
X135335789Y-68834160D01*
X135317264Y-68636434D01*
X135300152Y-68431746D01*
X135278809Y-68217099D01*
X135249677Y-68003198D01*
X135216705Y-67815803D01*
X135186106Y-67688052D01*
X135143719Y-67541522D01*
X135108013Y-67408896D01*
X135088416Y-67326575D01*
X135065072Y-67252493D01*
X135019265Y-67231258D01*
X134946752Y-67241217D01*
X134800441Y-67298094D01*
X134712326Y-67394651D01*
X134688648Y-67498974D01*
X134702265Y-67580203D01*
X134751599Y-67607014D01*
X134764045Y-67607478D01*
X134836933Y-67633064D01*
X134903936Y-67714701D01*
X134969716Y-67859707D01*
X135019078Y-68007928D01*
X135042920Y-68097318D01*
X135060525Y-68194435D01*
X135072657Y-68311776D01*
X135080077Y-68461837D01*
X135083547Y-68657116D01*
X135083829Y-68910108D01*
X135083049Y-69056727D01*
X135077976Y-69409972D01*
X135066624Y-69703709D01*
X135047033Y-69954586D01*
X135017243Y-70179248D01*
X134975294Y-70394343D01*
X134919227Y-70616515D01*
X134885478Y-70734805D01*
X134820237Y-70931298D01*
X134740593Y-71132391D01*
X134653891Y-71323148D01*
X134567473Y-71488632D01*
X134488682Y-71613908D01*
X134424861Y-71684038D01*
X134416244Y-71689291D01*
X134336739Y-71739422D01*
X134228558Y-71818809D01*
X134154323Y-71878076D01*
X134024936Y-71975795D01*
X133886797Y-72066051D01*
X133821675Y-72102572D01*
X133687823Y-72182119D01*
X133557168Y-72276698D01*
X133530995Y-72298703D01*
X133399670Y-72385401D01*
X133288007Y-72412883D01*
X133189911Y-72425370D01*
X133055245Y-72457588D01*
X132953888Y-72488979D01*
X132732713Y-72565074D01*
X132423518Y-72463355D01*
X132218035Y-72385132D01*
X132061431Y-72297857D01*
X131942702Y-72202054D01*
X131817873Y-72101535D01*
X131682332Y-72015414D01*
X131606382Y-71979044D01*
X131483194Y-71919963D01*
X131339048Y-71834446D01*
X131244070Y-71769197D01*
X131117217Y-71678552D01*
X130994506Y-71596279D01*
X130923914Y-71552781D01*
X130819909Y-71462632D01*
X130777825Y-71375577D01*
X130742977Y-71284136D01*
X130678719Y-71164234D01*
X130628075Y-71084902D01*
X130535264Y-70939685D01*
X130439900Y-70774833D01*
X130397186Y-70694170D01*
X130318869Y-70548774D01*
X130233145Y-70403765D01*
X130188226Y-70334354D01*
X130128076Y-70225326D01*
X130060903Y-70071193D01*
X129998908Y-69900665D01*
X129984493Y-69855054D01*
X129924701Y-69683986D01*
X129854477Y-69520625D01*
X129786720Y-69394222D01*
X129770865Y-69370696D01*
X129664180Y-69162713D01*
X129620702Y-68989607D01*
X129579113Y-68824062D01*
X129513613Y-68653267D01*
X129475028Y-68577719D01*
X129358142Y-68367041D01*
X129242040Y-68140186D01*
X129133463Y-67912148D01*
X129039154Y-67697918D01*
X128965854Y-67512489D01*
X128920305Y-67370853D01*
X128910086Y-67321442D01*
X128864310Y-67153169D01*
X128771726Y-66946388D01*
X128640202Y-66715774D01*
X128477603Y-66476005D01*
X128406503Y-66381946D01*
X128281067Y-66244598D01*
X128109501Y-66089734D01*
X127912787Y-65936083D01*
X127883051Y-65914754D01*
X127527102Y-65662433D01*
X127173196Y-65662433D01*
X126999414Y-65664575D01*
X126877004Y-65674507D01*
X126781102Y-65697486D01*
X126686846Y-65738771D01*
X126607212Y-65782122D01*
X126188427Y-66061126D01*
X125811653Y-66402099D01*
X125475893Y-66806152D01*
X125180152Y-67274395D01*
X125058270Y-67509604D01*
X124940307Y-67773400D01*
X124850029Y-68030012D01*
X124783343Y-68297761D01*
X124736154Y-68594968D01*
X124704367Y-68939955D01*
X124692461Y-69146466D01*
X124664334Y-69590629D01*
X124625713Y-69969308D01*
X124575060Y-70292766D01*
X124510837Y-70571267D01*
X124449832Y-70765296D01*
X124393142Y-70943147D01*
X124340834Y-71138481D01*
X124312253Y-71268739D01*
X124275358Y-71426128D01*
X124227963Y-71577155D01*
X124191703Y-71664725D01*
X124151966Y-71759771D01*
X124134464Y-71856141D01*
X124136038Y-71982132D01*
X124136038Y-71982132D01*
G37*
X124136038Y-71982132D02*
X124144879Y-72084244D01*
X124198239Y-72342699D01*
X124303283Y-72547893D01*
X124463831Y-72705954D01*
X124574641Y-72773707D01*
X124757083Y-72906748D01*
X124925285Y-73100509D01*
X125083109Y-73287171D01*
X125250449Y-73419334D01*
X125448072Y-73509191D01*
X125696744Y-73568930D01*
X125733725Y-73575091D01*
X126048964Y-73625567D01*
X126172024Y-73486417D01*
X126247864Y-73381762D01*
X126288093Y-73269223D01*
X126294589Y-73131144D01*
X126269229Y-72949868D01*
X126242355Y-72825235D01*
X126165603Y-72537311D01*
X126076304Y-72273412D01*
X125979651Y-72045219D01*
X125880836Y-71864412D01*
X125785052Y-71742672D01*
X125747620Y-71712385D01*
X125666733Y-71623915D01*
X125649909Y-71552288D01*
X125642372Y-71467424D01*
X125622579Y-71336040D01*
X125594759Y-71186089D01*
X125593788Y-71181320D01*
X125574277Y-71068901D01*
X125561415Y-70947348D01*
X125554912Y-70803234D01*
X125554476Y-70623131D01*
X125559816Y-70393610D01*
X125570465Y-70105526D01*
X125594132Y-69679011D01*
X125630008Y-69313390D01*
X125682153Y-68993718D01*
X125754629Y-68705048D01*
X125851498Y-68432435D01*
X125976821Y-68160933D01*
X126134660Y-67875595D01*
X126210709Y-67749521D01*
X126316750Y-67581334D01*
X126403052Y-67460347D01*
X126487574Y-67367452D01*
X126588275Y-67283537D01*
X126723112Y-67189494D01*
X126760069Y-67164932D01*
X126906387Y-67069189D01*
X127008872Y-67008805D01*
X127087270Y-66976998D01*
X127161330Y-66966989D01*
X127250799Y-66971999D01*
X127305206Y-66977769D01*
X127537640Y-67036453D01*
X127769089Y-67154580D01*
X127975229Y-67318974D01*
X128018534Y-67364180D01*
X128068577Y-67434570D01*
X128144741Y-67560379D01*
X128239978Y-67728341D01*
X128347239Y-67925189D01*
X128459475Y-68137655D01*
X128569638Y-68352475D01*
X128670678Y-68556380D01*
X128755547Y-68736104D01*
X128796238Y-68827898D01*
X128858330Y-68958737D01*
X128945609Y-69124591D01*
X129042405Y-69296063D01*
X129074976Y-69350876D01*
X129159969Y-69504727D01*
X129260160Y-69706401D01*
X129364305Y-69932176D01*
X129461161Y-70158328D01*
X129481657Y-70208985D01*
X129627427Y-70550543D01*
X129779610Y-70864406D01*
X129931037Y-71137149D01*
X130074542Y-71355347D01*
X130134925Y-71432524D01*
X130207051Y-71535892D01*
X130279175Y-71665491D01*
X130298820Y-71707298D01*
X130383709Y-71846863D01*
X130494944Y-71928880D01*
X130500079Y-71931179D01*
X130584701Y-71981514D01*
X130704243Y-72069287D01*
X130838492Y-72179224D01*
X130900141Y-72233504D01*
X131045652Y-72355148D01*
X131198073Y-72466827D01*
X131331682Y-72550170D01*
X131371895Y-72570463D01*
X131485578Y-72624045D01*
X131645263Y-72701761D01*
X131829106Y-72792885D01*
X132002259Y-72880075D01*
X132185134Y-72971639D01*
X132319444Y-73033413D01*
X132424076Y-73071221D01*
X132517918Y-73090885D01*
X132619855Y-73098230D01*
X132712788Y-73099157D01*
X132953619Y-73088329D01*
X133148976Y-73050379D01*
X133327434Y-72976479D01*
X133517568Y-72857803D01*
X133535772Y-72844950D01*
X133679439Y-72748974D01*
X133825850Y-72661101D01*
X133942887Y-72600559D01*
X134117866Y-72484563D01*
X134247244Y-72340442D01*
X134338039Y-72227840D01*
X134427979Y-72133879D01*
X134477870Y-72092883D01*
X134564828Y-72015085D01*
X134674186Y-71886712D01*
X134793066Y-71724814D01*
X134908590Y-71546445D01*
X134968120Y-71443726D01*
X135063012Y-71229471D01*
X135145406Y-70951570D01*
X135216280Y-70606032D01*
X135276610Y-70188869D01*
X135277469Y-70181802D01*
X135303028Y-69975283D01*
X135328414Y-69777501D01*
X135350723Y-69610646D01*
X135367051Y-69496906D01*
X135367299Y-69495315D01*
X135379419Y-69333542D01*
X135373562Y-69161420D01*
X135367780Y-69113934D01*
X135353371Y-69000831D01*
X135335789Y-68834160D01*
X135317264Y-68636434D01*
X135300152Y-68431746D01*
X135278809Y-68217099D01*
X135249677Y-68003198D01*
X135216705Y-67815803D01*
X135186106Y-67688052D01*
X135143719Y-67541522D01*
X135108013Y-67408896D01*
X135088416Y-67326575D01*
X135065072Y-67252493D01*
X135019265Y-67231258D01*
X134946752Y-67241217D01*
X134800441Y-67298094D01*
X134712326Y-67394651D01*
X134688648Y-67498974D01*
X134702265Y-67580203D01*
X134751599Y-67607014D01*
X134764045Y-67607478D01*
X134836933Y-67633064D01*
X134903936Y-67714701D01*
X134969716Y-67859707D01*
X135019078Y-68007928D01*
X135042920Y-68097318D01*
X135060525Y-68194435D01*
X135072657Y-68311776D01*
X135080077Y-68461837D01*
X135083547Y-68657116D01*
X135083829Y-68910108D01*
X135083049Y-69056727D01*
X135077976Y-69409972D01*
X135066624Y-69703709D01*
X135047033Y-69954586D01*
X135017243Y-70179248D01*
X134975294Y-70394343D01*
X134919227Y-70616515D01*
X134885478Y-70734805D01*
X134820237Y-70931298D01*
X134740593Y-71132391D01*
X134653891Y-71323148D01*
X134567473Y-71488632D01*
X134488682Y-71613908D01*
X134424861Y-71684038D01*
X134416244Y-71689291D01*
X134336739Y-71739422D01*
X134228558Y-71818809D01*
X134154323Y-71878076D01*
X134024936Y-71975795D01*
X133886797Y-72066051D01*
X133821675Y-72102572D01*
X133687823Y-72182119D01*
X133557168Y-72276698D01*
X133530995Y-72298703D01*
X133399670Y-72385401D01*
X133288007Y-72412883D01*
X133189911Y-72425370D01*
X133055245Y-72457588D01*
X132953888Y-72488979D01*
X132732713Y-72565074D01*
X132423518Y-72463355D01*
X132218035Y-72385132D01*
X132061431Y-72297857D01*
X131942702Y-72202054D01*
X131817873Y-72101535D01*
X131682332Y-72015414D01*
X131606382Y-71979044D01*
X131483194Y-71919963D01*
X131339048Y-71834446D01*
X131244070Y-71769197D01*
X131117217Y-71678552D01*
X130994506Y-71596279D01*
X130923914Y-71552781D01*
X130819909Y-71462632D01*
X130777825Y-71375577D01*
X130742977Y-71284136D01*
X130678719Y-71164234D01*
X130628075Y-71084902D01*
X130535264Y-70939685D01*
X130439900Y-70774833D01*
X130397186Y-70694170D01*
X130318869Y-70548774D01*
X130233145Y-70403765D01*
X130188226Y-70334354D01*
X130128076Y-70225326D01*
X130060903Y-70071193D01*
X129998908Y-69900665D01*
X129984493Y-69855054D01*
X129924701Y-69683986D01*
X129854477Y-69520625D01*
X129786720Y-69394222D01*
X129770865Y-69370696D01*
X129664180Y-69162713D01*
X129620702Y-68989607D01*
X129579113Y-68824062D01*
X129513613Y-68653267D01*
X129475028Y-68577719D01*
X129358142Y-68367041D01*
X129242040Y-68140186D01*
X129133463Y-67912148D01*
X129039154Y-67697918D01*
X128965854Y-67512489D01*
X128920305Y-67370853D01*
X128910086Y-67321442D01*
X128864310Y-67153169D01*
X128771726Y-66946388D01*
X128640202Y-66715774D01*
X128477603Y-66476005D01*
X128406503Y-66381946D01*
X128281067Y-66244598D01*
X128109501Y-66089734D01*
X127912787Y-65936083D01*
X127883051Y-65914754D01*
X127527102Y-65662433D01*
X127173196Y-65662433D01*
X126999414Y-65664575D01*
X126877004Y-65674507D01*
X126781102Y-65697486D01*
X126686846Y-65738771D01*
X126607212Y-65782122D01*
X126188427Y-66061126D01*
X125811653Y-66402099D01*
X125475893Y-66806152D01*
X125180152Y-67274395D01*
X125058270Y-67509604D01*
X124940307Y-67773400D01*
X124850029Y-68030012D01*
X124783343Y-68297761D01*
X124736154Y-68594968D01*
X124704367Y-68939955D01*
X124692461Y-69146466D01*
X124664334Y-69590629D01*
X124625713Y-69969308D01*
X124575060Y-70292766D01*
X124510837Y-70571267D01*
X124449832Y-70765296D01*
X124393142Y-70943147D01*
X124340834Y-71138481D01*
X124312253Y-71268739D01*
X124275358Y-71426128D01*
X124227963Y-71577155D01*
X124191703Y-71664725D01*
X124151966Y-71759771D01*
X124134464Y-71856141D01*
X124136038Y-71982132D01*
G36*
X122198446Y-127645575D02*
G01*
X122245089Y-127810857D01*
X122271885Y-127877043D01*
X122332331Y-128018265D01*
X122404465Y-128190853D01*
X122466577Y-128342463D01*
X122605972Y-128609632D01*
X122782465Y-128811332D01*
X122998449Y-128950017D01*
X123096175Y-128988311D01*
X123307456Y-129058366D01*
X123541503Y-128967381D01*
X123680149Y-128906844D01*
X123771847Y-128843888D01*
X123843491Y-128756975D01*
X123882062Y-128694626D01*
X124029175Y-128505399D01*
X124211759Y-128369543D01*
X124391351Y-128303259D01*
X124515799Y-128266803D01*
X124649706Y-128212353D01*
X124670750Y-128202071D01*
X124833251Y-128128113D01*
X125033843Y-128049032D01*
X125250487Y-127972285D01*
X125461146Y-127905330D01*
X125643782Y-127855624D01*
X125764324Y-127832010D01*
X125896796Y-127809482D01*
X126007473Y-127780943D01*
X126050360Y-127763788D01*
X126146359Y-127726582D01*
X126292770Y-127686316D01*
X126464195Y-127648358D01*
X126635235Y-127618077D01*
X126780494Y-127600840D01*
X126831138Y-127598769D01*
X126946547Y-127579933D01*
X127097838Y-127530691D01*
X127260455Y-127461945D01*
X127409840Y-127384597D01*
X127521437Y-127309548D01*
X127554147Y-127277811D01*
X127628916Y-127231422D01*
X127704756Y-127217388D01*
X127812222Y-127206151D01*
X127933869Y-127178977D01*
X127938449Y-127177627D01*
X128058755Y-127146784D01*
X128223836Y-127111072D01*
X128413122Y-127074189D01*
X128606040Y-127039833D01*
X128782019Y-127011703D01*
X128920488Y-126993495D01*
X128990188Y-126988559D01*
X129101127Y-126972373D01*
X129233483Y-126931778D01*
X129278402Y-126913120D01*
X129401811Y-126866813D01*
X129515259Y-126839696D01*
X129548122Y-126836844D01*
X129643238Y-126822353D01*
X129771309Y-126786311D01*
X129845105Y-126759730D01*
X129992265Y-126714512D01*
X130143853Y-126687165D01*
X130204171Y-126683454D01*
X130346878Y-126669280D01*
X130485537Y-126634364D01*
X130506640Y-126626246D01*
X130635918Y-126589291D01*
X130783448Y-126569893D01*
X130814990Y-126569039D01*
X130955073Y-126553996D01*
X131113112Y-126515905D01*
X131179939Y-126492763D01*
X131307503Y-126449077D01*
X131420264Y-126421478D01*
X131465653Y-126416487D01*
X131546884Y-126403346D01*
X131671982Y-126368859D01*
X131814161Y-126320430D01*
X131817018Y-126319362D01*
X132022176Y-126256436D01*
X132239950Y-126221378D01*
X132419429Y-126209879D01*
X132703311Y-126184800D01*
X132934925Y-126133321D01*
X132972432Y-126120483D01*
X133130948Y-126070055D01*
X133315201Y-126022422D01*
X133430090Y-125998352D01*
X133572501Y-125972250D01*
X133695076Y-125949441D01*
X133762634Y-125936541D01*
X133847006Y-125949180D01*
X133910528Y-126016349D01*
X133943243Y-126086165D01*
X133955915Y-126175557D01*
X133948063Y-126299377D01*
X133919207Y-126472475D01*
X133891394Y-126607177D01*
X133876048Y-126708346D01*
X133859716Y-126866204D01*
X133844108Y-127061210D01*
X133830931Y-127273825D01*
X133828009Y-127331802D01*
X133818476Y-127565626D01*
X133816174Y-127741286D01*
X133822012Y-127876632D01*
X133836902Y-127989513D01*
X133861753Y-128097779D01*
X133868288Y-128121476D01*
X133917488Y-128400704D01*
X133914815Y-128598202D01*
X133886809Y-128870048D01*
X133847954Y-129162310D01*
X133802001Y-129451631D01*
X133752700Y-129714651D01*
X133703803Y-129928010D01*
X133697515Y-129951450D01*
X133665032Y-130077078D01*
X133644997Y-130183231D01*
X133636472Y-130290496D01*
X133638520Y-130419464D01*
X133650204Y-130590722D01*
X133662085Y-130729527D01*
X133680327Y-130968867D01*
X133686599Y-131164642D01*
X133680294Y-131348715D01*
X133660807Y-131552945D01*
X133643873Y-131688284D01*
X133604183Y-131939091D01*
X133552128Y-132193125D01*
X133491424Y-132438162D01*
X133425792Y-132661975D01*
X133358950Y-132852342D01*
X133294617Y-132997038D01*
X133236513Y-133083837D01*
X133214292Y-133100351D01*
X133173439Y-133120583D01*
X133141842Y-133146640D01*
X133112659Y-133191851D01*
X133079047Y-133269545D01*
X133034163Y-133393050D01*
X132973009Y-133570316D01*
X132919273Y-133738263D01*
X132891802Y-133861911D01*
X132886689Y-133967015D01*
X132897825Y-134066111D01*
X132957954Y-134310996D01*
X133055105Y-134505592D01*
X133181727Y-134654324D01*
X133281036Y-134759289D01*
X133367480Y-134866439D01*
X133391791Y-134902222D01*
X133486243Y-134992340D01*
X133637630Y-135066538D01*
X133827311Y-135119188D01*
X134036642Y-135144659D01*
X134189242Y-135142997D01*
X134331973Y-135125893D01*
X134433783Y-135090383D01*
X134529914Y-135022210D01*
X134565806Y-134990650D01*
X134662567Y-134906566D01*
X134743640Y-134841834D01*
X134773603Y-134821230D01*
X134855648Y-134734774D01*
X134917499Y-134593764D01*
X134951468Y-134418892D01*
X134955615Y-134331379D01*
X134963807Y-134194477D01*
X134985616Y-134015453D01*
X135016897Y-133826360D01*
X135028646Y-133766947D01*
X135052929Y-133633431D01*
X135072601Y-133484215D01*
X135088420Y-133308053D01*
X135101147Y-133093702D01*
X135111539Y-132829915D01*
X135120355Y-132505447D01*
X135123503Y-132361313D01*
X135133299Y-131974556D01*
X135145984Y-131653499D01*
X135162806Y-131387584D01*
X135185012Y-131166252D01*
X135213851Y-130978946D01*
X135250570Y-130815106D01*
X135296416Y-130664175D01*
X135336997Y-130554475D01*
X135384895Y-130413792D01*
X135433951Y-130239280D01*
X135468120Y-130093554D01*
X135506059Y-129949254D01*
X135567014Y-129760891D01*
X135642305Y-129553781D01*
X135716534Y-129369006D01*
X135909069Y-128914688D01*
X135902646Y-128361608D01*
X135898655Y-128127372D01*
X135891872Y-127845116D01*
X135883087Y-127543013D01*
X135873086Y-127249236D01*
X135867418Y-127102973D01*
X135847626Y-126738480D01*
X135820644Y-126431474D01*
X135787203Y-126189350D01*
X135767683Y-126092312D01*
X135718221Y-125793177D01*
X135717637Y-125558379D01*
X135723495Y-125338538D01*
X135701407Y-125146554D01*
X135654398Y-124998688D01*
X135599126Y-124921547D01*
X135515524Y-124887525D01*
X135380631Y-124871708D01*
X135216865Y-124872682D01*
X135046645Y-124889036D01*
X134892391Y-124919357D01*
X134776521Y-124962234D01*
X134756356Y-124974626D01*
X134632277Y-125027988D01*
X134527527Y-125024274D01*
X134394426Y-125023677D01*
X134242463Y-125058153D01*
X134235730Y-125060503D01*
X134095837Y-125098235D01*
X133954691Y-125118621D01*
X133922502Y-125119790D01*
X133801399Y-125134511D01*
X133654230Y-125172079D01*
X133574520Y-125200155D01*
X133424422Y-125247060D01*
X133245101Y-125276201D01*
X133014340Y-125291070D01*
X132991501Y-125291792D01*
X132697577Y-125312019D01*
X132405705Y-125352873D01*
X132140029Y-125410056D01*
X131924695Y-125479268D01*
X131914100Y-125483628D01*
X131854105Y-125501893D01*
X131766379Y-125515945D01*
X131641937Y-125526242D01*
X131471799Y-125533243D01*
X131246982Y-125537407D01*
X130958503Y-125539191D01*
X130822504Y-125539341D01*
X130493742Y-125540508D01*
X130229956Y-125544370D01*
X130019877Y-125551502D01*
X129852233Y-125562477D01*
X129715755Y-125577871D01*
X129599172Y-125598258D01*
X129578138Y-125602788D01*
X129414972Y-125631336D01*
X129221092Y-125650071D01*
X128985243Y-125659437D01*
X128696167Y-125659878D01*
X128342610Y-125651840D01*
X128338648Y-125651716D01*
X128239919Y-125652880D01*
X128095567Y-125659823D01*
X127922595Y-125671126D01*
X127738009Y-125685371D01*
X127558812Y-125701142D01*
X127402008Y-125717019D01*
X127284603Y-125731585D01*
X127223600Y-125743421D01*
X127220190Y-125744980D01*
X127158842Y-125750484D01*
X127087384Y-125732773D01*
X126973167Y-125718576D01*
X126814601Y-125750537D01*
X126811155Y-125751570D01*
X126667067Y-125785320D01*
X126522998Y-125804565D01*
X126480380Y-125806276D01*
X126361188Y-125817045D01*
X126262957Y-125843474D01*
X126252375Y-125848559D01*
X126187442Y-125867655D01*
X126106929Y-125851975D01*
X126000563Y-125804539D01*
X125885025Y-125758234D01*
X125741092Y-125724226D01*
X125550386Y-125698865D01*
X125405125Y-125686223D01*
X125205391Y-125670391D01*
X125007856Y-125653536D01*
X124840490Y-125638098D01*
X124761995Y-125630076D01*
X124627006Y-125620148D01*
X124541248Y-125629828D01*
X124479290Y-125663117D01*
X124462815Y-125677148D01*
X124406922Y-125721449D01*
X124366006Y-125718398D01*
X124310592Y-125662813D01*
X124297953Y-125648166D01*
X124183846Y-125545653D01*
X124077572Y-125516935D01*
X123972507Y-125560911D01*
X123939648Y-125588661D01*
X123892824Y-125628122D01*
X123839554Y-125659191D01*
X123767965Y-125684562D01*
X123666184Y-125706930D01*
X123522337Y-125728991D01*
X123324551Y-125753439D01*
X123104823Y-125778147D01*
X122676404Y-125825345D01*
X122524494Y-126027700D01*
X122426160Y-126177340D01*
X122349995Y-126341117D01*
X122290367Y-126536077D01*
X122241647Y-126779266D01*
X122213402Y-126969490D01*
X122183781Y-127243177D01*
X122178403Y-127462444D01*
X122198446Y-127645575D01*
X122198446Y-127645575D01*
G37*
X122198446Y-127645575D02*
X122245089Y-127810857D01*
X122271885Y-127877043D01*
X122332331Y-128018265D01*
X122404465Y-128190853D01*
X122466577Y-128342463D01*
X122605972Y-128609632D01*
X122782465Y-128811332D01*
X122998449Y-128950017D01*
X123096175Y-128988311D01*
X123307456Y-129058366D01*
X123541503Y-128967381D01*
X123680149Y-128906844D01*
X123771847Y-128843888D01*
X123843491Y-128756975D01*
X123882062Y-128694626D01*
X124029175Y-128505399D01*
X124211759Y-128369543D01*
X124391351Y-128303259D01*
X124515799Y-128266803D01*
X124649706Y-128212353D01*
X124670750Y-128202071D01*
X124833251Y-128128113D01*
X125033843Y-128049032D01*
X125250487Y-127972285D01*
X125461146Y-127905330D01*
X125643782Y-127855624D01*
X125764324Y-127832010D01*
X125896796Y-127809482D01*
X126007473Y-127780943D01*
X126050360Y-127763788D01*
X126146359Y-127726582D01*
X126292770Y-127686316D01*
X126464195Y-127648358D01*
X126635235Y-127618077D01*
X126780494Y-127600840D01*
X126831138Y-127598769D01*
X126946547Y-127579933D01*
X127097838Y-127530691D01*
X127260455Y-127461945D01*
X127409840Y-127384597D01*
X127521437Y-127309548D01*
X127554147Y-127277811D01*
X127628916Y-127231422D01*
X127704756Y-127217388D01*
X127812222Y-127206151D01*
X127933869Y-127178977D01*
X127938449Y-127177627D01*
X128058755Y-127146784D01*
X128223836Y-127111072D01*
X128413122Y-127074189D01*
X128606040Y-127039833D01*
X128782019Y-127011703D01*
X128920488Y-126993495D01*
X128990188Y-126988559D01*
X129101127Y-126972373D01*
X129233483Y-126931778D01*
X129278402Y-126913120D01*
X129401811Y-126866813D01*
X129515259Y-126839696D01*
X129548122Y-126836844D01*
X129643238Y-126822353D01*
X129771309Y-126786311D01*
X129845105Y-126759730D01*
X129992265Y-126714512D01*
X130143853Y-126687165D01*
X130204171Y-126683454D01*
X130346878Y-126669280D01*
X130485537Y-126634364D01*
X130506640Y-126626246D01*
X130635918Y-126589291D01*
X130783448Y-126569893D01*
X130814990Y-126569039D01*
X130955073Y-126553996D01*
X131113112Y-126515905D01*
X131179939Y-126492763D01*
X131307503Y-126449077D01*
X131420264Y-126421478D01*
X131465653Y-126416487D01*
X131546884Y-126403346D01*
X131671982Y-126368859D01*
X131814161Y-126320430D01*
X131817018Y-126319362D01*
X132022176Y-126256436D01*
X132239950Y-126221378D01*
X132419429Y-126209879D01*
X132703311Y-126184800D01*
X132934925Y-126133321D01*
X132972432Y-126120483D01*
X133130948Y-126070055D01*
X133315201Y-126022422D01*
X133430090Y-125998352D01*
X133572501Y-125972250D01*
X133695076Y-125949441D01*
X133762634Y-125936541D01*
X133847006Y-125949180D01*
X133910528Y-126016349D01*
X133943243Y-126086165D01*
X133955915Y-126175557D01*
X133948063Y-126299377D01*
X133919207Y-126472475D01*
X133891394Y-126607177D01*
X133876048Y-126708346D01*
X133859716Y-126866204D01*
X133844108Y-127061210D01*
X133830931Y-127273825D01*
X133828009Y-127331802D01*
X133818476Y-127565626D01*
X133816174Y-127741286D01*
X133822012Y-127876632D01*
X133836902Y-127989513D01*
X133861753Y-128097779D01*
X133868288Y-128121476D01*
X133917488Y-128400704D01*
X133914815Y-128598202D01*
X133886809Y-128870048D01*
X133847954Y-129162310D01*
X133802001Y-129451631D01*
X133752700Y-129714651D01*
X133703803Y-129928010D01*
X133697515Y-129951450D01*
X133665032Y-130077078D01*
X133644997Y-130183231D01*
X133636472Y-130290496D01*
X133638520Y-130419464D01*
X133650204Y-130590722D01*
X133662085Y-130729527D01*
X133680327Y-130968867D01*
X133686599Y-131164642D01*
X133680294Y-131348715D01*
X133660807Y-131552945D01*
X133643873Y-131688284D01*
X133604183Y-131939091D01*
X133552128Y-132193125D01*
X133491424Y-132438162D01*
X133425792Y-132661975D01*
X133358950Y-132852342D01*
X133294617Y-132997038D01*
X133236513Y-133083837D01*
X133214292Y-133100351D01*
X133173439Y-133120583D01*
X133141842Y-133146640D01*
X133112659Y-133191851D01*
X133079047Y-133269545D01*
X133034163Y-133393050D01*
X132973009Y-133570316D01*
X132919273Y-133738263D01*
X132891802Y-133861911D01*
X132886689Y-133967015D01*
X132897825Y-134066111D01*
X132957954Y-134310996D01*
X133055105Y-134505592D01*
X133181727Y-134654324D01*
X133281036Y-134759289D01*
X133367480Y-134866439D01*
X133391791Y-134902222D01*
X133486243Y-134992340D01*
X133637630Y-135066538D01*
X133827311Y-135119188D01*
X134036642Y-135144659D01*
X134189242Y-135142997D01*
X134331973Y-135125893D01*
X134433783Y-135090383D01*
X134529914Y-135022210D01*
X134565806Y-134990650D01*
X134662567Y-134906566D01*
X134743640Y-134841834D01*
X134773603Y-134821230D01*
X134855648Y-134734774D01*
X134917499Y-134593764D01*
X134951468Y-134418892D01*
X134955615Y-134331379D01*
X134963807Y-134194477D01*
X134985616Y-134015453D01*
X135016897Y-133826360D01*
X135028646Y-133766947D01*
X135052929Y-133633431D01*
X135072601Y-133484215D01*
X135088420Y-133308053D01*
X135101147Y-133093702D01*
X135111539Y-132829915D01*
X135120355Y-132505447D01*
X135123503Y-132361313D01*
X135133299Y-131974556D01*
X135145984Y-131653499D01*
X135162806Y-131387584D01*
X135185012Y-131166252D01*
X135213851Y-130978946D01*
X135250570Y-130815106D01*
X135296416Y-130664175D01*
X135336997Y-130554475D01*
X135384895Y-130413792D01*
X135433951Y-130239280D01*
X135468120Y-130093554D01*
X135506059Y-129949254D01*
X135567014Y-129760891D01*
X135642305Y-129553781D01*
X135716534Y-129369006D01*
X135909069Y-128914688D01*
X135902646Y-128361608D01*
X135898655Y-128127372D01*
X135891872Y-127845116D01*
X135883087Y-127543013D01*
X135873086Y-127249236D01*
X135867418Y-127102973D01*
X135847626Y-126738480D01*
X135820644Y-126431474D01*
X135787203Y-126189350D01*
X135767683Y-126092312D01*
X135718221Y-125793177D01*
X135717637Y-125558379D01*
X135723495Y-125338538D01*
X135701407Y-125146554D01*
X135654398Y-124998688D01*
X135599126Y-124921547D01*
X135515524Y-124887525D01*
X135380631Y-124871708D01*
X135216865Y-124872682D01*
X135046645Y-124889036D01*
X134892391Y-124919357D01*
X134776521Y-124962234D01*
X134756356Y-124974626D01*
X134632277Y-125027988D01*
X134527527Y-125024274D01*
X134394426Y-125023677D01*
X134242463Y-125058153D01*
X134235730Y-125060503D01*
X134095837Y-125098235D01*
X133954691Y-125118621D01*
X133922502Y-125119790D01*
X133801399Y-125134511D01*
X133654230Y-125172079D01*
X133574520Y-125200155D01*
X133424422Y-125247060D01*
X133245101Y-125276201D01*
X133014340Y-125291070D01*
X132991501Y-125291792D01*
X132697577Y-125312019D01*
X132405705Y-125352873D01*
X132140029Y-125410056D01*
X131924695Y-125479268D01*
X131914100Y-125483628D01*
X131854105Y-125501893D01*
X131766379Y-125515945D01*
X131641937Y-125526242D01*
X131471799Y-125533243D01*
X131246982Y-125537407D01*
X130958503Y-125539191D01*
X130822504Y-125539341D01*
X130493742Y-125540508D01*
X130229956Y-125544370D01*
X130019877Y-125551502D01*
X129852233Y-125562477D01*
X129715755Y-125577871D01*
X129599172Y-125598258D01*
X129578138Y-125602788D01*
X129414972Y-125631336D01*
X129221092Y-125650071D01*
X128985243Y-125659437D01*
X128696167Y-125659878D01*
X128342610Y-125651840D01*
X128338648Y-125651716D01*
X128239919Y-125652880D01*
X128095567Y-125659823D01*
X127922595Y-125671126D01*
X127738009Y-125685371D01*
X127558812Y-125701142D01*
X127402008Y-125717019D01*
X127284603Y-125731585D01*
X127223600Y-125743421D01*
X127220190Y-125744980D01*
X127158842Y-125750484D01*
X127087384Y-125732773D01*
X126973167Y-125718576D01*
X126814601Y-125750537D01*
X126811155Y-125751570D01*
X126667067Y-125785320D01*
X126522998Y-125804565D01*
X126480380Y-125806276D01*
X126361188Y-125817045D01*
X126262957Y-125843474D01*
X126252375Y-125848559D01*
X126187442Y-125867655D01*
X126106929Y-125851975D01*
X126000563Y-125804539D01*
X125885025Y-125758234D01*
X125741092Y-125724226D01*
X125550386Y-125698865D01*
X125405125Y-125686223D01*
X125205391Y-125670391D01*
X125007856Y-125653536D01*
X124840490Y-125638098D01*
X124761995Y-125630076D01*
X124627006Y-125620148D01*
X124541248Y-125629828D01*
X124479290Y-125663117D01*
X124462815Y-125677148D01*
X124406922Y-125721449D01*
X124366006Y-125718398D01*
X124310592Y-125662813D01*
X124297953Y-125648166D01*
X124183846Y-125545653D01*
X124077572Y-125516935D01*
X123972507Y-125560911D01*
X123939648Y-125588661D01*
X123892824Y-125628122D01*
X123839554Y-125659191D01*
X123767965Y-125684562D01*
X123666184Y-125706930D01*
X123522337Y-125728991D01*
X123324551Y-125753439D01*
X123104823Y-125778147D01*
X122676404Y-125825345D01*
X122524494Y-126027700D01*
X122426160Y-126177340D01*
X122349995Y-126341117D01*
X122290367Y-126536077D01*
X122241647Y-126779266D01*
X122213402Y-126969490D01*
X122183781Y-127243177D01*
X122178403Y-127462444D01*
X122198446Y-127645575D01*
G36*
X122801368Y-93055300D02*
G01*
X122827482Y-93603170D01*
X122870229Y-94084441D01*
X122930994Y-94507249D01*
X123011159Y-94879730D01*
X123112110Y-95210023D01*
X123208299Y-95448318D01*
X123297189Y-95646395D01*
X123396362Y-95869555D01*
X123486138Y-96073491D01*
X123496261Y-96096667D01*
X123566235Y-96246798D01*
X123633723Y-96374050D01*
X123688029Y-96458909D01*
X123705298Y-96478048D01*
X123771094Y-96552947D01*
X123832117Y-96649670D01*
X123888933Y-96729828D01*
X123992329Y-96847882D01*
X124130790Y-96992303D01*
X124292798Y-97151560D01*
X124466837Y-97314124D01*
X124641393Y-97468464D01*
X124696456Y-97515049D01*
X124982536Y-97726317D01*
X125281055Y-97889064D01*
X125599195Y-98004145D01*
X125944139Y-98072414D01*
X126323070Y-98094726D01*
X126743171Y-98071934D01*
X127211623Y-98004894D01*
X127735611Y-97894458D01*
X127785645Y-97882443D01*
X128031564Y-97821276D01*
X128221033Y-97769167D01*
X128372249Y-97719478D01*
X128503406Y-97665574D01*
X128632701Y-97600819D01*
X128769851Y-97523515D01*
X128973100Y-97412313D01*
X129126475Y-97345148D01*
X129239389Y-97318063D01*
X129261025Y-97317087D01*
X129375362Y-97298158D01*
X129487237Y-97232533D01*
X129543783Y-97184722D01*
X129659019Y-97095269D01*
X129807456Y-96999142D01*
X129925077Y-96933840D01*
X130081743Y-96842743D01*
X130241101Y-96731281D01*
X130336190Y-96652484D01*
X130450174Y-96558069D01*
X130562088Y-96482766D01*
X130628028Y-96450636D01*
X130793938Y-96373606D01*
X130998764Y-96243626D01*
X131233436Y-96067034D01*
X131488885Y-95850172D01*
X131495904Y-95843890D01*
X131658582Y-95700273D01*
X131829837Y-95552632D01*
X131985443Y-95421695D01*
X132069707Y-95352973D01*
X132209624Y-95235003D01*
X132371883Y-95088245D01*
X132545639Y-94923620D01*
X132720049Y-94752050D01*
X132884268Y-94584455D01*
X133027451Y-94431757D01*
X133138755Y-94304878D01*
X133207336Y-94214739D01*
X133217899Y-94196612D01*
X133296932Y-94089020D01*
X133401332Y-93999868D01*
X133408417Y-93995552D01*
X133516273Y-93909092D01*
X133652202Y-93763187D01*
X133809193Y-93566125D01*
X133980237Y-93326191D01*
X134002313Y-93293514D01*
X134084487Y-93182708D01*
X134201486Y-93039563D01*
X134334802Y-92886268D01*
X134415798Y-92797718D01*
X134559109Y-92638865D01*
X134706005Y-92466682D01*
X134833811Y-92308103D01*
X134884799Y-92240512D01*
X135073293Y-92013022D01*
X135307861Y-91788650D01*
X135601824Y-91554673D01*
X135606011Y-91551575D01*
X135706670Y-91469425D01*
X135829416Y-91358649D01*
X135924380Y-91266428D01*
X136107218Y-91081502D01*
X136220762Y-91214985D01*
X136312109Y-91335751D01*
X136394506Y-91465714D01*
X136408498Y-91491487D01*
X136466011Y-91580264D01*
X136520700Y-91630379D01*
X136535392Y-91634505D01*
X136579205Y-91602046D01*
X136624759Y-91524243D01*
X136658391Y-91430457D01*
X136666736Y-91352312D01*
X136658390Y-91291188D01*
X136643370Y-91186666D01*
X136636341Y-91138709D01*
X136591941Y-90989551D01*
X136498894Y-90798082D01*
X136413251Y-90653891D01*
X136330272Y-90514465D01*
X136268767Y-90395486D01*
X136236848Y-90313552D01*
X136235141Y-90289407D01*
X136234256Y-90222599D01*
X136206614Y-90124650D01*
X136199455Y-90106808D01*
X136148285Y-90015538D01*
X136083831Y-89979314D01*
X136036113Y-89975496D01*
X135992075Y-89971008D01*
X135952557Y-89950741D01*
X135910294Y-89904489D01*
X135858017Y-89822046D01*
X135788459Y-89693204D01*
X135694355Y-89507760D01*
X135673725Y-89466533D01*
X135561695Y-89247912D01*
X135438972Y-89017414D01*
X135319598Y-88800916D01*
X135217617Y-88624296D01*
X135207602Y-88607650D01*
X135114142Y-88447830D01*
X135031968Y-88297601D01*
X134972102Y-88177627D01*
X134950153Y-88125021D01*
X134894998Y-88023933D01*
X134803533Y-87909488D01*
X134739324Y-87846053D01*
X134623697Y-87724802D01*
X134575983Y-87624686D01*
X134574234Y-87603709D01*
X134556954Y-87534412D01*
X134509377Y-87411156D01*
X134437898Y-87246856D01*
X134348912Y-87054425D01*
X134248813Y-86846776D01*
X134143996Y-86636824D01*
X134040855Y-86437482D01*
X133945785Y-86261664D01*
X133865181Y-86122282D01*
X133805437Y-86032252D01*
X133784620Y-86009129D01*
X133727572Y-85950201D01*
X133708259Y-85883388D01*
X133718037Y-85776786D01*
X133719375Y-85768332D01*
X133759392Y-85626562D01*
X133823913Y-85489781D01*
X133836656Y-85469812D01*
X133915760Y-85345173D01*
X133985627Y-85214372D01*
X134050764Y-85065324D01*
X134115675Y-84885947D01*
X134184867Y-84664156D01*
X134262846Y-84387868D01*
X134321069Y-84170720D01*
X134406021Y-83839158D01*
X134466592Y-83579284D01*
X134502749Y-83391259D01*
X134514459Y-83275243D01*
X134512318Y-83249175D01*
X134510253Y-83159086D01*
X134547597Y-83060835D01*
X134608162Y-82964197D01*
X134728297Y-82729530D01*
X134811403Y-82429109D01*
X134857348Y-82063937D01*
X134865998Y-81635021D01*
X134842354Y-81202072D01*
X134807418Y-80868940D01*
X134762518Y-80599014D01*
X134704586Y-80379534D01*
X134630557Y-80197741D01*
X134578335Y-80103397D01*
X134525954Y-79997812D01*
X134471061Y-79856590D01*
X134441622Y-79764714D01*
X134402658Y-79644472D01*
X134366317Y-79556834D01*
X134345373Y-79525626D01*
X134315443Y-79481281D01*
X134271365Y-79386928D01*
X134231607Y-79286558D01*
X134106100Y-79049639D01*
X133985961Y-78914371D01*
X133900704Y-78830938D01*
X133849086Y-78760562D01*
X133819932Y-78677710D01*
X133802068Y-78556848D01*
X133794029Y-78475783D01*
X133752655Y-78175121D01*
X133684107Y-77908885D01*
X133579503Y-77652924D01*
X133429959Y-77383090D01*
X133340640Y-77243115D01*
X133223184Y-77068538D01*
X133125798Y-76936977D01*
X133030877Y-76830029D01*
X132920817Y-76729289D01*
X132778013Y-76616352D01*
X132649165Y-76520201D01*
X132413770Y-76354334D01*
X132225517Y-76239824D01*
X132078518Y-76173198D01*
X132041363Y-76161972D01*
X131907671Y-76113216D01*
X131789267Y-76046943D01*
X131752159Y-76017078D01*
X131689049Y-75969389D01*
X131601031Y-75929897D01*
X131472544Y-75893463D01*
X131288029Y-75854950D01*
X131226591Y-75843529D01*
X131038686Y-75810360D01*
X130908886Y-75791748D01*
X130820538Y-75787109D01*
X130756989Y-75795860D01*
X130701587Y-75817418D01*
X130687277Y-75824626D01*
X130577794Y-75861020D01*
X130439280Y-75881932D01*
X130390467Y-75883866D01*
X130238013Y-75896468D01*
X130124359Y-75917832D01*
X130124359Y-77552862D01*
X130197951Y-77565275D01*
X130300590Y-77602353D01*
X130392184Y-77632303D01*
X130488467Y-77650550D01*
X130607901Y-77658442D01*
X130768943Y-77657326D01*
X130955532Y-77650156D01*
X131427837Y-77628563D01*
X131689203Y-77754296D01*
X131886484Y-77869367D01*
X132120708Y-78041351D01*
X132356621Y-78240008D01*
X132585413Y-78443577D01*
X132764522Y-78605186D01*
X132901919Y-78732816D01*
X133005576Y-78834447D01*
X133083463Y-78918061D01*
X133143550Y-78991638D01*
X133193810Y-79063160D01*
X133220330Y-79104800D01*
X133325905Y-79277940D01*
X133396495Y-79405076D01*
X133439070Y-79503905D01*
X133460598Y-79592123D01*
X133468048Y-79687428D01*
X133468660Y-79735406D01*
X133492238Y-79960055D01*
X133558360Y-80223890D01*
X133661680Y-80506730D01*
X133691079Y-80574445D01*
X133750466Y-80782764D01*
X133769676Y-81047418D01*
X133748462Y-81359755D01*
X133718829Y-81552289D01*
X133692444Y-81711355D01*
X133672926Y-81855535D01*
X133663985Y-81956907D01*
X133663787Y-81966487D01*
X133656189Y-82087213D01*
X133638706Y-82216513D01*
X133634177Y-82315295D01*
X133643109Y-82462886D01*
X133663584Y-82633384D01*
X133674680Y-82702791D01*
X133722171Y-83041389D01*
X133736336Y-83326621D01*
X133716504Y-83574053D01*
X133662010Y-83799250D01*
X133623086Y-83904648D01*
X133561109Y-84064356D01*
X133505518Y-84221976D01*
X133468149Y-84343914D01*
X133467637Y-84345883D01*
X133402438Y-84497833D01*
X133280038Y-84652450D01*
X133240492Y-84692299D01*
X133141174Y-84786274D01*
X133078075Y-84833554D01*
X133034082Y-84841975D01*
X132992080Y-84819370D01*
X132981330Y-84810951D01*
X132893797Y-84711470D01*
X132798134Y-84552519D01*
X132702416Y-84349164D01*
X132624276Y-84144654D01*
X132557746Y-83977819D01*
X132483614Y-83857788D01*
X132383695Y-83755826D01*
X132371756Y-83745662D01*
X132274376Y-83655345D01*
X132225629Y-83580101D01*
X132210145Y-83493515D01*
X132209669Y-83467118D01*
X132201375Y-83369096D01*
X132180906Y-83308783D01*
X132175723Y-83303912D01*
X132145424Y-83260158D01*
X132098304Y-83165341D01*
X132044436Y-83039777D01*
X132043204Y-83036704D01*
X131944632Y-82790475D01*
X132019106Y-82626379D01*
X132051495Y-82541711D01*
X132073288Y-82445342D01*
X132086415Y-82320343D01*
X132092806Y-82149786D01*
X132094372Y-81966487D01*
X132085327Y-81594748D01*
X132055338Y-81288711D01*
X132002083Y-81040105D01*
X131923237Y-80840663D01*
X131816477Y-80682116D01*
X131703017Y-80574091D01*
X131647175Y-80534107D01*
X131594380Y-80515025D01*
X131522744Y-80515561D01*
X131410381Y-80534434D01*
X131324502Y-80551915D01*
X131167974Y-80589287D01*
X131063480Y-80630153D01*
X130987190Y-80685911D01*
X130941974Y-80734899D01*
X130869427Y-80837553D01*
X130820538Y-80935736D01*
X130814496Y-80955826D01*
X130788317Y-81050960D01*
X130749152Y-81176232D01*
X130733586Y-81222793D01*
X130706326Y-81345961D01*
X130684643Y-81529313D01*
X130668747Y-81756945D01*
X130658848Y-82012953D01*
X130655156Y-82281434D01*
X130657881Y-82546485D01*
X130667233Y-82792201D01*
X130683422Y-83002679D01*
X130706659Y-83162016D01*
X130707895Y-83167827D01*
X130771443Y-83402054D01*
X130853565Y-83575753D01*
X130966741Y-83704428D01*
X131123451Y-83803583D01*
X131268998Y-83864940D01*
X131555569Y-83970901D01*
X131730046Y-84293593D01*
X131831489Y-84473492D01*
X131945367Y-84663621D01*
X132050832Y-84829417D01*
X132074407Y-84864427D01*
X132202156Y-85077865D01*
X132270319Y-85262086D01*
X132283191Y-85429556D01*
X132279718Y-85460665D01*
X132250410Y-85528117D01*
X132173324Y-85577874D01*
X132102874Y-85603363D01*
X132011180Y-85627843D01*
X131928075Y-85634204D01*
X131828437Y-85620886D01*
X131687146Y-85586332D01*
X131645216Y-85574971D01*
X131493576Y-85533927D01*
X131293381Y-85480325D01*
X131069874Y-85420895D01*
X130848296Y-85362371D01*
X130832787Y-85358292D01*
X130314012Y-85221896D01*
X130091728Y-85286516D01*
X129802488Y-85334706D01*
X129526509Y-85310246D01*
X129271561Y-85215369D01*
X129045410Y-85052310D01*
X128957936Y-84960599D01*
X128859800Y-84861371D01*
X128773706Y-84815609D01*
X128709010Y-84807778D01*
X128628305Y-84793082D01*
X128536509Y-84742548D01*
X128417737Y-84646509D01*
X128364328Y-84598018D01*
X128238994Y-84487757D01*
X128146021Y-84423326D01*
X128066711Y-84393892D01*
X128002325Y-84388258D01*
X127853708Y-84373519D01*
X127713574Y-84322878D01*
X127559560Y-84226706D01*
X127472006Y-84159845D01*
X127231378Y-83926156D01*
X127040116Y-83644110D01*
X126957748Y-83475887D01*
X126882908Y-83331899D01*
X126792597Y-83194356D01*
X126739700Y-83129700D01*
X126613815Y-82953093D01*
X126520804Y-82739768D01*
X126470272Y-82518081D01*
X126469441Y-82331987D01*
X126474498Y-82137247D01*
X126430048Y-81942321D01*
X126391763Y-81803891D01*
X126385029Y-81690255D01*
X126407312Y-81557973D01*
X126407558Y-81556906D01*
X126433583Y-81417808D01*
X126457961Y-81243617D01*
X126473242Y-81095904D01*
X126517285Y-80808101D01*
X126598504Y-80515030D01*
X126709128Y-80235131D01*
X126841387Y-79986842D01*
X126987510Y-79788601D01*
X127051088Y-79724753D01*
X127106051Y-79652866D01*
X127169604Y-79537513D01*
X127213514Y-79438717D01*
X127301827Y-79264564D01*
X127417809Y-79134509D01*
X127463652Y-79097686D01*
X127579169Y-78992859D01*
X127681555Y-78870537D01*
X127713615Y-78820689D01*
X127797161Y-78705286D01*
X127898317Y-78642174D01*
X127940113Y-78628884D01*
X128064782Y-78559389D01*
X128197808Y-78415519D01*
X128339636Y-78196740D01*
X128408523Y-78069707D01*
X128446715Y-78011609D01*
X128503829Y-77961193D01*
X128594140Y-77909982D01*
X128731928Y-77849497D01*
X128873793Y-77793418D01*
X129140566Y-77700612D01*
X129356893Y-77649759D01*
X129534884Y-77639164D01*
X129686650Y-77667135D01*
X129712319Y-77676211D01*
X129791624Y-77693036D01*
X129874314Y-77672583D01*
X129965641Y-77623786D01*
X130058043Y-77571654D01*
X130124359Y-77552862D01*
X130124359Y-75917832D01*
X130072180Y-75927641D01*
X130016726Y-75942751D01*
X129788193Y-75982962D01*
X129651198Y-75977766D01*
X129476360Y-75954310D01*
X129146257Y-76335527D01*
X128972673Y-76532102D01*
X128836971Y-76675076D01*
X128730516Y-76771301D01*
X128644676Y-76827626D01*
X128570816Y-76850902D01*
X128500406Y-76848001D01*
X128411327Y-76848903D01*
X128373180Y-76889759D01*
X128316906Y-76938014D01*
X128234677Y-76951321D01*
X128110326Y-76978481D01*
X127960655Y-77050086D01*
X127808372Y-77151324D01*
X127676183Y-77267382D01*
X127595635Y-77368165D01*
X127509365Y-77477540D01*
X127389036Y-77592919D01*
X127305593Y-77657472D01*
X127186468Y-77733716D01*
X127091718Y-77772447D01*
X126986374Y-77784067D01*
X126888066Y-77781662D01*
X126665914Y-77771291D01*
X126535614Y-78139107D01*
X126473478Y-78308532D01*
X126425878Y-78418802D01*
X126384683Y-78483593D01*
X126341765Y-78516579D01*
X126304113Y-78528557D01*
X126210649Y-78580929D01*
X126115098Y-78685812D01*
X126031407Y-78821148D01*
X125973525Y-78964877D01*
X125955015Y-79080644D01*
X125947512Y-79169867D01*
X125915518Y-79241303D01*
X125844801Y-79318362D01*
X125771660Y-79382276D01*
X125677927Y-79465758D01*
X125617500Y-79538881D01*
X125577108Y-79626090D01*
X125543483Y-79751829D01*
X125525149Y-79836369D01*
X125489717Y-80015045D01*
X125450088Y-80231365D01*
X125413112Y-80447503D01*
X125401886Y-80517237D01*
X125346907Y-80792304D01*
X125272322Y-81024582D01*
X125205384Y-81174878D01*
X125136605Y-81320247D01*
X125098499Y-81425227D01*
X125085097Y-81516328D01*
X125090428Y-81620059D01*
X125095462Y-81663029D01*
X125162518Y-81951222D01*
X125283634Y-82192769D01*
X125454826Y-82382313D01*
X125672111Y-82514499D01*
X125750521Y-82543744D01*
X125865185Y-82584922D01*
X125926462Y-82625741D01*
X125954644Y-82685580D01*
X125965538Y-82749100D01*
X125998173Y-82856765D01*
X126069305Y-83011420D01*
X126170844Y-83199656D01*
X126294698Y-83408068D01*
X126432779Y-83623248D01*
X126576995Y-83831790D01*
X126719257Y-84020285D01*
X126770643Y-84083299D01*
X126892231Y-84229166D01*
X127005617Y-84366116D01*
X127095723Y-84475890D01*
X127137297Y-84527317D01*
X127228145Y-84614887D01*
X127353150Y-84704359D01*
X127423333Y-84744416D01*
X127572713Y-84826510D01*
X127728368Y-84920645D01*
X127785645Y-84958117D01*
X127960801Y-85049539D01*
X128102948Y-85074582D01*
X128225005Y-85095646D01*
X128369315Y-85161741D01*
X128544037Y-85277595D01*
X128757329Y-85447943D01*
X128779986Y-85467210D01*
X128927613Y-85571154D01*
X129117166Y-85673261D01*
X129326256Y-85764425D01*
X129532492Y-85835543D01*
X129713484Y-85877509D01*
X129806966Y-85884841D01*
X129923579Y-85880512D01*
X130087584Y-85871813D01*
X130270330Y-85860325D01*
X130341690Y-85855343D01*
X130511520Y-85844135D01*
X130627658Y-85842405D01*
X130712471Y-85853855D01*
X130788325Y-85882190D01*
X130877587Y-85931115D01*
X130908324Y-85949181D01*
X131072646Y-86027742D01*
X131268106Y-86094735D01*
X131384261Y-86123068D01*
X131557602Y-86163139D01*
X131734698Y-86213215D01*
X131857300Y-86255125D01*
X132044415Y-86305849D01*
X132260917Y-86330870D01*
X132475846Y-86328952D01*
X132658240Y-86298859D01*
X132690732Y-86288405D01*
X132758211Y-86268169D01*
X132813954Y-86270666D01*
X132877821Y-86303952D01*
X132969670Y-86376084D01*
X133027253Y-86424926D01*
X133134469Y-86517825D01*
X133226024Y-86602166D01*
X133308450Y-86686859D01*
X133388277Y-86780814D01*
X133472038Y-86892940D01*
X133566264Y-87032147D01*
X133677487Y-87207346D01*
X133812237Y-87427445D01*
X133977047Y-87701355D01*
X134039781Y-87806136D01*
X134206197Y-88082588D01*
X134376746Y-88362903D01*
X134542894Y-88633270D01*
X134696108Y-88879879D01*
X134827856Y-89088920D01*
X134929604Y-89246582D01*
X134932432Y-89250871D01*
X135058076Y-89448366D01*
X135182372Y-89656111D01*
X135291671Y-89850541D01*
X135372327Y-90008094D01*
X135377860Y-90019976D01*
X135462975Y-90194684D01*
X135557784Y-90373738D01*
X135644137Y-90523109D01*
X135657957Y-90545116D01*
X135727295Y-90656059D01*
X135776486Y-90739634D01*
X135794654Y-90777137D01*
X135762607Y-90792104D01*
X135719160Y-90795466D01*
X135663434Y-90815746D01*
X135556770Y-90871907D01*
X135411294Y-90956927D01*
X135239135Y-91063782D01*
X135099415Y-91154285D01*
X134828264Y-91339800D01*
X134593198Y-91517674D01*
X134374359Y-91704973D01*
X134151889Y-91918768D01*
X133905928Y-92176127D01*
X133887747Y-92195751D01*
X133809504Y-92272762D01*
X133686940Y-92384472D01*
X133535029Y-92517602D01*
X133368746Y-92658873D01*
X133316465Y-92702373D01*
X133132565Y-92856718D01*
X132942668Y-93019762D01*
X132767479Y-93173506D01*
X132627707Y-93299954D01*
X132610909Y-93315610D01*
X132476920Y-93437571D01*
X132346870Y-93549808D01*
X132241722Y-93634451D01*
X132209669Y-93657717D01*
X132129103Y-93720096D01*
X132010221Y-93821268D01*
X131869446Y-93946909D01*
X131732162Y-94074209D01*
X131450318Y-94335014D01*
X131198916Y-94553187D01*
X130958331Y-94743639D01*
X130708941Y-94921283D01*
X130431120Y-95101030D01*
X130181008Y-95252911D01*
X129973496Y-95377523D01*
X129780167Y-95495680D01*
X129613936Y-95599332D01*
X129487718Y-95680424D01*
X129414646Y-95730739D01*
X129314741Y-95793256D01*
X129225144Y-95827494D01*
X129205617Y-95829700D01*
X129123836Y-95853339D01*
X129029088Y-95911105D01*
X129018526Y-95919618D01*
X128884053Y-96017453D01*
X128701609Y-96130181D01*
X128486699Y-96250170D01*
X128254828Y-96369790D01*
X128021498Y-96481411D01*
X127802214Y-96577403D01*
X127612479Y-96650134D01*
X127467799Y-96691974D01*
X127439257Y-96696881D01*
X127339595Y-96702493D01*
X127187891Y-96701954D01*
X127008100Y-96695620D01*
X126889538Y-96688703D01*
X126710421Y-96675936D01*
X126594328Y-96664206D01*
X126528181Y-96649410D01*
X126498902Y-96627444D01*
X126493412Y-96594203D01*
X126496318Y-96565316D01*
X126515382Y-96507428D01*
X126566984Y-96460008D01*
X126667336Y-96411059D01*
X126746571Y-96380117D01*
X126885439Y-96319000D01*
X127009937Y-96240087D01*
X127142561Y-96127381D01*
X127250060Y-96022064D01*
X127366073Y-95907954D01*
X127464222Y-95817917D01*
X127531245Y-95763778D01*
X127551469Y-95753424D01*
X127583359Y-95722015D01*
X127644015Y-95636222D01*
X127725805Y-95508696D01*
X127821101Y-95352085D01*
X127922274Y-95179041D01*
X128021693Y-95002212D01*
X128111731Y-94834249D01*
X128144719Y-94769778D01*
X128197655Y-94653404D01*
X128266022Y-94487248D01*
X128340856Y-94293800D01*
X128410787Y-94102361D01*
X128483560Y-93889113D01*
X128533732Y-93717064D01*
X128567264Y-93557378D01*
X128590119Y-93381217D01*
X128608259Y-93159747D01*
X128609565Y-93140961D01*
X128635521Y-92670554D01*
X128643373Y-92266631D01*
X128632818Y-91921509D01*
X128603553Y-91627502D01*
X128555276Y-91376925D01*
X128537402Y-91310330D01*
X128486560Y-91124724D01*
X128438625Y-90934807D01*
X128402018Y-90774346D01*
X128394745Y-90738258D01*
X128316565Y-90411862D01*
X128217357Y-90127251D01*
X128101321Y-89892615D01*
X127972659Y-89716143D01*
X127835569Y-89606024D01*
X127807155Y-89592535D01*
X127697601Y-89528532D01*
X127596303Y-89442475D01*
X127594954Y-89441032D01*
X127478558Y-89345828D01*
X127313473Y-89247873D01*
X127125746Y-89159681D01*
X126941422Y-89093768D01*
X126813123Y-89065383D01*
X126690820Y-89041818D01*
X126524771Y-88999818D01*
X126343009Y-88946742D01*
X126262802Y-88920953D01*
X126088054Y-88862875D01*
X126088054Y-90957160D01*
X126167611Y-90976680D01*
X126217861Y-91001282D01*
X126327328Y-91032665D01*
X126466853Y-91034058D01*
X126468388Y-91033887D01*
X126588701Y-91031282D01*
X126666132Y-91062064D01*
X126693004Y-91086855D01*
X126754720Y-91152058D01*
X126847335Y-91247932D01*
X126926947Y-91329400D01*
X127035630Y-91456959D01*
X127148720Y-91616134D01*
X127228480Y-91748919D01*
X127329246Y-91995759D01*
X127366220Y-92250260D01*
X127340820Y-92528374D01*
X127309747Y-92664234D01*
X127256117Y-92815996D01*
X127178691Y-92925723D01*
X127062169Y-93006334D01*
X126891251Y-93070744D01*
X126797690Y-93096557D01*
X126528557Y-93191845D01*
X126296460Y-93325576D01*
X126118824Y-93487358D01*
X126097488Y-93514012D01*
X126037196Y-93625597D01*
X125975896Y-93795706D01*
X125918064Y-94006780D01*
X125868175Y-94241265D01*
X125830706Y-94481605D01*
X125816459Y-94616390D01*
X125806999Y-94779675D01*
X125813715Y-94893555D01*
X125839413Y-94983723D01*
X125861675Y-95030660D01*
X125910101Y-95175854D01*
X125940567Y-95390785D01*
X125947428Y-95493132D01*
X125954018Y-95655615D01*
X125951116Y-95764443D01*
X125934414Y-95842063D01*
X125899603Y-95910921D01*
X125854663Y-95976393D01*
X125754526Y-96086256D01*
X125640556Y-96141804D01*
X125492618Y-96149608D01*
X125374251Y-96133216D01*
X125281676Y-96104808D01*
X125184962Y-96047207D01*
X125067961Y-95949244D01*
X124964380Y-95849718D01*
X124710190Y-95546535D01*
X124504254Y-95195549D01*
X124353895Y-94813325D01*
X124266438Y-94416425D01*
X124249296Y-94232494D01*
X124245331Y-94126750D01*
X124246085Y-94026699D01*
X124253274Y-93921463D01*
X124268615Y-93800168D01*
X124293823Y-93651936D01*
X124330616Y-93465890D01*
X124380708Y-93231154D01*
X124445817Y-92936852D01*
X124472689Y-92816787D01*
X124512004Y-92679021D01*
X124561980Y-92549539D01*
X124575209Y-92522274D01*
X124660196Y-92356623D01*
X124753871Y-92170070D01*
X124841180Y-91992853D01*
X124903277Y-91863333D01*
X124965058Y-91751886D01*
X125047754Y-91645369D01*
X125162202Y-91533358D01*
X125319239Y-91405428D01*
X125529704Y-91251154D01*
X125567371Y-91224520D01*
X125753958Y-91096924D01*
X125894252Y-91012812D01*
X126001276Y-90967714D01*
X126088054Y-90957160D01*
X126088054Y-88862875D01*
X125903171Y-88801427D01*
X125557246Y-88881192D01*
X125379810Y-88919788D01*
X125208061Y-88953217D01*
X125071146Y-88975924D01*
X125037159Y-88980277D01*
X124910089Y-89007500D01*
X124752660Y-89059157D01*
X124617639Y-89115669D01*
X124480379Y-89174338D01*
X124357439Y-89216083D01*
X124276281Y-89231772D01*
X124180441Y-89262226D01*
X124054201Y-89347010D01*
X123908467Y-89476329D01*
X123754145Y-89640391D01*
X123602142Y-89829400D01*
X123585284Y-89852319D01*
X123473197Y-90020689D01*
X123377507Y-90200709D01*
X123286554Y-90416130D01*
X123223325Y-90589614D01*
X123151948Y-90790490D01*
X123079243Y-90988954D01*
X123014080Y-91161132D01*
X122968289Y-91276101D01*
X122894082Y-91507183D01*
X122840643Y-91797230D01*
X122807625Y-92149949D01*
X122794680Y-92569048D01*
X122801368Y-93055300D01*
X122801368Y-93055300D01*
G37*
X122801368Y-93055300D02*
X122827482Y-93603170D01*
X122870229Y-94084441D01*
X122930994Y-94507249D01*
X123011159Y-94879730D01*
X123112110Y-95210023D01*
X123208299Y-95448318D01*
X123297189Y-95646395D01*
X123396362Y-95869555D01*
X123486138Y-96073491D01*
X123496261Y-96096667D01*
X123566235Y-96246798D01*
X123633723Y-96374050D01*
X123688029Y-96458909D01*
X123705298Y-96478048D01*
X123771094Y-96552947D01*
X123832117Y-96649670D01*
X123888933Y-96729828D01*
X123992329Y-96847882D01*
X124130790Y-96992303D01*
X124292798Y-97151560D01*
X124466837Y-97314124D01*
X124641393Y-97468464D01*
X124696456Y-97515049D01*
X124982536Y-97726317D01*
X125281055Y-97889064D01*
X125599195Y-98004145D01*
X125944139Y-98072414D01*
X126323070Y-98094726D01*
X126743171Y-98071934D01*
X127211623Y-98004894D01*
X127735611Y-97894458D01*
X127785645Y-97882443D01*
X128031564Y-97821276D01*
X128221033Y-97769167D01*
X128372249Y-97719478D01*
X128503406Y-97665574D01*
X128632701Y-97600819D01*
X128769851Y-97523515D01*
X128973100Y-97412313D01*
X129126475Y-97345148D01*
X129239389Y-97318063D01*
X129261025Y-97317087D01*
X129375362Y-97298158D01*
X129487237Y-97232533D01*
X129543783Y-97184722D01*
X129659019Y-97095269D01*
X129807456Y-96999142D01*
X129925077Y-96933840D01*
X130081743Y-96842743D01*
X130241101Y-96731281D01*
X130336190Y-96652484D01*
X130450174Y-96558069D01*
X130562088Y-96482766D01*
X130628028Y-96450636D01*
X130793938Y-96373606D01*
X130998764Y-96243626D01*
X131233436Y-96067034D01*
X131488885Y-95850172D01*
X131495904Y-95843890D01*
X131658582Y-95700273D01*
X131829837Y-95552632D01*
X131985443Y-95421695D01*
X132069707Y-95352973D01*
X132209624Y-95235003D01*
X132371883Y-95088245D01*
X132545639Y-94923620D01*
X132720049Y-94752050D01*
X132884268Y-94584455D01*
X133027451Y-94431757D01*
X133138755Y-94304878D01*
X133207336Y-94214739D01*
X133217899Y-94196612D01*
X133296932Y-94089020D01*
X133401332Y-93999868D01*
X133408417Y-93995552D01*
X133516273Y-93909092D01*
X133652202Y-93763187D01*
X133809193Y-93566125D01*
X133980237Y-93326191D01*
X134002313Y-93293514D01*
X134084487Y-93182708D01*
X134201486Y-93039563D01*
X134334802Y-92886268D01*
X134415798Y-92797718D01*
X134559109Y-92638865D01*
X134706005Y-92466682D01*
X134833811Y-92308103D01*
X134884799Y-92240512D01*
X135073293Y-92013022D01*
X135307861Y-91788650D01*
X135601824Y-91554673D01*
X135606011Y-91551575D01*
X135706670Y-91469425D01*
X135829416Y-91358649D01*
X135924380Y-91266428D01*
X136107218Y-91081502D01*
X136220762Y-91214985D01*
X136312109Y-91335751D01*
X136394506Y-91465714D01*
X136408498Y-91491487D01*
X136466011Y-91580264D01*
X136520700Y-91630379D01*
X136535392Y-91634505D01*
X136579205Y-91602046D01*
X136624759Y-91524243D01*
X136658391Y-91430457D01*
X136666736Y-91352312D01*
X136658390Y-91291188D01*
X136643370Y-91186666D01*
X136636341Y-91138709D01*
X136591941Y-90989551D01*
X136498894Y-90798082D01*
X136413251Y-90653891D01*
X136330272Y-90514465D01*
X136268767Y-90395486D01*
X136236848Y-90313552D01*
X136235141Y-90289407D01*
X136234256Y-90222599D01*
X136206614Y-90124650D01*
X136199455Y-90106808D01*
X136148285Y-90015538D01*
X136083831Y-89979314D01*
X136036113Y-89975496D01*
X135992075Y-89971008D01*
X135952557Y-89950741D01*
X135910294Y-89904489D01*
X135858017Y-89822046D01*
X135788459Y-89693204D01*
X135694355Y-89507760D01*
X135673725Y-89466533D01*
X135561695Y-89247912D01*
X135438972Y-89017414D01*
X135319598Y-88800916D01*
X135217617Y-88624296D01*
X135207602Y-88607650D01*
X135114142Y-88447830D01*
X135031968Y-88297601D01*
X134972102Y-88177627D01*
X134950153Y-88125021D01*
X134894998Y-88023933D01*
X134803533Y-87909488D01*
X134739324Y-87846053D01*
X134623697Y-87724802D01*
X134575983Y-87624686D01*
X134574234Y-87603709D01*
X134556954Y-87534412D01*
X134509377Y-87411156D01*
X134437898Y-87246856D01*
X134348912Y-87054425D01*
X134248813Y-86846776D01*
X134143996Y-86636824D01*
X134040855Y-86437482D01*
X133945785Y-86261664D01*
X133865181Y-86122282D01*
X133805437Y-86032252D01*
X133784620Y-86009129D01*
X133727572Y-85950201D01*
X133708259Y-85883388D01*
X133718037Y-85776786D01*
X133719375Y-85768332D01*
X133759392Y-85626562D01*
X133823913Y-85489781D01*
X133836656Y-85469812D01*
X133915760Y-85345173D01*
X133985627Y-85214372D01*
X134050764Y-85065324D01*
X134115675Y-84885947D01*
X134184867Y-84664156D01*
X134262846Y-84387868D01*
X134321069Y-84170720D01*
X134406021Y-83839158D01*
X134466592Y-83579284D01*
X134502749Y-83391259D01*
X134514459Y-83275243D01*
X134512318Y-83249175D01*
X134510253Y-83159086D01*
X134547597Y-83060835D01*
X134608162Y-82964197D01*
X134728297Y-82729530D01*
X134811403Y-82429109D01*
X134857348Y-82063937D01*
X134865998Y-81635021D01*
X134842354Y-81202072D01*
X134807418Y-80868940D01*
X134762518Y-80599014D01*
X134704586Y-80379534D01*
X134630557Y-80197741D01*
X134578335Y-80103397D01*
X134525954Y-79997812D01*
X134471061Y-79856590D01*
X134441622Y-79764714D01*
X134402658Y-79644472D01*
X134366317Y-79556834D01*
X134345373Y-79525626D01*
X134315443Y-79481281D01*
X134271365Y-79386928D01*
X134231607Y-79286558D01*
X134106100Y-79049639D01*
X133985961Y-78914371D01*
X133900704Y-78830938D01*
X133849086Y-78760562D01*
X133819932Y-78677710D01*
X133802068Y-78556848D01*
X133794029Y-78475783D01*
X133752655Y-78175121D01*
X133684107Y-77908885D01*
X133579503Y-77652924D01*
X133429959Y-77383090D01*
X133340640Y-77243115D01*
X133223184Y-77068538D01*
X133125798Y-76936977D01*
X133030877Y-76830029D01*
X132920817Y-76729289D01*
X132778013Y-76616352D01*
X132649165Y-76520201D01*
X132413770Y-76354334D01*
X132225517Y-76239824D01*
X132078518Y-76173198D01*
X132041363Y-76161972D01*
X131907671Y-76113216D01*
X131789267Y-76046943D01*
X131752159Y-76017078D01*
X131689049Y-75969389D01*
X131601031Y-75929897D01*
X131472544Y-75893463D01*
X131288029Y-75854950D01*
X131226591Y-75843529D01*
X131038686Y-75810360D01*
X130908886Y-75791748D01*
X130820538Y-75787109D01*
X130756989Y-75795860D01*
X130701587Y-75817418D01*
X130687277Y-75824626D01*
X130577794Y-75861020D01*
X130439280Y-75881932D01*
X130390467Y-75883866D01*
X130238013Y-75896468D01*
X130124359Y-75917832D01*
X130124359Y-77552862D01*
X130197951Y-77565275D01*
X130300590Y-77602353D01*
X130392184Y-77632303D01*
X130488467Y-77650550D01*
X130607901Y-77658442D01*
X130768943Y-77657326D01*
X130955532Y-77650156D01*
X131427837Y-77628563D01*
X131689203Y-77754296D01*
X131886484Y-77869367D01*
X132120708Y-78041351D01*
X132356621Y-78240008D01*
X132585413Y-78443577D01*
X132764522Y-78605186D01*
X132901919Y-78732816D01*
X133005576Y-78834447D01*
X133083463Y-78918061D01*
X133143550Y-78991638D01*
X133193810Y-79063160D01*
X133220330Y-79104800D01*
X133325905Y-79277940D01*
X133396495Y-79405076D01*
X133439070Y-79503905D01*
X133460598Y-79592123D01*
X133468048Y-79687428D01*
X133468660Y-79735406D01*
X133492238Y-79960055D01*
X133558360Y-80223890D01*
X133661680Y-80506730D01*
X133691079Y-80574445D01*
X133750466Y-80782764D01*
X133769676Y-81047418D01*
X133748462Y-81359755D01*
X133718829Y-81552289D01*
X133692444Y-81711355D01*
X133672926Y-81855535D01*
X133663985Y-81956907D01*
X133663787Y-81966487D01*
X133656189Y-82087213D01*
X133638706Y-82216513D01*
X133634177Y-82315295D01*
X133643109Y-82462886D01*
X133663584Y-82633384D01*
X133674680Y-82702791D01*
X133722171Y-83041389D01*
X133736336Y-83326621D01*
X133716504Y-83574053D01*
X133662010Y-83799250D01*
X133623086Y-83904648D01*
X133561109Y-84064356D01*
X133505518Y-84221976D01*
X133468149Y-84343914D01*
X133467637Y-84345883D01*
X133402438Y-84497833D01*
X133280038Y-84652450D01*
X133240492Y-84692299D01*
X133141174Y-84786274D01*
X133078075Y-84833554D01*
X133034082Y-84841975D01*
X132992080Y-84819370D01*
X132981330Y-84810951D01*
X132893797Y-84711470D01*
X132798134Y-84552519D01*
X132702416Y-84349164D01*
X132624276Y-84144654D01*
X132557746Y-83977819D01*
X132483614Y-83857788D01*
X132383695Y-83755826D01*
X132371756Y-83745662D01*
X132274376Y-83655345D01*
X132225629Y-83580101D01*
X132210145Y-83493515D01*
X132209669Y-83467118D01*
X132201375Y-83369096D01*
X132180906Y-83308783D01*
X132175723Y-83303912D01*
X132145424Y-83260158D01*
X132098304Y-83165341D01*
X132044436Y-83039777D01*
X132043204Y-83036704D01*
X131944632Y-82790475D01*
X132019106Y-82626379D01*
X132051495Y-82541711D01*
X132073288Y-82445342D01*
X132086415Y-82320343D01*
X132092806Y-82149786D01*
X132094372Y-81966487D01*
X132085327Y-81594748D01*
X132055338Y-81288711D01*
X132002083Y-81040105D01*
X131923237Y-80840663D01*
X131816477Y-80682116D01*
X131703017Y-80574091D01*
X131647175Y-80534107D01*
X131594380Y-80515025D01*
X131522744Y-80515561D01*
X131410381Y-80534434D01*
X131324502Y-80551915D01*
X131167974Y-80589287D01*
X131063480Y-80630153D01*
X130987190Y-80685911D01*
X130941974Y-80734899D01*
X130869427Y-80837553D01*
X130820538Y-80935736D01*
X130814496Y-80955826D01*
X130788317Y-81050960D01*
X130749152Y-81176232D01*
X130733586Y-81222793D01*
X130706326Y-81345961D01*
X130684643Y-81529313D01*
X130668747Y-81756945D01*
X130658848Y-82012953D01*
X130655156Y-82281434D01*
X130657881Y-82546485D01*
X130667233Y-82792201D01*
X130683422Y-83002679D01*
X130706659Y-83162016D01*
X130707895Y-83167827D01*
X130771443Y-83402054D01*
X130853565Y-83575753D01*
X130966741Y-83704428D01*
X131123451Y-83803583D01*
X131268998Y-83864940D01*
X131555569Y-83970901D01*
X131730046Y-84293593D01*
X131831489Y-84473492D01*
X131945367Y-84663621D01*
X132050832Y-84829417D01*
X132074407Y-84864427D01*
X132202156Y-85077865D01*
X132270319Y-85262086D01*
X132283191Y-85429556D01*
X132279718Y-85460665D01*
X132250410Y-85528117D01*
X132173324Y-85577874D01*
X132102874Y-85603363D01*
X132011180Y-85627843D01*
X131928075Y-85634204D01*
X131828437Y-85620886D01*
X131687146Y-85586332D01*
X131645216Y-85574971D01*
X131493576Y-85533927D01*
X131293381Y-85480325D01*
X131069874Y-85420895D01*
X130848296Y-85362371D01*
X130832787Y-85358292D01*
X130314012Y-85221896D01*
X130091728Y-85286516D01*
X129802488Y-85334706D01*
X129526509Y-85310246D01*
X129271561Y-85215369D01*
X129045410Y-85052310D01*
X128957936Y-84960599D01*
X128859800Y-84861371D01*
X128773706Y-84815609D01*
X128709010Y-84807778D01*
X128628305Y-84793082D01*
X128536509Y-84742548D01*
X128417737Y-84646509D01*
X128364328Y-84598018D01*
X128238994Y-84487757D01*
X128146021Y-84423326D01*
X128066711Y-84393892D01*
X128002325Y-84388258D01*
X127853708Y-84373519D01*
X127713574Y-84322878D01*
X127559560Y-84226706D01*
X127472006Y-84159845D01*
X127231378Y-83926156D01*
X127040116Y-83644110D01*
X126957748Y-83475887D01*
X126882908Y-83331899D01*
X126792597Y-83194356D01*
X126739700Y-83129700D01*
X126613815Y-82953093D01*
X126520804Y-82739768D01*
X126470272Y-82518081D01*
X126469441Y-82331987D01*
X126474498Y-82137247D01*
X126430048Y-81942321D01*
X126391763Y-81803891D01*
X126385029Y-81690255D01*
X126407312Y-81557973D01*
X126407558Y-81556906D01*
X126433583Y-81417808D01*
X126457961Y-81243617D01*
X126473242Y-81095904D01*
X126517285Y-80808101D01*
X126598504Y-80515030D01*
X126709128Y-80235131D01*
X126841387Y-79986842D01*
X126987510Y-79788601D01*
X127051088Y-79724753D01*
X127106051Y-79652866D01*
X127169604Y-79537513D01*
X127213514Y-79438717D01*
X127301827Y-79264564D01*
X127417809Y-79134509D01*
X127463652Y-79097686D01*
X127579169Y-78992859D01*
X127681555Y-78870537D01*
X127713615Y-78820689D01*
X127797161Y-78705286D01*
X127898317Y-78642174D01*
X127940113Y-78628884D01*
X128064782Y-78559389D01*
X128197808Y-78415519D01*
X128339636Y-78196740D01*
X128408523Y-78069707D01*
X128446715Y-78011609D01*
X128503829Y-77961193D01*
X128594140Y-77909982D01*
X128731928Y-77849497D01*
X128873793Y-77793418D01*
X129140566Y-77700612D01*
X129356893Y-77649759D01*
X129534884Y-77639164D01*
X129686650Y-77667135D01*
X129712319Y-77676211D01*
X129791624Y-77693036D01*
X129874314Y-77672583D01*
X129965641Y-77623786D01*
X130058043Y-77571654D01*
X130124359Y-77552862D01*
X130124359Y-75917832D01*
X130072180Y-75927641D01*
X130016726Y-75942751D01*
X129788193Y-75982962D01*
X129651198Y-75977766D01*
X129476360Y-75954310D01*
X129146257Y-76335527D01*
X128972673Y-76532102D01*
X128836971Y-76675076D01*
X128730516Y-76771301D01*
X128644676Y-76827626D01*
X128570816Y-76850902D01*
X128500406Y-76848001D01*
X128411327Y-76848903D01*
X128373180Y-76889759D01*
X128316906Y-76938014D01*
X128234677Y-76951321D01*
X128110326Y-76978481D01*
X127960655Y-77050086D01*
X127808372Y-77151324D01*
X127676183Y-77267382D01*
X127595635Y-77368165D01*
X127509365Y-77477540D01*
X127389036Y-77592919D01*
X127305593Y-77657472D01*
X127186468Y-77733716D01*
X127091718Y-77772447D01*
X126986374Y-77784067D01*
X126888066Y-77781662D01*
X126665914Y-77771291D01*
X126535614Y-78139107D01*
X126473478Y-78308532D01*
X126425878Y-78418802D01*
X126384683Y-78483593D01*
X126341765Y-78516579D01*
X126304113Y-78528557D01*
X126210649Y-78580929D01*
X126115098Y-78685812D01*
X126031407Y-78821148D01*
X125973525Y-78964877D01*
X125955015Y-79080644D01*
X125947512Y-79169867D01*
X125915518Y-79241303D01*
X125844801Y-79318362D01*
X125771660Y-79382276D01*
X125677927Y-79465758D01*
X125617500Y-79538881D01*
X125577108Y-79626090D01*
X125543483Y-79751829D01*
X125525149Y-79836369D01*
X125489717Y-80015045D01*
X125450088Y-80231365D01*
X125413112Y-80447503D01*
X125401886Y-80517237D01*
X125346907Y-80792304D01*
X125272322Y-81024582D01*
X125205384Y-81174878D01*
X125136605Y-81320247D01*
X125098499Y-81425227D01*
X125085097Y-81516328D01*
X125090428Y-81620059D01*
X125095462Y-81663029D01*
X125162518Y-81951222D01*
X125283634Y-82192769D01*
X125454826Y-82382313D01*
X125672111Y-82514499D01*
X125750521Y-82543744D01*
X125865185Y-82584922D01*
X125926462Y-82625741D01*
X125954644Y-82685580D01*
X125965538Y-82749100D01*
X125998173Y-82856765D01*
X126069305Y-83011420D01*
X126170844Y-83199656D01*
X126294698Y-83408068D01*
X126432779Y-83623248D01*
X126576995Y-83831790D01*
X126719257Y-84020285D01*
X126770643Y-84083299D01*
X126892231Y-84229166D01*
X127005617Y-84366116D01*
X127095723Y-84475890D01*
X127137297Y-84527317D01*
X127228145Y-84614887D01*
X127353150Y-84704359D01*
X127423333Y-84744416D01*
X127572713Y-84826510D01*
X127728368Y-84920645D01*
X127785645Y-84958117D01*
X127960801Y-85049539D01*
X128102948Y-85074582D01*
X128225005Y-85095646D01*
X128369315Y-85161741D01*
X128544037Y-85277595D01*
X128757329Y-85447943D01*
X128779986Y-85467210D01*
X128927613Y-85571154D01*
X129117166Y-85673261D01*
X129326256Y-85764425D01*
X129532492Y-85835543D01*
X129713484Y-85877509D01*
X129806966Y-85884841D01*
X129923579Y-85880512D01*
X130087584Y-85871813D01*
X130270330Y-85860325D01*
X130341690Y-85855343D01*
X130511520Y-85844135D01*
X130627658Y-85842405D01*
X130712471Y-85853855D01*
X130788325Y-85882190D01*
X130877587Y-85931115D01*
X130908324Y-85949181D01*
X131072646Y-86027742D01*
X131268106Y-86094735D01*
X131384261Y-86123068D01*
X131557602Y-86163139D01*
X131734698Y-86213215D01*
X131857300Y-86255125D01*
X132044415Y-86305849D01*
X132260917Y-86330870D01*
X132475846Y-86328952D01*
X132658240Y-86298859D01*
X132690732Y-86288405D01*
X132758211Y-86268169D01*
X132813954Y-86270666D01*
X132877821Y-86303952D01*
X132969670Y-86376084D01*
X133027253Y-86424926D01*
X133134469Y-86517825D01*
X133226024Y-86602166D01*
X133308450Y-86686859D01*
X133388277Y-86780814D01*
X133472038Y-86892940D01*
X133566264Y-87032147D01*
X133677487Y-87207346D01*
X133812237Y-87427445D01*
X133977047Y-87701355D01*
X134039781Y-87806136D01*
X134206197Y-88082588D01*
X134376746Y-88362903D01*
X134542894Y-88633270D01*
X134696108Y-88879879D01*
X134827856Y-89088920D01*
X134929604Y-89246582D01*
X134932432Y-89250871D01*
X135058076Y-89448366D01*
X135182372Y-89656111D01*
X135291671Y-89850541D01*
X135372327Y-90008094D01*
X135377860Y-90019976D01*
X135462975Y-90194684D01*
X135557784Y-90373738D01*
X135644137Y-90523109D01*
X135657957Y-90545116D01*
X135727295Y-90656059D01*
X135776486Y-90739634D01*
X135794654Y-90777137D01*
X135762607Y-90792104D01*
X135719160Y-90795466D01*
X135663434Y-90815746D01*
X135556770Y-90871907D01*
X135411294Y-90956927D01*
X135239135Y-91063782D01*
X135099415Y-91154285D01*
X134828264Y-91339800D01*
X134593198Y-91517674D01*
X134374359Y-91704973D01*
X134151889Y-91918768D01*
X133905928Y-92176127D01*
X133887747Y-92195751D01*
X133809504Y-92272762D01*
X133686940Y-92384472D01*
X133535029Y-92517602D01*
X133368746Y-92658873D01*
X133316465Y-92702373D01*
X133132565Y-92856718D01*
X132942668Y-93019762D01*
X132767479Y-93173506D01*
X132627707Y-93299954D01*
X132610909Y-93315610D01*
X132476920Y-93437571D01*
X132346870Y-93549808D01*
X132241722Y-93634451D01*
X132209669Y-93657717D01*
X132129103Y-93720096D01*
X132010221Y-93821268D01*
X131869446Y-93946909D01*
X131732162Y-94074209D01*
X131450318Y-94335014D01*
X131198916Y-94553187D01*
X130958331Y-94743639D01*
X130708941Y-94921283D01*
X130431120Y-95101030D01*
X130181008Y-95252911D01*
X129973496Y-95377523D01*
X129780167Y-95495680D01*
X129613936Y-95599332D01*
X129487718Y-95680424D01*
X129414646Y-95730739D01*
X129314741Y-95793256D01*
X129225144Y-95827494D01*
X129205617Y-95829700D01*
X129123836Y-95853339D01*
X129029088Y-95911105D01*
X129018526Y-95919618D01*
X128884053Y-96017453D01*
X128701609Y-96130181D01*
X128486699Y-96250170D01*
X128254828Y-96369790D01*
X128021498Y-96481411D01*
X127802214Y-96577403D01*
X127612479Y-96650134D01*
X127467799Y-96691974D01*
X127439257Y-96696881D01*
X127339595Y-96702493D01*
X127187891Y-96701954D01*
X127008100Y-96695620D01*
X126889538Y-96688703D01*
X126710421Y-96675936D01*
X126594328Y-96664206D01*
X126528181Y-96649410D01*
X126498902Y-96627444D01*
X126493412Y-96594203D01*
X126496318Y-96565316D01*
X126515382Y-96507428D01*
X126566984Y-96460008D01*
X126667336Y-96411059D01*
X126746571Y-96380117D01*
X126885439Y-96319000D01*
X127009937Y-96240087D01*
X127142561Y-96127381D01*
X127250060Y-96022064D01*
X127366073Y-95907954D01*
X127464222Y-95817917D01*
X127531245Y-95763778D01*
X127551469Y-95753424D01*
X127583359Y-95722015D01*
X127644015Y-95636222D01*
X127725805Y-95508696D01*
X127821101Y-95352085D01*
X127922274Y-95179041D01*
X128021693Y-95002212D01*
X128111731Y-94834249D01*
X128144719Y-94769778D01*
X128197655Y-94653404D01*
X128266022Y-94487248D01*
X128340856Y-94293800D01*
X128410787Y-94102361D01*
X128483560Y-93889113D01*
X128533732Y-93717064D01*
X128567264Y-93557378D01*
X128590119Y-93381217D01*
X128608259Y-93159747D01*
X128609565Y-93140961D01*
X128635521Y-92670554D01*
X128643373Y-92266631D01*
X128632818Y-91921509D01*
X128603553Y-91627502D01*
X128555276Y-91376925D01*
X128537402Y-91310330D01*
X128486560Y-91124724D01*
X128438625Y-90934807D01*
X128402018Y-90774346D01*
X128394745Y-90738258D01*
X128316565Y-90411862D01*
X128217357Y-90127251D01*
X128101321Y-89892615D01*
X127972659Y-89716143D01*
X127835569Y-89606024D01*
X127807155Y-89592535D01*
X127697601Y-89528532D01*
X127596303Y-89442475D01*
X127594954Y-89441032D01*
X127478558Y-89345828D01*
X127313473Y-89247873D01*
X127125746Y-89159681D01*
X126941422Y-89093768D01*
X126813123Y-89065383D01*
X126690820Y-89041818D01*
X126524771Y-88999818D01*
X126343009Y-88946742D01*
X126262802Y-88920953D01*
X126088054Y-88862875D01*
X126088054Y-90957160D01*
X126167611Y-90976680D01*
X126217861Y-91001282D01*
X126327328Y-91032665D01*
X126466853Y-91034058D01*
X126468388Y-91033887D01*
X126588701Y-91031282D01*
X126666132Y-91062064D01*
X126693004Y-91086855D01*
X126754720Y-91152058D01*
X126847335Y-91247932D01*
X126926947Y-91329400D01*
X127035630Y-91456959D01*
X127148720Y-91616134D01*
X127228480Y-91748919D01*
X127329246Y-91995759D01*
X127366220Y-92250260D01*
X127340820Y-92528374D01*
X127309747Y-92664234D01*
X127256117Y-92815996D01*
X127178691Y-92925723D01*
X127062169Y-93006334D01*
X126891251Y-93070744D01*
X126797690Y-93096557D01*
X126528557Y-93191845D01*
X126296460Y-93325576D01*
X126118824Y-93487358D01*
X126097488Y-93514012D01*
X126037196Y-93625597D01*
X125975896Y-93795706D01*
X125918064Y-94006780D01*
X125868175Y-94241265D01*
X125830706Y-94481605D01*
X125816459Y-94616390D01*
X125806999Y-94779675D01*
X125813715Y-94893555D01*
X125839413Y-94983723D01*
X125861675Y-95030660D01*
X125910101Y-95175854D01*
X125940567Y-95390785D01*
X125947428Y-95493132D01*
X125954018Y-95655615D01*
X125951116Y-95764443D01*
X125934414Y-95842063D01*
X125899603Y-95910921D01*
X125854663Y-95976393D01*
X125754526Y-96086256D01*
X125640556Y-96141804D01*
X125492618Y-96149608D01*
X125374251Y-96133216D01*
X125281676Y-96104808D01*
X125184962Y-96047207D01*
X125067961Y-95949244D01*
X124964380Y-95849718D01*
X124710190Y-95546535D01*
X124504254Y-95195549D01*
X124353895Y-94813325D01*
X124266438Y-94416425D01*
X124249296Y-94232494D01*
X124245331Y-94126750D01*
X124246085Y-94026699D01*
X124253274Y-93921463D01*
X124268615Y-93800168D01*
X124293823Y-93651936D01*
X124330616Y-93465890D01*
X124380708Y-93231154D01*
X124445817Y-92936852D01*
X124472689Y-92816787D01*
X124512004Y-92679021D01*
X124561980Y-92549539D01*
X124575209Y-92522274D01*
X124660196Y-92356623D01*
X124753871Y-92170070D01*
X124841180Y-91992853D01*
X124903277Y-91863333D01*
X124965058Y-91751886D01*
X125047754Y-91645369D01*
X125162202Y-91533358D01*
X125319239Y-91405428D01*
X125529704Y-91251154D01*
X125567371Y-91224520D01*
X125753958Y-91096924D01*
X125894252Y-91012812D01*
X126001276Y-90967714D01*
X126088054Y-90957160D01*
X126088054Y-88862875D01*
X125903171Y-88801427D01*
X125557246Y-88881192D01*
X125379810Y-88919788D01*
X125208061Y-88953217D01*
X125071146Y-88975924D01*
X125037159Y-88980277D01*
X124910089Y-89007500D01*
X124752660Y-89059157D01*
X124617639Y-89115669D01*
X124480379Y-89174338D01*
X124357439Y-89216083D01*
X124276281Y-89231772D01*
X124180441Y-89262226D01*
X124054201Y-89347010D01*
X123908467Y-89476329D01*
X123754145Y-89640391D01*
X123602142Y-89829400D01*
X123585284Y-89852319D01*
X123473197Y-90020689D01*
X123377507Y-90200709D01*
X123286554Y-90416130D01*
X123223325Y-90589614D01*
X123151948Y-90790490D01*
X123079243Y-90988954D01*
X123014080Y-91161132D01*
X122968289Y-91276101D01*
X122894082Y-91507183D01*
X122840643Y-91797230D01*
X122807625Y-92149949D01*
X122794680Y-92569048D01*
X122801368Y-93055300D01*
G36*
X123950241Y-107878741D02*
G01*
X124048843Y-108226684D01*
X124204803Y-108536156D01*
X124273653Y-108635939D01*
X124329046Y-108702843D01*
X124353064Y-108720391D01*
X124394496Y-108744149D01*
X124474643Y-108806527D01*
X124576388Y-108894175D01*
X124579380Y-108896862D01*
X124710418Y-109003849D01*
X124820248Y-109064061D01*
X124934178Y-109091174D01*
X124940291Y-109091890D01*
X125056236Y-109096446D01*
X125133067Y-109070442D01*
X125190108Y-109020298D01*
X125280222Y-108899738D01*
X125375384Y-108731385D01*
X125462095Y-108541434D01*
X125519566Y-108380939D01*
X125557607Y-108185302D01*
X125573694Y-107933870D01*
X125568324Y-107643748D01*
X125541988Y-107332040D01*
X125495183Y-107015849D01*
X125477442Y-106923744D01*
X125437783Y-106724496D01*
X125413108Y-106579957D01*
X125402368Y-106470262D01*
X125404515Y-106375547D01*
X125418501Y-106275948D01*
X125438032Y-106176874D01*
X125530214Y-105822411D01*
X125670238Y-105416103D01*
X125855962Y-104963718D01*
X126026856Y-104591599D01*
X126137737Y-104364835D01*
X126224760Y-104199533D01*
X126293362Y-104086728D01*
X126348984Y-104017456D01*
X126395929Y-103983262D01*
X126479972Y-103912777D01*
X126574225Y-103777264D01*
X126622947Y-103688030D01*
X126686943Y-103576157D01*
X126769832Y-103459544D01*
X126880906Y-103327235D01*
X127029452Y-103168272D01*
X127224760Y-102971701D01*
X127258383Y-102938572D01*
X127453381Y-102749219D01*
X127611618Y-102602824D01*
X127748818Y-102486993D01*
X127880706Y-102389337D01*
X128023005Y-102297463D01*
X128191440Y-102198982D01*
X128210876Y-102187983D01*
X128469416Y-102050270D01*
X128689424Y-101954458D01*
X128891500Y-101894264D01*
X129096241Y-101863407D01*
X129300917Y-101855526D01*
X129436417Y-101843066D01*
X129624020Y-101808319D01*
X129844205Y-101755232D01*
X129970865Y-101720014D01*
X130182808Y-101662011D01*
X130401525Y-101608388D01*
X130599149Y-101565651D01*
X130730171Y-101542684D01*
X130883213Y-101523259D01*
X130995173Y-101519647D01*
X131097558Y-101535272D01*
X131221876Y-101573556D01*
X131312078Y-101605898D01*
X131547436Y-101719245D01*
X131773116Y-101878020D01*
X131975643Y-102068222D01*
X132141540Y-102275853D01*
X132257333Y-102486911D01*
X132302420Y-102634778D01*
X132324056Y-102730163D01*
X132362295Y-102878135D01*
X132411687Y-103058262D01*
X132465272Y-103244988D01*
X132574435Y-103661468D01*
X132643084Y-104039125D01*
X132673938Y-104401980D01*
X132669715Y-104774052D01*
X132657632Y-104944715D01*
X132639640Y-105143927D01*
X132622487Y-105286161D01*
X132600772Y-105390462D01*
X132569098Y-105475873D01*
X132522064Y-105561437D01*
X132454271Y-105666199D01*
X132452190Y-105669339D01*
X132341612Y-105826796D01*
X132215657Y-105992323D01*
X132112351Y-106117463D01*
X131936787Y-106317688D01*
X131625105Y-106317834D01*
X131434737Y-106327734D01*
X131199869Y-106354586D01*
X130943243Y-106394345D01*
X130687603Y-106442963D01*
X130455693Y-106496397D01*
X130270256Y-106550598D01*
X130226486Y-106566639D01*
X130093578Y-106632368D01*
X129970380Y-106714519D01*
X129940450Y-106739885D01*
X129868502Y-106800744D01*
X129806557Y-106826499D01*
X129724169Y-106823579D01*
X129627859Y-106805875D01*
X129459346Y-106782804D01*
X129331328Y-106798640D01*
X129219756Y-106862323D01*
X129100581Y-106982789D01*
X129076938Y-107010629D01*
X128990840Y-107118127D01*
X128940026Y-107203490D01*
X128913667Y-107295667D01*
X128900936Y-107423609D01*
X128897245Y-107491074D01*
X128905513Y-107732647D01*
X128951478Y-107954529D01*
X129029603Y-108140609D01*
X129134354Y-108274775D01*
X129177687Y-108307369D01*
X129265289Y-108349644D01*
X129406709Y-108404530D01*
X129581940Y-108465449D01*
X129770977Y-108525828D01*
X129953813Y-108579088D01*
X130110443Y-108618655D01*
X130150210Y-108627045D01*
X130236330Y-108655999D01*
X130369386Y-108714756D01*
X130530536Y-108794495D01*
X130685194Y-108877563D01*
X131086696Y-109101772D01*
X131581441Y-109101319D01*
X131863808Y-109094944D01*
X132097510Y-109077055D01*
X132269803Y-109048679D01*
X132285945Y-109044565D01*
X132374579Y-109026118D01*
X132492523Y-109011817D01*
X132648719Y-109001255D01*
X132852110Y-108994023D01*
X133111639Y-108989713D01*
X133436247Y-108987915D01*
X133528289Y-108987810D01*
X133836818Y-108987891D01*
X134079946Y-108988974D01*
X134268550Y-108991866D01*
X134413506Y-108997373D01*
X134525690Y-109006300D01*
X134615977Y-109019455D01*
X134695244Y-109037644D01*
X134774367Y-109061673D01*
X134844055Y-109085361D01*
X135011078Y-109134595D01*
X135219489Y-109183785D01*
X135434791Y-109225150D01*
X135527687Y-109239554D01*
X135761541Y-109278798D01*
X135927109Y-109321987D01*
X136032362Y-109371237D01*
X136037729Y-109375004D01*
X136122114Y-109425189D01*
X136200037Y-109433029D01*
X136290052Y-109411502D01*
X136411226Y-109382780D01*
X136519275Y-109368959D01*
X136529848Y-109368739D01*
X136643042Y-109334313D01*
X136736329Y-109245137D01*
X136797328Y-109122366D01*
X136813659Y-108987154D01*
X136797683Y-108911081D01*
X136744963Y-108823462D01*
X136656540Y-108726160D01*
X136554311Y-108638701D01*
X136460172Y-108580609D01*
X136412752Y-108567838D01*
X136321904Y-108537472D01*
X136226263Y-108458971D01*
X136221309Y-108453424D01*
X136119938Y-108367237D01*
X136006463Y-108339216D01*
X135993270Y-108339009D01*
X135847091Y-108316257D01*
X135664505Y-108254856D01*
X135467617Y-108165089D01*
X135278532Y-108057239D01*
X135119355Y-107941590D01*
X135097126Y-107922135D01*
X134964273Y-107808084D01*
X134822914Y-107696010D01*
X134726786Y-107626285D01*
X134573902Y-107533092D01*
X134381385Y-107430829D01*
X134167868Y-107327852D01*
X133951986Y-107232513D01*
X133752374Y-107153167D01*
X133587665Y-107098168D01*
X133506366Y-107079140D01*
X133366831Y-107047619D01*
X133266039Y-106994884D01*
X133166458Y-106900559D01*
X133155795Y-106888803D01*
X133051733Y-106761580D01*
X132952223Y-106621691D01*
X132918256Y-106567318D01*
X132821529Y-106402266D01*
X132990151Y-105969061D01*
X133072719Y-105743376D01*
X133134505Y-105537008D01*
X133183039Y-105320178D01*
X133225851Y-105063108D01*
X133234720Y-105001922D01*
X133278024Y-104621517D01*
X133295068Y-104257483D01*
X133284313Y-103896157D01*
X133244220Y-103523876D01*
X133173248Y-103126978D01*
X133069859Y-102691799D01*
X132932513Y-102204677D01*
X132911797Y-102135877D01*
X132859544Y-101975932D01*
X132815805Y-101876375D01*
X132772952Y-101823047D01*
X132732935Y-101803835D01*
X132680237Y-101774383D01*
X132636026Y-101705712D01*
X132591365Y-101582230D01*
X132575834Y-101529691D01*
X132530656Y-101388167D01*
X132486998Y-101300780D01*
X132431882Y-101246779D01*
X132381247Y-101218545D01*
X132275628Y-101144749D01*
X132193629Y-101049481D01*
X132107989Y-100957634D01*
X131965961Y-100862148D01*
X131786210Y-100772972D01*
X131587404Y-100700056D01*
X131487000Y-100672877D01*
X131366822Y-100654072D01*
X131187145Y-100638387D01*
X130964714Y-100626878D01*
X130716278Y-100620602D01*
X130647961Y-100619949D01*
X130406154Y-100619426D01*
X130224440Y-100622336D01*
X130086659Y-100630234D01*
X129976649Y-100644679D01*
X129878251Y-100667230D01*
X129775304Y-100699444D01*
X129756470Y-100705896D01*
X129496215Y-100795756D01*
X129127191Y-100706920D01*
X128921470Y-100663018D01*
X128727608Y-100635990D01*
X128515578Y-100622767D01*
X128278234Y-100620157D01*
X127798300Y-100622232D01*
X127269881Y-100981446D01*
X126902424Y-101252102D01*
X126532200Y-101563102D01*
X126178659Y-101896337D01*
X125861252Y-102233696D01*
X125649909Y-102489821D01*
X125522394Y-102653644D01*
X125380710Y-102832168D01*
X125253212Y-102989701D01*
X125240357Y-103005324D01*
X125035366Y-103262063D01*
X124851334Y-103508544D01*
X124695995Y-103733543D01*
X124577083Y-103925838D01*
X124502335Y-104074204D01*
X124500347Y-104079131D01*
X124455541Y-104213030D01*
X124436824Y-104340936D01*
X124439818Y-104498714D01*
X124443364Y-104546028D01*
X124449288Y-104748005D01*
X124426100Y-104926020D01*
X124390303Y-105060893D01*
X124349573Y-105236271D01*
X124316231Y-105461770D01*
X124294017Y-105711319D01*
X124292065Y-105745616D01*
X124279162Y-105948151D01*
X124262644Y-106095761D01*
X124238167Y-106209794D01*
X124201386Y-106311599D01*
X124158522Y-106401867D01*
X124015477Y-106757528D01*
X123933272Y-107131002D01*
X123911622Y-107509127D01*
X123950241Y-107878741D01*
X123950241Y-107878741D01*
G37*
X123950241Y-107878741D02*
X124048843Y-108226684D01*
X124204803Y-108536156D01*
X124273653Y-108635939D01*
X124329046Y-108702843D01*
X124353064Y-108720391D01*
X124394496Y-108744149D01*
X124474643Y-108806527D01*
X124576388Y-108894175D01*
X124579380Y-108896862D01*
X124710418Y-109003849D01*
X124820248Y-109064061D01*
X124934178Y-109091174D01*
X124940291Y-109091890D01*
X125056236Y-109096446D01*
X125133067Y-109070442D01*
X125190108Y-109020298D01*
X125280222Y-108899738D01*
X125375384Y-108731385D01*
X125462095Y-108541434D01*
X125519566Y-108380939D01*
X125557607Y-108185302D01*
X125573694Y-107933870D01*
X125568324Y-107643748D01*
X125541988Y-107332040D01*
X125495183Y-107015849D01*
X125477442Y-106923744D01*
X125437783Y-106724496D01*
X125413108Y-106579957D01*
X125402368Y-106470262D01*
X125404515Y-106375547D01*
X125418501Y-106275948D01*
X125438032Y-106176874D01*
X125530214Y-105822411D01*
X125670238Y-105416103D01*
X125855962Y-104963718D01*
X126026856Y-104591599D01*
X126137737Y-104364835D01*
X126224760Y-104199533D01*
X126293362Y-104086728D01*
X126348984Y-104017456D01*
X126395929Y-103983262D01*
X126479972Y-103912777D01*
X126574225Y-103777264D01*
X126622947Y-103688030D01*
X126686943Y-103576157D01*
X126769832Y-103459544D01*
X126880906Y-103327235D01*
X127029452Y-103168272D01*
X127224760Y-102971701D01*
X127258383Y-102938572D01*
X127453381Y-102749219D01*
X127611618Y-102602824D01*
X127748818Y-102486993D01*
X127880706Y-102389337D01*
X128023005Y-102297463D01*
X128191440Y-102198982D01*
X128210876Y-102187983D01*
X128469416Y-102050270D01*
X128689424Y-101954458D01*
X128891500Y-101894264D01*
X129096241Y-101863407D01*
X129300917Y-101855526D01*
X129436417Y-101843066D01*
X129624020Y-101808319D01*
X129844205Y-101755232D01*
X129970865Y-101720014D01*
X130182808Y-101662011D01*
X130401525Y-101608388D01*
X130599149Y-101565651D01*
X130730171Y-101542684D01*
X130883213Y-101523259D01*
X130995173Y-101519647D01*
X131097558Y-101535272D01*
X131221876Y-101573556D01*
X131312078Y-101605898D01*
X131547436Y-101719245D01*
X131773116Y-101878020D01*
X131975643Y-102068222D01*
X132141540Y-102275853D01*
X132257333Y-102486911D01*
X132302420Y-102634778D01*
X132324056Y-102730163D01*
X132362295Y-102878135D01*
X132411687Y-103058262D01*
X132465272Y-103244988D01*
X132574435Y-103661468D01*
X132643084Y-104039125D01*
X132673938Y-104401980D01*
X132669715Y-104774052D01*
X132657632Y-104944715D01*
X132639640Y-105143927D01*
X132622487Y-105286161D01*
X132600772Y-105390462D01*
X132569098Y-105475873D01*
X132522064Y-105561437D01*
X132454271Y-105666199D01*
X132452190Y-105669339D01*
X132341612Y-105826796D01*
X132215657Y-105992323D01*
X132112351Y-106117463D01*
X131936787Y-106317688D01*
X131625105Y-106317834D01*
X131434737Y-106327734D01*
X131199869Y-106354586D01*
X130943243Y-106394345D01*
X130687603Y-106442963D01*
X130455693Y-106496397D01*
X130270256Y-106550598D01*
X130226486Y-106566639D01*
X130093578Y-106632368D01*
X129970380Y-106714519D01*
X129940450Y-106739885D01*
X129868502Y-106800744D01*
X129806557Y-106826499D01*
X129724169Y-106823579D01*
X129627859Y-106805875D01*
X129459346Y-106782804D01*
X129331328Y-106798640D01*
X129219756Y-106862323D01*
X129100581Y-106982789D01*
X129076938Y-107010629D01*
X128990840Y-107118127D01*
X128940026Y-107203490D01*
X128913667Y-107295667D01*
X128900936Y-107423609D01*
X128897245Y-107491074D01*
X128905513Y-107732647D01*
X128951478Y-107954529D01*
X129029603Y-108140609D01*
X129134354Y-108274775D01*
X129177687Y-108307369D01*
X129265289Y-108349644D01*
X129406709Y-108404530D01*
X129581940Y-108465449D01*
X129770977Y-108525828D01*
X129953813Y-108579088D01*
X130110443Y-108618655D01*
X130150210Y-108627045D01*
X130236330Y-108655999D01*
X130369386Y-108714756D01*
X130530536Y-108794495D01*
X130685194Y-108877563D01*
X131086696Y-109101772D01*
X131581441Y-109101319D01*
X131863808Y-109094944D01*
X132097510Y-109077055D01*
X132269803Y-109048679D01*
X132285945Y-109044565D01*
X132374579Y-109026118D01*
X132492523Y-109011817D01*
X132648719Y-109001255D01*
X132852110Y-108994023D01*
X133111639Y-108989713D01*
X133436247Y-108987915D01*
X133528289Y-108987810D01*
X133836818Y-108987891D01*
X134079946Y-108988974D01*
X134268550Y-108991866D01*
X134413506Y-108997373D01*
X134525690Y-109006300D01*
X134615977Y-109019455D01*
X134695244Y-109037644D01*
X134774367Y-109061673D01*
X134844055Y-109085361D01*
X135011078Y-109134595D01*
X135219489Y-109183785D01*
X135434791Y-109225150D01*
X135527687Y-109239554D01*
X135761541Y-109278798D01*
X135927109Y-109321987D01*
X136032362Y-109371237D01*
X136037729Y-109375004D01*
X136122114Y-109425189D01*
X136200037Y-109433029D01*
X136290052Y-109411502D01*
X136411226Y-109382780D01*
X136519275Y-109368959D01*
X136529848Y-109368739D01*
X136643042Y-109334313D01*
X136736329Y-109245137D01*
X136797328Y-109122366D01*
X136813659Y-108987154D01*
X136797683Y-108911081D01*
X136744963Y-108823462D01*
X136656540Y-108726160D01*
X136554311Y-108638701D01*
X136460172Y-108580609D01*
X136412752Y-108567838D01*
X136321904Y-108537472D01*
X136226263Y-108458971D01*
X136221309Y-108453424D01*
X136119938Y-108367237D01*
X136006463Y-108339216D01*
X135993270Y-108339009D01*
X135847091Y-108316257D01*
X135664505Y-108254856D01*
X135467617Y-108165089D01*
X135278532Y-108057239D01*
X135119355Y-107941590D01*
X135097126Y-107922135D01*
X134964273Y-107808084D01*
X134822914Y-107696010D01*
X134726786Y-107626285D01*
X134573902Y-107533092D01*
X134381385Y-107430829D01*
X134167868Y-107327852D01*
X133951986Y-107232513D01*
X133752374Y-107153167D01*
X133587665Y-107098168D01*
X133506366Y-107079140D01*
X133366831Y-107047619D01*
X133266039Y-106994884D01*
X133166458Y-106900559D01*
X133155795Y-106888803D01*
X133051733Y-106761580D01*
X132952223Y-106621691D01*
X132918256Y-106567318D01*
X132821529Y-106402266D01*
X132990151Y-105969061D01*
X133072719Y-105743376D01*
X133134505Y-105537008D01*
X133183039Y-105320178D01*
X133225851Y-105063108D01*
X133234720Y-105001922D01*
X133278024Y-104621517D01*
X133295068Y-104257483D01*
X133284313Y-103896157D01*
X133244220Y-103523876D01*
X133173248Y-103126978D01*
X133069859Y-102691799D01*
X132932513Y-102204677D01*
X132911797Y-102135877D01*
X132859544Y-101975932D01*
X132815805Y-101876375D01*
X132772952Y-101823047D01*
X132732935Y-101803835D01*
X132680237Y-101774383D01*
X132636026Y-101705712D01*
X132591365Y-101582230D01*
X132575834Y-101529691D01*
X132530656Y-101388167D01*
X132486998Y-101300780D01*
X132431882Y-101246779D01*
X132381247Y-101218545D01*
X132275628Y-101144749D01*
X132193629Y-101049481D01*
X132107989Y-100957634D01*
X131965961Y-100862148D01*
X131786210Y-100772972D01*
X131587404Y-100700056D01*
X131487000Y-100672877D01*
X131366822Y-100654072D01*
X131187145Y-100638387D01*
X130964714Y-100626878D01*
X130716278Y-100620602D01*
X130647961Y-100619949D01*
X130406154Y-100619426D01*
X130224440Y-100622336D01*
X130086659Y-100630234D01*
X129976649Y-100644679D01*
X129878251Y-100667230D01*
X129775304Y-100699444D01*
X129756470Y-100705896D01*
X129496215Y-100795756D01*
X129127191Y-100706920D01*
X128921470Y-100663018D01*
X128727608Y-100635990D01*
X128515578Y-100622767D01*
X128278234Y-100620157D01*
X127798300Y-100622232D01*
X127269881Y-100981446D01*
X126902424Y-101252102D01*
X126532200Y-101563102D01*
X126178659Y-101896337D01*
X125861252Y-102233696D01*
X125649909Y-102489821D01*
X125522394Y-102653644D01*
X125380710Y-102832168D01*
X125253212Y-102989701D01*
X125240357Y-103005324D01*
X125035366Y-103262063D01*
X124851334Y-103508544D01*
X124695995Y-103733543D01*
X124577083Y-103925838D01*
X124502335Y-104074204D01*
X124500347Y-104079131D01*
X124455541Y-104213030D01*
X124436824Y-104340936D01*
X124439818Y-104498714D01*
X124443364Y-104546028D01*
X124449288Y-104748005D01*
X124426100Y-104926020D01*
X124390303Y-105060893D01*
X124349573Y-105236271D01*
X124316231Y-105461770D01*
X124294017Y-105711319D01*
X124292065Y-105745616D01*
X124279162Y-105948151D01*
X124262644Y-106095761D01*
X124238167Y-106209794D01*
X124201386Y-106311599D01*
X124158522Y-106401867D01*
X124015477Y-106757528D01*
X123933272Y-107131002D01*
X123911622Y-107509127D01*
X123950241Y-107878741D01*
M02*
