G04 #@! TF.GenerationSoftware,KiCad,Pcbnew,(5.1.4)-1*
G04 #@! TF.CreationDate,2019-10-08T20:05:44+02:00*
G04 #@! TF.ProjectId,weather,77656174-6865-4722-9e6b-696361645f70,rev?*
G04 #@! TF.SameCoordinates,Original*
G04 #@! TF.FileFunction,Other,User*
%FSLAX46Y46*%
G04 Gerber Fmt 4.6, Leading zero omitted, Abs format (unit mm)*
G04 Created by KiCad (PCBNEW (5.1.4)-1) date 2019-10-08 20:05:44*
%MOMM*%
%LPD*%
G04 APERTURE LIST*
%ADD10C,0.050000*%
G04 APERTURE END LIST*
D10*
X156740000Y-66780000D02*
X153140000Y-66780000D01*
X156740000Y-83080000D02*
X156740000Y-66780000D01*
X153140000Y-83080000D02*
X156740000Y-83080000D01*
X153140000Y-66780000D02*
X153140000Y-83080000D01*
X158010000Y-106150000D02*
X154410000Y-106150000D01*
X158010000Y-122450000D02*
X158010000Y-106150000D01*
X154410000Y-122450000D02*
X158010000Y-122450000D01*
X154410000Y-106150000D02*
X154410000Y-122450000D01*
X151940000Y-98960000D02*
X151940000Y-86460000D01*
X157940000Y-98960000D02*
X151940000Y-98960000D01*
X157940000Y-86460000D02*
X157940000Y-98960000D01*
X151940000Y-86460000D02*
X157940000Y-86460000D01*
X148500000Y-133350000D02*
G75*
G03X148500000Y-133350000I-2450000J0D01*
G01*
X157390000Y-60960000D02*
G75*
G03X157390000Y-60960000I-2450000J0D01*
G01*
X118850000Y-95740000D02*
X118850000Y-89640000D01*
X122400000Y-95740000D02*
X118850000Y-95740000D01*
X122400000Y-89640000D02*
X122400000Y-95740000D01*
X118850000Y-89640000D02*
X122400000Y-89640000D01*
X128800000Y-136420000D02*
X128800000Y-132820000D01*
X120150000Y-136420000D02*
X128800000Y-136420000D01*
X120150000Y-132820000D02*
X120150000Y-136420000D01*
X128800000Y-132820000D02*
X120150000Y-132820000D01*
X124110000Y-113870000D02*
X124110000Y-79170000D01*
X150210000Y-113870000D02*
X124110000Y-113870000D01*
X150210000Y-79220000D02*
X150210000Y-113870000D01*
X124110000Y-79170000D02*
X150210000Y-79170000D01*
X118200000Y-59030000D02*
X118200000Y-137430000D01*
X118200000Y-137430000D02*
X97700000Y-137430000D01*
X97700000Y-137430000D02*
X97700000Y-59030000D01*
X97700000Y-59030000D02*
X118200000Y-59030000D01*
X150670000Y-137060000D02*
X150670000Y-124560000D01*
X156670000Y-137060000D02*
X150670000Y-137060000D01*
X156670000Y-124560000D02*
X156670000Y-137060000D01*
X150670000Y-124560000D02*
X156670000Y-124560000D01*
X130070000Y-124340000D02*
X141260000Y-124340000D01*
X130070000Y-124340000D02*
X130070000Y-137280000D01*
X141260000Y-137280000D02*
X141260000Y-124340000D01*
X141260000Y-137280000D02*
X130070000Y-137280000D01*
X121700000Y-88580000D02*
X121700000Y-81600000D01*
X119600000Y-88580000D02*
X121700000Y-88580000D01*
X119600000Y-81600000D02*
X119600000Y-88580000D01*
X121700000Y-81600000D02*
X119600000Y-81600000D01*
M02*
